<svg id="Layer_1" data-name="Layer 1" xmlns="http://www.w3.org/2000/svg" viewBox="0 0 100 100"><defs><style>.cls-1{fill:#2b0957;}.cls-2,.cls-3,.cls-4{fill:none;stroke:#fff;stroke-linecap:round;stroke-linejoin:round;stroke-width:2px;}.cls-2{stroke-dasharray:6 4 2 4;}.cls-3{stroke-dasharray:5 4 3 0;}</style></defs><title>DDPPartnerships</title><circle class="cls-1" cx="50" cy="50" r="50"/><line class="cls-2" x1="78" y1="63" x2="78" y2="43"/><line class="cls-3" x1="73" y1="39" x2="73" y2="62"/><line class="cls-3" x1="83" y1="39" x2="83" y2="61"/><line class="cls-2" x1="23" y1="63" x2="23" y2="43"/><line class="cls-3" x1="18" y1="36" x2="18" y2="61"/><line class="cls-3" x1="28" y1="37" x2="28" y2="60"/><path class="cls-4" d="M64.17,60.58h0a2.55,2.55,0,0,1-3.6.16L53.5,54.28"/><path class="cls-4" d="M60.14,60.35A2.57,2.57,0,0,1,60.3,64h0a2.53,2.53,0,0,1-3.59.17L50,58.08"/><path class="cls-4" d="M55,62.62a2.57,2.57,0,0,1,.12,3.62h0a2.54,2.54,0,0,1-3.6.11l-4.76-4.27"/><path class="cls-4" d="M49.61,64.63a2.57,2.57,0,0,1-2.84,4.19A10.59,10.59,0,0,1,45,67.44l-7.4-6.1c-1.36-1.13-2.6-2.13-4-3.25"/><path class="cls-4" d="M68.53,41.54c-3.29-.64-10.48-2.07-14.69-2.92-2.72-.55-7.23-1.83-9.45.47A44.92,44.92,0,0,0,39.3,44.6a2.67,2.67,0,0,0,.9,3.77,2.55,2.55,0,0,0,2.87-.46c2-1.41,4.41-2.95,7-3,1.9,0,3,1.18,4.23,2.38l9.61,9.28L66.34,59c.79-.5,1.38-.81,2.17-1.3"/><line class="cls-4" x1="33.53" y1="39.94" x2="40.05" y2="38.97"/><path class="cls-4" d="M26.92,31.05a30.51,30.51,0,0,1,45.26.15"/><polyline class="cls-4" points="73 28 73 32 69 32"/><path class="cls-4" d="M73.08,69a30.51,30.51,0,0,1-45.26-.15"/><polyline class="cls-4" points="27 72 27 68 31 68"/></svg>