<svg id="Layer_1" data-name="Layer 1" xmlns="http://www.w3.org/2000/svg" viewBox="0 0 100 100"><defs><style>.cls-1{fill:#df6b00;}.cls-2,.cls-3{fill:none;stroke:#fff;stroke-linecap:round;stroke-linejoin:round;stroke-width:2px;}.cls-3{stroke-dasharray:4.21 4.21 2 4.21;}</style></defs><title>DDPResponsibleData</title><circle class="cls-1" cx="50" cy="50" r="50"/><path class="cls-2" d="M61,53.76s-2.06-.08-2.51-1.63c-.78-2.67,1.83-3.9,1.66-5.56-.28-2.71-3.77-1.58-4.43-3.89-.3-1.07.28-2.23,2.25-2.23a11.12,11.12,0,0,1,4.7,1"/><path class="cls-2" d="M59.46,36.49s-3.37,1.37-4.85-.1c-1-1,.6-2.72.6-2.72"/><path class="cls-2" d="M36.67,42.83a6.41,6.41,0,0,0,2.4,2.89c1.67,1.11,2.47.46,2.47,1.85,0,3.3,1.46,1.93,1.46,3.89V55"/><path class="cls-2" d="M45.57,33.49s2.92,2.36,2.92,3.59c0,1.76-1.86,2.82-3.87,2.82-1.11,0-2.37,0-2.22,1.66s2.88,2.74,7.2,3.34c2.3.32,2.77,1.3,2.77,3s-2.41,2.54-2.65,3c-.65,1.32-1.49,1.58-2.74,2.38"/><path class="cls-2" d="M61.83,59.51a17.29,17.29,0,1,0-24.9-1.63"/><path class="cls-2" d="M48,67H59.79A3.21,3.21,0,0,0,61,66.75l10.64-4.6,5.44-2.36c3.1-1.24,4.33.62,4.33,1.86,0,2-3.09,3.72-7.57,6.41l-9.46,5.53A10.16,10.16,0,0,1,59.21,75H37.38l-3.45,2.35"/><path class="cls-2" d="M27.8,63.46l8-4.35A13.8,13.8,0,0,1,45.35,57c4,.64,5.95,2,10.27,2H58.7A3.42,3.42,0,0,1,62,61.34c1.25,4-3.18,5.48-5.26,5.48"/><path class="cls-3" d="M71.14,58.45A23.41,23.41,0,0,0,63.94,27"/><path class="cls-3" d="M29.08,59.15a23.43,23.43,0,0,1,7.1-32"/></svg>