<svg id="Layer_1" data-name="Layer 1" xmlns="http://www.w3.org/2000/svg" viewBox="0 0 100 100"><defs><style>.cls-1{fill:#e7a03c;}.cls-2,.cls-3,.cls-4,.cls-5,.cls-6,.cls-7{fill:none;stroke:#fff;stroke-linecap:round;stroke-linejoin:round;stroke-width:2px;}.cls-2{stroke-dasharray:6.2 6.2 3.1 6.2;}.cls-3{stroke-dasharray:4.39 4.39 2.93 4.39;}.cls-4{stroke-dasharray:1.76 4 4.71 4;}.cls-5{stroke-dasharray:5.19 3.8 2.42 0;}.cls-7{stroke-dasharray:1.13 3.84 1.13 3.84;}</style></defs><title>DDPSecretariat</title><circle class="cls-1" cx="50" cy="50" r="50"/><line class="cls-2" x1="40" y1="59" x2="40" y2="41"/><line class="cls-3" x1="33" y1="59" x2="33" y2="42"/><line class="cls-4" x1="54" y1="42" x2="54" y2="61"/><line class="cls-3" x1="47" y1="59" x2="47" y2="41"/><line class="cls-4" x1="68" y1="43" x2="68" y2="59"/><line class="cls-5" x1="61" y1="58" x2="61" y2="45"/><polygon class="cls-6" points="74.89 37 25.11 37 50 20 74.89 37"/><path class="cls-6" d="M28,69V65.68A1.8,1.8,0,0,1,29.89,64H70.12A1.78,1.78,0,0,1,72,65.67V69"/><rect class="cls-6" x="25" y="69" width="50" height="6"/><line class="cls-7" x1="45" y1="31" x2="59" y2="31"/></svg>