<?xml version="1.0" encoding="UTF-8" standalone="yes"?>
<!-- Created with sK1/UniConvertor (http://sk1project.org/) -->
<svg xmlns="http://www.w3.org/2000/svg" xmlns:xlink="http://www.w3.org/1999/xlink"
  width="804.8pt" height="256.8pt" viewBox="0 0 804.8 256.8"
  fill-rule="evenodd">
<g>
<path style="stroke:none; fill:#ffffff" d="M 0 0L 0 160L 0.8 160C 1.16518 142.307 11.0582 122.863 23.2118 110.4C 34.0836 99.2512 47.2142 90.8136 62.4 86.904C 107.63 75.2588 155.37 99.7352 168.458 145.6C 182.109 193.438 150.068 254.884 96 256L 96 256.8L 261.6 256.8L 261.6 256C 198.948 255.958 165.643 183.656 189.847 131.2C 204.616 99.1936 237.235 83.0368 271.2 83.2008C 281.569 83.2504 292.142 86.2112 301.6 90.22C 369.966 119.194 369.765 225.137 298.4 250.646C 289.532 253.816 280.666 255.994 271.2 256L 271.2 256.8L 804.8 256.8L 804.8 99.2L 804 99.2C 800.384 109.828 784.366 111.017 782.592 98.4C 780.652 84.6048 798.462 82.956 804 93.6L 804.8 93.6L 804.8 0L 551.2 0C 551.2 6.37779 552.897 15.6032 550.606 21.6C 548.81 26.3034 543.474 30.1267 540 33.6L 516 57.6L 457.6 116C 447.634 125.966 435.317 135.678 427.2 147.2L 426.4 147.2C 424.293 144.211 417.791 140.307 417.305 136.769C 416.838 133.371 422.694 129.306 424.8 127.2L 450.4 101.6C 473.209 78.791 496.149 56.1027 518.431 32.8C 528.744 22.0154 541.806 12.2011 550.4 0L 519.2 0C 519.2 6.13626 521.042 15.7598 518.718 21.4641C 515.261 29.9473 502.469 39.1309 496 45.6L 442.4 99.2L 419.2 122.4C 417.138 124.462 413.623 129.555 410.4 129.555C 406.633 129.555 402.195 122.91 399.2 120.8L 399.2 120C 409.257 112.916 417.703 102.297 426.4 93.6C 442.813 77.1871 459.457 60.9773 475.271 44C 488.953 29.3129 506.844 16.405 518.4 0L 0 0z"/>
<path style="stroke:none; fill:#b8b8c5" d="M 518.4 0C 517.574 7.50995 518.4 15.6047 518.4 23.2L 519.2 23.2C 519.2 16.3594 521.048 6.31061 518.4 0z"/>
<path style="stroke:none; fill:#a3a7b7" d="M 550.4 0C 549.602 7.25226 550.4 15.0647 550.4 22.4L 551.2 22.4C 551.2 15.7698 552.968 6.11893 550.4 0z"/>
<path style="stroke:none; fill:#9192a9" d="M 410.4 131.2L 411.2 131.2C 437.193 105.207 463.823 79.6897 488.871 52.8C 495.276 45.9244 502.156 39.4442 508.8 32.8C 511.803 29.7964 516.408 26.4926 517.918 22.4C 520.046 16.6249 518.4 7.72865 518.4 1.59999C 507.713 6.58369 499.382 19.7168 491.197 28L 432 87.2L 411.2 108C 408.16 111.04 403.269 114.474 401.402 118.4C 399.334 122.746 407.718 128.518 410.4 131.2M 426.4 147.2L 427.2 147.2L 514.4 60L 538.4 35.2C 542.038 31.5623 548.097 27.3369 549.918 22.4C 552.046 16.6249 550.4 7.72867 550.4 1.59999C 538.522 7.13945 527.694 23.5062 518.4 32.8L 444.8 106.4L 424 127.2C 421.906 129.294 416.966 132.719 416.966 136C 416.966 139.915 423.838 144.638 426.4 147.2z"/>
<path style="stroke:none; fill:#bdbdcc" d="M 537.6 12.8L 538.4 13.6L 537.6 12.8z"/>
<path style="stroke:none; fill:#c2c3cf" d="M 536.8 13.6L 537.6 14.4L 536.8 13.6M 536 14.4L 536.8 15.2L 536 14.4M 535.2 15.2L 536 16L 535.2 15.2M 534.4 16L 535.2 16.8L 534.4 16M 533.6 16.8L 534.4 17.6L 533.6 16.8M 532.8 17.6L 533.6 18.4L 532.8 17.6M 532 18.4L 532.8 19.2L 532 18.4z"/>
<path style="stroke:none; fill:#c5c5d1" d="M 531.2 19.2L 532 20L 531.2 19.2M 530.4 20L 531.2 20.8L 530.4 20M 529.6 20.8L 530.4 21.6L 529.6 20.8M 528.8 21.6L 529.6 22.4L 528.8 21.6M 528 22.4L 528.8 23.2L 528 22.4z"/>
<path style="stroke:none; fill:#bdbdcc" d="M 495.2 23.2L 496 24L 495.2 23.2z"/>
<path style="stroke:none; fill:#c5c5d1" d="M 527.2 23.2L 528 24L 527.2 23.2z"/>
<path style="stroke:none; fill:#d2d2db" d="M 549.6 23.2L 550.4 24L 549.6 23.2z"/>
<path style="stroke:none; fill:#c2c3cf" d="M 494.4 24L 495.2 24.8L 494.4 24z"/>
<path style="stroke:none; fill:#c5c5d1" d="M 526.4 24L 527.2 24.8L 526.4 24z"/>
<path style="stroke:none; fill:#d2d2db" d="M 548.8 24L 549.6 24.8L 548.8 24z"/>
<path style="stroke:none; fill:#c2c3cf" d="M 493.6 24.8L 494.4 25.6L 493.6 24.8z"/>
<path style="stroke:none; fill:#cccdd5" d="M 525.6 24.8L 526.4 25.6L 525.6 24.8z"/>
<path style="stroke:none; fill:#d2d2db" d="M 548 24.8L 548.8 25.6L 548 24.8z"/>
<path style="stroke:none; fill:#c2c3cf" d="M 492.8 25.6L 493.6 26.4L 492.8 25.6z"/>
<path style="stroke:none; fill:#cccdd5" d="M 524.8 25.6L 525.6 26.4L 524.8 25.6z"/>
<path style="stroke:none; fill:#d2d2db" d="M 547.2 25.6L 548 26.4L 547.2 25.6z"/>
<path style="stroke:none; fill:#c2c3cf" d="M 492 26.4L 492.8 27.2L 492 26.4z"/>
<path style="stroke:none; fill:#cccdd5" d="M 524 26.4L 524.8 27.2L 524 26.4M 546.4 26.4L 547.2 27.2L 546.4 26.4z"/>
<path style="stroke:none; fill:#c2c3cf" d="M 491.2 27.2L 492 28L 491.2 27.2z"/>
<path style="stroke:none; fill:#cccdd5" d="M 523.2 27.2L 524 28L 523.2 27.2M 545.6 27.2L 546.4 28L 545.6 27.2z"/>
<path style="stroke:none; fill:#c2c3cf" d="M 490.4 28L 491.2 28.8L 490.4 28z"/>
<path style="stroke:none; fill:#cccdd5" d="M 522.4 28L 523.2 28.8L 522.4 28M 544.8 28L 545.6 28.8L 544.8 28z"/>
<path style="stroke:none; fill:#c2c3cf" d="M 489.6 28.8L 490.4 29.6L 489.6 28.8z"/>
<path style="stroke:none; fill:#cccdd5" d="M 521.6 28.8L 522.4 29.6L 521.6 28.8M 544 28.8L 544.8 29.6L 544 28.8z"/>
<path style="stroke:none; fill:#c5c5d1" d="M 488.8 29.6L 489.6 30.4L 488.8 29.6z"/>
<path style="stroke:none; fill:#cccdd5" d="M 520.8 29.6L 521.6 30.4L 520.8 29.6M 543.2 29.6L 544 30.4L 543.2 29.6z"/>
<path style="stroke:none; fill:#c5c5d1" d="M 488 30.4L 488.8 31.2L 488 30.4z"/>
<path style="stroke:none; fill:#cccdd5" d="M 520 30.4L 520.8 31.2L 520 30.4M 542.4 30.4L 543.2 31.2L 542.4 30.4z"/>
<path style="stroke:none; fill:#c5c5d1" d="M 487.2 31.2L 488 32L 487.2 31.2z"/>
<path style="stroke:none; fill:#cccdd5" d="M 519.2 31.2L 520 32L 519.2 31.2M 541.6 31.2L 542.4 32L 541.6 31.2z"/>
<path style="stroke:none; fill:#c5c5d1" d="M 486.4 32L 487.2 32.8L 486.4 32z"/>
<path style="stroke:none; fill:#d2d2db" d="M 508.8 32L 509.6 32.8L 508.8 32M 518.4 32L 519.2 32.8L 518.4 32z"/>
<path style="stroke:none; fill:#cccdd5" d="M 540.8 32L 541.6 32.8L 540.8 32z"/>
<path style="stroke:none; fill:#c5c5d1" d="M 485.6 32.8L 486.4 33.6L 485.6 32.8z"/>
<path style="stroke:none; fill:#d2d2db" d="M 508 32.8L 508.8 33.6L 508 32.8M 517.6 32.8L 518.4 33.6L 517.6 32.8z"/>
<path style="stroke:none; fill:#c5c5d1" d="M 540 32.8L 540.8 33.6L 540 32.8M 484.8 33.6L 485.6 34.4L 484.8 33.6z"/>
<path style="stroke:none; fill:#d2d2db" d="M 507.2 33.6L 508 34.4L 507.2 33.6M 516.8 33.6L 517.6 34.4L 516.8 33.6z"/>
<path style="stroke:none; fill:#c5c5d1" d="M 539.2 33.6L 540 34.4L 539.2 33.6M 484 34.4L 484.8 35.2L 484 34.4z"/>
<path style="stroke:none; fill:#d2d2db" d="M 506.4 34.4L 507.2 35.2L 506.4 34.4M 516 34.4L 516.8 35.2L 516 34.4z"/>
<path style="stroke:none; fill:#c5c5d1" d="M 538.4 34.4L 539.2 35.2L 538.4 34.4z"/>
<path style="stroke:none; fill:#cccdd5" d="M 483.2 35.2L 484 36L 483.2 35.2z"/>
<path style="stroke:none; fill:#d2d2db" d="M 505.6 35.2L 506.4 36L 505.6 35.2M 515.2 35.2L 516 36L 515.2 35.2z"/>
<path style="stroke:none; fill:#c5c5d1" d="M 537.6 35.2L 538.4 36L 537.6 35.2z"/>
<path style="stroke:none; fill:#cccdd5" d="M 482.4 36L 483.2 36.8L 482.4 36M 504.8 36L 505.6 36.8L 504.8 36z"/>
<path style="stroke:none; fill:#c5c5d1" d="M 536.8 36L 537.6 36.8L 536.8 36z"/>
<path style="stroke:none; fill:#cccdd5" d="M 481.6 36.8L 482.4 37.6L 481.6 36.8M 504 36.8L 504.8 37.6L 504 36.8z"/>
<path style="stroke:none; fill:#c5c5d1" d="M 536 36.8L 536.8 37.6L 536 36.8z"/>
<path style="stroke:none; fill:#cccdd5" d="M 480.8 37.6L 481.6 38.4L 480.8 37.6M 503.2 37.6L 504 38.4L 503.2 37.6z"/>
<path style="stroke:none; fill:#c5c5d1" d="M 535.2 37.6L 536 38.4L 535.2 37.6z"/>
<path style="stroke:none; fill:#cccdd5" d="M 480 38.4L 480.8 39.2L 480 38.4M 502.4 38.4L 503.2 39.2L 502.4 38.4z"/>
<path style="stroke:none; fill:#c2c3cf" d="M 534.4 38.4L 535.2 39.2L 534.4 38.4z"/>
<path style="stroke:none; fill:#cccdd5" d="M 479.2 39.2L 480 40L 479.2 39.2M 501.6 39.2L 502.4 40L 501.6 39.2z"/>
<path style="stroke:none; fill:#c2c3cf" d="M 533.6 39.2L 534.4 40L 533.6 39.2z"/>
<path style="stroke:none; fill:#cccdd5" d="M 478.4 40L 479.2 40.8L 478.4 40M 500.8 40L 501.6 40.8L 500.8 40z"/>
<path style="stroke:none; fill:#c2c3cf" d="M 532.8 40L 533.6 40.8L 532.8 40z"/>
<path style="stroke:none; fill:#cccdd5" d="M 477.6 40.8L 478.4 41.6L 477.6 40.8M 500 40.8L 500.8 41.6L 500 40.8z"/>
<path style="stroke:none; fill:#c2c3cf" d="M 532 40.8L 532.8 41.6L 532 40.8z"/>
<path style="stroke:none; fill:#cccdd5" d="M 476.8 41.6L 477.6 42.4L 476.8 41.6M 499.2 41.6L 500 42.4L 499.2 41.6z"/>
<path style="stroke:none; fill:#c2c3cf" d="M 531.2 41.6L 532 42.4L 531.2 41.6z"/>
<path style="stroke:none; fill:#d2d2db" d="M 476 42.4L 476.8 43.2L 476 42.4z"/>
<path style="stroke:none; fill:#cccdd5" d="M 498.4 42.4L 499.2 43.2L 498.4 42.4z"/>
<path style="stroke:none; fill:#c2c3cf" d="M 530.4 42.4L 531.2 43.2L 530.4 42.4z"/>
<path style="stroke:none; fill:#d2d2db" d="M 475.2 43.2L 476 44L 475.2 43.2z"/>
<path style="stroke:none; fill:#c5c5d1" d="M 497.6 43.2L 498.4 44L 497.6 43.2z"/>
<path style="stroke:none; fill:#c2c3cf" d="M 529.6 43.2L 530.4 44L 529.6 43.2z"/>
<path style="stroke:none; fill:#d2d2db" d="M 474.4 44L 475.2 44.8L 474.4 44z"/>
<path style="stroke:none; fill:#c5c5d1" d="M 496.8 44L 497.6 44.8L 496.8 44z"/>
<path style="stroke:none; fill:#bdbdcc" d="M 528.8 44L 529.6 44.8L 528.8 44z"/>
<path style="stroke:none; fill:#d2d2db" d="M 473.6 44.8L 474.4 45.6L 473.6 44.8z"/>
<path style="stroke:none; fill:#c5c5d1" d="M 496 44.8L 496.8 45.6L 496 44.8z"/>
<path style="stroke:none; fill:#bdbdcc" d="M 528 44.8L 528.8 45.6L 528 44.8z"/>
<path style="stroke:none; fill:#d2d2db" d="M 472.8 45.6L 473.6 46.4L 472.8 45.6z"/>
<path style="stroke:none; fill:#c5c5d1" d="M 495.2 45.6L 496 46.4L 495.2 45.6M 494.4 46.4L 495.2 47.2L 494.4 46.4M 493.6 47.2L 494.4 48L 493.6 47.2M 492.8 48L 493.6 48.8L 492.8 48z"/>
<path style="stroke:none; fill:#c2c3cf" d="M 492 48.8L 492.8 49.6L 492 48.8M 491.2 49.6L 492 50.4L 491.2 49.6M 490.4 50.4L 491.2 51.2L 490.4 50.4M 489.6 51.2L 490.4 52L 489.6 51.2M 488.8 52L 489.6 52.8L 488.8 52M 488 52.8L 488.8 53.6L 488 52.8M 487.2 53.6L 488 54.4L 487.2 53.6z"/>
<path style="stroke:none; fill:#bdbdcc" d="M 486.4 54.4L 487.2 55.2L 486.4 54.4z"/>
<path style="stroke:none; fill:#9192a9" d="M 518.4 64.8L 432 152L 432 152.8C 435.7 156.5 439.213 160.968 444 163.2C 449.638 155.197 457.882 148.518 464.8 141.6L 503.2 103.2C 513.627 92.7728 525.241 81.1016 518.4 64.8z"/>
<path style="stroke:none; fill:#d2d2db" d="M 256.8 83.2L 256.8 84L 260 84C 258.795 83.4536 258.148 83.3392 256.8 83.2z"/>
<path style="stroke:none; fill:#a8aab8" d="M 260 83.2L 260 84L 271.2 84C 267.826 82.5848 263.633 83.2 260 83.2z"/>
<path style="stroke:none; fill:#c5c5d1" d="M 271.2 83.2L 271.2 84L 275.2 84C 273.785 83.3768 272.771 83.2704 271.2 83.2z"/>
<path style="stroke:none; fill:#dfe0e7" d="M 275.2 83.2L 275.2 84L 277.6 84C 276.602 83.452 276.362 83.4008 275.2 83.2M 74.1334 84.2664C 73.7778 84.6224 74.6222 84.5776 74.6666 84.5336C 75.0222 84.1776 74.1778 84.2224 74.1334 84.2664z"/>
<path style="stroke:none; fill:#c5c5d1" d="M 75.2 84L 75.2 84.8L 77.6 84.8C 76.6014 84.252 76.3612 84.2008 75.2 84z"/>
<path style="stroke:none; fill:#9192a9" d="M 77.6 84.34C 62.6001 86.3816 48.5758 89.9384 36 98.7504C -6.4779 128.517 -11.9125 196.064 24.8118 232.788C 44.1057 252.082 71.8876 259.07 98.4 255.771C 110.199 254.303 121.772 250.535 132 244.438C 196.904 205.746 177.384 98.6944 103.2 85.6672C 94.9752 84.2232 85.9192 83.208 77.6 84.34z"/>
<path style="stroke:none; fill:#c2c3cf" d="M 92 84L 92 84.8L 96 84.8C 94.5848 84.1768 93.5712 84.0704 92 84z"/>
<path style="stroke:none; fill:#dadae0" d="M 251.734 84.2664C 251.378 84.6224 252.222 84.5776 252.266 84.5336C 252.622 84.1776 251.778 84.2224 251.734 84.2664z"/>
<path style="stroke:none; fill:#b8b8c5" d="M 252.8 84L 252.8 84.8L 255.2 84.8C 254.202 84.252 253.962 84.2008 252.8 84z"/>
<path style="stroke:none; fill:#9192a9" d="M 255.2 84.3392C 242.478 86.0304 230.987 89.5848 220 96.3688C 180.158 120.968 170.078 179.795 195.092 218.4C 212.282 244.929 244.565 259.531 276 255.772C 289.967 254.101 303.291 250.313 315.2 242.642C 357.806 215.196 365.159 150.034 332.56 112C 313.727 90.028 283.562 80.5696 255.2 84.3392z"/>
<path style="stroke:none; fill:#b8b8c5" d="M 279.2 84L 279.2 84.8L 281.6 84.8C 280.602 84.252 280.362 84.2008 279.2 84z"/>
<path style="stroke:none; fill:#d2d2db" d="M 69.3334 85.0664C 68.9778 85.4224 69.8222 85.3776 69.8666 85.3336C 70.2222 84.9776 69.3778 85.0224 69.3334 85.0664z"/>
<path style="stroke:none; fill:#afb3c2" d="M 70.9334 85.0664C 70.5778 85.4224 71.4222 85.3776 71.4666 85.3336C 71.8222 84.9776 70.9778 85.0224 70.9334 85.0664z"/>
<path style="stroke:none; fill:#c5c5d1" d="M 100.534 85.0664C 100.178 85.4224 101.022 85.3776 101.066 85.3336C 101.422 84.9776 100.578 85.0224 100.534 85.0664z"/>
<path style="stroke:none; fill:#cccdd5" d="M 247.734 85.0664C 247.378 85.4224 248.222 85.3776 248.266 85.3336C 248.622 84.9776 247.778 85.0224 247.734 85.0664M 285.334 85.0664C 284.978 85.4224 285.822 85.3776 285.866 85.3336C 286.222 84.9776 285.378 85.0224 285.334 85.0664z"/>
<path style="stroke:none; fill:#b8b8c5" d="M 66.1334 85.8664C 65.7778 86.2224 66.6222 86.1776 66.6666 86.1336C 67.0222 85.7776 66.1778 85.8224 66.1334 85.8664z"/>
<path style="stroke:none; fill:#d2d2db" d="M 105.334 85.8664C 104.978 86.2224 105.822 86.1776 105.866 86.1336C 106.222 85.7776 105.378 85.8224 105.334 85.8664z"/>
<path style="stroke:none; fill:#c2c3cf" d="M 244.534 85.8664C 244.178 86.2224 245.022 86.1776 245.066 86.1336C 245.422 85.7776 244.578 85.8224 244.534 85.8664z"/>
<path style="stroke:none; fill:#dadae0" d="M 289.334 85.8664C 288.978 86.2224 289.822 86.1776 289.866 86.1336C 290.222 85.7776 289.378 85.8224 289.334 85.8664z"/>
<path style="stroke:none; fill:#d2d2db" d="M 709.6 85.6L 709.6 86.4L 733.6 86.4C 727.098 83.672 716.651 85.6 709.6 85.6z"/>
<path style="stroke:none; fill:#afb3c2" d="M 790.4 85.6L 790.4 86.4L 796 86.4C 794.134 85.612 792.435 85.6152 790.4 85.6z"/>
<path style="stroke:none; fill:#a8aab8" d="M 62.9334 86.6664C 62.5778 87.0224 63.4222 86.9776 63.4666 86.9336C 63.8222 86.5776 62.9778 86.6224 62.9334 86.6664z"/>
<path style="stroke:none; fill:#cccdd5" d="M 108.534 86.6664C 108.178 87.0224 109.022 86.9776 109.066 86.9336C 109.422 86.5776 108.578 86.6224 108.534 86.6664z"/>
<path style="stroke:none; fill:#e6e7eb" d="M 292.534 86.6664C 292.178 87.0224 293.022 86.9776 293.066 86.9336C 293.422 86.5776 292.578 86.6224 292.534 86.6664z"/>
<path style="stroke:none; fill:#afb3c2" d="M 528.8 86.4L 528.8 118.4L 529.6 118.4L 529.6 87.2L 551.2 87.2C 545.081 84.632 535.43 86.4 528.8 86.4z"/>
<path style="stroke:none; fill:#ececef" d="M 551.2 86.4L 551.2 130.4L 552 130.4L 552 100.8C 552 96.3048 552.951 90.5728 551.2 86.4z"/>
<path style="stroke:none; fill:#9192a9" d="M 641.6 250.4C 647.083 250.4 661.71 252.978 665.841 249.118C 668.598 246.539 669.827 241.033 671.2 237.6L 681.44 212L 708 146.4C 711.957 136.507 718.194 125.686 720 115.2C 727.098 122.517 730.444 137.738 734.24 147.2L 762.56 216L 772.461 240C 773.638 242.805 774.57 247.767 777.199 249.578C 782.092 252.948 795.717 250.4 801.6 250.4C 798.312 236.525 790.656 222.746 785.139 209.6C 773.522 181.914 761.818 154.234 750.561 126.4L 738.28 96.8C 736.886 93.5256 735.829 87.744 731.916 86.6544C 727.894 85.5344 711.79 84.572 708.86 87.6824C 705.974 90.7464 704.721 96.948 703.08 100.8L 690.061 132C 678.55 159.431 666.737 186.782 655.68 214.4C 651.1 225.842 643.431 238.173 641.6 250.4M 788.803 87.0864C 776.164 92.2752 784.904 112.058 797.599 107.082C 810.76 101.923 802.328 81.5344 788.803 87.0864z"/>
<path style="stroke:none; fill:#cccdd5" d="M 797.6 86.4L 798.4 87.2L 797.6 86.4z"/>
<path style="stroke:none; fill:#afb3c2" d="M 59.7334 87.4664C 59.3778 87.8224 60.2222 87.7776 60.2666 87.7336C 60.6222 87.3776 59.7778 87.4224 59.7334 87.4664z"/>
<path style="stroke:none; fill:#dadae0" d="M 111.734 87.4664C 111.378 87.8224 112.222 87.7776 112.266 87.7336C 112.622 87.3776 111.778 87.4224 111.734 87.4664z"/>
<path style="stroke:none; fill:#dfe0e7" d="M 294.934 87.4664C 294.578 87.8224 295.422 87.7776 295.466 87.7336C 295.822 87.3776 294.978 87.4224 294.934 87.4664z"/>
<path style="stroke:none; fill:#9192a9" d="M 364.8 87.2L 365.6 251.2L 387.2 251.2L 387.2 87.2L 364.8 87.2z"/>
<path style="stroke:none; fill:#e6e7eb" d="M 387.2 87.2L 387.2 124.8L 388 124.8C 388 114.188 391.287 96.9416 387.2 87.2z"/>
<path style="stroke:none; fill:#9192a9" d="M 529.6 87.2L 529.6 251.2L 633.6 250.4L 633.6 230.4L 551.2 230.4L 551.2 87.2L 529.6 87.2z"/>
<path style="stroke:none; fill:#c2c3cf" d="M 787.2 87.2L 788 88L 787.2 87.2z"/>
<path style="stroke:none; fill:#bdbdcc" d="M 792 87.2L 792 88L 795.2 88C 793.995 87.4536 793.348 87.3392 792 87.2z"/>
<path style="stroke:none; fill:#d2d2db" d="M 799.2 87.2L 800 88L 799.2 87.2z"/>
<path style="stroke:none; fill:#dfe0e7" d="M 297.334 88.2664C 296.978 88.6224 297.822 88.5776 297.866 88.5336C 298.222 88.1776 297.378 88.2224 297.334 88.2664z"/>
<path style="stroke:none; fill:#ffffff" d="M 789.632 88.6864C 779.081 93.1816 786.639 109.323 797.588 105.006C 808.152 100.842 800.344 84.1224 789.632 88.6864z"/>
<path style="stroke:none; fill:#c5c5d1" d="M 788 88.8L 788.8 89.6L 788 88.8z"/>
<path style="stroke:none; fill:#cccdd5" d="M 799.2 89.6L 800 90.4L 799.2 89.6M 802.4 90.4L 803.2 91.2L 802.4 90.4z"/>
<path style="stroke:none; fill:#d2d2db" d="M 785.6 91.2L 786.4 92L 785.6 91.2z"/>
<path style="stroke:none; fill:#e6e7eb" d="M 788 91.2L 788 103.2L 788.8 103.2C 788.8 99.3464 789.501 94.7768 788 91.2z"/>
<path style="stroke:none; fill:#9192a9" d="M 788.8 91.2L 788.8 103.2L 790.4 103.2L 790.4 97.6C 793.484 99.0704 795.211 102.123 798.4 103.2C 795.441 95.86 798.81 91.208 788.8 91.2z"/>
<path style="stroke:none; fill:#bdbdcc" d="M 124 92L 124.8 92.8L 124 92z"/>
<path style="stroke:none; fill:#c2c3cf" d="M 125.6 92.8L 126.4 93.6L 125.6 92.8z"/>
<path style="stroke:none; fill:#ececef" d="M 790.4 92.8L 790.4 96L 791.2 96C 791.061 94.652 790.946 94.0048 790.4 92.8z"/>
<path style="stroke:none; fill:#ffffff" d="M 791.2 92.8L 791.2 96L 795.2 96L 795.2 92.8L 791.2 92.8z"/>
<path style="stroke:none; fill:#c2c3cf" d="M 127.2 93.6L 128 94.4L 127.2 93.6z"/>
<path style="stroke:none; fill:#c5c5d1" d="M 224 93.6L 224.8 94.4L 224 93.6z"/>
<path style="stroke:none; fill:#c2c3cf" d="M 309.6 93.6L 310.4 94.4L 309.6 93.6z"/>
<path style="stroke:none; fill:#afb3c2" d="M 782.666 94.1336C 782.622 94.1776 782.578 95.0224 782.934 94.6664C 782.978 94.6224 783.022 93.7776 782.666 94.1336z"/>
<path style="stroke:none; fill:#dfe0e7" d="M 795.466 94.1336C 795.422 94.1776 795.378 95.0224 795.734 94.6664C 795.778 94.6216 795.822 93.7776 795.466 94.1336M 797.866 94.1336C 797.822 94.1776 797.778 95.0224 798.134 94.6664C 798.178 94.6224 798.222 93.7776 797.866 94.1336z"/>
<path style="stroke:none; fill:#c5c5d1" d="M 804.264 94.1336C 804.224 94.1776 804.176 95.0224 804.536 94.6664C 804.576 94.6224 804.624 93.7776 804.264 94.1336z"/>
<path style="stroke:none; fill:#cccdd5" d="M 128.8 94.4L 129.6 95.2L 128.8 94.4M 311.2 94.4L 312 95.2L 311.2 94.4z"/>
<path style="stroke:none; fill:#dfe0e7" d="M 784 94.4L 784 99.2L 784.8 99.2C 784.762 97.3976 784.699 96.0416 784 94.4z"/>
<path style="stroke:none; fill:#cccdd5" d="M 40.8 95.2L 41.6 96L 40.8 95.2z"/>
<path style="stroke:none; fill:#c2c3cf" d="M 802.4 95.2L 802.4 99.2L 803.2 99.2C 803.128 97.6288 803.024 96.6152 802.4 95.2z"/>
<path style="stroke:none; fill:#afb3c2" d="M 804 95.2L 804 99.2L 804.8 99.2C 804.728 97.6288 804.624 96.6152 804 95.2z"/>
<path style="stroke:none; fill:#c5c5d1" d="M 790.4 96L 790.4 96.8L 794.4 96.8C 792.985 96.1768 791.971 96.0704 790.4 96z"/>
<path style="stroke:none; fill:#cccdd5" d="M 132.8 96.8L 133.6 97.6L 132.8 96.8z"/>
<path style="stroke:none; fill:#d2d2db" d="M 704 97.6L 704.8 98.4L 704 97.6z"/>
<path style="stroke:none; fill:#c5c5d1" d="M 790.4 97.6L 790.4 98.4L 792.8 98.4C 791.801 97.852 791.562 97.8008 790.4 97.6M 135.2 98.4L 136 99.2L 135.2 98.4z"/>
<path style="stroke:none; fill:#e6e7eb" d="M 790.4 98.4L 790.4 103.2L 791.2 103.2C 791.162 101.398 791.099 100.042 790.4 98.4z"/>
<path style="stroke:none; fill:#c2c3cf" d="M 215.2 99.2L 216 100L 215.2 99.2M 318.4 99.2L 319.2 100L 318.4 99.2z"/>
<path style="stroke:none; fill:#dadae0" d="M 782.666 99.7336C 782.622 99.7776 782.578 100.622 782.934 100.266C 782.978 100.222 783.022 99.3776 782.666 99.7336z"/>
<path style="stroke:none; fill:#c2c3cf" d="M 796 99.2L 796.8 100L 796 99.2M 33.6 100L 34.4 100.8L 33.6 100M 794.4 100L 795.2 100.8L 794.4 100z"/>
<path style="stroke:none; fill:#cccdd5" d="M 212 101.6L 212.8 102.4L 212 101.6M 321.6 101.6L 322.4 102.4L 321.6 101.6z"/>
<path style="stroke:none; fill:#c5c5d1" d="M 783.2 101.6L 784 102.4L 783.2 101.6z"/>
<path style="stroke:none; fill:#cccdd5" d="M 30.4 102.4L 31.2 103.2L 30.4 102.4z"/>
<path style="stroke:none; fill:#c5c5d1" d="M 142.4 104L 143.2 104.8L 142.4 104z"/>
<path style="stroke:none; fill:#bdbdcc" d="M 259.2 104L 259.2 104.8L 262.4 104.8C 261.195 104.254 260.548 104.139 259.2 104z"/>
<path style="stroke:none; fill:#d2d2db" d="M 262.4 104L 262.4 104.8L 272 104.8C 269.042 103.558 265.586 104 262.4 104z"/>
<path style="stroke:none; fill:#afb3c2" d="M 272 104L 272 104.8L 274.4 104.8C 273.402 104.252 273.162 104.201 272 104z"/>
<path style="stroke:none; fill:#c5c5d1" d="M 784.8 104L 785.6 104.8L 784.8 104z"/>
<path style="stroke:none; fill:#d2d2db" d="M 76.8 104.8L 76.8 105.6L 80.8 105.6C 79.3848 104.977 78.3713 104.87 76.8 104.8z"/>
<path style="stroke:none; fill:#ffffff" d="M 80.8 105.139C 69.0383 106.702 58.4953 109.394 48.8 116.609C 16.0782 140.958 15.9546 196.103 46.4 222.16C 59.8606 233.68 78.7338 237.212 96 234.969C 162.2 226.366 164.988 120.892 100.8 106.739C 94.432 105.335 87.296 104.276 80.8 105.139z"/>
<path style="stroke:none; fill:#dfe0e7" d="M 89.6 104.8L 89.6 105.6L 92 105.6C 91.0016 105.052 90.7616 105.001 89.6 104.8z"/>
<path style="stroke:none; fill:#c2c3cf" d="M 92 104.8L 92 105.6L 94.4 105.6C 93.4016 105.052 93.1608 105.001 92 104.8z"/>
<path style="stroke:none; fill:#bdbdcc" d="M 254.934 105.066C 254.578 105.422 255.422 105.378 255.466 105.334C 255.822 104.978 254.978 105.022 254.934 105.066z"/>
<path style="stroke:none; fill:#dfe0e7" d="M 256.534 105.066C 256.178 105.422 257.022 105.378 257.066 105.334C 257.422 104.978 256.578 105.022 256.534 105.066z"/>
<path style="stroke:none; fill:#ffffff" d="M 257.6 105.142C 191.345 114.63 187.957 216.189 251.2 233.261C 258.402 235.205 266.997 235.918 274.4 234.858C 284.686 233.385 294.599 230.486 303.2 224.448C 332.799 203.669 337.442 155.107 315.586 127.2C 301.826 109.629 279.473 102.01 257.6 105.142z"/>
<path style="stroke:none; fill:#e6e7eb" d="M 276 104.8L 276 105.6L 278.4 105.6C 277.402 105.052 277.162 105.001 276 104.8z"/>
<path style="stroke:none; fill:#a8aab8" d="M 278.934 105.066C 278.578 105.422 279.422 105.378 279.466 105.334C 279.822 104.978 278.978 105.022 278.934 105.066z"/>
<path style="stroke:none; fill:#cccdd5" d="M 785.6 104.8L 786.4 105.6L 785.6 104.8z"/>
<path style="stroke:none; fill:#c2c3cf" d="M 788.8 104.8L 789.6 105.6L 788.8 104.8M 72 105.6L 72 106.4L 74.4 106.4C 73.4014 105.852 73.1612 105.801 72 105.6z"/>
<path style="stroke:none; fill:#d2d2db" d="M 96.8 105.6L 96.8 106.4L 99.2 106.4C 98.2016 105.852 97.9616 105.801 96.8 105.6M 251.734 105.866C 251.378 106.222 252.222 106.178 252.266 106.134C 252.622 105.778 251.778 105.822 251.734 105.866z"/>
<path style="stroke:none; fill:#b8b8c5" d="M 282.134 105.866C 281.778 106.222 282.622 106.178 282.666 106.134C 283.022 105.778 282.178 105.822 282.134 105.866z"/>
<path style="stroke:none; fill:#cccdd5" d="M 790.934 105.866C 790.578 106.222 791.422 106.178 791.466 106.134C 791.822 105.778 790.978 105.822 790.934 105.866z"/>
<path style="stroke:none; fill:#e6e7eb" d="M 792 105.6L 792 106.4L 795.2 106.4C 793.995 105.854 793.348 105.739 792 105.6z"/>
<path style="stroke:none; fill:#d2d2db" d="M 69.3334 106.666C 68.9778 107.022 69.8222 106.978 69.8666 106.934C 70.2222 106.578 69.3778 106.622 69.3334 106.666z"/>
<path style="stroke:none; fill:#cccdd5" d="M 101.334 106.666C 100.978 107.022 101.822 106.978 101.866 106.934C 102.222 106.578 101.378 106.622 101.334 106.666z"/>
<path style="stroke:none; fill:#afb3c2" d="M 285.334 106.666C 284.978 107.022 285.822 106.978 285.866 106.934C 286.222 106.578 285.378 106.622 285.334 106.666z"/>
<path style="stroke:none; fill:#e6e7eb" d="M 66.9334 107.466C 66.5778 107.822 67.4222 107.778 67.4666 107.734C 67.8222 107.378 66.9778 107.422 66.9334 107.466z"/>
<path style="stroke:none; fill:#bdbdcc" d="M 104.534 107.466C 104.178 107.822 105.022 107.778 105.066 107.734C 105.422 107.378 104.578 107.422 104.534 107.466z"/>
<path style="stroke:none; fill:#d2d2db" d="M 700 107.2L 700.8 108L 700 107.2z"/>
<path style="stroke:none; fill:#afb3c2" d="M 790.134 107.466C 789.778 107.822 790.622 107.778 790.666 107.734C 791.022 107.378 790.178 107.422 790.134 107.466z"/>
<path style="stroke:none; fill:#dfe0e7" d="M 796.534 107.466C 796.178 107.822 797.022 107.778 797.066 107.734C 797.422 107.378 796.578 107.422 796.534 107.466z"/>
<path style="stroke:none; fill:#c5c5d1" d="M 240 109.6L 240.8 110.4L 240 109.6M 293.6 109.6L 294.4 110.4L 293.6 109.6z"/>
<path style="stroke:none; fill:#cccdd5" d="M 238.4 110.4L 239.2 111.2L 238.4 110.4M 295.2 110.4L 296 111.2L 295.2 110.4z"/>
<path style="stroke:none; fill:#c5c5d1" d="M 114.4 111.2L 115.2 112L 114.4 111.2z"/>
<path style="stroke:none; fill:#c2c3cf" d="M 236.8 111.2L 237.6 112L 236.8 111.2z"/>
<path style="stroke:none; fill:#c5c5d1" d="M 296.8 111.2L 297.6 112L 296.8 111.2z"/>
<path style="stroke:none; fill:#cccdd5" d="M 55.2 112L 56 112.8L 55.2 112z"/>
<path style="stroke:none; fill:#c5c5d1" d="M 150.4 112L 151.2 112.8L 150.4 112z"/>
<path style="stroke:none; fill:#cccdd5" d="M 19.2 113.6L 20 114.4L 19.2 113.6M 200 113.6L 200.8 114.4L 200 113.6z"/>
<path style="stroke:none; fill:#c5c5d1" d="M 232.8 113.6L 233.6 114.4L 232.8 113.6M 300.8 113.6L 301.6 114.4L 300.8 113.6z"/>
<path style="stroke:none; fill:#cccdd5" d="M 333.6 113.6L 334.4 114.4L 333.6 113.6M 51.2 114.4L 52 115.2L 51.2 114.4z"/>
<path style="stroke:none; fill:#dadae0" d="M 720.534 115.466C 720.178 115.822 721.022 115.778 721.066 115.734C 721.422 115.378 720.578 115.422 720.534 115.466z"/>
<path style="stroke:none; fill:#c2c3cf" d="M 123.2 116.8L 124 117.6L 123.2 116.8z"/>
<path style="stroke:none; fill:#c5c5d1" d="M 197.6 116.8L 198.4 117.6L 197.6 116.8M 336 116.8L 336.8 117.6L 336 116.8z"/>
<path style="stroke:none; fill:#cccdd5" d="M 696 116.8L 696.8 117.6L 696 116.8z"/>
<path style="stroke:none; fill:#bdbdcc" d="M 528.8 118.4L 528.8 148L 529.6 148C 529.6 139.481 532.089 126.238 528.8 118.4z"/>
<path style="stroke:none; fill:#c5c5d1" d="M 156 119.2L 156.8 120L 156 119.2M 225.6 119.2L 226.4 120L 225.6 119.2M 308 119.2L 308.8 120L 308 119.2z"/>
<path style="stroke:none; fill:#d2d2db" d="M 14.4 120L 15.2 120.8L 14.4 120z"/>
<path style="stroke:none; fill:#c2c3cf" d="M 44 120L 44.8 120.8L 44 120z"/>
<path style="stroke:none; fill:#cccdd5" d="M 224.8 120L 225.6 120.8L 224.8 120M 308.8 120L 309.6 120.8L 308.8 120z"/>
<path style="stroke:none; fill:#d2d2db" d="M 399.2 120L 400 120.8L 399.2 120z"/>
<path style="stroke:none; fill:#c5c5d1" d="M 43.2 120.8L 44 121.6L 43.2 120.8z"/>
<path style="stroke:none; fill:#c2c3cf" d="M 400 120.8L 400.8 121.6L 400 120.8z"/>
<path style="stroke:none; fill:#cccdd5" d="M 42.4 121.6L 43.2 122.4L 42.4 121.6M 157.6 121.6L 158.4 122.4L 157.6 121.6z"/>
<path style="stroke:none; fill:#c2c3cf" d="M 194.4 121.6L 195.2 122.4L 194.4 121.6z"/>
<path style="stroke:none; fill:#d2d2db" d="M 310.4 121.6L 311.2 122.4L 310.4 121.6z"/>
<path style="stroke:none; fill:#c2c3cf" d="M 339.2 121.6L 340 122.4L 339.2 121.6M 400.8 121.6L 401.6 122.4L 400.8 121.6z"/>
<path style="stroke:none; fill:#c5c5d1" d="M 41.6 122.4L 42.4 123.2L 41.6 122.4z"/>
<path style="stroke:none; fill:#cccdd5" d="M 222.4 122.4L 223.2 123.2L 222.4 122.4M 311.2 122.4L 312 123.2L 311.2 122.4z"/>
<path style="stroke:none; fill:#c2c3cf" d="M 401.6 122.4L 402.4 123.2L 401.6 122.4M 40.8 123.2L 41.6 124L 40.8 123.2z"/>
<path style="stroke:none; fill:#c5c5d1" d="M 221.6 123.2L 222.4 124L 221.6 123.2M 312 123.2L 312.8 124L 312 123.2M 402.4 123.2L 403.2 124L 402.4 123.2M 403.2 124L 404 124.8L 403.2 124z"/>
<path style="stroke:none; fill:#dadae0" d="M 387.2 124.8L 387.2 168.8L 388 168.8L 388 139.2C 388 134.705 388.951 128.973 387.2 124.8z"/>
<path style="stroke:none; fill:#f3f3f5" d="M 394.4 124.8L 394.4 139.2L 395.2 139.2C 395.2 134.374 394.876 129.521 396 124.8L 394.4 124.8z"/>
<path style="stroke:none; fill:#c5c5d1" d="M 404 124.8L 404.8 125.6L 404 124.8z"/>
<path style="stroke:none; fill:#cccdd5" d="M 160 125.6L 160.8 126.4L 160 125.6z"/>
<path style="stroke:none; fill:#c5c5d1" d="M 192 125.6L 192.8 126.4L 192 125.6M 341.6 125.6L 342.4 126.4L 341.6 125.6z"/>
<path style="stroke:none; fill:#9192a9" d="M 395.2 125.6C 395.2 131.729 393.554 140.625 395.682 146.4C 398.594 154.298 410.107 162.107 416 168L 466.4 218.4C 476.355 228.355 486.474 242.046 498.4 249.574C 504.212 253.243 514.926 251.2 521.6 251.2C 516.169 243.49 508.263 237.063 501.6 230.4L 464 192.8C 442.05 170.85 420.602 143.494 395.2 125.6z"/>
<path style="stroke:none; fill:#c5c5d1" d="M 396 125.6L 396.8 126.4L 396 125.6M 404.8 125.6L 405.6 126.4L 404.8 125.6M 396.8 126.4L 397.6 127.2L 396.8 126.4M 405.6 126.4L 406.4 127.2L 405.6 126.4z"/>
<path style="stroke:none; fill:#bdbdcc" d="M 133.6 127.2L 134.4 128L 133.6 127.2z"/>
<path style="stroke:none; fill:#c2c3cf" d="M 397.6 127.2L 398.4 128L 397.6 127.2z"/>
<path style="stroke:none; fill:#c5c5d1" d="M 406.4 127.2L 407.2 128L 406.4 127.2z"/>
<path style="stroke:none; fill:#bdbdcc" d="M 456 127.2L 456.8 128L 456 127.2z"/>
<path style="stroke:none; fill:#c5c5d1" d="M 36.8 128L 37.6 128.8L 36.8 128z"/>
<path style="stroke:none; fill:#c2c3cf" d="M 398.4 128L 399.2 128.8L 398.4 128z"/>
<path style="stroke:none; fill:#c5c5d1" d="M 407.2 128L 408 128.8L 407.2 128z"/>
<path style="stroke:none; fill:#c2c3cf" d="M 455.2 128L 456 128.8L 455.2 128M 399.2 128.8L 400 129.6L 399.2 128.8z"/>
<path style="stroke:none; fill:#cccdd5" d="M 408 128.8L 408.8 129.6L 408 128.8z"/>
<path style="stroke:none; fill:#c2c3cf" d="M 454.4 128.8L 455.2 129.6L 454.4 128.8M 400 129.6L 400.8 130.4L 400 129.6z"/>
<path style="stroke:none; fill:#cccdd5" d="M 408.8 129.6L 409.6 130.4L 408.8 129.6z"/>
<path style="stroke:none; fill:#c2c3cf" d="M 453.6 129.6L 454.4 130.4L 453.6 129.6z"/>
<path style="stroke:none; fill:#c5c5d1" d="M 216 130.4L 216.8 131.2L 216 130.4M 317.6 130.4L 318.4 131.2L 317.6 130.4z"/>
<path style="stroke:none; fill:#c2c3cf" d="M 400.8 130.4L 401.6 131.2L 400.8 130.4z"/>
<path style="stroke:none; fill:#cccdd5" d="M 409.6 130.4L 410.4 131.2L 409.6 130.4z"/>
<path style="stroke:none; fill:#c2c3cf" d="M 452.8 130.4L 453.6 131.2L 452.8 130.4z"/>
<path style="stroke:none; fill:#dadae0" d="M 551.2 130.4L 551.2 174.4L 552 174.4L 552 144.8C 552 140.305 552.951 134.573 551.2 130.4z"/>
<path style="stroke:none; fill:#c2c3cf" d="M 401.6 131.2L 402.4 132L 401.6 131.2M 452 131.2L 452.8 132L 452 131.2M 402.4 132L 403.2 132.8L 402.4 132M 451.2 132L 452 132.8L 451.2 132z"/>
<path style="stroke:none; fill:#d2d2db" d="M 33.6 132.8L 34.4 133.6L 33.6 132.8z"/>
<path style="stroke:none; fill:#bdbdcc" d="M 403.2 132.8L 404 133.6L 403.2 132.8z"/>
<path style="stroke:none; fill:#c2c3cf" d="M 450.4 132.8L 451.2 133.6L 450.4 132.8z"/>
<path style="stroke:none; fill:#c5c5d1" d="M 449.6 133.6L 450.4 134.4L 449.6 133.6M 138.4 134.4L 139.2 135.2L 138.4 134.4z"/>
<path style="stroke:none; fill:#cccdd5" d="M 213.6 134.4L 214.4 135.2L 213.6 134.4M 320 134.4L 320.8 135.2L 320 134.4z"/>
<path style="stroke:none; fill:#c5c5d1" d="M 448.8 134.4L 449.6 135.2L 448.8 134.4M 448 135.2L 448.8 136L 448 135.2M 447.2 136L 448 136.8L 447.2 136z"/>
<path style="stroke:none; fill:#d2d2db" d="M 416 136.8L 416.8 137.6L 416 136.8z"/>
<path style="stroke:none; fill:#c5c5d1" d="M 446.4 136.8L 447.2 137.6L 446.4 136.8z"/>
<path style="stroke:none; fill:#a3a7b7" d="M 364.8 137.6L 364.8 181.6L 365.6 181.6L 365.6 152C 365.6 147.505 366.551 141.774 364.8 137.6z"/>
<path style="stroke:none; fill:#d2d2db" d="M 416.8 137.6L 417.6 138.4L 416.8 137.6z"/>
<path style="stroke:none; fill:#c5c5d1" d="M 445.6 137.6L 446.4 138.4L 445.6 137.6z"/>
<path style="stroke:none; fill:#d2d2db" d="M 417.6 138.4L 418.4 139.2L 417.6 138.4z"/>
<path style="stroke:none; fill:#c5c5d1" d="M 444.8 138.4L 445.6 139.2L 444.8 138.4z"/>
<path style="stroke:none; fill:#a8aab8" d="M 5.06666 139.734C 5.0222 139.778 4.97779 140.622 5.33334 140.266C 5.37776 140.222 5.42223 139.378 5.06666 139.734z"/>
<path style="stroke:none; fill:#d2d2db" d="M 418.4 139.2L 419.2 140L 418.4 139.2z"/>
<path style="stroke:none; fill:#cccdd5" d="M 444 139.2L 444.8 140L 444 139.2z"/>
<path style="stroke:none; fill:#b8b8c5" d="M 185.866 140.534C 185.822 140.578 185.778 141.422 186.134 141.066C 186.178 141.022 186.222 140.178 185.866 140.534M 348.266 140.534C 348.222 140.578 348.178 141.422 348.534 141.066C 348.578 141.022 348.622 140.178 348.266 140.534z"/>
<path style="stroke:none; fill:#cccdd5" d="M 443.2 140L 444 140.8L 443.2 140z"/>
<path style="stroke:none; fill:#d2d2db" d="M 465.6 140L 466.4 140.8L 465.6 140z"/>
<path style="stroke:none; fill:#cccdd5" d="M 442.4 140.8L 443.2 141.6L 442.4 140.8z"/>
<path style="stroke:none; fill:#d2d2db" d="M 464.8 140.8L 465.6 141.6L 464.8 140.8z"/>
<path style="stroke:none; fill:#afb3c2" d="M 4.26666 142.134C 4.22221 142.178 4.17777 143.022 4.53334 142.666C 4.57776 142.622 4.62223 141.778 4.26666 142.134z"/>
<path style="stroke:none; fill:#cccdd5" d="M 441.6 141.6L 442.4 142.4L 441.6 141.6z"/>
<path style="stroke:none; fill:#d2d2db" d="M 464 141.6L 464.8 142.4L 464 141.6z"/>
<path style="stroke:none; fill:#a8aab8" d="M 167.466 142.934C 167.422 142.978 167.378 143.822 167.734 143.466C 167.778 143.422 167.822 142.578 167.466 142.934z"/>
<path style="stroke:none; fill:#bdbdcc" d="M 349.066 142.934C 349.022 142.978 348.978 143.822 349.334 143.466C 349.378 143.422 349.422 142.578 349.066 142.934z"/>
<path style="stroke:none; fill:#cccdd5" d="M 440.8 142.4L 441.6 143.2L 440.8 142.4z"/>
<path style="stroke:none; fill:#d2d2db" d="M 463.2 142.4L 464 143.2L 463.2 142.4z"/>
<path style="stroke:none; fill:#cccdd5" d="M 440 143.2L 440.8 144L 440 143.2M 462.4 143.2L 463.2 144L 462.4 143.2z"/>
<path style="stroke:none; fill:#bdbdcc" d="M 3.46666 144.534C 3.42221 144.578 3.37777 145.422 3.73334 145.066C 3.77776 145.022 3.82223 144.178 3.46666 144.534z"/>
<path style="stroke:none; fill:#cccdd5" d="M 439.2 144L 440 144.8L 439.2 144M 461.6 144L 462.4 144.8L 461.6 144z"/>
<path style="stroke:none; fill:#bdbdcc" d="M 168.266 145.334C 168.222 145.378 168.178 146.222 168.534 145.866C 168.578 145.822 168.622 144.978 168.266 145.334z"/>
<path style="stroke:none; fill:#dfe0e7" d="M 209.066 145.334C 209.022 145.378 208.978 146.222 209.334 145.866C 209.378 145.822 209.422 144.978 209.066 145.334M 325.066 145.334C 325.022 145.378 324.978 146.222 325.334 145.866C 325.378 145.822 325.422 144.978 325.066 145.334z"/>
<path style="stroke:none; fill:#cccdd5" d="M 438.4 144.8L 439.2 145.6L 438.4 144.8M 460.8 144.8L 461.6 145.6L 460.8 144.8z"/>
<path style="stroke:none; fill:#b8b8c5" d="M 184.266 146.134C 184.222 146.178 184.178 147.022 184.534 146.666C 184.578 146.622 184.622 145.778 184.266 146.134z"/>
<path style="stroke:none; fill:#afb3c2" d="M 349.866 146.134C 349.822 146.178 349.778 147.022 350.134 146.666C 350.178 146.622 350.222 145.778 349.866 146.134z"/>
<path style="stroke:none; fill:#d2d2db" d="M 437.6 145.6L 438.4 146.4L 437.6 145.6z"/>
<path style="stroke:none; fill:#cccdd5" d="M 460 145.6L 460.8 146.4L 460 145.6M 684 145.6L 684.8 146.4L 684 145.6z"/>
<path style="stroke:none; fill:#d2d2db" d="M 436.8 146.4L 437.6 147.2L 436.8 146.4z"/>
<path style="stroke:none; fill:#cccdd5" d="M 459.2 146.4L 460 147.2L 459.2 146.4z"/>
<path style="stroke:none; fill:#b8b8c5" d="M 2.66666 147.734C 2.62222 147.778 2.57778 148.622 2.93334 148.266C 2.97778 148.222 3.02222 147.378 2.66666 147.734z"/>
<path style="stroke:none; fill:#dfe0e7" d="M 208.266 147.734C 208.222 147.778 208.178 148.622 208.534 148.266C 208.578 148.222 208.622 147.378 208.266 147.734M 325.866 147.734C 325.822 147.778 325.778 148.622 326.134 148.266C 326.178 148.222 326.222 147.378 325.866 147.734z"/>
<path style="stroke:none; fill:#d2d2db" d="M 436 147.2L 436.8 148L 436 147.2z"/>
<path style="stroke:none; fill:#cccdd5" d="M 458.4 147.2L 459.2 148L 458.4 147.2z"/>
<path style="stroke:none; fill:#bdbdcc" d="M 169.066 148.534C 169.022 148.578 168.978 149.422 169.334 149.066C 169.378 149.022 169.422 148.178 169.066 148.534z"/>
<path style="stroke:none; fill:#d2d2db" d="M 435.2 148L 436 148.8L 435.2 148z"/>
<path style="stroke:none; fill:#cccdd5" d="M 457.6 148L 458.4 148.8L 457.6 148M 528.8 148L 528.8 177.6L 529.6 177.6C 529.6 169.081 532.089 155.838 528.8 148z"/>
<path style="stroke:none; fill:#dfe0e7" d="M 26.6666 149.334C 26.6222 149.378 26.5778 150.222 26.9334 149.866C 26.9778 149.822 27.0222 148.978 26.6666 149.334z"/>
<path style="stroke:none; fill:#bdbdcc" d="M 183.466 149.334C 183.422 149.378 183.378 150.222 183.734 149.866C 183.778 149.822 183.822 148.978 183.466 149.334M 350.666 149.334C 350.622 149.378 350.578 150.222 350.934 149.866C 350.978 149.822 351.022 148.978 350.666 149.334z"/>
<path style="stroke:none; fill:#d2d2db" d="M 434.4 148.8L 435.2 149.6L 434.4 148.8z"/>
<path style="stroke:none; fill:#cccdd5" d="M 456.8 148.8L 457.6 149.6L 456.8 148.8z"/>
<path style="stroke:none; fill:#dfe0e7" d="M 145.066 150.134C 145.022 150.178 144.978 151.022 145.334 150.666C 145.378 150.622 145.422 149.778 145.066 150.134z"/>
<path style="stroke:none; fill:#cccdd5" d="M 207.466 150.134C 207.422 150.178 207.378 151.022 207.734 150.666C 207.778 150.622 207.822 149.778 207.466 150.134M 326.666 150.134C 326.622 150.178 326.578 151.022 326.934 150.666C 326.978 150.622 327.022 149.778 326.666 150.134M 456 149.6L 456.8 150.4L 456 149.6M 1.86666 150.934C 1.82222 150.978 1.7778 151.822 2.13334 151.466C 2.17777 151.422 2.22224 150.578 1.86666 150.934z"/>
<path style="stroke:none; fill:#c5c5d1" d="M 455.2 150.4L 456 151.2L 455.2 150.4M 25.8666 151.734C 25.8222 151.778 25.7778 152.622 26.1334 152.266C 26.1778 152.222 26.2222 151.378 25.8666 151.734z"/>
<path style="stroke:none; fill:#cccdd5" d="M 169.866 151.734C 169.822 151.778 169.778 152.622 170.134 152.266C 170.178 152.222 170.222 151.378 169.866 151.734z"/>
<path style="stroke:none; fill:#c5c5d1" d="M 454.4 151.2L 455.2 152L 454.4 151.2z"/>
<path style="stroke:none; fill:#dadae0" d="M 182.4 152L 182.4 154.4L 183.2 154.4C 182.999 153.238 182.948 152.998 182.4 152z"/>
<path style="stroke:none; fill:#d2d2db" d="M 351.466 152.534C 351.422 152.578 351.378 153.422 351.734 153.066C 351.778 153.022 351.822 152.178 351.466 152.534z"/>
<path style="stroke:none; fill:#c5c5d1" d="M 453.6 152L 454.4 152.8L 453.6 152z"/>
<path style="stroke:none; fill:#cccdd5" d="M 760.8 152L 761.6 152.8L 760.8 152z"/>
<path style="stroke:none; fill:#dfe0e7" d="M 145.866 153.334C 145.822 153.378 145.778 154.222 146.134 153.866C 146.178 153.822 146.222 152.978 145.866 153.334z"/>
<path style="stroke:none; fill:#c5c5d1" d="M 206.666 153.334C 206.622 153.378 206.578 154.222 206.934 153.866C 206.978 153.822 207.022 152.978 206.666 153.334M 327.466 153.334C 327.422 153.378 327.378 154.222 327.734 153.866C 327.778 153.822 327.822 152.978 327.466 153.334M 452.8 152.8L 453.6 153.6L 452.8 152.8z"/>
<path style="stroke:none; fill:#afb3c2" d="M 351.466 154.134C 351.422 154.178 351.378 155.022 351.734 154.666C 351.778 154.622 351.822 153.778 351.466 154.134z"/>
<path style="stroke:none; fill:#c5c5d1" d="M 452 153.6L 452.8 154.4L 452 153.6z"/>
<path style="stroke:none; fill:#dadae0" d="M 1.06666 154.934C 1.02222 154.978 0.977784 155.822 1.33334 155.466C 1.37778 155.422 1.42223 154.578 1.06666 154.934z"/>
<path style="stroke:none; fill:#c5c5d1" d="M 451.2 154.4L 452 155.2L 451.2 154.4z"/>
<path style="stroke:none; fill:#d2d2db" d="M 25.0666 155.734C 25.0222 155.778 24.9778 156.622 25.3334 156.266C 25.3778 156.222 25.4222 155.378 25.0666 155.734z"/>
<path style="stroke:none; fill:#c5c5d1" d="M 450.4 155.2L 451.2 156L 450.4 155.2z"/>
<path style="stroke:none; fill:#afb3c2" d="M 1.06666 156.534C 1.02221 156.578 0.977792 157.422 1.33334 157.066C 1.37778 157.022 1.42223 156.178 1.06666 156.534z"/>
<path style="stroke:none; fill:#c5c5d1" d="M 146.4 156L 146.4 158.4L 147.2 158.4C 146.999 157.238 146.948 156.998 146.4 156z"/>
<path style="stroke:none; fill:#d2d2db" d="M 170.4 156L 170.4 158.4L 171.2 158.4C 170.999 157.238 170.948 156.998 170.4 156z"/>
<path style="stroke:none; fill:#c2c3cf" d="M 449.6 156L 450.4 156.8L 449.6 156z"/>
<path style="stroke:none; fill:#e6e7eb" d="M 181.6 156.8L 181.6 159.2L 182.4 159.2C 182.199 158.038 182.148 157.798 181.6 156.8z"/>
<path style="stroke:none; fill:#bdbdcc" d="M 205.6 156.8L 205.6 159.2L 206.4 159.2C 206.199 158.038 206.148 157.798 205.6 156.8M 328 156.8L 328 159.2L 328.8 159.2C 328.599 158.038 328.548 157.798 328 156.8z"/>
<path style="stroke:none; fill:#c5c5d1" d="M 352 156.8L 352 160L 352.8 160C 352.661 158.652 352.546 158.005 352 156.8z"/>
<path style="stroke:none; fill:#9192a9" d="M 395.2 156.8C 395.2 163.062 393.19 173.537 396.022 179.2C 399.895 186.946 409.902 193.902 416 200L 450.4 234.4C 455.361 239.361 460.882 247.218 467.2 250.378C 472.863 253.21 483.339 251.2 489.6 251.2C 477.358 233.82 458.244 219.044 443.2 204C 427.902 188.702 412.873 169.249 395.2 156.8z"/>
<path style="stroke:none; fill:#c2c3cf" d="M 448.8 156.8L 449.6 157.6L 448.8 156.8M 448 157.6L 448.8 158.4L 448 157.6M 447.2 158.4L 448 159.2L 447.2 158.4z"/>
<path style="stroke:none; fill:#b8b8c5" d="M 24.2666 159.734C 24.2222 159.778 24.1778 160.622 24.5334 160.266C 24.5778 160.222 24.6222 159.378 24.2666 159.734z"/>
<path style="stroke:none; fill:#afb3c2" d="M 181.6 159.2L 181.6 162.4L 182.4 162.4C 182.261 161.052 182.146 160.405 181.6 159.2z"/>
<path style="stroke:none; fill:#c2c3cf" d="M 446.4 159.2L 447.2 160L 446.4 159.2z"/>
<path style="stroke:none; fill:#d2d2db" d="M 0 160L 0 163.2L 0.8 163.2C 0.660714 161.852 0.54643 161.205 0 160z"/>
<path style="stroke:none; fill:#c2c3cf" d="M 445.6 160L 446.4 160.8L 445.6 160z"/>
<path style="stroke:none; fill:#d2d2db" d="M 24 160.8L 24 163.2L 24.8 163.2C 24.599 162.038 24.5478 161.798 24 160.8z"/>
<path style="stroke:none; fill:#c2c3cf" d="M 444.8 160.8L 445.6 161.6L 444.8 160.8z"/>
<path style="stroke:none; fill:#bdbdcc" d="M 444 161.6L 444.8 162.4L 444 161.6z"/>
<path style="stroke:none; fill:#f3f3f5" d="M 147.2 162.4L 147.2 175.2L 148 175.2C 148 171.128 148.786 166.179 147.2 162.4z"/>
<path style="stroke:none; fill:#b8b8c5" d="M 204.8 162.4L 204.8 165.6L 205.6 165.6C 205.461 164.252 205.346 163.605 204.8 162.4M 328.8 162.4L 328.8 165.6L 329.6 165.6C 329.461 164.252 329.346 163.605 328.8 162.4z"/>
<path style="stroke:none; fill:#a8aab8" d="M 0 163.2L 0 176L 0.8 176C 0.8 171.928 1.58576 166.979 0 163.2z"/>
<path style="stroke:none; fill:#c5c5d1" d="M 171.2 164L 171.2 176.8L 172 176.8C 172 172.728 172.786 167.779 171.2 164z"/>
<path style="stroke:none; fill:#cccdd5" d="M 204.8 165.6L 204.8 176L 205.6 176C 205.6 172.59 206.129 168.767 204.8 165.6M 328.8 165.6L 328.8 174.4L 329.6 174.4C 329.6 171.44 329.952 168.346 328.8 165.6z"/>
<path style="stroke:none; fill:#a3a7b7" d="M 23.2 166.4L 23.2 172.8L 24 172.8C 23.9942 170.532 24.0782 168.49 23.2 166.4z"/>
<path style="stroke:none; fill:#ececef" d="M 352.8 166.4L 352.8 173.6L 353.6 173.6C 353.598 171.099 353.77 168.712 352.8 166.4M 180.8 167.2L 180.8 172L 181.6 172C 181.562 170.198 181.499 168.842 180.8 167.2z"/>
<path style="stroke:none; fill:#c5c5d1" d="M 387.2 168.8L 387.2 199.2L 388 199.2C 388 190.471 390.569 176.829 387.2 168.8z"/>
<path style="stroke:none; fill:#afb3c2" d="M 328.8 174.4L 328.8 176.8L 329.6 176.8C 329.399 175.638 329.348 175.398 328.8 174.4z"/>
<path style="stroke:none; fill:#bdbdcc" d="M 551.2 174.4L 551.2 230.4L 552 230.4L 552 192C 552 186.651 553.279 179.355 551.2 174.4z"/>
<path style="stroke:none; fill:#dadae0" d="M 147.2 175.2L 147.2 177.6L 148 177.6C 147.799 176.438 147.748 176.198 147.2 175.2z"/>
<path style="stroke:none; fill:#afb3c2" d="M 181.6 175.2L 181.6 179.2L 182.4 179.2C 182.33 177.629 182.223 176.615 181.6 175.2z"/>
<path style="stroke:none; fill:#e6e7eb" d="M 0 176L 0 180L 0.8 180C 0.729926 178.429 0.623145 177.415 0 176z"/>
<path style="stroke:none; fill:#b8b8c5" d="M 352 176L 352 181.6L 352.8 181.6C 352.785 179.566 352.788 177.866 352 176M 24 177.6L 24 181.6L 24.8 181.6C 24.7299 180.029 24.6231 179.015 24 177.6z"/>
<path style="stroke:none; fill:#dadae0" d="M 528.8 177.6L 528.8 222.4L 529.6 222.4L 529.6 192C 529.6 187.505 530.551 181.773 528.8 177.6z"/>
<path style="stroke:none; fill:#dfe0e7" d="M 205.6 178.4L 205.6 180.8L 206.4 180.8C 206.199 179.638 206.148 179.398 205.6 178.4z"/>
<path style="stroke:none; fill:#d2d2db" d="M 181.6 179.2L 181.6 181.6L 182.4 181.6C 182.199 180.438 182.148 180.198 181.6 179.2z"/>
<path style="stroke:none; fill:#dadae0" d="M 328.266 179.734C 328.222 179.778 328.178 180.622 328.534 180.266C 328.578 180.222 328.622 179.378 328.266 179.734z"/>
<path style="stroke:none; fill:#cccdd5" d="M 395.2 179.2L 396 180L 395.2 179.2z"/>
<path style="stroke:none; fill:#ffffff" d="M 0 180L 0 256.8L 74.4 256.8L 74.4 256C 45.9967 254.778 19.693 232.998 8.24688 208C 4.12341 198.994 3.8903 188.666 0 180z"/>
<path style="stroke:none; fill:#cccdd5" d="M 396 180L 396.8 180.8L 396 180z"/>
<path style="stroke:none; fill:#afb3c2" d="M 170.4 180.8L 170.4 183.2L 171.2 183.2C 170.999 182.038 170.948 181.798 170.4 180.8M 205.866 181.334C 205.822 181.378 205.778 182.222 206.134 181.866C 206.178 181.822 206.222 180.978 205.866 181.334z"/>
<path style="stroke:none; fill:#b8b8c5" d="M 328 180.8L 328 183.2L 328.8 183.2C 328.599 182.038 328.548 181.798 328 180.8z"/>
<path style="stroke:none; fill:#cccdd5" d="M 396.8 180.8L 397.6 181.6L 396.8 180.8z"/>
<path style="stroke:none; fill:#dadae0" d="M 146.4 181.6L 146.4 184L 147.2 184C 146.999 182.838 146.948 182.598 146.4 181.6z"/>
<path style="stroke:none; fill:#b8b8c5" d="M 364.8 181.6L 364.8 226.4L 365.6 226.4L 365.6 196C 365.6 191.505 366.551 185.773 364.8 181.6z"/>
<path style="stroke:none; fill:#cccdd5" d="M 397.6 181.6L 398.4 182.4L 397.6 181.6z"/>
<path style="stroke:none; fill:#b8b8c5" d="M 0.8 182.4L 0.8 184.8L 1.6 184.8C 1.39903 183.638 1.34785 183.398 0.8 182.4z"/>
<path style="stroke:none; fill:#cccdd5" d="M 398.4 182.4L 399.2 183.2L 398.4 182.4M 25.0666 183.734C 25.0222 183.778 24.9778 184.622 25.3334 184.266C 25.3778 184.222 25.4222 183.378 25.0666 183.734z"/>
<path style="stroke:none; fill:#dfe0e7" d="M 170.666 183.734C 170.622 183.778 170.578 184.622 170.934 184.266C 170.978 184.222 171.022 183.378 170.666 183.734z"/>
<path style="stroke:none; fill:#cccdd5" d="M 399.2 183.2L 400 184L 399.2 183.2z"/>
<path style="stroke:none; fill:#bdbdcc" d="M 182.666 184.534C 182.622 184.578 182.578 185.422 182.934 185.066C 182.978 185.022 183.022 184.178 182.666 184.534z"/>
<path style="stroke:none; fill:#d2d2db" d="M 206.4 184L 206.4 186.4L 207.2 186.4C 206.999 185.238 206.948 184.998 206.4 184M 327.2 184L 327.2 186.4L 328 186.4C 327.799 185.238 327.748 184.998 327.2 184z"/>
<path style="stroke:none; fill:#b8b8c5" d="M 351.2 184L 351.2 186.4L 352 186.4C 351.799 185.238 351.748 184.998 351.2 184z"/>
<path style="stroke:none; fill:#cccdd5" d="M 400 184L 400.8 184.8L 400 184M 400.8 184.8L 401.6 185.6L 400.8 184.8z"/>
<path style="stroke:none; fill:#dfe0e7" d="M 182.666 186.134C 182.622 186.178 182.578 187.022 182.934 186.666C 182.978 186.622 183.022 185.778 182.666 186.134z"/>
<path style="stroke:none; fill:#cccdd5" d="M 401.6 185.6L 402.4 186.4L 401.6 185.6z"/>
<path style="stroke:none; fill:#c5c5d1" d="M 145.866 186.934C 145.822 186.978 145.778 187.822 146.134 187.466C 146.178 187.422 146.222 186.578 145.866 186.934z"/>
<path style="stroke:none; fill:#bdbdcc" d="M 169.6 186.4L 169.6 188.8L 170.4 188.8C 170.199 187.638 170.148 187.398 169.6 186.4z"/>
<path style="stroke:none; fill:#d2d2db" d="M 402.4 186.4L 403.2 187.2L 402.4 186.4z"/>
<path style="stroke:none; fill:#c2c3cf" d="M 25.8666 187.734C 25.8222 187.778 25.7778 188.622 26.1334 188.266C 26.1778 188.222 26.2222 187.378 25.8666 187.734z"/>
<path style="stroke:none; fill:#d2d2db" d="M 403.2 187.2L 404 188L 403.2 187.2z"/>
<path style="stroke:none; fill:#cccdd5" d="M 1.6 188L 1.6 190.4L 2.4 190.4C 2.19903 189.238 2.14785 188.998 1.6 188z"/>
<path style="stroke:none; fill:#bdbdcc" d="M 207.466 188.534C 207.422 188.578 207.378 189.422 207.734 189.066C 207.778 189.022 207.822 188.178 207.466 188.534z"/>
<path style="stroke:none; fill:#c2c3cf" d="M 326.666 188.534C 326.622 188.578 326.578 189.422 326.934 189.066C 326.978 189.022 327.022 188.178 326.666 188.534z"/>
<path style="stroke:none; fill:#d2d2db" d="M 404 188L 404.8 188.8L 404 188z"/>
<path style="stroke:none; fill:#cccdd5" d="M 183.466 189.334C 183.422 189.378 183.378 190.222 183.734 189.866C 183.778 189.822 183.822 188.978 183.466 189.334z"/>
<path style="stroke:none; fill:#c5c5d1" d="M 350.666 189.334C 350.622 189.378 350.578 190.222 350.934 189.866C 350.978 189.822 351.022 188.978 350.666 189.334z"/>
<path style="stroke:none; fill:#d2d2db" d="M 404.8 188.8L 405.6 189.6L 404.8 188.8z"/>
<path style="stroke:none; fill:#a3a7b7" d="M 395.2 189.6L 395.2 212L 396 212C 396 205.37 397.768 195.719 395.2 189.6z"/>
<path style="stroke:none; fill:#d2d2db" d="M 405.6 189.6L 406.4 190.4L 405.6 189.6M 665.6 189.6L 666.4 190.4L 665.6 189.6z"/>
<path style="stroke:none; fill:#b8b8c5" d="M 26.6666 190.934C 26.6222 190.978 26.5778 191.822 26.9334 191.466C 26.9778 191.422 27.0222 190.578 26.6666 190.934z"/>
<path style="stroke:none; fill:#9192a9" d="M 396 190.4C 396 196.529 394.354 205.425 396.482 211.2C 397.992 215.293 402.596 218.596 405.6 221.6L 425.6 241.6C 428.604 244.604 431.907 249.208 436 250.718C 441.98 252.922 451.251 251.2 457.6 251.2C 448.704 238.571 435.123 228.205 424 217.569C 414.789 208.761 406.425 197.743 396 190.4z"/>
<path style="stroke:none; fill:#dadae0" d="M 169.066 191.734C 169.022 191.778 168.978 192.622 169.334 192.266C 169.378 192.222 169.422 191.378 169.066 191.734z"/>
<path style="stroke:none; fill:#a8aab8" d="M 208.266 191.734C 208.222 191.778 208.178 192.622 208.534 192.266C 208.578 192.222 208.622 191.378 208.266 191.734z"/>
<path style="stroke:none; fill:#afb3c2" d="M 325.866 191.734C 325.822 191.778 325.778 192.622 326.134 192.266C 326.178 192.222 326.222 191.378 325.866 191.734z"/>
<path style="stroke:none; fill:#dadae0" d="M 2.66666 192.534C 2.62222 192.578 2.57778 193.422 2.93334 193.066C 2.97776 193.022 3.02223 192.178 2.66666 192.534z"/>
<path style="stroke:none; fill:#dfe0e7" d="M 184.266 193.334C 184.222 193.378 184.178 194.222 184.534 193.866C 184.578 193.822 184.622 192.978 184.266 193.334z"/>
<path style="stroke:none; fill:#dadae0" d="M 349.866 193.334C 349.822 193.378 349.778 194.222 350.134 193.866C 350.178 193.822 350.222 192.978 349.866 193.334z"/>
<path style="stroke:none; fill:#afb3c2" d="M 325.066 194.134C 325.022 194.178 324.978 195.022 325.334 194.666C 325.378 194.622 325.422 193.778 325.066 194.134z"/>
<path style="stroke:none; fill:#dadae0" d="M 168.266 194.934C 168.222 194.978 168.178 195.822 168.534 195.466C 168.578 195.422 168.622 194.578 168.266 194.934z"/>
<path style="stroke:none; fill:#dfe0e7" d="M 3.46666 195.734C 3.42223 195.778 3.37778 196.622 3.73334 196.266C 3.77779 196.222 3.82221 195.378 3.46666 195.734z"/>
<path style="stroke:none; fill:#cccdd5" d="M 185.066 195.734C 185.022 195.778 184.978 196.622 185.334 196.266C 185.378 196.222 185.422 195.378 185.066 195.734z"/>
<path style="stroke:none; fill:#dadae0" d="M 4.26666 198.134C 4.22222 198.178 4.17779 199.022 4.53334 198.666C 4.57779 198.622 4.62222 197.778 4.26666 198.134z"/>
<path style="stroke:none; fill:#d2d2db" d="M 404 197.6L 404.8 198.4L 404 197.6M 404.8 198.4L 405.6 199.2L 404.8 198.4z"/>
<path style="stroke:none; fill:#cccdd5" d="M 141.6 199.2L 142.4 200L 141.6 199.2z"/>
<path style="stroke:none; fill:#b8b8c5" d="M 387.2 199.2L 387.2 251.2L 365.6 251.2L 365.6 252L 388 252L 388 216C 388 210.864 389.198 203.961 387.2 199.2z"/>
<path style="stroke:none; fill:#d2d2db" d="M 405.6 199.2L 406.4 200L 405.6 199.2M 406.4 200L 407.2 200.8L 406.4 200M 407.2 200.8L 408 201.6L 407.2 200.8z"/>
<path style="stroke:none; fill:#cccdd5" d="M 408 201.6L 408.8 202.4L 408 201.6M 408.8 202.4L 409.6 203.2L 408.8 202.4M 409.6 203.2L 410.4 204L 409.6 203.2M 410.4 204L 411.2 204.8L 410.4 204z"/>
<path style="stroke:none; fill:#c2c3cf" d="M 345.6 204.8L 346.4 205.6L 345.6 204.8z"/>
<path style="stroke:none; fill:#cccdd5" d="M 411.2 204.8L 412 205.6L 411.2 204.8z"/>
<path style="stroke:none; fill:#c5c5d1" d="M 138.4 205.6L 139.2 206.4L 138.4 205.6z"/>
<path style="stroke:none; fill:#cccdd5" d="M 412 205.6L 412.8 206.4L 412 205.6M 412.8 206.4L 413.6 207.2L 412.8 206.4z"/>
<path style="stroke:none; fill:#c5c5d1" d="M 33.6 207.2L 34.4 208L 33.6 207.2z"/>
<path style="stroke:none; fill:#c2c3cf" d="M 318.4 207.2L 319.2 208L 318.4 207.2z"/>
<path style="stroke:none; fill:#cccdd5" d="M 413.6 207.2L 414.4 208L 413.6 207.2z"/>
<path style="stroke:none; fill:#c5c5d1" d="M 163.2 208L 164 208.8L 163.2 208z"/>
<path style="stroke:none; fill:#cccdd5" d="M 414.4 208L 415.2 208.8L 414.4 208z"/>
<path style="stroke:none; fill:#c5c5d1" d="M 415.2 208.8L 416 209.6L 415.2 208.8z"/>
<path style="stroke:none; fill:#cccdd5" d="M 35.2 209.6L 36 210.4L 35.2 209.6z"/>
<path style="stroke:none; fill:#c2c3cf" d="M 162.4 209.6L 163.2 210.4L 162.4 209.6M 316.8 209.6L 317.6 210.4L 316.8 209.6z"/>
<path style="stroke:none; fill:#c5c5d1" d="M 416 209.6L 416.8 210.4L 416 209.6M 416.8 210.4L 417.6 211.2L 416.8 210.4M 417.6 211.2L 418.4 212L 417.6 211.2z"/>
<path style="stroke:none; fill:#c2c3cf" d="M 396 212L 396.8 212.8L 396 212z"/>
<path style="stroke:none; fill:#c5c5d1" d="M 418.4 212L 419.2 212.8L 418.4 212M 160.8 212.8L 161.6 213.6L 160.8 212.8M 314.4 212.8L 315.2 213.6L 314.4 212.8z"/>
<path style="stroke:none; fill:#c2c3cf" d="M 396.8 212.8L 397.6 213.6L 396.8 212.8z"/>
<path style="stroke:none; fill:#c5c5d1" d="M 419.2 212.8L 420 213.6L 419.2 212.8z"/>
<path style="stroke:none; fill:#c2c3cf" d="M 397.6 213.6L 398.4 214.4L 397.6 213.6z"/>
<path style="stroke:none; fill:#c5c5d1" d="M 420 213.6L 420.8 214.4L 420 213.6z"/>
<path style="stroke:none; fill:#cccdd5" d="M 160 214.4L 160.8 215.2L 160 214.4z"/>
<path style="stroke:none; fill:#c2c3cf" d="M 398.4 214.4L 399.2 215.2L 398.4 214.4M 420.8 214.4L 421.6 215.2L 420.8 214.4M 399.2 215.2L 400 216L 399.2 215.2M 421.6 215.2L 422.4 216L 421.6 215.2z"/>
<path style="stroke:none; fill:#c5c5d1" d="M 12 216L 12.8 216.8L 12 216z"/>
<path style="stroke:none; fill:#cccdd5" d="M 193.6 216L 194.4 216.8L 193.6 216M 340 216L 340.8 216.8L 340 216z"/>
<path style="stroke:none; fill:#c5c5d1" d="M 400 216L 400.8 216.8L 400 216z"/>
<path style="stroke:none; fill:#c2c3cf" d="M 422.4 216L 423.2 216.8L 422.4 216z"/>
<path style="stroke:none; fill:#c5c5d1" d="M 400.8 216.8L 401.6 217.6L 400.8 216.8z"/>
<path style="stroke:none; fill:#c2c3cf" d="M 423.2 216.8L 424 217.6L 423.2 216.8z"/>
<path style="stroke:none; fill:#c5c5d1" d="M 401.6 217.6L 402.4 218.4L 401.6 217.6z"/>
<path style="stroke:none; fill:#c2c3cf" d="M 424 217.6L 424.8 218.4L 424 217.6M 42.4 218.4L 43.2 219.2L 42.4 218.4z"/>
<path style="stroke:none; fill:#cccdd5" d="M 157.6 218.4L 158.4 219.2L 157.6 218.4z"/>
<path style="stroke:none; fill:#c5c5d1" d="M 402.4 218.4L 403.2 219.2L 402.4 218.4z"/>
<path style="stroke:none; fill:#c2c3cf" d="M 424.8 218.4L 425.6 219.2L 424.8 218.4z"/>
<path style="stroke:none; fill:#d2d2db" d="M 653.6 218.4L 654.4 219.2L 653.6 218.4z"/>
<path style="stroke:none; fill:#c5c5d1" d="M 403.2 219.2L 404 220L 403.2 219.2z"/>
<path style="stroke:none; fill:#c2c3cf" d="M 425.6 219.2L 426.4 220L 425.6 219.2z"/>
<path style="stroke:none; fill:#c5c5d1" d="M 404 220L 404.8 220.8L 404 220z"/>
<path style="stroke:none; fill:#bdbdcc" d="M 426.4 220L 427.2 220.8L 426.4 220z"/>
<path style="stroke:none; fill:#cccdd5" d="M 156 220.8L 156.8 221.6L 156 220.8z"/>
<path style="stroke:none; fill:#c2c3cf" d="M 196.8 220.8L 197.6 221.6L 196.8 220.8z"/>
<path style="stroke:none; fill:#c5c5d1" d="M 404.8 220.8L 405.6 221.6L 404.8 220.8z"/>
<path style="stroke:none; fill:#cccdd5" d="M 228 221.6L 228.8 222.4L 228 221.6M 405.6 221.6L 406.4 222.4L 405.6 221.6M 406.4 222.4L 407.2 223.2L 406.4 222.4z"/>
<path style="stroke:none; fill:#ececef" d="M 528.8 222.4L 528.8 251.2L 529.6 251.2C 529.6 242.89 532.009 230.048 528.8 222.4z"/>
<path style="stroke:none; fill:#c5c5d1" d="M 16.8 223.2L 17.6 224L 16.8 223.2z"/>
<path style="stroke:none; fill:#d2d2db" d="M 48 223.2L 48.8 224L 48 223.2M 335.2 223.2L 336 224L 335.2 223.2z"/>
<path style="stroke:none; fill:#cccdd5" d="M 407.2 223.2L 408 224L 407.2 223.2M 790.4 223.2L 791.2 224L 790.4 223.2z"/>
<path style="stroke:none; fill:#c5c5d1" d="M 153.6 224L 154.4 224.8L 153.6 224z"/>
<path style="stroke:none; fill:#bdbdcc" d="M 199.2 224L 200 224.8L 199.2 224z"/>
<path style="stroke:none; fill:#d2d2db" d="M 231.2 224L 232 224.8L 231.2 224z"/>
<path style="stroke:none; fill:#cccdd5" d="M 408 224L 408.8 224.8L 408 224z"/>
<path style="stroke:none; fill:#d2d2db" d="M 120.8 224.8L 121.6 225.6L 120.8 224.8z"/>
<path style="stroke:none; fill:#cccdd5" d="M 408.8 224.8L 409.6 225.6L 408.8 224.8z"/>
<path style="stroke:none; fill:#d2d2db" d="M 233.6 225.6L 234.4 226.4L 233.6 225.6z"/>
<path style="stroke:none; fill:#cccdd5" d="M 409.6 225.6L 410.4 226.4L 409.6 225.6M 118.4 226.4L 119.2 227.2L 118.4 226.4z"/>
<path style="stroke:none; fill:#c5c5d1" d="M 364.8 226.4L 364.8 252L 365.6 252C 365.6 244.529 367.689 233.285 364.8 226.4z"/>
<path style="stroke:none; fill:#cccdd5" d="M 410.4 226.4L 411.2 227.2L 410.4 226.4z"/>
<path style="stroke:none; fill:#c2c3cf" d="M 20 227.2L 20.8 228L 20 227.2z"/>
<path style="stroke:none; fill:#cccdd5" d="M 411.2 227.2L 412 228L 411.2 227.2z"/>
<path style="stroke:none; fill:#c2c3cf" d="M 55.2 228L 56 228.8L 55.2 228z"/>
<path style="stroke:none; fill:#cccdd5" d="M 150.4 228L 151.2 228.8L 150.4 228M 202.4 228L 203.2 228.8L 202.4 228z"/>
<path style="stroke:none; fill:#c2c3cf" d="M 237.6 228L 238.4 228.8L 237.6 228z"/>
<path style="stroke:none; fill:#c5c5d1" d="M 296 228L 296.8 228.8L 296 228z"/>
<path style="stroke:none; fill:#cccdd5" d="M 331.2 228L 332 228.8L 331.2 228z"/>
<path style="stroke:none; fill:#d2d2db" d="M 412 228L 412.8 228.8L 412 228z"/>
<path style="stroke:none; fill:#cccdd5" d="M 649.6 228L 650.4 228.8L 649.6 228M 56.8 228.8L 57.6 229.6L 56.8 228.8z"/>
<path style="stroke:none; fill:#c5c5d1" d="M 203.2 228.8L 204 229.6L 203.2 228.8M 239.2 228.8L 240 229.6L 239.2 228.8M 294.4 228.8L 295.2 229.6L 294.4 228.8z"/>
<path style="stroke:none; fill:#c2c3cf" d="M 330.4 228.8L 331.2 229.6L 330.4 228.8z"/>
<path style="stroke:none; fill:#d2d2db" d="M 412.8 228.8L 413.6 229.6L 412.8 228.8z"/>
<path style="stroke:none; fill:#c5c5d1" d="M 58.4 229.6L 59.2 230.4L 58.4 229.6z"/>
<path style="stroke:none; fill:#bdbdcc" d="M 240.8 229.6L 241.6 230.4L 240.8 229.6z"/>
<path style="stroke:none; fill:#d2d2db" d="M 413.6 229.6L 414.4 230.4L 413.6 229.6z"/>
<path style="stroke:none; fill:#dadae0" d="M 552 229.6L 552 230.4L 607.2 230.4C 602.245 228.321 594.949 229.6 589.6 229.6L 552 229.6z"/>
<path style="stroke:none; fill:#cccdd5" d="M 607.2 229.6L 607.2 230.4L 633.6 230.4C 626.525 227.431 614.881 229.6 607.2 229.6z"/>
<path style="stroke:none; fill:#c2c3cf" d="M 60 230.4L 60.8 231.2L 60 230.4z"/>
<path style="stroke:none; fill:#d2d2db" d="M 414.4 230.4L 415.2 231.2L 414.4 230.4M 415.2 231.2L 416 232L 415.2 231.2z"/>
<path style="stroke:none; fill:#dfe0e7" d="M 64.5334 232.266C 64.1778 232.622 65.0222 232.578 65.0666 232.534C 65.4222 232.178 64.5778 232.222 64.5334 232.266z"/>
<path style="stroke:none; fill:#afb3c2" d="M 106.934 232.266C 106.578 232.622 107.422 232.578 107.466 232.534C 107.822 232.178 106.978 232.222 106.934 232.266z"/>
<path style="stroke:none; fill:#e6e7eb" d="M 247.734 232.266C 247.378 232.622 248.222 232.578 248.266 232.534C 248.622 232.178 247.778 232.222 247.734 232.266z"/>
<path style="stroke:none; fill:#dadae0" d="M 66.9334 233.066C 66.5778 233.422 67.4222 233.378 67.4666 233.334C 67.8222 232.978 66.9778 233.022 66.9334 233.066z"/>
<path style="stroke:none; fill:#afb3c2" d="M 104.534 233.066C 104.178 233.422 105.022 233.378 105.066 233.334C 105.422 232.978 104.578 233.022 104.534 233.066z"/>
<path style="stroke:none; fill:#d2d2db" d="M 250.134 233.066C 249.778 233.422 250.622 233.378 250.666 233.334C 251.022 232.978 250.178 233.022 250.134 233.066z"/>
<path style="stroke:none; fill:#b8b8c5" d="M 283.734 233.066C 283.378 233.422 284.222 233.378 284.266 233.334C 284.622 232.978 283.778 233.022 283.734 233.066z"/>
<path style="stroke:none; fill:#dfe0e7" d="M 70.1334 233.866C 69.7778 234.222 70.6222 234.178 70.6666 234.134C 71.0222 233.778 70.1778 233.822 70.1334 233.866z"/>
<path style="stroke:none; fill:#bdbdcc" d="M 101.334 233.866C 100.978 234.222 101.822 234.178 101.866 234.134C 102.222 233.778 101.378 233.822 101.334 233.866z"/>
<path style="stroke:none; fill:#cccdd5" d="M 253.334 233.866C 252.978 234.222 253.822 234.178 253.866 234.134C 254.222 233.778 253.378 233.822 253.334 233.866M 279.2 233.6L 279.2 234.4L 281.6 234.4C 280.602 233.852 280.362 233.801 279.2 233.6z"/>
<path style="stroke:none; fill:#d2d2db" d="M 73.3334 234.666C 72.9778 235.022 73.8222 234.978 73.8666 234.934C 74.2222 234.578 73.3778 234.622 73.3334 234.666z"/>
<path style="stroke:none; fill:#c5c5d1" d="M 96.8 234.4L 96.8 235.2L 99.2 235.2C 98.2016 234.652 97.9616 234.601 96.8 234.4M 208.8 234.4L 209.6 235.2L 208.8 234.4z"/>
<path style="stroke:none; fill:#b8b8c5" d="M 257.334 234.666C 256.978 235.022 257.822 234.978 257.866 234.934C 258.222 234.578 257.378 234.622 257.334 234.666z"/>
<path style="stroke:none; fill:#e6e7eb" d="M 258.4 234.4L 258.4 235.2L 261.6 235.2C 260.395 234.654 259.748 234.539 258.4 234.4z"/>
<path style="stroke:none; fill:#c5c5d1" d="M 274.4 234.4L 274.4 235.2L 276.8 235.2C 275.802 234.652 275.562 234.601 274.4 234.4M 324.8 234.4L 325.6 235.2L 324.8 234.4M 76.8 235.2L 76.8 236L 80.8 236C 79.3848 235.377 78.3713 235.27 76.8 235.2z"/>
<path style="stroke:none; fill:#e6e7eb" d="M 80.8 235.2L 80.8 236L 91.2 236C 88.0328 234.671 84.2104 235.2 80.8 235.2z"/>
<path style="stroke:none; fill:#c5c5d1" d="M 91.2 235.2L 91.2 236L 93.6 236C 92.6016 235.452 92.3616 235.401 91.2 235.2z"/>
<path style="stroke:none; fill:#bdbdcc" d="M 143.2 235.2L 144 236L 143.2 235.2z"/>
<path style="stroke:none; fill:#cccdd5" d="M 142.4 236L 143.2 236.8L 142.4 236z"/>
<path style="stroke:none; fill:#d2d2db" d="M 475.2 236L 476 236.8L 475.2 236M 507.2 236L 508 236.8L 507.2 236z"/>
<path style="stroke:none; fill:#c5c5d1" d="M 29.6 236.8L 30.4 237.6L 29.6 236.8z"/>
<path style="stroke:none; fill:#d2d2db" d="M 476 236.8L 476.8 237.6L 476 236.8M 508 236.8L 508.8 237.6L 508 236.8M 476.8 237.6L 477.6 238.4L 476.8 237.6M 508.8 237.6L 509.6 238.4L 508.8 237.6z"/>
<path style="stroke:none; fill:#c5c5d1" d="M 213.6 238.4L 214.4 239.2L 213.6 238.4M 320 238.4L 320.8 239.2L 320 238.4z"/>
<path style="stroke:none; fill:#d2d2db" d="M 477.6 238.4L 478.4 239.2L 477.6 238.4M 509.6 238.4L 510.4 239.2L 509.6 238.4z"/>
<path style="stroke:none; fill:#c5c5d1" d="M 138.4 239.2L 139.2 240L 138.4 239.2z"/>
<path style="stroke:none; fill:#d2d2db" d="M 478.4 239.2L 479.2 240L 478.4 239.2M 510.4 239.2L 511.2 240L 510.4 239.2z"/>
<path style="stroke:none; fill:#cccdd5" d="M 33.6 240L 34.4 240.8L 33.6 240M 479.2 240L 480 240.8L 479.2 240z"/>
<path style="stroke:none; fill:#d2d2db" d="M 511.2 240L 512 240.8L 511.2 240M 216.8 240.8L 217.6 241.6L 216.8 240.8z"/>
<path style="stroke:none; fill:#cccdd5" d="M 316.8 240.8L 317.6 241.6L 316.8 240.8M 480 240.8L 480.8 241.6L 480 240.8M 512 240.8L 512.8 241.6L 512 240.8z"/>
<path style="stroke:none; fill:#d2d2db" d="M 135.2 241.6L 136 242.4L 135.2 241.6z"/>
<path style="stroke:none; fill:#cccdd5" d="M 480.8 241.6L 481.6 242.4L 480.8 241.6M 512.8 241.6L 513.6 242.4L 512.8 241.6z"/>
<path style="stroke:none; fill:#d2d2db" d="M 219.2 242.4L 220 243.2L 219.2 242.4z"/>
<path style="stroke:none; fill:#cccdd5" d="M 314.4 242.4L 315.2 243.2L 314.4 242.4M 481.6 242.4L 482.4 243.2L 481.6 242.4M 513.6 242.4L 514.4 243.2L 513.6 242.4z"/>
<path style="stroke:none; fill:#c2c3cf" d="M 38.4 243.2L 39.2 244L 38.4 243.2z"/>
<path style="stroke:none; fill:#cccdd5" d="M 482.4 243.2L 483.2 244L 482.4 243.2M 514.4 243.2L 515.2 244L 514.4 243.2M 483.2 244L 484 244.8L 483.2 244M 515.2 244L 516 244.8L 515.2 244M 223.2 244.8L 224 245.6L 223.2 244.8M 310.4 244.8L 311.2 245.6L 310.4 244.8M 484 244.8L 484.8 245.6L 484 244.8M 516 244.8L 516.8 245.6L 516 244.8z"/>
<path style="stroke:none; fill:#c2c3cf" d="M 42.4 245.6L 43.2 246.4L 42.4 245.6M 308.8 245.6L 309.6 246.4L 308.8 245.6z"/>
<path style="stroke:none; fill:#cccdd5" d="M 484.8 245.6L 485.6 246.4L 484.8 245.6M 516.8 245.6L 517.6 246.4L 516.8 245.6M 127.2 246.4L 128 247.2L 127.2 246.4M 485.6 246.4L 486.4 247.2L 485.6 246.4M 517.6 246.4L 518.4 247.2L 517.6 246.4M 125.6 247.2L 126.4 248L 125.6 247.2z"/>
<path style="stroke:none; fill:#c5c5d1" d="M 486.4 247.2L 487.2 248L 486.4 247.2z"/>
<path style="stroke:none; fill:#cccdd5" d="M 518.4 247.2L 519.2 248L 518.4 247.2M 641.6 247.2L 642.4 248L 641.6 247.2M 124 248L 124.8 248.8L 124 248z"/>
<path style="stroke:none; fill:#c5c5d1" d="M 304 248L 304.8 248.8L 304 248M 487.2 248L 488 248.8L 487.2 248M 519.2 248L 520 248.8L 519.2 248M 488 248.8L 488.8 249.6L 488 248.8z"/>
<path style="stroke:none; fill:#bdbdcc" d="M 497.6 248.8L 498.4 249.6L 497.6 248.8z"/>
<path style="stroke:none; fill:#c5c5d1" d="M 520 248.8L 520.8 249.6L 520 248.8M 488.8 249.6L 489.6 250.4L 488.8 249.6z"/>
<path style="stroke:none; fill:#c2c3cf" d="M 498.4 249.6L 499.2 250.4L 498.4 249.6z"/>
<path style="stroke:none; fill:#c5c5d1" d="M 520.8 249.6L 521.6 250.4L 520.8 249.6M 640.8 249.6C 644.486 253.819 660.067 251.2 665.6 251.2L 665.6 250.4C 657.552 250.4 648.658 251.47 640.8 249.6z"/>
<path style="stroke:none; fill:#c2c3cf" d="M 665.6 249.6L 666.4 250.4L 665.6 249.6z"/>
<path style="stroke:none; fill:#e6e7eb" d="M 489.6 250.4C 482.972 252.359 474.891 251.2 468 251.2L 468 252L 484.8 252C 486.42 252 490.516 252.619 489.6 250.4z"/>
<path style="stroke:none; fill:#c2c3cf" d="M 499.2 250.4L 500 251.2L 499.2 250.4z"/>
<path style="stroke:none; fill:#c5c5d1" d="M 521.6 250.4L 522.4 251.2L 521.6 250.4z"/>
<path style="stroke:none; fill:#a8aab8" d="M 560.8 250.4L 560.8 251.2L 611.2 251.2C 606.634 249.284 600.123 250.4 595.2 250.4L 560.8 250.4z"/>
<path style="stroke:none; fill:#b8b8c5" d="M 611.2 250.4L 611.2 251.2L 633.6 251.2C 627.481 248.632 617.83 250.4 611.2 250.4z"/>
<path style="stroke:none; fill:#e6e7eb" d="M 116.534 251.466C 116.178 251.822 117.022 251.778 117.066 251.734C 117.422 251.378 116.578 251.422 116.534 251.466z"/>
<path style="stroke:none; fill:#a8aab8" d="M 238.134 251.466C 237.778 251.822 238.622 251.778 238.666 251.734C 239.022 251.378 238.178 251.422 238.134 251.466z"/>
<path style="stroke:none; fill:#dadae0" d="M 435.2 251.2L 435.2 252L 458.4 252C 452.09 249.352 442.041 251.2 435.2 251.2z"/>
<path style="stroke:none; fill:#f3f3f5" d="M 500 251.2L 500 252L 512.8 252C 509.021 250.414 504.072 251.2 500 251.2z"/>
<path style="stroke:none; fill:#afb3c2" d="M 57.3334 252.266C 56.9778 252.622 57.8222 252.578 57.8666 252.534C 58.2222 252.178 57.3778 252.222 57.3334 252.266z"/>
<path style="stroke:none; fill:#dfe0e7" d="M 114.134 252.266C 113.778 252.622 114.622 252.578 114.666 252.534C 115.022 252.178 114.178 252.222 114.134 252.266z"/>
<path style="stroke:none; fill:#afb3c2" d="M 240.534 252.266C 240.178 252.622 241.022 252.578 241.066 252.534C 241.422 252.178 240.578 252.222 240.534 252.266z"/>
<path style="stroke:none; fill:#bdbdcc" d="M 59.7334 253.066C 59.3778 253.422 60.2222 253.378 60.2666 253.334C 60.6222 252.978 59.7778 253.022 59.7334 253.066z"/>
<path style="stroke:none; fill:#e6e7eb" d="M 111.734 253.066C 111.378 253.422 112.222 253.378 112.266 253.334C 112.622 252.978 111.778 253.022 111.734 253.066z"/>
<path style="stroke:none; fill:#dfe0e7" d="M 290.934 253.066C 290.578 253.422 291.422 253.378 291.466 253.334C 291.822 252.978 290.978 253.022 290.934 253.066z"/>
<path style="stroke:none; fill:#afb3c2" d="M 62.9334 253.866C 62.5778 254.222 63.4222 254.178 63.4666 254.134C 63.8222 253.778 62.9778 253.822 62.9334 253.866z"/>
<path style="stroke:none; fill:#dadae0" d="M 108.534 253.866C 108.178 254.222 109.022 254.178 109.066 254.134C 109.422 253.778 108.578 253.822 108.534 253.866z"/>
<path style="stroke:none; fill:#cccdd5" d="M 246.134 253.866C 245.778 254.222 246.622 254.178 246.666 254.134C 247.022 253.778 246.178 253.822 246.134 253.866M 286.934 253.866C 286.578 254.222 287.422 254.178 287.466 254.134C 287.822 253.778 286.978 253.822 286.934 253.866z"/>
<path style="stroke:none; fill:#c2c3cf" d="M 66.1334 254.666C 65.7778 255.022 66.6222 254.978 66.6666 254.934C 67.0222 254.578 66.1778 254.622 66.1334 254.666z"/>
<path style="stroke:none; fill:#c5c5d1" d="M 104 254.4L 104 255.2L 106.4 255.2C 105.402 254.652 105.162 254.601 104 254.4z"/>
<path style="stroke:none; fill:#cccdd5" d="M 249.6 254.4L 249.6 255.2L 252 255.2C 251.002 254.652 250.762 254.601 249.6 254.4z"/>
<path style="stroke:none; fill:#c5c5d1" d="M 282.4 254.4L 282.4 255.2L 284.8 255.2C 283.802 254.652 283.562 254.601 282.4 254.4M 70.1334 255.466C 69.7778 255.822 70.6222 255.778 70.6666 255.734C 71.0222 255.378 70.1778 255.422 70.1334 255.466z"/>
<path style="stroke:none; fill:#bdbdcc" d="M 99.2 255.2L 99.2 256L 101.6 256C 100.602 255.452 100.362 255.401 99.2 255.2z"/>
<path style="stroke:none; fill:#dfe0e7" d="M 254.134 255.466C 253.778 255.822 254.622 255.778 254.666 255.734C 255.022 255.378 254.178 255.422 254.134 255.466z"/>
<path style="stroke:none; fill:#afb3c2" d="M 255.2 255.2L 255.2 256L 258.4 256C 257.195 255.454 256.548 255.339 255.2 255.2z"/>
<path style="stroke:none; fill:#cccdd5" d="M 276.8 255.2L 276.8 256L 279.2 256C 278.202 255.452 277.962 255.401 276.8 255.2z"/>
<path style="stroke:none; fill:#c5c5d1" d="M 74.4 256L 74.4 256.8L 77.6 256.8C 76.3952 256.254 75.7482 256.139 74.4 256z"/>
<path style="stroke:none; fill:#afb3c2" d="M 91.2 256L 91.2 256.8L 93.6 256.8C 92.6016 256.252 92.3616 256.201 91.2 256z"/>
<path style="stroke:none; fill:#cccdd5" d="M 93.6 256L 93.6 256.8L 96 256.8C 95.0016 256.252 94.7616 256.201 93.6 256z"/>
<path style="stroke:none; fill:#dfe0e7" d="M 261.6 256L 261.6 256.8L 271.2 256.8C 268.242 255.558 264.786 256 261.6 256z"/>
</g>
</svg>