<?xml version="1.0" encoding="UTF-8" standalone="yes"?>
<!-- Created with sK1/UniConvertor (http://sk1project.org/) -->
<svg xmlns="http://www.w3.org/2000/svg" xmlns:xlink="http://www.w3.org/1999/xlink"
  width="573.6pt" height="120pt" viewBox="0 0 573.6 120"
  fill-rule="evenodd">
<g>
<path style="stroke:none; fill:#ffffff" d="M 0 0L 0 4C 9.28304 1.7899 20.0844 3.2 29.6 3.2L 84.8 3.2L 104.8 3.2C 107.157 3.20485 110.465 2.78739 111.978 5.05432C 113.457 7.27073 112.8 11.0751 112.8 13.6L 112.8 35.2L 112.8 116L 0 116L 0 120L 573.6 120L 573.6 92L 570.4 92L 570.4 84L 569.6 84L 567.2 92L 565.6 92C 564.466 89.0768 563.228 86.2264 562.4 83.2L 561.6 83.2L 561.6 92L 559.2 92L 559.2 77.6C 563.628 78.9313 563.87 83.0536 566.4 86.4C 568.217 82.5152 568.888 78.3687 573.6 77.6L 573.6 0L 0 0z"/>
<path style="stroke:none; fill:#efa99f" d="M 0 116L 0.8 116L 0.8 4L 112 4L 112 116C 114.886 109.123 112.8 97.8576 112.8 90.4L 112.8 31.2C 112.8 25.3213 115.653 9.12328 111.978 4.48271C 108.978 0.694351 92.6408 3.2 88 3.2L 22.4 3.2C 18.0957 3.2 3.64135 0.923279 0.822224 4.48271C -0.729381 6.44177 0 10.4718 0 12.8L 0 33.6L 0 116z"/>
<path style="stroke:none; fill:#df4f39" d="M 0.8 4L 0.8 116L 112 116L 112 4L 0.8 4z"/>
<path style="stroke:none; fill:#afada9" d="M 453.6 26.4L 453.6 27.2L 462.4 27.2C 459.654 26.0478 456.56 26.4 453.6 26.4M 450.134 27.4666C 449.778 27.8222 450.622 27.7778 450.666 27.7334C 451.022 27.3778 450.178 27.4222 450.134 27.4666z"/>
<path style="stroke:none; fill:#636155" d="M 451.2 27.2L 452 28L 451.2 27.2z"/>
<path style="stroke:none; fill:#332d1f" d="M 444.8 72L 432 72C 434.056 87.9192 445.263 92.8008 460 92.8C 470.331 92.7992 481.093 89.6456 482.258 77.6C 483.729 62.3982 467.819 58.0308 456.8 53.2574C 452.943 51.5866 445.646 47.618 448.629 42.4123C 451.878 36.7445 459.78 35.3915 464.714 39.5352C 466.757 41.2516 467.554 44.759 469.934 45.9173C 472.989 47.4032 478.258 46.4 481.6 46.4C 478.915 25.6292 441.77 17.6562 435.337 40C 431.682 52.689 442.774 61.0922 453.6 64.4512C 458.67 66.0242 466.378 67.5267 467.937 73.6006C 469.387 79.2482 463.178 83.0336 458.4 83.156C 451.216 83.3408 445.55 79.2817 444.8 72z"/>
<path style="stroke:none; fill:#636155" d="M 463.734 27.4666C 463.378 27.8222 464.222 27.7778 464.266 27.7334C 464.622 27.3778 463.778 27.4222 463.734 27.4666z"/>
<path style="stroke:none; fill:#afada9" d="M 465.334 27.4666C 464.978 27.8222 465.822 27.7778 465.866 27.7334C 466.222 27.3778 465.378 27.4222 465.334 27.4666z"/>
<path style="stroke:none; fill:#636155" d="M 157.6 28L 157.6 73.6C 157.6 77.6701 155.81 87.42 158.422 90.7176C 160.457 93.2856 167.461 92 170.4 92L 170.4 91.2L 158.4 91.2L 158.4 48C 158.4 42.0162 159.922 33.535 157.6 28z"/>
<path style="stroke:none; fill:#332d1f" d="M 158.4 28L 158.4 91.2L 170.4 91.2L 170.4 70.4C 178.689 70.4 188.432 71.7939 196 67.6661C 207.614 61.3314 211.034 42.0941 199.926 33.4309C 189.073 24.9676 171.258 28 158.4 28z"/>
<path style="stroke:none; fill:#636155" d="M 185.6 28L 185.6 28.8L 188 28.8C 187.002 28.2522 186.762 28.201 185.6 28z"/>
<path style="stroke:none; fill:#afada9" d="M 188.534 28.2666C 188.178 28.6222 189.022 28.5778 189.066 28.5334C 189.422 28.1777 188.578 28.2222 188.534 28.2666z"/>
<path style="stroke:none; fill:#636155" d="M 215.2 28L 215.2 73.6C 215.2 77.6701 213.41 87.42 216.022 90.7176C 218.056 93.2856 225.061 92 228 92L 228 91.2L 216 91.2L 216 48C 216 42.0162 217.522 33.535 215.2 28z"/>
<path style="stroke:none; fill:#332d1f" d="M 216 28L 216 91.2L 228 91.2L 228 70.4C 231.326 70.4 236.779 69.3667 239.688 71.2222C 245.794 75.1178 245.032 86.2736 250.91 90.3776C 254.042 92.5648 261.107 91.2 264.8 91.2C 261.006 83.0744 256.522 74.9472 252 67.2C 266.957 62.4239 268.069 41.141 255.999 32.5105C 245.59 25.0672 228.066 28 216 28z"/>
<path style="stroke:none; fill:#636155" d="M 242.4 28L 242.4 28.8L 244.8 28.8C 243.802 28.2522 243.562 28.201 242.4 28z"/>
<path style="stroke:none; fill:#afada9" d="M 244.8 28L 244.8 28.8L 247.2 28.8C 246.202 28.2522 245.962 28.201 244.8 28M 274.4 28L 274.4 92L 275.2 92L 275.2 48C 275.2 42.0162 276.722 33.535 274.4 28z"/>
<path style="stroke:none; fill:#332d1f" d="M 275.2 28L 275.2 91.2L 317.6 91.2L 317.6 81.6L 288 81.6L 288 64.8L 312.8 64.8L 312.8 55.2L 288 55.2L 288 38.4L 317.6 38.4L 317.6 28L 275.2 28z"/>
<path style="stroke:none; fill:#afada9" d="M 317.6 28L 317.6 38.4L 318.4 38.4C 318.4 34.9893 318.929 31.167 317.6 28M 329.6 28L 329.6 92L 330.4 92L 330.4 48C 330.4 42.0162 331.922 33.535 329.6 28z"/>
<path style="stroke:none; fill:#332d1f" d="M 330.4 28L 330.4 91.2L 342.4 91.2L 342.4 48.8C 348.763 56.0179 351.138 70.1629 354.442 79.2C 355.59 82.3352 356.618 88.4392 359.535 90.3776C 361.908 91.9544 366.082 91.2 368.8 91.2C 372.742 76.761 379.362 63.0308 384 48.8L 384.8 48.8L 384.8 91.2L 396.8 91.2L 396.8 28C 392.818 28 384.656 26.4343 381.319 28.8222C 378.09 31.133 377.254 38.0525 375.958 41.6C 371.883 52.7502 367.679 63.913 364 75.2C 358.5 64.765 355.666 52.6374 351.539 41.6C 350.206 38.0317 349.314 31.1046 346.001 28.8222C 342.553 26.447 334.47 28 330.4 28z"/>
<path style="stroke:none; fill:#636155" d="M 346.4 28L 347.2 28.8L 346.4 28z"/>
<path style="stroke:none; fill:#afada9" d="M 380 28L 380.8 28.8L 380 28M 396.8 28L 396.8 92L 397.6 92L 397.6 48C 397.6 42.0161 399.122 33.535 396.8 28z"/>
<path style="stroke:none; fill:#636155" d="M 410.4 28L 410.4 73.6C 410.4 77.6701 408.61 87.42 411.222 90.7176C 413.256 93.2856 420.261 92 423.2 92L 423.2 91.2L 411.2 91.2L 411.2 48C 411.2 42.0162 412.722 33.5349 410.4 28z"/>
<path style="stroke:none; fill:#332d1f" d="M 411.2 28L 411.2 91.2L 423.2 91.2L 423.2 28L 411.2 28z"/>
<path style="stroke:none; fill:#afada9" d="M 423.2 28L 423.2 92L 424 92L 424 48C 424 42.0162 425.522 33.5349 423.2 28M 446.934 28.2666C 446.578 28.6222 447.422 28.5778 447.466 28.5334C 447.822 28.1778 446.978 28.2222 446.934 28.2666z"/>
<path style="stroke:none; fill:#636155" d="M 448 28L 448.8 28.8L 448 28M 467.2 28L 468 28.8L 467.2 28z"/>
<path style="stroke:none; fill:#afada9" d="M 468 28L 468.8 28.8L 468 28z"/>
<path style="stroke:none; fill:#332d1f" d="M 492.8 28L 492.8 91.2L 535.2 91.2L 535.2 81.6L 505.6 81.6L 505.6 64.8L 530.4 64.8L 530.4 55.2L 505.6 55.2L 505.6 38.4L 535.2 38.4L 535.2 28L 492.8 28z"/>
<path style="stroke:none; fill:#afada9" d="M 535.2 28L 535.2 38.4L 514.4 38.4C 512.158 38.4002 508.02 37.6656 506.422 39.6827C 504.074 42.6466 505.6 50.7544 505.6 54.4L 506.4 54.4L 506.4 39.2L 536 39.2C 536 35.5671 536.615 31.3732 535.2 28z"/>
<path style="stroke:none; fill:#636155" d="M 191.2 28.8L 192 29.6L 191.2 28.8z"/>
<path style="stroke:none; fill:#afada9" d="M 192 28.8L 192.8 29.6L 192 28.8z"/>
<path style="stroke:none; fill:#636155" d="M 248 28.8L 248.8 29.6L 248 28.8z"/>
<path style="stroke:none; fill:#afada9" d="M 249.334 29.0666C 248.978 29.4223 249.822 29.3778 249.866 29.3334C 250.222 28.9778 249.378 29.0222 249.334 29.0666M 347.466 29.3334C 347.422 29.3778 347.378 30.2222 347.734 29.8666C 347.778 29.8222 347.822 28.9778 347.466 29.3334z"/>
<path style="stroke:none; fill:#636155" d="M 380 28.8L 380.8 29.6L 380 28.8z"/>
<path style="stroke:none; fill:#afada9" d="M 444.8 28.8L 445.6 29.6L 444.8 28.8z"/>
<path style="stroke:none; fill:#636155" d="M 445.6 28.8L 446.4 29.6L 445.6 28.8z"/>
<path style="stroke:none; fill:#afada9" d="M 469.6 28.8L 470.4 29.6L 469.6 28.8z"/>
<path style="stroke:none; fill:#636155" d="M 193.6 29.6L 194.4 30.4L 193.6 29.6z"/>
<path style="stroke:none; fill:#afada9" d="M 194.4 29.6L 195.2 30.4L 194.4 29.6M 251.2 29.6L 252 30.4L 251.2 29.6M 379.2 29.6L 380 30.4L 379.2 29.6M 443.2 29.6L 444 30.4L 443.2 29.6z"/>
<path style="stroke:none; fill:#636155" d="M 471.2 29.6L 472 30.4L 471.2 29.6M 195.2 30.4L 196 31.2L 195.2 30.4z"/>
<path style="stroke:none; fill:#afada9" d="M 196 30.4L 196.8 31.2L 196 30.4z"/>
<path style="stroke:none; fill:#636155" d="M 252.8 30.4L 253.6 31.2L 252.8 30.4z"/>
<path style="stroke:none; fill:#afada9" d="M 253.6 30.4L 254.4 31.2L 253.6 30.4z"/>
<path style="stroke:none; fill:#636155" d="M 347.2 30.4L 348 31.2L 347.2 30.4M 379.2 30.4L 380 31.2L 379.2 30.4z"/>
<path style="stroke:none; fill:#afada9" d="M 441.6 30.4L 442.4 31.2L 441.6 30.4M 472.8 30.4L 473.6 31.2L 472.8 30.4z"/>
<path style="stroke:none; fill:#636155" d="M 196.8 31.2L 197.6 32L 196.8 31.2z"/>
<path style="stroke:none; fill:#afada9" d="M 197.6 31.2L 198.4 32L 197.6 31.2z"/>
<path style="stroke:none; fill:#636155" d="M 254.4 31.2L 255.2 32L 254.4 31.2z"/>
<path style="stroke:none; fill:#afada9" d="M 348 31.2L 348.8 32L 348 31.2z"/>
<path style="stroke:none; fill:#636155" d="M 440.8 31.2L 441.6 32L 440.8 31.2M 473.6 31.2L 474.4 32L 473.6 31.2z"/>
<path style="stroke:none; fill:#afada9" d="M 474.4 31.2L 475.2 32L 474.4 31.2M 198.4 32L 199.2 32.8L 198.4 32M 256 32L 256.8 32.8L 256 32z"/>
<path style="stroke:none; fill:#636155" d="M 348 32L 348.8 32.8L 348 32z"/>
<path style="stroke:none; fill:#afada9" d="M 378.4 32L 379.2 32.8L 378.4 32M 439.2 32L 440 32.8L 439.2 32M 475.2 32L 476 32.8L 475.2 32z"/>
<path style="stroke:none; fill:#636155" d="M 199.2 32.8L 200 33.6L 199.2 32.8M 256.8 32.8L 257.6 33.6L 256.8 32.8M 378.4 32.8L 379.2 33.6L 378.4 32.8z"/>
<path style="stroke:none; fill:#afada9" d="M 438.4 32.8L 439.2 33.6L 438.4 32.8M 476 32.8L 476.8 33.6L 476 32.8M 200.8 33.6L 201.6 34.4L 200.8 33.6z"/>
<path style="stroke:none; fill:#636155" d="M 257.6 33.6L 258.4 34.4L 257.6 33.6z"/>
<path style="stroke:none; fill:#afada9" d="M 348.8 33.6L 349.6 34.4L 348.8 33.6M 437.6 33.6L 438.4 34.4L 437.6 33.6M 476.8 33.6L 477.6 34.4L 476.8 33.6M 201.6 34.4L 202.4 35.2L 201.6 34.4z"/>
<path style="stroke:none; fill:#636155" d="M 258.4 34.4L 259.2 35.2L 258.4 34.4M 348.8 34.4L 349.6 35.2L 348.8 34.4z"/>
<path style="stroke:none; fill:#afada9" d="M 377.6 34.4L 378.4 35.2L 377.6 34.4M 477.6 34.4L 478.4 35.2L 477.6 34.4z"/>
<path style="stroke:none; fill:#636155" d="M 259.2 35.2L 260 36L 259.2 35.2M 377.6 35.2L 378.4 36L 377.6 35.2M 436.8 35.2L 437.6 36L 436.8 35.2M 202.4 36L 203.2 36.8L 202.4 36M 260 36L 260.8 36.8L 260 36z"/>
<path style="stroke:none; fill:#afada9" d="M 349.6 36L 350.4 36.8L 349.6 36M 436 36L 436.8 36.8L 436 36z"/>
<path style="stroke:none; fill:#636155" d="M 478.4 36L 479.2 36.8L 478.4 36z"/>
<path style="stroke:none; fill:#afada9" d="M 203.2 36.8L 204 37.6L 203.2 36.8M 260.8 36.8L 261.6 37.6L 260.8 36.8z"/>
<path style="stroke:none; fill:#636155" d="M 349.6 36.8L 350.4 37.6L 349.6 36.8z"/>
<path style="stroke:none; fill:#afada9" d="M 376.8 36.8L 377.6 37.6L 376.8 36.8z"/>
<path style="stroke:none; fill:#636155" d="M 455.2 36.8L 455.2 37.6L 457.6 37.6C 456.602 37.0522 456.362 37.001 455.2 36.8z"/>
<path style="stroke:none; fill:#afada9" d="M 457.6 36.8L 458.4 37.6L 457.6 36.8z"/>
<path style="stroke:none; fill:#636155" d="M 458.4 36.8L 458.4 37.6L 460.8 37.6C 459.802 37.0522 459.562 37.001 458.4 36.8z"/>
<path style="stroke:none; fill:#afada9" d="M 479.2 36.8L 480 37.6L 479.2 36.8z"/>
<path style="stroke:none; fill:#636155" d="M 376.8 37.6L 377.6 38.4L 376.8 37.6z"/>
<path style="stroke:none; fill:#afada9" d="M 435.2 37.6L 436 38.4L 435.2 37.6z"/>
<path style="stroke:none; fill:#636155" d="M 452.8 37.6L 453.6 38.4L 452.8 37.6z"/>
<path style="stroke:none; fill:#afada9" d="M 453.6 37.6L 454.4 38.4L 453.6 37.6M 461.6 37.6L 462.4 38.4L 461.6 37.6z"/>
<path style="stroke:none; fill:#636155" d="M 462.4 37.6L 463.2 38.4L 462.4 37.6M 479.2 37.6L 480 38.4L 479.2 37.6M 170.4 38.4L 171.2 39.2L 170.4 38.4z"/>
<path style="stroke:none; fill:#afada9" d="M 170.4 60L 171.2 60L 171.2 39.2L 185.6 39.2C 183.742 38.4206 182.03 38.4093 179.999 38.4006C 177.677 38.3907 173.636 37.6754 171.682 39.2222C 168.19 41.9884 170.4 55.7729 170.4 60z"/>
<path style="stroke:none; fill:#636155" d="M 186.134 38.6666C 185.778 39.0222 186.622 38.9778 186.666 38.9334C 187.022 38.5778 186.178 38.6222 186.134 38.6666M 204 38.4L 204.8 39.2L 204 38.4M 228 38.4L 228.8 39.2L 228 38.4z"/>
<path style="stroke:none; fill:#afada9" d="M 239.2 60L 239.2 59.2L 228.8 59.2L 228.8 39.2L 242.4 39.2C 231.853 34.7742 228 40.0958 228 49.6C 228 52.1206 227.027 57.3912 229.282 59.1778C 231.511 60.943 236.514 60 239.2 60z"/>
<path style="stroke:none; fill:#636155" d="M 242.934 38.6666C 242.578 39.0223 243.422 38.9778 243.466 38.9334C 243.822 38.5778 242.978 38.6222 242.934 38.6666M 261.6 38.4L 262.4 39.2L 261.6 38.4z"/>
<path style="stroke:none; fill:#afada9" d="M 288 38.4L 288 39.2L 317.6 39.2C 309.762 35.911 296.519 38.4 288 38.4M 350.4 38.4L 351.2 39.2L 350.4 38.4z"/>
<path style="stroke:none; fill:#636155" d="M 435.2 38.4L 436 39.2L 435.2 38.4M 451.2 38.4L 452 39.2L 451.2 38.4M 464 38.4L 464.8 39.2L 464 38.4z"/>
<path style="stroke:none; fill:#afada9" d="M 480 38.4L 480.8 39.2L 480 38.4z"/>
<path style="stroke:none; fill:#636155" d="M 505.6 38.4L 506.4 39.2L 505.6 38.4z"/>
<path style="stroke:none; fill:#ffffff" d="M 171.2 39.2L 171.2 60C 176.646 60 183.864 61.1802 188.716 58.1772C 194.55 54.567 195.151 43.5482 188.765 40.1432C 184.196 37.7074 176.262 39.2 171.2 39.2z"/>
<path style="stroke:none; fill:#afada9" d="M 188 39.2L 188.8 40L 188 39.2z"/>
<path style="stroke:none; fill:#ffffff" d="M 228.8 39.2L 228.8 59.2C 233.982 59.2 240.725 60.7226 245.566 58.5253C 251.798 55.6962 252.874 44.5453 247.113 40.6864C 242.527 37.615 234.082 39.2 228.8 39.2z"/>
<path style="stroke:none; fill:#afada9" d="M 244.8 39.2L 245.6 40L 244.8 39.2z"/>
<path style="stroke:none; fill:#636155" d="M 245.6 39.2L 246.4 40L 245.6 39.2M 350.4 39.2L 351.2 40L 350.4 39.2z"/>
<path style="stroke:none; fill:#afada9" d="M 376 39.2L 376.8 40L 376 39.2M 434.666 39.7334C 434.622 39.7778 434.578 40.6222 434.934 40.2666C 434.978 40.2222 435.022 39.3778 434.666 39.7334M 450.4 39.2L 451.2 40L 450.4 39.2M 464.8 39.2L 465.6 40L 464.8 39.2z"/>
<path style="stroke:none; fill:#636155" d="M 480 39.2L 480.8 40L 480 39.2M 189.6 40L 190.4 40.8L 189.6 40z"/>
<path style="stroke:none; fill:#afada9" d="M 204.8 40L 205.6 40.8L 204.8 40z"/>
<path style="stroke:none; fill:#636155" d="M 247.2 40L 248 40.8L 247.2 40z"/>
<path style="stroke:none; fill:#afada9" d="M 262.4 40L 263.2 40.8L 262.4 40z"/>
<path style="stroke:none; fill:#636155" d="M 376 40L 376.8 40.8L 376 40z"/>
<path style="stroke:none; fill:#afada9" d="M 449.6 40L 450.4 40.8L 449.6 40M 465.6 40L 466.4 40.8L 465.6 40M 190.4 40.8L 191.2 41.6L 190.4 40.8z"/>
<path style="stroke:none; fill:#636155" d="M 248 40.8L 248.8 41.6L 248 40.8z"/>
<path style="stroke:none; fill:#afada9" d="M 351.2 40.8L 352 41.6L 351.2 40.8M 375.466 41.3334C 375.422 41.3778 375.378 42.2222 375.734 41.8666C 375.778 41.8222 375.822 40.9778 375.466 41.3334z"/>
<path style="stroke:none; fill:#636155" d="M 434.666 41.3334C 434.622 41.3778 434.578 42.2222 434.934 41.8666C 434.978 41.8222 435.022 40.9778 434.666 41.3334z"/>
<path style="stroke:none; fill:#afada9" d="M 448.8 40.8L 449.6 41.6L 448.8 40.8z"/>
<path style="stroke:none; fill:#636155" d="M 466.4 40.8L 467.2 41.6L 466.4 40.8z"/>
<path style="stroke:none; fill:#afada9" d="M 481.066 41.3334C 481.022 41.3778 480.978 42.2223 481.334 41.8666C 481.378 41.8222 481.422 40.9778 481.066 41.3334M 191.2 41.6L 192 42.4L 191.2 41.6M 205.866 42.1334C 205.822 42.1778 205.778 43.0222 206.134 42.6666C 206.178 42.6222 206.222 41.7778 205.866 42.1334z"/>
<path style="stroke:none; fill:#636155" d="M 248.8 41.6L 249.6 42.4L 248.8 41.6z"/>
<path style="stroke:none; fill:#afada9" d="M 263.2 41.6L 264 42.4L 263.2 41.6z"/>
<path style="stroke:none; fill:#636155" d="M 351.2 41.6L 352 42.4L 351.2 41.6M 448 41.6L 448.8 42.4L 448 41.6M 192 42.4L 192.8 43.2L 192 42.4M 249.6 42.4L 250.4 43.2L 249.6 42.4M 263.466 42.9334C 263.422 42.9777 263.378 43.8222 263.734 43.4666C 263.778 43.4222 263.822 42.5778 263.466 42.9334z"/>
<path style="stroke:none; fill:#afada9" d="M 352 42.4L 352.8 43.2L 352 42.4z"/>
<path style="stroke:none; fill:#636155" d="M 375.2 42.4L 376 43.2L 375.2 42.4M 467.2 42.4L 468 43.2L 467.2 42.4M 481.066 42.9334C 481.022 42.9778 480.978 43.8223 481.334 43.4666C 481.378 43.4222 481.422 42.5778 481.066 42.9334z"/>
<path style="stroke:none; fill:#afada9" d="M 192 43.2L 192.8 44L 192 43.2z"/>
<path style="stroke:none; fill:#636155" d="M 205.6 43.2L 206.4 44L 205.6 43.2z"/>
<path style="stroke:none; fill:#afada9" d="M 249.6 43.2L 250.4 44L 249.6 43.2z"/>
<path style="stroke:none; fill:#636155" d="M 352 43.2L 352.8 44L 352 43.2z"/>
<path style="stroke:none; fill:#afada9" d="M 374.4 43.2L 375.2 44L 374.4 43.2z"/>
<path style="stroke:none; fill:#636155" d="M 447.466 43.7334C 447.422 43.7778 447.378 44.6222 447.734 44.2666C 447.778 44.2222 447.822 43.3778 447.466 43.7334z"/>
<path style="stroke:none; fill:#afada9" d="M 467.2 43.2L 468 44L 467.2 43.2z"/>
<path style="stroke:none; fill:#636155" d="M 374.4 44L 375.2 44.8L 374.4 44M 192.8 44.8L 193.6 45.6L 192.8 44.8z"/>
<path style="stroke:none; fill:#afada9" d="M 206.4 44.8L 206.4 54.4L 207.2 54.4C 207.2 51.2134 207.642 47.758 206.4 44.8z"/>
<path style="stroke:none; fill:#636155" d="M 250.4 44.8L 251.2 45.6L 250.4 44.8z"/>
<path style="stroke:none; fill:#afada9" d="M 264 44.8L 264 48.8L 264.8 48.8C 264.73 47.2287 264.623 46.2152 264 44.8M 352.8 44.8L 353.6 45.6L 352.8 44.8M 447.2 44.8L 448 45.6L 447.2 44.8z"/>
<path style="stroke:none; fill:#636155" d="M 468.266 45.3334C 468.222 45.3778 468.178 46.2222 468.534 45.8666C 468.578 45.8222 468.622 44.9778 468.266 45.3334z"/>
<path style="stroke:none; fill:#afada9" d="M 193.066 46.1334C 193.022 46.1778 192.978 47.0222 193.334 46.6666C 193.378 46.6222 193.422 45.7778 193.066 46.1334M 250.4 45.6L 250.4 48L 251.2 48C 250.999 46.8387 250.948 46.5987 250.4 45.6z"/>
<path style="stroke:none; fill:#636155" d="M 352.8 45.6L 353.6 46.4L 352.8 45.6z"/>
<path style="stroke:none; fill:#afada9" d="M 373.6 45.6L 374.4 46.4L 373.6 45.6z"/>
<path style="stroke:none; fill:#636155" d="M 447.2 45.6L 448 46.4L 447.2 45.6M 373.6 46.4L 374.4 47.2L 373.6 46.4z"/>
<path style="stroke:none; fill:#afada9" d="M 468 46.4L 468 47.2L 481.6 47.2C 477.621 45.5302 472.29 46.4 468 46.4M 353.6 47.2L 354.4 48L 353.6 47.2z"/>
<path style="stroke:none; fill:#636155" d="M 434.666 47.7334C 434.622 47.7778 434.578 48.6222 434.934 48.2666C 434.978 48.2222 435.022 47.3778 434.666 47.7334z"/>
<path style="stroke:none; fill:#afada9" d="M 448 47.2L 448.8 48L 448 47.2z"/>
<path style="stroke:none; fill:#636155" d="M 353.6 48L 354.4 48.8L 353.6 48z"/>
<path style="stroke:none; fill:#afada9" d="M 372.8 48L 373.6 48.8L 372.8 48M 448.8 48L 449.6 48.8L 448.8 48z"/>
<path style="stroke:none; fill:#636155" d="M 264.266 49.3334C 264.222 49.3778 264.178 50.2222 264.534 49.8666C 264.578 49.8222 264.622 48.9778 264.266 49.3334M 342.4 48.8L 342.4 91.2L 330.4 91.2L 330.4 92C 333.414 92 339.434 93.1448 341.918 91.1776C 344.382 89.2256 343.2 82.7808 343.2 80C 343.2 69.9949 341.677 58.5578 344 48.8L 342.4 48.8M 372.8 48.8L 373.6 49.6L 372.8 48.8M 384 48.8L 383.2 50.4C 384.21 49.623 384.314 49.845 384 48.8z"/>
<path style="stroke:none; fill:#afada9" d="M 434.4 48.8L 435.2 49.6L 434.4 48.8M 449.6 48.8L 450.4 49.6L 449.6 48.8M 343.2 49.6L 344 50.4L 343.2 49.6M 354.4 49.6L 355.2 50.4L 354.4 49.6M 384 49.6C 382.492 63.3172 384 78.1496 384 92L 384.8 92L 384.8 63.2C 384.8 58.9198 385.668 53.5753 384 49.6M 450.4 49.6L 451.2 50.4L 450.4 49.6z"/>
<path style="stroke:none; fill:#e9796b" d="M 5.6 50.4L 5.6 110.4L 6.4 110.4L 6.4 68.8C 6.4 63.2392 7.76057 55.5489 5.6 50.4z"/>
<path style="stroke:none; fill:#ffffff" d="M 6.4 50.4L 6.4 109.6L 65.6 109.6L 65.6 50.4L 6.4 50.4z"/>
<path style="stroke:none; fill:#f5bbb3" d="M 65.6 50.4L 65.6 109.6L 66.4 109.6L 66.4 68.8C 66.4 63.2392 67.7606 55.5489 65.6 50.4z"/>
<path style="stroke:none; fill:#afada9" d="M 192.8 50.4L 192.8 52.8L 193.6 52.8C 193.399 51.6387 193.348 51.3987 192.8 50.4M 250.4 50.4L 250.4 52.8L 251.2 52.8C 250.999 51.6387 250.948 51.3987 250.4 50.4M 264 50.4L 264 55.2L 264.8 55.2C 264.762 53.3978 264.699 52.0417 264 50.4z"/>
<path style="stroke:none; fill:#636155" d="M 354.4 50.4L 355.2 51.2L 354.4 50.4z"/>
<path style="stroke:none; fill:#afada9" d="M 372 50.4L 372.8 51.2L 372 50.4z"/>
<path style="stroke:none; fill:#636155" d="M 435.2 50.4L 436 51.2L 435.2 50.4M 451.2 50.4L 452 51.2L 451.2 50.4z"/>
<path style="stroke:none; fill:#afada9" d="M 452 50.4L 452.8 51.2L 452 50.4z"/>
<path style="stroke:none; fill:#636155" d="M 344 51.2L 344.8 52L 344 51.2M 372 51.2L 372.8 52L 372 51.2z"/>
<path style="stroke:none; fill:#afada9" d="M 435.2 51.2L 436 52L 435.2 51.2z"/>
<path style="stroke:none; fill:#636155" d="M 452.8 51.2L 453.6 52L 452.8 51.2z"/>
<path style="stroke:none; fill:#afada9" d="M 344 52L 344.8 52.8L 344 52M 355.2 52L 356 52.8L 355.2 52M 371.466 52.5334C 371.422 52.5777 371.378 53.4222 371.734 53.0666C 371.778 53.0222 371.822 52.1778 371.466 52.5334z"/>
<path style="stroke:none; fill:#636155" d="M 382.4 52L 383.2 52.8L 382.4 52M 436 52L 436.8 52.8L 436 52M 454.4 52L 455.2 52.8L 454.4 52z"/>
<path style="stroke:none; fill:#afada9" d="M 455.2 52L 456 52.8L 455.2 52z"/>
<path style="stroke:none; fill:#636155" d="M 192.8 52.8L 193.6 53.6L 192.8 52.8M 250.4 52.8L 251.2 53.6L 250.4 52.8M 355.2 52.8L 356 53.6L 355.2 52.8z"/>
<path style="stroke:none; fill:#afada9" d="M 382.4 52.8L 383.2 53.6L 382.4 52.8M 436 52.8L 436.8 53.6L 436 52.8z"/>
<path style="stroke:none; fill:#636155" d="M 456 52.8L 456.8 53.6L 456 52.8z"/>
<path style="stroke:none; fill:#afada9" d="M 456.8 52.8L 457.6 53.6L 456.8 52.8M 192 53.6L 192.8 54.4L 192 53.6M 249.6 53.6L 250.4 54.4L 249.6 53.6z"/>
<path style="stroke:none; fill:#636155" d="M 344.8 53.6L 345.6 54.4L 344.8 53.6z"/>
<path style="stroke:none; fill:#afada9" d="M 356.266 54.1334C 356.222 54.1778 356.178 55.0222 356.534 54.6666C 356.578 54.6222 356.622 53.7778 356.266 54.1334z"/>
<path style="stroke:none; fill:#636155" d="M 371.2 53.6L 372 54.4L 371.2 53.6z"/>
<path style="stroke:none; fill:#afada9" d="M 436.8 53.6L 437.6 54.4L 436.8 53.6z"/>
<path style="stroke:none; fill:#636155" d="M 458.4 53.6L 459.2 54.4L 458.4 53.6z"/>
<path style="stroke:none; fill:#afada9" d="M 459.2 53.6L 460 54.4L 459.2 53.6z"/>
<path style="stroke:none; fill:#636155" d="M 192 54.4L 192.8 55.2L 192 54.4M 249.6 54.4L 250.4 55.2L 249.6 54.4M 288 54.4L 288 55.2L 312.8 55.2C 306.106 52.3913 295.261 54.4 288 54.4z"/>
<path style="stroke:none; fill:#afada9" d="M 312.8 54.4L 312.8 64.8L 288 64.8L 288 65.6L 313.6 65.6C 313.6 61.967 314.215 57.7733 312.8 54.4M 344.8 54.4L 345.6 55.2L 344.8 54.4M 370.4 54.4L 371.2 55.2L 370.4 54.4z"/>
<path style="stroke:none; fill:#636155" d="M 381.6 54.4L 382.4 55.2L 381.6 54.4M 437.6 54.4L 438.4 55.2L 437.6 54.4M 460 54.4L 460.8 55.2L 460 54.4z"/>
<path style="stroke:none; fill:#afada9" d="M 460.8 54.4L 461.6 55.2L 460.8 54.4z"/>
<path style="stroke:none; fill:#636155" d="M 505.6 54.4L 505.6 55.2L 530.4 55.2L 530.4 64.8C 536.578 50.079 513.97 54.4 505.6 54.4z"/>
<path style="stroke:none; fill:#afada9" d="M 530.4 54.4L 531.2 55.2L 530.4 54.4M 191.2 55.2L 192 56L 191.2 55.2z"/>
<path style="stroke:none; fill:#636155" d="M 205.6 55.2L 206.4 56L 205.6 55.2z"/>
<path style="stroke:none; fill:#afada9" d="M 248.8 55.2L 249.6 56L 248.8 55.2z"/>
<path style="stroke:none; fill:#636155" d="M 356 55.2L 356.8 56L 356 55.2M 370.4 55.2L 371.2 56L 370.4 55.2z"/>
<path style="stroke:none; fill:#afada9" d="M 381.6 55.2L 382.4 56L 381.6 55.2M 437.6 55.2L 438.4 56L 437.6 55.2z"/>
<path style="stroke:none; fill:#636155" d="M 462.4 55.2L 463.2 56L 462.4 55.2z"/>
<path style="stroke:none; fill:#afada9" d="M 463.2 55.2L 464 56L 463.2 55.2M 205.6 56L 206.4 56.8L 205.6 56z"/>
<path style="stroke:none; fill:#636155" d="M 248.8 56L 249.6 56.8L 248.8 56M 263.2 56L 264 56.8L 263.2 56z"/>
<path style="stroke:none; fill:#afada9" d="M 345.866 56.5334C 345.822 56.5778 345.778 57.4222 346.134 57.0666C 346.178 57.0222 346.222 56.1778 345.866 56.5334M 356.8 56L 357.6 56.8L 356.8 56z"/>
<path style="stroke:none; fill:#636155" d="M 380.8 56L 381.6 56.8L 380.8 56z"/>
<path style="stroke:none; fill:#afada9" d="M 438.4 56L 439.2 56.8L 438.4 56z"/>
<path style="stroke:none; fill:#636155" d="M 464 56L 464.8 56.8L 464 56z"/>
<path style="stroke:none; fill:#afada9" d="M 464.8 56L 465.6 56.8L 464.8 56z"/>
<path style="stroke:none; fill:#636155" d="M 190.4 56.8L 191.2 57.6L 190.4 56.8M 248 56.8L 248.8 57.6L 248 56.8z"/>
<path style="stroke:none; fill:#afada9" d="M 263.2 56.8L 264 57.6L 263.2 56.8z"/>
<path style="stroke:none; fill:#636155" d="M 356.8 56.8L 357.6 57.6L 356.8 56.8z"/>
<path style="stroke:none; fill:#afada9" d="M 369.6 56.8L 370.4 57.6L 369.6 56.8M 380.8 56.8L 381.6 57.6L 380.8 56.8M 439.2 56.8L 440 57.6L 439.2 56.8z"/>
<path style="stroke:none; fill:#636155" d="M 466.4 56.8L 467.2 57.6L 466.4 56.8z"/>
<path style="stroke:none; fill:#afada9" d="M 467.2 56.8L 468 57.6L 467.2 56.8M 188.8 57.6L 189.6 58.4L 188.8 57.6z"/>
<path style="stroke:none; fill:#636155" d="M 204.8 57.6L 205.6 58.4L 204.8 57.6z"/>
<path style="stroke:none; fill:#afada9" d="M 246.4 57.6L 247.2 58.4L 246.4 57.6z"/>
<path style="stroke:none; fill:#636155" d="M 247.2 57.6L 248 58.4L 247.2 57.6M 262.4 57.6L 263.2 58.4L 262.4 57.6M 346.4 57.6L 347.2 58.4L 346.4 57.6M 369.6 57.6L 370.4 58.4L 369.6 57.6z"/>
<path style="stroke:none; fill:#afada9" d="M 440 57.6L 440.8 58.4L 440 57.6z"/>
<path style="stroke:none; fill:#636155" d="M 468 57.6L 468.8 58.4L 468 57.6z"/>
<path style="stroke:none; fill:#afada9" d="M 468.8 57.6L 469.6 58.4L 468.8 57.6z"/>
<path style="stroke:none; fill:#636155" d="M 188 58.4L 188.8 59.2L 188 58.4M 245.6 58.4L 246.4 59.2L 245.6 58.4z"/>
<path style="stroke:none; fill:#afada9" d="M 262.4 58.4L 263.2 59.2L 262.4 58.4M 346.4 58.4L 347.2 59.2L 346.4 58.4M 357.6 58.4L 358.4 59.2L 357.6 58.4z"/>
<path style="stroke:none; fill:#636155" d="M 380 58.4L 380.8 59.2L 380 58.4M 441.6 58.4L 442.4 59.2L 441.6 58.4M 469.6 58.4L 470.4 59.2L 469.6 58.4z"/>
<path style="stroke:none; fill:#afada9" d="M 470.4 58.4L 471.2 59.2L 470.4 58.4M 185.334 59.4666C 184.978 59.8222 185.822 59.7778 185.866 59.7334C 186.222 59.3778 185.378 59.4222 185.334 59.4666z"/>
<path style="stroke:none; fill:#636155" d="M 186.4 59.2L 187.2 60L 186.4 59.2M 204 59.2L 204.8 60L 204 59.2M 228 59.2L 228.8 60L 228 59.2z"/>
<path style="stroke:none; fill:#afada9" d="M 240.8 59.2L 240.8 60L 244 60C 242.795 59.4535 242.148 59.3393 240.8 59.2z"/>
<path style="stroke:none; fill:#636155" d="M 244 59.2L 244.8 60L 244 59.2M 261.6 59.2L 262.4 60L 261.6 59.2M 357.6 59.2L 358.4 60L 357.6 59.2z"/>
<path style="stroke:none; fill:#afada9" d="M 368.8 59.2L 369.6 60L 368.8 59.2M 380 59.2L 380.8 60L 380 59.2M 442.4 59.2L 443.2 60L 442.4 59.2z"/>
<path style="stroke:none; fill:#636155" d="M 471.2 59.2L 472 60L 471.2 59.2z"/>
<path style="stroke:none; fill:#afada9" d="M 472 59.2L 472.8 60L 472 59.2M 261.6 60L 262.4 60.8L 261.6 60z"/>
<path style="stroke:none; fill:#636155" d="M 347.2 60L 348 60.8L 347.2 60M 368.8 60L 369.6 60.8L 368.8 60z"/>
<path style="stroke:none; fill:#afada9" d="M 443.2 60L 444 60.8L 443.2 60z"/>
<path style="stroke:none; fill:#636155" d="M 444 60L 444.8 60.8L 444 60z"/>
<path style="stroke:none; fill:#afada9" d="M 472.8 60L 473.6 60.8L 472.8 60M 203.2 60.8L 204 61.6L 203.2 60.8M 260.8 60.8L 261.6 61.6L 260.8 60.8M 347.2 60.8L 348 61.6L 347.2 60.8M 358.4 60.8L 359.2 61.6L 358.4 60.8z"/>
<path style="stroke:none; fill:#636155" d="M 379.2 60.8L 380 61.6L 379.2 60.8z"/>
<path style="stroke:none; fill:#afada9" d="M 444.8 60.8L 445.6 61.6L 444.8 60.8z"/>
<path style="stroke:none; fill:#636155" d="M 445.6 60.8L 446.4 61.6L 445.6 60.8z"/>
<path style="stroke:none; fill:#afada9" d="M 474.4 60.8L 475.2 61.6L 474.4 60.8z"/>
<path style="stroke:none; fill:#636155" d="M 202.4 61.6L 203.2 62.4L 202.4 61.6z"/>
<path style="stroke:none; fill:#afada9" d="M 260 61.6L 260.8 62.4L 260 61.6z"/>
<path style="stroke:none; fill:#636155" d="M 358.4 61.6L 359.2 62.4L 358.4 61.6z"/>
<path style="stroke:none; fill:#afada9" d="M 368 61.6L 368.8 62.4L 368 61.6M 379.2 61.6L 380 62.4L 379.2 61.6M 446.4 61.6L 447.2 62.4L 446.4 61.6z"/>
<path style="stroke:none; fill:#636155" d="M 447.2 61.6L 448 62.4L 447.2 61.6z"/>
<path style="stroke:none; fill:#afada9" d="M 475.2 61.6L 476 62.4L 475.2 61.6z"/>
<path style="stroke:none; fill:#636155" d="M 201.6 62.4L 202.4 63.2L 201.6 62.4M 259.2 62.4L 260 63.2L 259.2 62.4M 348 62.4L 348.8 63.2L 348 62.4M 368 62.4L 368.8 63.2L 368 62.4z"/>
<path style="stroke:none; fill:#afada9" d="M 448 62.4L 448.8 63.2L 448 62.4z"/>
<path style="stroke:none; fill:#636155" d="M 448.8 62.4L 449.6 63.2L 448.8 62.4M 476 62.4L 476.8 63.2L 476 62.4M 200.8 63.2L 201.6 64L 200.8 63.2z"/>
<path style="stroke:none; fill:#afada9" d="M 258.4 63.2L 259.2 64L 258.4 63.2M 348 63.2L 348.8 64L 348 63.2M 359.2 63.2L 360 64L 359.2 63.2M 378.666 63.7334C 378.622 63.7777 378.578 64.6222 378.934 64.2666C 378.978 64.2222 379.022 63.3778 378.666 63.7334M 450.4 63.2L 451.2 64L 450.4 63.2z"/>
<path style="stroke:none; fill:#636155" d="M 476.8 63.2L 477.6 64L 476.8 63.2M 200 64L 200.8 64.8L 200 64z"/>
<path style="stroke:none; fill:#afada9" d="M 257.6 64L 258.4 64.8L 257.6 64z"/>
<path style="stroke:none; fill:#636155" d="M 348.8 64L 349.6 64.8L 348.8 64M 359.2 64L 360 64.8L 359.2 64z"/>
<path style="stroke:none; fill:#afada9" d="M 367.2 64L 368 64.8L 367.2 64M 452 64L 452.8 64.8L 452 64z"/>
<path style="stroke:none; fill:#636155" d="M 452.8 64L 453.6 64.8L 452.8 64M 477.6 64L 478.4 64.8L 477.6 64M 199.2 64.8L 200 65.6L 199.2 64.8M 256 64.8L 256.8 65.6L 256 64.8z"/>
<path style="stroke:none; fill:#afada9" d="M 349.066 65.3334C 349.022 65.3777 348.978 66.2222 349.334 65.8666C 349.378 65.8222 349.422 64.9778 349.066 65.3334z"/>
<path style="stroke:none; fill:#636155" d="M 367.2 64.8L 368 65.6L 367.2 64.8M 377.6 64.8L 378.4 65.6L 377.6 64.8z"/>
<path style="stroke:none; fill:#afada9" d="M 454.934 65.0666C 454.578 65.4222 455.422 65.3778 455.466 65.3334C 455.822 64.9778 454.978 65.0222 454.934 65.0666z"/>
<path style="stroke:none; fill:#636155" d="M 456 64.8L 456.8 65.6L 456 64.8M 478.4 64.8L 479.2 65.6L 478.4 64.8M 505.6 64.8L 506.4 65.6L 505.6 64.8z"/>
<path style="stroke:none; fill:#afada9" d="M 506.4 64.8L 506.4 65.6L 531.2 65.6C 524.506 62.7913 513.661 64.8 506.4 64.8z"/>
<path style="stroke:none; fill:#636155" d="M 198.4 65.6L 199.2 66.4L 198.4 65.6z"/>
<path style="stroke:none; fill:#afada9" d="M 255.2 65.6L 256 66.4L 255.2 65.6M 360 65.6L 360.8 66.4L 360 65.6M 366.666 66.1334C 366.622 66.1778 366.578 67.0222 366.934 66.6666C 366.978 66.6222 367.022 65.7778 366.666 66.1334M 377.6 65.6L 378.4 66.4L 377.6 65.6M 457.6 65.6L 458.4 66.4L 457.6 65.6z"/>
<path style="stroke:none; fill:#636155" d="M 458.4 65.6L 459.2 66.4L 458.4 65.6z"/>
<path style="stroke:none; fill:#afada9" d="M 479.2 65.6L 480 66.4L 479.2 65.6M 505.6 65.6L 505.6 80.8L 506.4 80.8C 506.4 76.079 507.436 69.9753 505.6 65.6M 197.6 66.4L 198.4 67.2L 197.6 66.4M 253.6 66.4L 254.4 67.2L 253.6 66.4z"/>
<path style="stroke:none; fill:#636155" d="M 349.6 66.4L 350.4 67.2L 349.6 66.4M 360 66.4L 360.8 67.2L 360 66.4z"/>
<path style="stroke:none; fill:#afada9" d="M 460 66.4L 460.8 67.2L 460 66.4z"/>
<path style="stroke:none; fill:#636155" d="M 460.8 66.4L 461.6 67.2L 460.8 66.4z"/>
<path style="stroke:none; fill:#afada9" d="M 480 66.4L 480.8 67.2L 480 66.4M 196 67.2L 196.8 68L 196 67.2z"/>
<path style="stroke:none; fill:#636155" d="M 252 67.2L 252.8 68L 252 67.2z"/>
<path style="stroke:none; fill:#afada9" d="M 349.6 67.2L 350.4 68L 349.6 67.2M 360.8 67.2L 361.6 68L 360.8 67.2z"/>
<path style="stroke:none; fill:#636155" d="M 366.4 67.2L 367.2 68L 366.4 67.2M 376.8 67.2L 377.6 68L 376.8 67.2z"/>
<path style="stroke:none; fill:#afada9" d="M 461.6 67.2L 462.4 68L 461.6 67.2z"/>
<path style="stroke:none; fill:#636155" d="M 462.4 67.2L 463.2 68L 462.4 67.2M 480 67.2L 480.8 68L 480 67.2M 194.4 68L 195.2 68.8L 194.4 68M 360.8 68L 361.6 68.8L 360.8 68z"/>
<path style="stroke:none; fill:#afada9" d="M 365.6 68L 366.4 68.8L 365.6 68M 376.8 68L 377.6 68.8L 376.8 68M 463.2 68L 464 68.8L 463.2 68z"/>
<path style="stroke:none; fill:#636155" d="M 464 68L 464.8 68.8L 464 68z"/>
<path style="stroke:none; fill:#afada9" d="M 480.8 68L 481.6 68.8L 480.8 68z"/>
<path style="stroke:none; fill:#636155" d="M 192 68.8L 192.8 69.6L 192 68.8z"/>
<path style="stroke:none; fill:#afada9" d="M 192.8 68.8L 193.6 69.6L 192.8 68.8M 252.8 68.8L 253.6 69.6L 252.8 68.8z"/>
<path style="stroke:none; fill:#636155" d="M 350.4 68.8L 351.2 69.6L 350.4 68.8M 365.6 68.8L 366.4 69.6L 365.6 68.8M 464.8 68.8L 465.6 69.6L 464.8 68.8M 480.8 68.8L 481.6 69.6L 480.8 68.8M 189.334 69.8666C 188.978 70.2222 189.822 70.1778 189.866 70.1334C 190.222 69.7778 189.378 69.8222 189.334 69.8666z"/>
<path style="stroke:none; fill:#afada9" d="M 190.4 69.6L 191.2 70.4L 190.4 69.6M 350.4 69.6L 351.2 70.4L 350.4 69.6M 361.6 69.6L 362.4 70.4L 361.6 69.6z"/>
<path style="stroke:none; fill:#636155" d="M 376 69.6L 376.8 70.4L 376 69.6M 465.6 69.6L 466.4 70.4L 465.6 69.6M 170.4 70.4L 171.2 71.2L 170.4 70.4z"/>
<path style="stroke:none; fill:#afada9" d="M 171.2 70.4L 171.2 71.2L 188 71.2C 183.233 69.1996 176.349 70.4 171.2 70.4z"/>
<path style="stroke:none; fill:#636155" d="M 228 70.4L 228.8 71.2L 228 70.4z"/>
<path style="stroke:none; fill:#afada9" d="M 228.8 70.4L 228.8 71.2C 232.865 71.2 236.824 71.0534 240.8 72C 237.538 69.5288 232.756 70.4 228.8 70.4z"/>
<path style="stroke:none; fill:#636155" d="M 240 70.4L 240.8 71.2L 240 70.4M 253.6 70.4L 254.4 71.2L 253.6 70.4M 361.6 70.4L 362.4 71.2L 361.6 70.4z"/>
<path style="stroke:none; fill:#afada9" d="M 364.8 70.4L 365.6 71.2L 364.8 70.4M 376 70.4L 376.8 71.2L 376 70.4z"/>
<path style="stroke:none; fill:#636155" d="M 466.4 70.4L 467.2 71.2L 466.4 70.4z"/>
<path style="stroke:none; fill:#afada9" d="M 481.6 70.4L 482.4 71.2L 481.6 70.4M 170.4 71.2L 170.4 92L 171.2 92C 171.2 85.7912 172.806 76.9349 170.4 71.2M 228 71.2L 228 92L 228.8 92C 228.8 85.7912 230.406 76.9349 228 71.2z"/>
<path style="stroke:none; fill:#636155" d="M 351.2 71.2L 352 72L 351.2 71.2M 364.8 71.2L 365.6 72L 364.8 71.2M 375.2 71.2L 376 72L 375.2 71.2M 467.2 71.2L 468 72L 467.2 71.2M 481.866 71.7334C 481.822 71.7778 481.778 72.6222 482.134 72.2666C 482.178 72.2222 482.222 71.3778 481.866 71.7334M 240.8 72L 241.6 72.8L 240.8 72M 254.4 72L 255.2 72.8L 254.4 72z"/>
<path style="stroke:none; fill:#afada9" d="M 351.2 72L 352 72.8L 351.2 72M 362.4 72L 363.2 72.8L 362.4 72M 375.2 72L 376 72.8L 375.2 72M 444.8 72L 444.8 74.4L 445.6 74.4C 445.399 73.2387 445.348 72.9986 444.8 72M 467.2 72L 468 72.8L 467.2 72M 240.8 72.8L 241.6 73.6L 240.8 72.8M 255.2 72.8L 256 73.6L 255.2 72.8z"/>
<path style="stroke:none; fill:#636155" d="M 352 72.8L 352.8 73.6L 352 72.8M 362.4 72.8L 363.2 73.6L 362.4 72.8z"/>
<path style="stroke:none; fill:#afada9" d="M 364 72.8L 364.8 73.6L 364 72.8z"/>
<path style="stroke:none; fill:#636155" d="M 241.6 73.6L 242.4 74.4L 241.6 73.6M 255.2 73.6L 256 74.4L 255.2 73.6z"/>
<path style="stroke:none; fill:#afada9" d="M 352 73.6L 352.8 74.4L 352 73.6z"/>
<path style="stroke:none; fill:#636155" d="M 364 73.6L 364.8 74.4L 364 73.6M 374.4 73.6L 375.2 74.4L 374.4 73.6M 468 73.6L 468 76L 468.8 76C 468.599 74.8386 468.548 74.5988 468 73.6z"/>
<path style="stroke:none; fill:#afada9" d="M 482.4 73.6L 482.4 77.6L 483.2 77.6C 483.13 76.0287 483.023 75.0152 482.4 73.6M 241.6 74.4L 242.4 75.2L 241.6 74.4M 256 74.4L 256.8 75.2L 256 74.4z"/>
<path style="stroke:none; fill:#636155" d="M 363.2 74.4L 364 75.2L 363.2 74.4z"/>
<path style="stroke:none; fill:#afada9" d="M 374.4 74.4L 375.2 75.2L 374.4 74.4z"/>
<path style="stroke:none; fill:#636155" d="M 432.266 74.9334C 432.222 74.9778 432.178 75.8222 432.534 75.4666C 432.578 75.4223 432.622 74.5777 432.266 74.9334M 445.066 74.9334C 445.022 74.9779 444.978 75.8222 445.334 75.4666C 445.378 75.4223 445.422 74.5777 445.066 74.9334M 242.4 75.2L 243.2 76L 242.4 75.2M 256 75.2L 256.8 76L 256 75.2M 352.8 75.2L 353.6 76L 352.8 75.2z"/>
<path style="stroke:none; fill:#afada9" d="M 242.4 76L 243.2 76.8L 242.4 76M 256.8 76L 257.6 76.8L 256.8 76M 352.8 76L 353.6 76.8L 352.8 76z"/>
<path style="stroke:none; fill:#636155" d="M 373.6 76L 374.4 76.8L 373.6 76z"/>
<path style="stroke:none; fill:#afada9" d="M 432.266 76.5334C 432.222 76.5778 432.178 77.4222 432.534 77.0666C 432.578 77.0223 432.622 76.1777 432.266 76.5334M 445.6 76L 446.4 76.8L 445.6 76z"/>
<path style="stroke:none; fill:#636155" d="M 243.2 76.8L 244 77.6L 243.2 76.8M 256.8 76.8L 257.6 77.6L 256.8 76.8z"/>
<path style="stroke:none; fill:#afada9" d="M 373.6 76.8L 374.4 77.6L 373.6 76.8z"/>
<path style="stroke:none; fill:#636155" d="M 445.6 76.8L 446.4 77.6L 445.6 76.8z"/>
<path style="stroke:none; fill:#afada9" d="M 467.466 77.3334C 467.422 77.3779 467.378 78.2222 467.734 77.8666C 467.778 77.8222 467.822 76.9778 467.466 77.3334M 243.2 77.6L 244 78.4L 243.2 77.6M 257.6 77.6L 258.4 78.4L 257.6 77.6z"/>
<path style="stroke:none; fill:#636155" d="M 353.6 77.6L 354.4 78.4L 353.6 77.6z"/>
<path style="stroke:none; fill:#afada9" d="M 546.4 77.6L 546.4 78.4C 549.985 78.4 553.85 77.7646 556.8 80C 558.202 76.2792 548.745 77.6 546.4 77.6M 559.2 77.6L 559.2 78.4L 563.2 79.2C 561.769 78.0627 561.035 77.8421 559.2 77.6M 569.6 77.6L 569.6 78.4L 572.8 78.4L 572.8 92L 573.6 92L 573.6 77.6L 569.6 77.6z"/>
<path style="stroke:none; fill:#636155" d="M 244 78.4L 244.8 79.2L 244 78.4z"/>
<path style="stroke:none; fill:#afada9" d="M 353.6 78.4L 354.4 79.2L 353.6 78.4z"/>
<path style="stroke:none; fill:#636155" d="M 372.8 78.4L 373.6 79.2L 372.8 78.4M 432.8 78.4L 433.6 79.2L 432.8 78.4M 446.4 78.4L 447.2 79.2L 446.4 78.4z"/>
<path style="stroke:none; fill:#332d1f" d="M 546.4 78.4L 546.4 80L 551.2 80L 551.2 91.2L 552.8 91.2L 552.8 80L 556.8 80L 556.8 78.4L 546.4 78.4M 559.2 78.4L 559.2 91.2L 560.8 91.2L 560.8 81.6L 561.6 81.6C 562.904 84.9616 564.092 88.404 566.4 91.2C 568.038 88.124 569.283 84.9016 570.4 81.6L 571.2 81.6L 571.2 91.2L 572.8 91.2L 572.8 78.4L 569.6 78.4C 568.772 81.4264 567.534 84.2768 566.4 87.2C 564.226 83.7696 563.62 79.1651 559.2 78.4z"/>
<path style="stroke:none; fill:#afada9" d="M 244 79.2L 244.8 80L 244 79.2M 258.4 79.2L 259.2 80L 258.4 79.2M 372.8 79.2L 373.6 80L 372.8 79.2M 432.8 79.2L 433.6 80L 432.8 79.2z"/>
<path style="stroke:none; fill:#636155" d="M 447.2 79.2L 448 80L 447.2 79.2M 466.4 79.2L 467.2 80L 466.4 79.2M 481.6 79.2L 482.4 80L 481.6 79.2M 562.4 79.2L 563.2 80L 562.4 79.2z"/>
<path style="stroke:none; fill:#afada9" d="M 568.8 79.2L 569.6 80L 568.8 79.2z"/>
<path style="stroke:none; fill:#636155" d="M 244.8 80L 245.6 80.8L 244.8 80M 354.4 80L 355.2 80.8L 354.4 80M 372 80L 372.8 80.8L 372 80M 448 80L 448.8 80.8L 448 80z"/>
<path style="stroke:none; fill:#afada9" d="M 465.6 80L 466.4 80.8L 465.6 80M 481.866 80.5336C 481.822 80.5776 481.778 81.4224 482.134 81.0664C 482.178 81.0224 482.222 80.1776 481.866 80.5336M 550.4 80L 550.4 92L 551.2 92C 551.2 88.1464 551.901 83.5768 550.4 80M 552.8 80L 552.8 92L 553.6 92C 553.6 88.1464 554.301 83.5768 552.8 80z"/>
<path style="stroke:none; fill:#636155" d="M 568.8 80L 569.6 80.8L 568.8 80z"/>
<path style="stroke:none; fill:#afada9" d="M 244.8 80.8L 245.6 81.6L 244.8 80.8z"/>
<path style="stroke:none; fill:#636155" d="M 259.2 80.8L 260 81.6L 259.2 80.8M 288 80.8L 288 81.6L 317.6 81.6C 309.762 78.311 296.519 80.8 288 80.8z"/>
<path style="stroke:none; fill:#afada9" d="M 317.6 80.8L 317.6 92L 318.4 92C 318.4 88.3672 319.015 84.1736 317.6 80.8M 354.4 80.8L 355.2 81.6L 354.4 80.8M 372 80.8L 372.8 81.6L 372 80.8z"/>
<path style="stroke:none; fill:#636155" d="M 433.6 80.8L 434.4 81.6L 433.6 80.8z"/>
<path style="stroke:none; fill:#afada9" d="M 449.6 80.8L 450.4 81.6L 449.6 80.8M 464.8 80.8L 465.6 81.6L 464.8 80.8z"/>
<path style="stroke:none; fill:#636155" d="M 505.6 80.8L 505.6 81.6L 535.2 81.6C 527.362 78.3109 514.119 80.8 505.6 80.8z"/>
<path style="stroke:none; fill:#afada9" d="M 535.2 80.8L 535.2 92L 536 92C 536 88.3672 536.615 84.1728 535.2 80.8M 563.2 80.8L 564 81.6L 563.2 80.8z"/>
<path style="stroke:none; fill:#636155" d="M 245.6 81.6L 246.4 82.4L 245.6 81.6M 355.2 81.6L 356 82.4L 355.2 81.6M 450.4 81.6L 451.2 82.4L 450.4 81.6z"/>
<path style="stroke:none; fill:#afada9" d="M 451.734 81.8664C 451.378 82.2224 452.222 82.1776 452.266 82.1336C 452.622 81.7776 451.778 81.8224 451.734 81.8664M 463.2 81.6L 464 82.4L 463.2 81.6z"/>
<path style="stroke:none; fill:#636155" d="M 464 81.6L 464.8 82.4L 464 81.6M 560.8 81.6C 560.8 84.9912 561.31 88.4144 559.2 91.2L 559.2 92C 562.414 89.9168 562.186 84.9024 560.8 81.6M 563.2 81.6L 564 82.4L 563.2 81.6z"/>
<path style="stroke:none; fill:#afada9" d="M 568 81.6L 568.8 82.4L 568 81.6z"/>
<path style="stroke:none; fill:#636155" d="M 570.4 81.6L 569.6 83.2C 570.61 82.4232 570.714 82.6448 570.4 81.6z"/>
<path style="stroke:none; fill:#afada9" d="M 245.6 82.4L 246.4 83.2L 245.6 82.4z"/>
<path style="stroke:none; fill:#636155" d="M 260 82.4L 260.8 83.2L 260 82.4z"/>
<path style="stroke:none; fill:#afada9" d="M 355.2 82.4L 356 83.2L 355.2 82.4z"/>
<path style="stroke:none; fill:#636155" d="M 371.2 82.4L 372 83.2L 371.2 82.4z"/>
<path style="stroke:none; fill:#afada9" d="M 434.4 82.4L 435.2 83.2L 434.4 82.4z"/>
<path style="stroke:none; fill:#636155" d="M 453.6 82.4L 454.4 83.2L 453.6 82.4z"/>
<path style="stroke:none; fill:#afada9" d="M 454.4 82.4L 454.4 83.2L 461.6 83.2C 459.288 82.2296 456.901 82.4016 454.4 82.4z"/>
<path style="stroke:none; fill:#636155" d="M 461.6 82.4L 462.4 83.2L 461.6 82.4M 480.8 82.4L 481.6 83.2L 480.8 82.4z"/>
<path style="stroke:none; fill:#afada9" d="M 561.6 82.4L 562.4 83.2L 561.6 82.4M 564 82.4L 564.8 83.2L 564 82.4M 570.4 82.4C 570.052 85.5656 570.398 88.8 570.4 92L 571.2 92C 571.2 88.8136 571.642 85.3576 570.4 82.4z"/>
<path style="stroke:none; fill:#636155" d="M 246.4 83.2L 247.2 84L 246.4 83.2z"/>
<path style="stroke:none; fill:#afada9" d="M 260.8 83.2L 261.6 84L 260.8 83.2M 371.2 83.2L 372 84L 371.2 83.2z"/>
<path style="stroke:none; fill:#636155" d="M 435.2 83.2L 436 84L 435.2 83.2z"/>
<path style="stroke:none; fill:#afada9" d="M 480.8 83.2L 481.6 84L 480.8 83.2z"/>
<path style="stroke:none; fill:#636155" d="M 564 83.2L 564.8 84L 564 83.2z"/>
<path style="stroke:none; fill:#afada9" d="M 567.2 83.2L 568 84L 567.2 83.2M 246.4 84L 247.2 84.8L 246.4 84z"/>
<path style="stroke:none; fill:#636155" d="M 260.8 84L 261.6 84.8L 260.8 84M 356 84L 356.8 84.8L 356 84z"/>
<path style="stroke:none; fill:#afada9" d="M 435.2 84L 436 84.8L 435.2 84z"/>
<path style="stroke:none; fill:#636155" d="M 480 84L 480.8 84.8L 480 84M 562.4 84L 563.2 84.8L 562.4 84M 567.2 84L 568 84.8L 567.2 84M 247.2 84.8L 248 85.6L 247.2 84.8z"/>
<path style="stroke:none; fill:#afada9" d="M 261.6 84.8L 262.4 85.6L 261.6 84.8M 356 84.8L 356.8 85.6L 356 84.8z"/>
<path style="stroke:none; fill:#636155" d="M 370.4 84.8L 371.2 85.6L 370.4 84.8z"/>
<path style="stroke:none; fill:#afada9" d="M 436 84.8L 436.8 85.6L 436 84.8M 480 84.8L 480.8 85.6L 480 84.8M 562.4 84.8L 563.2 85.6L 562.4 84.8M 564.8 84.8L 565.6 85.6L 564.8 84.8z"/>
<path style="stroke:none; fill:#636155" d="M 568.8 84.8L 569.6 85.6L 568.8 84.8z"/>
<path style="stroke:none; fill:#afada9" d="M 247.2 85.6L 248 86.4L 247.2 85.6z"/>
<path style="stroke:none; fill:#636155" d="M 261.6 85.6L 262.4 86.4L 261.6 85.6z"/>
<path style="stroke:none; fill:#afada9" d="M 370.4 85.6L 371.2 86.4L 370.4 85.6M 436.8 85.6L 437.6 86.4L 436.8 85.6M 479.2 85.6L 480 86.4L 479.2 85.6z"/>
<path style="stroke:none; fill:#636155" d="M 564.8 85.6L 565.6 86.4L 564.8 85.6z"/>
<path style="stroke:none; fill:#afada9" d="M 566.4 85.6L 567.2 86.4L 566.4 85.6M 568.8 85.6L 569.6 86.4L 568.8 85.6z"/>
<path style="stroke:none; fill:#636155" d="M 248 86.4L 248.8 87.2L 248 86.4z"/>
<path style="stroke:none; fill:#afada9" d="M 262.4 86.4L 263.2 87.2L 262.4 86.4z"/>
<path style="stroke:none; fill:#636155" d="M 356.8 86.4L 357.6 87.2L 356.8 86.4z"/>
<path style="stroke:none; fill:#afada9" d="M 437.6 86.4L 438.4 87.2L 437.6 86.4z"/>
<path style="stroke:none; fill:#636155" d="M 478.4 86.4L 479.2 87.2L 478.4 86.4z"/>
<path style="stroke:none; fill:#afada9" d="M 563.2 86.4L 564 87.2L 563.2 86.4M 565.6 86.4L 566.4 87.2L 565.6 86.4z"/>
<path style="stroke:none; fill:#636155" d="M 568 86.4L 568.8 87.2L 568 86.4z"/>
<path style="stroke:none; fill:#afada9" d="M 248 87.2L 248.8 88L 248 87.2z"/>
<path style="stroke:none; fill:#636155" d="M 262.4 87.2L 263.2 88L 262.4 87.2z"/>
<path style="stroke:none; fill:#afada9" d="M 356.8 87.2L 357.6 88L 356.8 87.2M 369.866 87.7336C 369.822 87.7776 369.778 88.6224 370.134 88.2664C 370.178 88.2224 370.222 87.3776 369.866 87.7336M 438.4 87.2L 439.2 88L 438.4 87.2z"/>
<path style="stroke:none; fill:#636155" d="M 477.6 87.2L 478.4 88L 477.6 87.2z"/>
<path style="stroke:none; fill:#afada9" d="M 568 87.2L 568.8 88L 568 87.2z"/>
<path style="stroke:none; fill:#636155" d="M 248.8 88L 249.6 88.8L 248.8 88z"/>
<path style="stroke:none; fill:#afada9" d="M 263.2 88L 264 88.8L 263.2 88M 439.2 88L 440 88.8L 439.2 88z"/>
<path style="stroke:none; fill:#636155" d="M 440 88L 440.8 88.8L 440 88M 476.8 88L 477.6 88.8L 476.8 88M 564 88L 564.8 88.8L 564 88z"/>
<path style="stroke:none; fill:#afada9" d="M 248.8 88.8L 249.6 89.6L 248.8 88.8M 357.866 89.3336C 357.822 89.3776 357.778 90.2224 358.134 89.8664C 358.178 89.8224 358.222 88.9776 357.866 89.3336z"/>
<path style="stroke:none; fill:#636155" d="M 368.8 88.8L 369.6 89.6L 368.8 88.8z"/>
<path style="stroke:none; fill:#afada9" d="M 440.8 88.8L 441.6 89.6L 440.8 88.8z"/>
<path style="stroke:none; fill:#636155" d="M 476 88.8L 476.8 89.6L 476 88.8z"/>
<path style="stroke:none; fill:#afada9" d="M 564 88.8L 564.8 89.6L 564 88.8z"/>
<path style="stroke:none; fill:#636155" d="M 567.2 88.8L 568 89.6L 567.2 88.8M 249.6 89.6L 250.4 90.4L 249.6 89.6z"/>
<path style="stroke:none; fill:#afada9" d="M 264 89.6L 264.8 90.4L 264 89.6M 368.8 89.6L 369.6 90.4L 368.8 89.6M 441.6 89.6L 442.4 90.4L 441.6 89.6z"/>
<path style="stroke:none; fill:#636155" d="M 442.4 89.6L 443.2 90.4L 442.4 89.6M 474.4 89.6L 475.2 90.4L 474.4 89.6z"/>
<path style="stroke:none; fill:#afada9" d="M 475.2 89.6L 476 90.4L 475.2 89.6z"/>
<path style="stroke:none; fill:#636155" d="M 564.8 89.6L 565.6 90.4L 564.8 89.6z"/>
<path style="stroke:none; fill:#afada9" d="M 567.2 89.6L 568 90.4L 567.2 89.6M 249.6 90.4L 250.4 91.2L 249.6 90.4z"/>
<path style="stroke:none; fill:#636155" d="M 358.4 90.4L 358.4 91.2C 361.809 92.2072 365.262 92 368.8 92L 368.8 91.2C 365.25 91.2 361.87 91.2264 358.4 90.4z"/>
<path style="stroke:none; fill:#afada9" d="M 443.2 90.4L 444 91.2L 443.2 90.4z"/>
<path style="stroke:none; fill:#636155" d="M 444 90.4L 444.8 91.2L 444 90.4M 472.8 90.4L 473.6 91.2L 472.8 90.4z"/>
<path style="stroke:none; fill:#afada9" d="M 473.6 90.4L 474.4 91.2L 473.6 90.4M 564.8 90.4L 565.6 91.2L 564.8 90.4z"/>
<path style="stroke:none; fill:#636155" d="M 566.4 90.4L 565.6 92C 566.61 91.2232 566.714 91.4448 566.4 90.4z"/>
<path style="stroke:none; fill:#afada9" d="M 157.6 91.2L 158.4 92L 157.6 91.2M 215.2 91.2L 216 92L 215.2 91.2z"/>
<path style="stroke:none; fill:#636155" d="M 250.4 91.2L 250.4 92L 264.8 92C 260.622 90.2472 254.906 91.2 250.4 91.2z"/>
<path style="stroke:none; fill:#afada9" d="M 264.8 91.2L 265.6 92L 264.8 91.2z"/>
<path style="stroke:none; fill:#636155" d="M 275.2 91.2L 275.2 92L 317.6 92C 313.625 90.332 308.28 91.2 304 91.2L 275.2 91.2z"/>
<path style="stroke:none; fill:#afada9" d="M 342.4 91.2L 343.2 92L 342.4 91.2M 358.4 91.2L 359.2 92L 358.4 91.2z"/>
<path style="stroke:none; fill:#636155" d="M 384.8 91.2L 384.8 92L 396.8 92C 393.222 90.4992 388.654 91.2 384.8 91.2z"/>
<path style="stroke:none; fill:#afada9" d="M 410.4 91.2L 411.2 92L 410.4 91.2M 445.6 91.2L 446.4 92L 445.6 91.2z"/>
<path style="stroke:none; fill:#636155" d="M 446.4 91.2L 447.2 92L 446.4 91.2M 471.2 91.2L 472 92L 471.2 91.2z"/>
<path style="stroke:none; fill:#afada9" d="M 472 91.2L 472.8 92L 472 91.2z"/>
<path style="stroke:none; fill:#636155" d="M 492.8 91.2L 492.8 92L 535.2 92C 531.225 90.332 525.88 91.2 521.6 91.2L 492.8 91.2M 551.734 91.4664C 551.378 91.8224 552.222 91.7776 552.266 91.7336C 552.622 91.3776 551.778 91.4224 551.734 91.4664z"/>
<path style="stroke:none; fill:#afada9" d="M 560.8 91.2L 561.6 92L 560.8 91.2M 566.4 91.2L 567.2 92L 566.4 91.2z"/>
<path style="stroke:none; fill:#636155" d="M 571.734 91.4664C 571.378 91.8224 572.222 91.7776 572.266 91.7336C 572.622 91.3776 571.778 91.4224 571.734 91.4664z"/>
<path style="stroke:none; fill:#afada9" d="M 448.534 92.2664C 448.178 92.6224 449.022 92.5776 449.066 92.5336C 449.422 92.1776 448.578 92.2224 448.534 92.2664z"/>
<path style="stroke:none; fill:#636155" d="M 449.6 92L 450.4 92.8L 449.6 92M 468 92L 468.8 92.8L 468 92z"/>
<path style="stroke:none; fill:#afada9" d="M 469.334 92.2664C 468.978 92.6224 469.822 92.5776 469.866 92.5336C 470.222 92.1776 469.378 92.2224 469.334 92.2664M 451.2 92.8L 451.2 93.6L 454.4 93.6C 453.195 93.0536 452.548 92.9392 451.2 92.8z"/>
<path style="stroke:none; fill:#636155" d="M 454.4 92.8L 454.4 93.6L 464 93.6C 461.042 92.3592 457.586 92.8 454.4 92.8z"/>
<path style="stroke:none; fill:#afada9" d="M 464 92.8L 464 93.6L 467.2 93.6C 465.995 93.0536 465.348 92.9392 464 92.8z"/>
<path style="stroke:none; fill:#f5bbb3" d="M 6.4 109.6L 6.4 110.4L 65.6 110.4C 60.4511 108.239 52.7608 109.6 47.2 109.6L 6.4 109.6z"/>
</g>
</svg>