<?xml version="1.0" encoding="UTF-8" standalone="no"?>
<!DOCTYPE svg PUBLIC "-//W3C//DTD SVG 1.1//EN" "http://www.w3.org/Graphics/SVG/1.1/DTD/svg11.dtd">
<svg width="100%" height="100%" viewBox="0 0 135417 38284" version="1.1" xmlns="http://www.w3.org/2000/svg" xmlns:xlink="http://www.w3.org/1999/xlink" xml:space="preserve" xmlns:serif="http://www.serif.com/" style="fill-rule:evenodd;clip-rule:evenodd;stroke-linejoin:round;stroke-miterlimit:2;">
    <g transform="matrix(115.862,0,0,115.862,-43552.3,-43070.8)">
        <path d="M377.979,603L428.335,476.629L457.222,476.629L507.666,603L479.39,603L469.092,576.469L416.379,576.469L406.081,603L377.979,603ZM425.542,552.993L460.015,552.993L442.822,508.571L425.542,552.993ZM527.477,603L527.477,476.629L558.197,476.629L615.012,565.124L615.012,476.629L641.193,476.629L641.193,603L610.561,603L553.659,514.593L553.659,603L527.477,603ZM705.252,603L705.252,501.065L662.837,501.065L662.837,476.629L774.808,476.629L774.808,501.065L732.393,501.065L732.393,603L705.252,603ZM796.452,603L796.452,476.629L823.506,476.629L823.506,526.985L883.113,526.985L883.113,476.629L910.168,476.629L910.168,603L883.113,603L883.113,551.422L823.506,551.422L823.506,603L796.452,603ZM943.593,603L943.593,476.629L1005.38,476.629C1014.87,476.629 1023.07,478.2 1029.99,481.342C1036.92,484.425 1042.24,488.847 1045.96,494.607C1049.69,500.367 1051.55,507.204 1051.55,515.116C1051.55,523.436 1049.48,530.593 1045.35,536.585C1041.22,542.52 1035.38,546.913 1027.81,549.764L1057.83,603L1027.9,603L1000.84,553.516L970.735,553.516L970.735,603L943.593,603ZM1004.07,529.255C1010.71,529.255 1015.77,528.062 1019.26,525.676C1022.75,523.233 1024.5,519.713 1024.5,515.116C1024.5,510.462 1022.75,506.971 1019.26,504.644C1015.83,502.258 1010.76,501.065 1004.07,501.065L970.735,501.065L970.735,529.255L1004.07,529.255ZM1134.63,605.182C1122.65,605.182 1111.91,602.418 1102.43,596.891C1093,591.305 1085.62,583.567 1080.26,573.676C1074.97,563.727 1072.32,552.498 1072.32,539.989C1072.32,527.364 1074.97,516.076 1080.26,506.127C1085.62,496.178 1093,488.411 1102.43,482.825C1111.91,477.24 1122.65,474.447 1134.63,474.447C1146.56,474.447 1157.21,477.24 1166.58,482.825C1176,488.411 1183.33,496.178 1188.57,506.127C1193.86,516.076 1196.51,527.364 1196.51,539.989C1196.51,552.498 1193.86,563.727 1188.57,573.676C1183.33,583.567 1176,591.305 1166.58,596.891C1157.21,602.418 1146.56,605.182 1134.63,605.182ZM1134.63,579.96C1141.62,579.96 1147.67,578.36 1152.79,575.16C1157.91,571.902 1161.83,567.276 1164.57,561.284C1167.3,555.291 1168.67,548.193 1168.67,539.989C1168.67,531.727 1167.3,524.571 1164.57,518.52C1161.83,512.411 1157.91,507.756 1152.79,504.556C1147.67,501.356 1141.62,499.756 1134.63,499.756C1127.59,499.756 1121.48,501.356 1116.31,504.556C1111.13,507.756 1107.17,512.411 1104.44,518.52C1101.7,524.571 1100.34,531.727 1100.34,539.989C1100.34,548.193 1101.7,555.291 1104.44,561.284C1107.17,567.276 1111.13,571.902 1116.31,575.16C1121.48,578.36 1127.59,579.96 1134.63,579.96ZM1221.82,603L1221.82,476.629L1283.61,476.629C1293.09,476.629 1301.3,478.258 1308.22,481.516C1315.2,484.716 1320.52,489.342 1324.19,495.393C1327.91,501.444 1329.78,508.629 1329.78,516.949C1329.78,525.269 1327.91,532.455 1324.19,538.505C1320.52,544.556 1315.2,549.182 1308.22,552.382C1301.3,555.582 1293.09,557.182 1283.61,557.182L1248.79,557.182L1248.79,603L1221.82,603ZM1282.3,532.833C1288.99,532.833 1294.05,531.495 1297.48,528.818C1300.98,526.084 1302.72,522.127 1302.72,516.949C1302.72,511.713 1300.98,507.756 1297.48,505.08C1294.05,502.404 1288.99,501.065 1282.3,501.065L1248.79,501.065L1248.79,532.833L1282.3,532.833ZM1391.04,603L1340.6,476.629L1368.26,476.629L1418.62,603L1391.04,603ZM1486.34,605.182C1474.3,605.182 1463.54,602.418 1454.05,596.891C1444.63,591.305 1437.27,583.567 1431.97,573.676C1426.68,563.727 1424.03,552.498 1424.03,539.989C1424.03,527.364 1426.68,516.076 1431.97,506.127C1437.27,496.178 1444.63,488.411 1454.05,482.825C1463.54,477.24 1474.3,474.447 1486.34,474.447C1495.36,474.447 1503.65,476.28 1511.22,479.945C1518.78,483.611 1525.21,488.818 1530.5,495.567C1535.8,502.258 1539.61,510.113 1541.94,519.131L1513.22,519.131C1510.9,512.905 1507.4,508.135 1502.75,504.818C1498.15,501.444 1492.66,499.756 1486.26,499.756C1479.22,499.756 1473.11,501.356 1467.93,504.556C1462.81,507.756 1458.85,512.411 1456.06,518.52C1453.32,524.571 1451.96,531.727 1451.96,539.989C1451.96,548.193 1453.32,555.291 1456.06,561.284C1458.85,567.276 1462.81,571.902 1467.93,575.16C1473.11,578.36 1479.24,579.96 1486.34,579.96C1492.68,579.96 1498.15,578.273 1502.75,574.898C1507.4,571.524 1510.9,566.724 1513.22,560.498L1542.11,560.498C1539.78,569.458 1535.97,577.313 1530.68,584.062C1525.38,590.811 1518.92,596.018 1511.3,599.684C1503.68,603.349 1495.36,605.182 1486.34,605.182Z" style="fill:rgb(20,20,19);fill-rule:nonzero;"/>
    </g>
</svg>
