<svg id="Layer_1" data-name="Layer 1" xmlns="http://www.w3.org/2000/svg" viewBox="0 0 100 100"><defs><style>.cls-1{fill:#3eacad;}.cls-2,.cls-3,.cls-4{fill:none;stroke:#fff;stroke-linecap:round;stroke-linejoin:round;stroke-width:2px;}.cls-2{stroke-dasharray:1.68 3.8 4.47 3.8;}.cls-3{stroke-dasharray:5.19 3.8 2.42 0;}</style></defs><title>DDPLegal</title><circle class="cls-1" cx="50" cy="50" r="50"/><line class="cls-2" x1="45" y1="58" x2="45" y2="39"/><line class="cls-3" x1="40" y1="58" x2="40" y2="39"/><line class="cls-2" x1="55" y1="39" x2="55" y2="58"/><line class="cls-3" x1="50" y1="56" x2="50" y2="40"/><line class="cls-3" x1="60" y1="58" x2="60" y2="39"/><path class="cls-4" d="M33,68V66.22C33,65,33.62,64,34.39,64H64.61c.77,0,1.39,1,1.39,2.22V68"/><rect class="cls-4" x="30" y="69" width="40" height="6"/><path class="cls-4" d="M28.62,29.67c2.09-2.1,6.29-.79,5.76,3.92a2.48,2.48,0,0,1-.35,1c-2.83,4.45-10.43,2.83-9.77-4.88a4.53,4.53,0,0,1,.82-2.28A7.92,7.92,0,0,1,31.73,24H67.54a7.89,7.89,0,0,1,6.64,3.45A4.45,4.45,0,0,1,75,29.73c.66,7.71-7,9.33-9.77,4.88a2.34,2.34,0,0,1-.35-1c-.53-4.71,3.67-6,5.76-3.92"/><line class="cls-4" x1="39" y1="29" x2="60" y2="29"/><line class="cls-4" x1="39" y1="34" x2="60" y2="34"/></svg>