<svg id="Layer_1" data-name="Layer 1" xmlns="http://www.w3.org/2000/svg" viewBox="0 0 100 100"><defs><style>.cls-1{fill:#616a83;}.cls-2,.cls-3,.cls-4,.cls-5,.cls-6{fill:none;stroke:#fff;stroke-linecap:round;stroke-linejoin:round;}.cls-2,.cls-5,.cls-6{stroke-width:2px;}.cls-2{stroke-dasharray:6 5 2 5;}.cls-3{stroke-width:2.11px;}.cls-4{stroke-width:1.87px;}.cls-6{stroke-dasharray:5.18 5.18 2.59 5.18;}</style></defs><title>DDPSecurity</title><circle class="cls-1" cx="50" cy="50" r="50"/><line class="cls-2" x1="73" y1="71" x2="73" y2="37"/><line class="cls-2" x1="79" y1="33" x2="79" y2="56"/><path class="cls-3" d="M59,41V37.29C59,32.73,54.73,29,49.5,29h-1c-5.23,0-9.5,3.73-9.5,8.29V41"/><path class="cls-4" d="M54,41V37.67A4,4,0,0,0,49.81,34H48.19A4,4,0,0,0,44,37.67V41"/><path class="cls-5" d="M35,51.56A2.79,2.79,0,0,1,32,49V47.56A2.8,2.8,0,0,1,35,45H64a2.77,2.77,0,0,1,3,2.55V49a2.79,2.79,0,0,1-3,2.56"/><path class="cls-5" d="M35,61.56A2.79,2.79,0,0,1,32,59V57.56A2.8,2.8,0,0,1,35,55H64a2.77,2.77,0,0,1,3,2.55V59a2.79,2.79,0,0,1-3,2.56"/><path class="cls-5" d="M64,72a2.86,2.86,0,0,0,3-2.74V67.72A2.85,2.85,0,0,0,64,65H35a2.87,2.87,0,0,0-3,2.74v1.52A2.86,2.86,0,0,0,35,72H64Z"/><line class="cls-2" x1="66" y1="28" x2="66" y2="40"/><line class="cls-2" x1="26" y1="40" x2="26" y2="75"/><line class="cls-6" x1="20" y1="56" x2="20" y2="33"/><line class="cls-2" x1="33" y1="40" x2="33" y2="28"/></svg>