<svg id="Layer_1" data-name="Layer 1" xmlns="http://www.w3.org/2000/svg" viewBox="0 0 100 100"><defs><style>.cls-1{fill:#3eacad;}.cls-2,.cls-3,.cls-4,.cls-5,.cls-6,.cls-7{fill:none;stroke:#fff;stroke-linecap:round;stroke-linejoin:round;}.cls-2,.cls-3,.cls-4,.cls-5{stroke-width:2px;}.cls-2{stroke-dasharray:5.95 5.95 2.98 5.95;}.cls-3{stroke-dasharray:5.95 5 2.98 5.95;}.cls-5{stroke-dasharray:6 6 3 6;}.cls-6{stroke-width:1.88px;}.cls-7{stroke-width:2.06px;}</style></defs><title>DDPTeams</title><circle class="cls-1" cx="50" cy="50" r="50"/><line class="cls-2" x1="19" y1="62" x2="19" y2="38"/><line class="cls-3" x1="25" y1="59" x2="25" y2="72"/><line class="cls-3" x1="77" y1="71" x2="77" y2="58"/><line class="cls-4" x1="36" y1="74" x2="36" y2="63"/><line class="cls-5" x1="83" y1="37" x2="83" y2="64"/><line class="cls-2" x1="68" y1="46" x2="68" y2="52"/><line class="cls-2" x1="36" y1="54" x2="36.08" y2="41"/><line class="cls-2" x1="46" y1="47" x2="46" y2="55"/><line class="cls-2" x1="55" y1="57" x2="55" y2="45"/><path class="cls-4" d="M63,36h8.11A3.9,3.9,0,0,1,75,39.89V52.3c0,1.9-2.13,3.7-4,3.7l-.08,18"/><circle class="cls-6" cx="65" cy="29" r="3"/><path class="cls-4" d="M39,36H30.73A3.74,3.74,0,0,0,27,39.73V52.35C27,54.24,29.08,56,31,56l0,18"/><circle class="cls-6" cx="37" cy="29" r="3"/><path class="cls-7" d="M43.38,74l1.18-13.88A3.5,3.5,0,0,1,41,56.68V43c0-1.9,1.59-3,3.56-3H56.44c2,0,3.56,1,3.56,3V56.68a3.5,3.5,0,0,1-3.56,3.44L57.62,74"/><circle class="cls-6" cx="51" cy="32" r="3"/></svg>