<svg xmlns="http://www.w3.org/2000/svg" width="149" height="48" fill="none" xmlns:v="https://vecta.io/nano"><path d="M68.509 27.777H60V12.066h8.509v2.354h-5.547v4.005h5.194v2.354h-5.194V25.4h5.547v2.376zm12.187 0l-1.216-4.159h-5.392l-1.216 4.159H69.69L74.994 12h3.558l5.326 15.777h-3.182zm-3.182-10.628l-.243-.836-.265-1.034-.221-.99-.221 1.056-.265.968-.221.836-1.238 4.049h3.934l-1.26-4.049zm12.611-5.083c1.311 0 2.394.169 3.249.506s1.488.851 1.901 1.54c.412.675.619 1.533.619 2.575 0 .763-.125 1.415-.376 1.958a3.94 3.94 0 0 1-1.017 1.364 5.66 5.66 0 0 1-1.348.858l4.243 6.909h-3.359l-3.426-6.205h-1.923v6.205h-2.962v-15.71h4.398zm-.133 2.354h-1.304v4.841h1.348c.634 0 1.157-.095 1.569-.286.427-.191.744-.469.95-.836.221-.367.332-.822.332-1.364 0-.572-.103-1.027-.309-1.364a1.69 1.69 0 0 0-.95-.748c-.427-.161-.972-.242-1.635-.242zm14.902 13.357h-2.984V14.442H97.8v-2.376h11.183v2.376h-4.089v13.334zm18.366 0h-2.983v-6.975h-6.1v6.975h-2.961V12.066h2.961v6.337h6.1v-6.337h2.983v15.711zM66.674 39.155h5.768v7.987c-.781.279-1.613.491-2.497.638-.869.147-1.827.22-2.873.22-1.488 0-2.763-.315-3.823-.946-1.046-.631-1.849-1.548-2.409-2.75s-.84-2.67-.84-4.401c0-1.643.302-3.066.906-4.269s1.481-2.134 2.63-2.794 2.556-.99 4.221-.99a10.73 10.73 0 0 1 2.409.264 9.72 9.72 0 0 1 2.122.682l-.994 2.31a9.47 9.47 0 0 0-1.68-.616c-.589-.176-1.223-.264-1.901-.264-1.002 0-1.849.235-2.542.704-.678.469-1.201 1.137-1.569 2.002-.354.851-.53 1.856-.53 3.014 0 1.115.155 2.105.464 2.971.309.851.774 1.518 1.392 2.002.634.469 1.451.704 2.453.704a7.85 7.85 0 0 0 .862-.044l.729-.11.619-.132v-3.785h-2.917v-2.398zm17.671 8.625h-8.509V32.069h8.509v2.354h-5.547v4.005h5.194v2.354h-5.194v4.621h5.547v2.376zm15.989 0h-3.735l-6.652-12.322h-.088l.044 1.034.044 1.1.066 1.122.022 1.144v7.921h-2.652v-15.71h3.713l6.63 12.234h.088l-.044-.946-.044-1.078-.044-1.122-.022-1.1V32.07h2.674v15.71zm17.104-7.877c0 1.217-.14 2.325-.42 3.322-.28.983-.715 1.834-1.304 2.553-.575.719-1.304 1.269-2.188 1.65s-1.923.572-3.116.572c-1.209 0-2.255-.191-3.139-.572-.884-.396-1.613-.946-2.188-1.65-.574-.719-1.009-1.577-1.304-2.575-.28-.998-.42-2.105-.42-3.323 0-1.628.251-3.044.752-4.247.516-1.203 1.296-2.134 2.343-2.794 1.046-.675 2.372-1.012 3.978-1.012 1.591 0 2.902.337 3.934 1.012 1.031.66 1.797 1.599 2.298 2.816.516 1.203.774 2.618.774 4.247zm-10.94 0c0 1.188.132 2.208.398 3.058s.685 1.504 1.259 1.958c.59.455 1.341.682 2.255.682s1.657-.227 2.232-.682.994-1.108 1.259-1.958.398-1.87.398-3.058c0-1.775-.309-3.169-.928-4.181-.604-1.012-1.591-1.518-2.961-1.518-.914 0-1.665.227-2.255.682-.574.455-.994 1.108-1.259 1.958s-.398 1.87-.398 3.059zM126.9 47.78l-3.846-12.872h-.088l.066 1.254.066 1.738.045 1.738v8.141h-2.652v-15.71h4.066l3.757 12.344h.066l3.824-12.344h4.089V47.78h-2.785v-8.273l.022-1.628.066-1.694.067-1.254h-.089l-3.956 12.85H126.9zm21.61 0h-8.509V32.069h8.509v2.354h-5.547v4.005h5.193v2.354h-5.193v4.621h5.547v2.376z" fill="#0e2129"/><path fill="#eeccb8" d="M23.999 0h24v23.993h-24z"/><g fill="#273562"><path d="M23.999 23.993h24v23.993h-24z"/><path d="M0 23.993h24v23.993H0z"/></g><path fill="#eeccb8" d="M0 0h24v23.993H0z"/><path d="M23.999 0c3.152 0 6.272.621 9.184 1.826a24 24 0 0 1 7.786 5.201 23.99 23.99 0 0 1 5.202 7.784c1.206 2.911 1.827 6.031 1.827 9.182H23.999V0z" fill="#a78bcb"/><path d="M24 47.985c-6.365 0-12.469-2.528-16.97-7.027A23.99 23.99 0 0 1 0 23.993 23.99 23.99 0 0 1 7.029 7.027C11.53 2.528 17.634 0 23.999 0v23.992 23.993z" fill="#eeccb8"/></svg>