<?xml version="1.0" encoding="UTF-8" standalone="no"?><!DOCTYPE svg PUBLIC "-//W3C//DTD SVG 1.1//EN" "http://www.w3.org/Graphics/SVG/1.1/DTD/svg11.dtd"><svg width="100%" height="100%" viewBox="0 0 1292 459" version="1.1" xmlns="http://www.w3.org/2000/svg" xmlns:xlink="http://www.w3.org/1999/xlink" xml:space="preserve" xmlns:serif="http://www.serif.com/" style="fill-rule:evenodd;clip-rule:evenodd;stroke-linejoin:round;stroke-miterlimit:2;"><path d="M668.846,436.104l-2.025,-27.234l2.579,2.024c-1.35,5.521 -3.987,10.427 -7.912,14.723c-3.93,4.291 -8.834,7.604 -14.725,9.937c-5.767,2.329 -12.021,3.496 -18.771,3.496c-12.146,0 -22.879,-2.946 -32.204,-8.833c-9.2,-6.013 -16.317,-14.17 -21.346,-24.476c-5.029,-10.305 -7.546,-21.899 -7.546,-34.781c-0,-13.004 2.517,-24.659 7.546,-34.965c5.154,-10.428 12.454,-18.586 21.9,-24.475c9.446,-6.012 20.425,-9.017 32.941,-9.017c14.596,-0 26.684,4.048 36.25,12.145c9.692,7.975 16.075,19.016 19.142,33.125l-27.054,1.288c-1.838,-7.852 -5.213,-13.863 -10.121,-18.034c-4.783,-4.294 -10.979,-6.442 -18.588,-6.442c-7.85,0 -14.412,2.025 -19.691,6.073c-5.15,3.926 -9.017,9.386 -11.592,16.379c-2.575,6.993 -3.867,14.967 -3.867,23.923c0,8.833 1.292,16.685 3.867,23.556c2.575,6.87 6.5,12.329 11.779,16.378c5.275,3.926 11.775,5.889 19.504,5.889c5.767,0 10.796,-1.165 15.092,-3.497c4.292,-2.453 7.667,-5.827 10.121,-10.121c2.454,-4.294 4.05,-9.324 4.783,-15.09l-30.179,-0l0,-19.691l56.313,-0l-0,67.72l-16.196,0Z" style="fill:#0e2129;fill-rule:nonzero;"/><path d="M702.929,387.339c0,-10.183 2.025,-19.139 6.075,-26.868c4.171,-7.729 9.938,-13.68 17.3,-17.851c7.484,-4.171 16.129,-6.257 25.946,-6.257c8.833,0 16.746,2.024 23.738,6.073c7.116,3.926 12.699,9.876 16.75,17.851c4.045,7.851 6.133,17.298 6.254,28.34l-0,5.521l-69.192,-0c0.487,7.606 2.696,13.617 6.625,18.034c3.925,4.417 9.2,6.626 15.825,6.626c4.171,0 8.037,-1.166 11.592,-3.498c3.558,-2.33 6.137,-5.459 7.729,-9.385l26.133,1.84c-2.946,9.323 -8.587,16.748 -16.929,22.268c-8.221,5.521 -17.729,8.28 -28.525,8.28c-9.817,-0 -18.463,-2.084 -25.946,-6.255c-7.362,-4.295 -13.129,-10.245 -17.3,-17.851c-4.05,-7.729 -6.075,-16.686 -6.075,-26.868Zm69.933,-9.386c-0.858,-7.483 -3.191,-13.004 -6.995,-16.562c-3.68,-3.681 -8.217,-5.521 -13.617,-5.521c-6.258,0 -11.35,1.963 -15.275,5.889c-3.804,3.803 -6.133,9.201 -6.992,16.194l42.879,0Z" style="fill:#0e2129;fill-rule:nonzero;"/><path d="M840.358,338.572l1.104,27.972l-3.312,-1.289c1.35,-10.06 4.846,-17.36 10.487,-21.899c5.767,-4.662 12.946,-6.993 21.534,-6.993c10.55,0 18.771,3.313 24.658,9.938c5.888,6.625 8.833,15.642 8.833,27.052l0,62.751l-25.579,0l0,-54.47c0,-8.465 -1.229,-14.722 -3.683,-18.771c-2.329,-4.048 -6.438,-6.073 -12.329,-6.073c-6.134,0 -10.917,2.147 -14.354,6.441c-3.313,4.294 -4.967,10.428 -4.967,18.403l-0,54.47l-25.579,0l-0,-97.532l23.187,-0Z" style="fill:#0e2129;fill-rule:nonzero;"/><path d="M970.417,438.313c-9.813,-0 -18.4,-2.084 -25.763,-6.255c-7.362,-4.296 -13.129,-10.245 -17.3,-17.851c-4.046,-7.729 -6.071,-16.686 -6.071,-26.868c0,-10.306 2.025,-19.262 6.071,-26.868c4.171,-7.729 9.938,-13.68 17.3,-17.851c7.363,-4.171 15.95,-6.257 25.763,-6.257c9.816,0 18.404,2.086 25.762,6.257c7.488,4.171 13.25,10.122 17.3,17.851c4.171,7.606 6.259,16.562 6.259,26.868c-0,10.182 -2.088,19.139 -6.259,26.868c-4.05,7.606 -9.812,13.555 -17.3,17.851c-7.358,4.171 -15.946,6.255 -25.762,6.255Zm-0,-20.242c7.362,-0 13.004,-2.699 16.933,-8.097c3.925,-5.398 5.887,-12.943 5.887,-22.635c0,-9.815 -1.962,-17.421 -5.887,-22.82c-3.929,-5.398 -9.571,-8.097 -16.933,-8.097c-7.117,0 -12.696,2.699 -16.746,8.097c-3.925,5.399 -5.888,13.005 -5.888,22.82c0,9.814 1.963,17.421 5.888,22.819c4.05,5.275 9.629,7.913 16.746,7.913Z" style="fill:#0e2129;fill-rule:nonzero;"/><path d="M1061.05,338.572l0.55,15.458c2.454,-5.644 6.012,-9.999 10.675,-13.066c4.783,-3.067 10.367,-4.601 16.746,-4.601c6.745,0 12.512,1.779 17.3,5.337c4.904,3.435 8.404,8.342 10.487,14.722c2.333,-6.625 5.95,-11.594 10.859,-14.906c5.029,-3.435 10.979,-5.153 17.85,-5.153c6.625,0 12.329,1.411 17.116,4.233c4.904,2.822 8.646,6.993 11.225,12.514c2.575,5.52 3.863,12.268 3.863,20.243l-0,62.751l-25.579,0l-0,-54.47c-0,-8.22 -1.225,-14.416 -3.68,-18.587c-2.454,-4.171 -6.133,-6.257 -11.041,-6.257c-3.925,0 -7.238,0.982 -9.938,2.945c-2.7,1.84 -4.787,4.662 -6.258,8.465c-1.35,3.68 -2.025,8.158 -2.025,13.434l-0,54.47l-23,0l-0,-54.47c-0,-8.22 -1.229,-14.416 -3.683,-18.587c-2.455,-4.171 -6.071,-6.257 -10.859,-6.257c-3.925,0 -7.237,0.982 -9.937,2.945c-2.696,1.84 -4.784,4.662 -6.254,8.465c-1.35,3.68 -2.025,8.158 -2.025,13.434l-0,54.47l-25.58,0l0,-97.532l23.188,-0Z" style="fill:#0e2129;fill-rule:nonzero;"/><path d="M1195.35,387.339c-0,-10.183 2.025,-19.139 6.071,-26.868c4.171,-7.729 9.937,-13.68 17.3,-17.851c7.483,-4.171 16.133,-6.257 25.946,-6.257c8.833,0 16.75,2.024 23.741,6.073c7.117,3.926 12.696,9.876 16.746,17.851c4.05,7.851 6.133,17.298 6.258,28.34l0,5.521l-69.195,-0c0.491,7.606 2.7,13.617 6.625,18.034c3.925,4.417 9.2,6.626 15.825,6.626c4.175,0 8.037,-1.166 11.595,-3.498c3.559,-2.33 6.134,-5.459 7.73,-9.385l26.133,1.84c-2.946,9.323 -8.592,16.748 -16.934,22.268c-8.22,5.521 -17.725,8.28 -28.524,8.28c-9.813,-0 -18.463,-2.084 -25.946,-6.255c-7.363,-4.295 -13.13,-10.245 -17.3,-17.851c-4.046,-7.729 -6.071,-16.686 -6.071,-26.868Zm69.929,-9.386c-0.858,-7.483 -3.188,-13.004 -6.992,-16.562c-3.683,-3.681 -8.221,-5.521 -13.621,-5.521c-6.254,0 -11.345,1.963 -15.27,5.889c-3.805,3.803 -6.138,9.201 -6.996,16.194l42.879,0Z" style="fill:#0e2129;fill-rule:nonzero;"/><path d="M662.354,114.581l0,22.084l-63.491,-0l-0,32.02l61.283,0l-0,21.899l-61.284,0l0,32.389l64.963,-0l0,22.267l-90.908,0l-0,-130.659l89.437,0Z" style="fill:#0e2129;fill-rule:nonzero;"/><path d="M681.521,177.703c1.962,-10.306 6.75,-18.219 14.354,-23.74c7.608,-5.643 17.667,-8.465 30.183,-8.465c14.355,-0 25.209,3.557 32.571,10.673c7.484,7.116 11.225,17.606 11.225,31.469l0,32.02c0,2.822 0.492,4.785 1.475,5.889c1.104,1.104 2.638,1.656 4.6,1.656l3.679,0l0,18.035l-5.154,0.184l-1.837,0c-5.892,0.368 -11.225,-0.368 -16.013,-2.208c-4.783,-1.963 -7.604,-6.257 -8.462,-12.882c-2.579,5.153 -6.688,9.324 -12.334,12.514c-5.521,3.067 -12.45,4.6 -20.791,4.6c-10.184,0 -18.588,-2.515 -25.213,-7.545c-6.625,-5.153 -9.937,-11.961 -9.937,-20.427c-0,-5.888 1.408,-10.734 4.233,-14.538c2.942,-3.803 7.054,-6.809 12.329,-9.017c5.275,-2.331 12.146,-4.294 20.609,-5.889l27.054,-5.521c-0.125,-7.361 -1.659,-12.759 -4.6,-16.194c-2.946,-3.558 -7.484,-5.337 -13.621,-5.337c-4.904,0 -8.954,1.35 -12.146,4.049c-3.067,2.699 -5.15,6.686 -6.254,11.961l-25.95,-1.288Zm24.846,41.038c-0,3.313 1.35,6.073 4.046,8.281c2.825,2.086 6.87,3.129 12.145,3.129c4.296,-0 8.038,-1.043 11.23,-3.129c3.312,-2.085 5.887,-5.214 7.729,-9.385c1.962,-4.171 2.941,-9.263 2.941,-15.274l0,-1.288l-17.296,3.128c-0.858,0.123 -1.72,0.307 -2.579,0.552c-4.291,0.736 -7.666,1.595 -10.12,2.576c-2.455,0.86 -4.417,2.209 -5.888,4.049c-1.471,1.841 -2.208,4.294 -2.208,7.361Z" style="fill:#0e2129;fill-rule:nonzero;"/><path d="M820.913,147.706l0.737,28.156l-1.842,-0.92c1.35,-9.201 4.05,-16.01 8.096,-20.427c4.05,-4.539 9.692,-6.809 16.934,-6.809l9.016,0l0,19.323l-9.204,-0c-5.15,-0 -9.383,0.858 -12.696,2.576c-3.312,1.718 -5.766,4.294 -7.362,7.729c-1.592,3.436 -2.392,7.791 -2.392,13.066l0,54.84l-25.579,-0l-0,-97.534l24.292,0Z" style="fill:#0e2129;fill-rule:nonzero;"/><path d="M908.546,125.439l-0,88.885c-0,3.68 0.921,6.502 2.762,8.465c1.838,1.963 4.538,2.944 8.096,2.944l14.721,0l0,19.507l-19.692,0c-10.425,0 -18.337,-2.576 -23.737,-7.729c-5.275,-5.276 -7.913,-13.005 -7.913,-23.187l0,-88.885l25.763,-0Zm25.579,22.267l0,19.323l-66.983,-0l-0,-19.323l66.983,0Z" style="fill:#0e2129;fill-rule:nonzero;"/><path d="M978.013,114.581l-0,55.576l-3.68,1.656c1.592,-9.201 5.213,-15.887 10.854,-20.058c5.646,-4.172 12.638,-6.257 20.98,-6.257c10.062,-0 18.037,3.374 23.925,10.121c5.887,6.748 8.833,15.704 8.833,26.868l0,62.753l-25.579,0l-0,-53.736c-0,-8.465 -1.229,-14.722 -3.684,-18.77c-2.45,-4.049 -6.562,-6.073 -12.329,-6.073c-6.133,-0 -10.916,2.147 -14.354,6.441c-3.312,4.294 -4.967,10.428 -4.967,18.402l0,53.736l-25.579,0l0,-130.659l25.579,0Z" style="fill:#0e2129;fill-rule:nonzero;"/><path d="M444.033,309.387c-32.512,87 -116.39,148.946 -214.738,148.946c-98.348,0 -182.226,-61.946 -214.739,-148.946l94.708,-0c6.485,13.135 15.83,25.213 27.693,35.514c24.497,21.272 57.722,33.223 92.366,33.223c34.644,-0 67.869,-11.951 92.366,-33.223c11.863,-10.301 21.209,-22.379 27.693,-35.514l94.651,-0Z" style="fill:#0e2129;fill-rule:nonzero;"/><path d="M458.333,229.149c0,4.623 -0.137,9.214 -0.404,13.769l-457.522,0c-0.27,-4.555 -0.407,-9.146 -0.407,-13.769c-0,-126.556 102.602,-229.149 229.167,-229.149c126.566,0 229.166,102.593 229.166,229.149Zm-143.246,-124.359c22.778,18.693 35.575,44.048 35.575,70.484l-242.917,0c0,-26.436 12.796,-51.791 35.574,-70.484c22.778,-18.694 53.672,-29.195 85.884,-29.195c32.213,-0 63.107,10.501 85.885,29.195Z" style="fill:#ffc000;"/></svg>