<svg xmlns:dc="http://purl.org/dc/elements/1.1/" xmlns:cc="http://creativecommons.org/ns#" xmlns:rdf="http://www.w3.org/1999/02/22-rdf-syntax-ns#" xmlns:svg="http://www.w3.org/2000/svg" xmlns="http://www.w3.org/2000/svg" xml:space="preserve" id="svg2" version="1.1" viewBox="0 130 1094.11 595.28"><metadata id="metadata8"><rdf:RDF><cc:Work rdf:about=""><dc:format>image/svg+xml</dc:format><dc:type rdf:resource="http://purl.org/dc/dcmitype/StillImage"/></cc:Work></rdf:RDF></metadata><defs id="defs6"><clipPath id="clipPath18" clipPathUnits="userSpaceOnUse"><path id="path16" d="M 0,595.28 H 841.89 V 0 H 0 Z"/></clipPath></defs><g transform="matrix(1.3333333,0,0,-1.3333333,0,793.70667)" id="g10"><g id="g12"><g clip-path="url(#clipPath18)" id="g14"><g transform="translate(699.8555,319.8311)" id="g20"><path id="path22" style="fill:#3c3c3c;fill-opacity:1;fill-rule:nonzero;stroke:none" d="m 0,0 v 34.187 h 38.258 c 11.14,0 24.418,-2.863 24.418,-16.543 V 17.099 C 62.676,5.757 53.542,0 35.536,0 Z M 46.666,-76.496 H 0 v 35.808 h 45.306 c 18.54,0 27.944,-5.928 27.944,-17.631 v -0.544 c 0,-11.705 -8.941,-17.633 -26.584,-17.633 m 42.06,60.205 c 14.406,9.76 21.421,23.036 21.421,40.436 v 0.545 c 0,13.8 -4.545,25.051 -13.901,34.398 C 84.673,70.662 66.778,76.78 44.498,76.78 h -91.154 l 0.01,-195.869 h 93.312 c 47.06,0 74.058,20.072 74.058,55.073 v 0.535 c 0,22.511 -9.919,37.251 -31.998,47.19"/></g><g transform="translate(589.5615,298.6812)" id="g24"><path id="path26" style="fill:#3c3c3c;fill-opacity:1;fill-rule:nonzero;stroke:none" d="m 0,0 v -0.543 c 0,-32.13 -21.807,-53.726 -54.258,-53.726 H -83.565 V 54.249 h 29.307 C -21.807,54.249 0,32.452 0,0 m -54.258,97.93 h -77.053 l 0.05,-195.881 77.003,0.012 c 29.316,0 55.91,10.039 74.904,28.267 C 39.349,-51.727 49.64,-26.979 49.64,0 V 0.545 C 49.64,56.971 5.937,97.93 -54.258,97.93"/></g><g transform="translate(415.4492,396.9234)" id="g28"><path id="path30" style="fill:#3c3c3c;fill-opacity:1;fill-rule:nonzero;stroke:none" d="m 0,0 c 13.185,0 23.883,-10.686 23.883,-23.871 v -172.35 H -23.863 V 0.006 Z"/></g><g transform="translate(257.2583,325.8159)" id="g32"><path id="path34" style="fill:#005073;fill-opacity:1;fill-rule:nonzero;stroke:none" d="M 0,0 C -6.837,0.283 -8.057,-3.844 2.207,-6.013 16.701,-9.075 6.833,-0.287 0,0 m -21.445,16.097 c -20.548,6.654 -7.027,-9.789 2.752,-10.879 9.769,-1.079 11.807,6.162 -2.752,10.879 m -60.503,14.88 c -5.989,-3.144 4.729,-17.058 32.142,-17.803 27.423,-0.757 -7.925,30.519 -32.142,17.803 m 52.689,-201.39 c 8.621,16.041 27.394,39.43 67.53,86.586 60.02,70.526 -117.84,46.842 -148.319,100.217 -25.103,43.978 68.319,75.586 124.769,100.054 C 51.418,92.258 78.046,53.139 84.901,6.225 96.637,-73.928 46.61,-148.838 -29.259,-170.413 M -64.96,-56.737 c -25.186,-40.781 55.724,-41.394 18.289,-117.597 -1.098,-0.182 -2.187,-0.393 -3.307,-0.555 -87.259,-12.774 -168.35,47.607 -181.126,134.867 -6.049,41.38 4.367,81.363 26.265,113.335 -4.074,-92.082 163.401,-91.978 139.879,-130.05"/></g></g></g></g></svg>