<?xml version="1.0" encoding="UTF-8"?>
<svg width="114px" height="42px" viewBox="0 0 114 42" version="1.1" xmlns="http://www.w3.org/2000/svg" xmlns:xlink="http://www.w3.org/1999/xlink">
    <!-- Generator: Sketch 55.2 (78181) - https://sketchapp.com -->
    <title>Group 11</title>
    <desc>Created with Sketch.</desc>
    <defs>
        <polygon id="path-1" points="0.0222055215 0.373969697 23.9994479 0.373969697 23.9994479 28.2860242 0.0222055215 28.2860242"></polygon>
        <polygon id="path-3" points="0 0.02275 45.5420103 0.02275 45.5420103 42 0 42"></polygon>
    </defs>
    <g id="Welcome" stroke="none" stroke-width="1" fill="none" fill-rule="evenodd">
        <g id="Homepage" transform="translate(-870.000000, -2180.000000)">
            <g id="logos" transform="translate(0.000000, 2158.000000)">
                <g id="Group-13" transform="translate(457.000000, 13.000000)">
                    <g id="Group-11" transform="translate(413.000000, 9.000000)">
                        <g id="Group-3" transform="translate(89.521472, 6.300000)">
                            <mask id="mask-2" fill="white">
                                <use xlink:href="#path-1"></use>
                            </mask>
                            <g id="Clip-2"></g>
                            <path d="M19.4161933,13.6368485 C21.4802577,12.2453333 22.4847515,10.3537424 22.4847515,7.87423636 L22.4847515,7.79683333 C22.4847515,5.82957879 21.8343221,4.22672727 20.4932485,2.89348182 C18.8357025,1.24540606 16.2724509,0.373969697 13.0806258,0.373969697 L0.0222055215,0.373969697 L0.0239539877,28.2860242 L13.3909785,28.2860242 C20.1321902,28.2860242 23.9997975,25.4255909 23.9997975,20.4370091 L23.9997975,20.3613455 C23.9997975,17.153903 22.5791687,15.0535848 19.4161933,13.6368485 L19.4161933,13.6368485 Z M13.3909785,22.2164091 L6.70659202,22.2164091 L6.70659202,17.113897 L13.1960245,17.113897 C15.8519448,17.113897 17.199138,17.9583727 17.199138,19.6264515 L17.199138,19.7038545 C17.199138,21.3719333 15.9183865,22.2164091 13.3909785,22.2164091 L13.3909785,22.2164091 Z M6.70659202,11.3156273 L6.70659202,6.44358485 L12.1871595,6.44358485 C13.782635,6.44358485 15.6849663,6.85147273 15.6849663,8.79959394 L15.6849663,8.87786667 C15.6849663,10.4946333 14.3762393,11.3156273 11.7963773,11.3156273 L6.70659202,11.3156273 Z" id="Fill-1" fill="#000000" mask="url(#mask-2)"></path>
                        </g>
                        <path d="M73.2644807,6.3 L62.2453988,6.3 L62.2523806,34.3 L73.2644807,34.2982553 C77.4570729,34.2982553 81.2595551,32.8632302 83.9763618,30.2575038 C86.6504048,27.6927781 88.1226994,24.1545035 88.1226994,20.2986915 L88.1226994,20.2201795 C88.1226994,12.1552513 81.8722111,6.3 73.2644807,6.3 M81.0239181,20.2986915 L81.0239181,20.3763311 C81.0239181,24.9684114 77.9047831,28.0556781 73.2644807,28.0556781 L69.0736339,28.0556781 L69.0736339,12.5443219 L73.2644807,12.5443219 C77.9047831,12.5443219 81.0239181,15.659504 81.0239181,20.2986915" id="Fill-4" fill="#000000"></path>
                        <path d="M55.2497459,6.30087081 C57.1814615,6.30087081 58.7484663,7.82565777 58.7484663,9.70660571 L58.7484663,34.3 L51.7546012,34.3 L51.7546012,6.3 L55.2497459,6.30087081 Z" id="Fill-6" fill="#000000"></path>
                        <g id="Group-10">
                            <mask id="mask-4" fill="white">
                                <use xlink:href="#path-3"></use>
                            </mask>
                            <g id="Clip-9"></g>
                            <path d="M23.9315282,24.8301375 C20.3406667,30.6733875 31.8761894,30.7600125 26.539105,41.6773875 C26.3823368,41.7018875 26.2273106,41.7325125 26.0679296,41.7561375 C13.6257646,43.5866375 2.0641139,34.9363875 0.24211969,22.4370125 C-0.620105105,16.5080125 0.864837597,10.7811375 3.98713647,6.2013875 C3.40622341,19.3911375 27.2854955,19.3780125 23.9315282,24.8301375 M29.0221382,41.1138875 C30.2510263,38.8161375 32.9282778,35.4657625 38.6503151,28.7116375 C47.2081139,18.6088875 21.8482537,22.0021375 17.5031633,14.3555125 C13.923624,8.0555125 27.2436907,3.5273875 35.292864,0.0221375 C40.5254363,3.4871375 44.3218382,9.0915125 45.2990263,15.8115125 C46.9720908,27.2932625 39.8391402,38.0233875 29.0221382,41.1138875 M21.5094604,12.2660125 C20.6559449,12.7157625 22.1835634,14.7098875 26.0923158,14.8166375 C30.0019391,14.9251375 24.9618433,10.4451375 21.5094604,12.2660125 M30.136063,14.3966375 C27.2062405,13.4437625 29.1336178,15.8001375 30.5288543,15.9558875 C31.9214779,16.1098875 32.21237,15.0738875 30.136063,14.3966375 M33.1939127,16.7040125 C32.2184665,16.6620125 32.0451506,17.2543875 33.5083199,17.5641375 C35.5750466,18.0033875 34.168488,16.7451375 33.1939127,16.7040125" id="Fill-8" fill="#000000" mask="url(#mask-4)"></path>
                        </g>
                    </g>
                </g>
            </g>
        </g>
    </g>
</svg>