<svg id="svg" xmlns="http://www.w3.org/2000/svg" xmlns:xlink="http://www.w3.org/1999/xlink" width="400" height="105.33333333333334" viewBox="0, 0, 400,105.33333333333334"><g id="svgg"><path id="path0" d="M43.667 0.402 C -6.983 12.069,-16.213 77.060,29.510 100.085 C 41.771 106.259,62.237 107.225,71.845 102.083 C 73.448 101.225,73.992 98.271,72.438 98.868 C 71.945 99.057,69.880 99.419,67.848 99.673 C 64.469 100.095,64.092 100.313,63.423 102.234 C 62.711 104.279,62.701 104.284,63.051 102.397 C 63.276 101.183,63.085 100.253,62.539 99.907 C 61.873 99.484,61.863 99.351,62.500 99.344 C 63.064 99.337,63.333 98.150,63.333 95.667 L 63.333 92.000 58.333 92.000 L 53.333 92.000 53.324 94.500 C 53.319 95.875,53.134 97.675,52.913 98.500 C 52.527 99.941,52.692 100.005,57.089 100.128 L 61.667 100.257 57.351 100.497 C 54.977 100.630,52.806 101.097,52.527 101.536 C 52.146 102.136,52.018 102.139,52.010 101.549 C 52.005 101.117,51.475 100.627,50.833 100.460 C 49.722 100.169,49.722 100.151,50.833 100.077 C 51.771 100.015,51.998 99.380,51.990 96.833 C 51.976 92.488,51.701 92.261,45.875 91.780 L 40.749 91.357 40.481 93.512 L 40.213 95.667 40.107 93.500 C 40.029 91.926,39.681 91.331,38.833 91.323 C 37.895 91.315,37.849 91.197,38.602 90.721 C 39.327 90.262,39.443 89.114,39.119 85.636 C 38.614 80.237,38.940 80.610,34.192 80.002 L 30.333 79.508 34.599 79.421 L 38.864 79.333 38.445 73.902 C 37.932 67.244,38.839 67.946,29.508 66.988 C 25.195 66.545,22.340 66.142,23.164 66.091 C 24.647 66.001,24.660 65.906,24.627 55.926 C 24.608 50.385,24.759 45.685,24.963 45.481 C 25.167 45.278,25.333 46.853,25.333 48.982 L 25.333 52.852 28.833 52.432 C 30.758 52.201,33.608 52.009,35.167 52.006 L 38.000 52.000 38.000 46.000 L 38.000 40.000 28.500 39.916 L 19.000 39.832 28.280 38.914 C 33.384 38.409,37.617 37.922,37.687 37.831 C 37.757 37.741,37.997 35.192,38.220 32.167 L 38.625 26.667 34.146 26.584 L 29.667 26.502 33.975 25.887 C 39.157 25.147,38.462 25.934,39.030 20.167 L 39.506 15.333 36.586 15.281 C 33.423 15.224,33.633 15.004,37.461 14.365 C 39.718 13.988,39.944 13.749,40.182 11.477 L 40.443 9.000 40.555 11.593 L 40.667 14.186 44.167 13.765 C 46.092 13.534,48.642 13.342,49.833 13.339 L 52.000 13.333 52.000 9.709 C 52.000 6.119,51.979 6.082,49.833 5.816 L 47.667 5.547 49.784 5.440 C 51.181 5.370,52.006 4.936,52.207 4.167 C 52.497 3.056,52.516 3.056,52.589 4.167 C 52.656 5.167,53.379 5.333,57.667 5.333 L 62.667 5.333 62.717 3.167 L 62.768 1.000 63.608 3.333 C 64.871 6.840,74.126 8.214,73.020 4.731 C 72.031 1.615,51.529 -1.409,43.667 0.402 M74.010 4.794 C 74.030 6.527,75.179 7.413,78.559 8.305 C 83.118 9.508,82.910 8.671,78.000 6.054 C 75.358 4.645,74.003 4.218,74.010 4.794 M52.674 7.167 C 52.678 7.808,52.867 9.458,53.095 10.833 L 53.508 13.333 58.498 13.333 C 63.348 13.333,63.478 13.291,63.087 11.833 C 62.866 11.008,62.681 9.358,62.676 8.167 L 62.667 6.000 57.667 6.000 C 53.346 6.000,52.668 6.159,52.674 7.167 M64.849 7.514 C 65.073 8.096,65.449 9.606,65.686 10.870 C 66.115 13.155,68.115 14.000,73.093 14.000 C 74.465 14.000,74.328 8.269,72.943 7.737 C 69.989 6.603,64.441 6.451,64.849 7.514 M110.667 10.333 C 110.667 12.874,111.656 13.467,112.333 11.333 C 113.623 7.268,115.333 9.928,115.333 16.000 C 115.333 20.889,115.148 22.000,114.333 22.000 C 113.783 22.000,113.333 22.300,113.333 22.667 C 113.333 23.033,114.833 23.333,116.667 23.333 C 118.500 23.333,120.000 23.033,120.000 22.667 C 120.000 22.300,119.550 22.000,119.000 22.000 C 118.185 22.000,118.000 20.889,118.000 16.000 C 118.000 9.928,119.710 7.268,121.000 11.333 C 121.595 13.208,122.667 12.994,122.667 11.000 C 122.667 10.083,122.967 9.333,123.333 9.333 C 123.731 9.333,124.000 11.889,124.000 15.667 C 124.000 19.444,123.731 22.000,123.333 22.000 C 122.967 22.000,122.667 22.300,122.667 22.667 C 122.667 23.033,124.017 23.333,125.667 23.333 C 127.317 23.333,128.667 23.033,128.667 22.667 C 128.667 22.300,128.351 22.000,127.965 22.000 C 126.382 22.000,127.545 15.017,129.167 14.787 C 130.568 14.588,130.667 14.818,130.667 18.287 C 130.667 20.329,130.367 22.000,130.000 22.000 C 129.633 22.000,129.333 22.300,129.333 22.667 C 129.333 23.033,130.683 23.333,132.333 23.333 C 133.983 23.333,135.333 23.033,135.333 22.667 C 135.333 22.300,135.033 22.000,134.667 22.000 C 134.297 22.000,134.000 20.227,134.000 18.015 C 134.000 13.269,132.304 11.410,129.090 12.632 C 127.375 13.285,127.333 13.238,127.333 10.650 L 127.333 8.000 119.000 8.000 L 110.667 8.000 110.667 10.333 M77.283 11.416 C 79.422 16.241,84.556 17.508,83.711 13.001 C 83.249 10.539,82.088 9.722,77.828 8.867 L 75.990 8.498 77.283 11.416 M86.584 14.500 C 87.388 16.074,88.628 17.287,89.931 17.775 C 92.840 18.866,92.662 17.584,89.472 14.469 C 86.129 11.205,84.906 11.218,86.584 14.500 M138.834 13.025 C 135.263 14.526,134.537 20.069,137.579 22.594 C 138.911 23.700,143.056 23.727,144.367 22.638 C 145.737 21.501,145.020 21.003,142.346 21.233 C 140.653 21.379,139.920 21.097,139.382 20.091 C 138.137 17.764,138.546 17.333,142.000 17.333 C 145.065 17.333,145.333 17.206,145.333 15.748 C 145.333 12.955,142.161 11.625,138.834 13.025 M142.000 15.000 C 142.000 15.619,141.373 16.000,140.354 16.000 C 139.165 16.000,138.815 15.722,139.092 15.000 C 139.303 14.450,140.044 14.000,140.738 14.000 C 141.432 14.000,142.000 14.450,142.000 15.000 M40.428 17.167 C 40.201 18.542,40.011 20.913,40.007 22.437 L 40.000 25.207 44.167 24.896 C 51.695 24.335,51.333 24.616,51.333 19.321 L 51.333 14.667 46.087 14.667 L 40.841 14.667 40.428 17.167 M53.576 18.426 C 53.809 20.128,54.000 22.078,54.000 22.760 C 54.000 23.851,54.561 24.000,58.667 24.000 L 63.333 24.000 63.333 19.667 L 63.333 15.333 58.243 15.333 L 53.152 15.333 53.576 18.426 M67.341 17.492 C 67.368 23.053,67.961 24.000,71.421 24.000 L 74.667 24.000 74.667 20.646 C 74.667 17.021,74.655 17.010,70.167 16.381 C 67.550 16.015,67.334 16.100,67.341 17.492 M80.309 19.833 C 80.557 20.475,80.927 21.825,81.130 22.833 C 81.750 25.904,85.333 25.497,85.333 22.357 C 85.333 19.886,84.002 18.667,81.306 18.667 C 80.199 18.667,79.964 18.942,80.309 19.833 M90.315 23.163 C 90.928 25.607,91.888 26.667,93.487 26.667 C 94.902 26.667,94.732 24.018,93.198 22.170 C 91.786 20.469,89.809 21.149,90.315 23.163 M39.765 30.167 C 39.534 32.092,39.342 34.613,39.339 35.770 L 39.333 37.874 43.500 37.563 C 50.805 37.019,50.470 37.265,50.823 32.174 C 51.223 26.412,51.474 26.667,45.387 26.667 L 40.186 26.667 39.765 30.167 M54.264 31.712 C 54.835 37.282,54.277 36.812,59.663 36.260 L 64.160 35.799 63.725 32.101 C 63.191 27.557,63.626 27.923,58.268 27.493 L 53.795 27.134 54.264 31.712 M111.333 28.875 C 111.333 29.443,112.008 30.003,112.833 30.120 C 114.329 30.333,114.333 30.372,114.333 43.000 L 114.333 55.667 112.795 55.885 C 109.034 56.418,112.068 57.676,117.554 57.859 C 123.416 58.055,125.871 56.781,121.667 55.726 C 120.075 55.327,120.000 55.084,120.000 50.321 C 120.000 42.563,121.633 43.103,127.595 52.833 L 130.761 58.000 134.714 58.000 C 139.086 58.000,139.999 56.924,136.833 55.503 C 135.825 55.050,133.835 52.866,132.410 50.648 C 130.986 48.431,129.269 46.230,128.594 45.757 C 127.455 44.960,127.534 44.818,129.688 43.791 C 135.772 40.890,136.239 32.589,130.489 29.550 C 127.383 27.909,111.333 27.343,111.333 28.875 M145.338 29.062 C 137.641 32.400,134.446 42.263,138.529 50.079 C 145.779 63.958,166.000 58.747,166.000 43.000 C 166.000 31.959,155.301 24.742,145.338 29.062 M174.923 29.275 C 164.979 33.791,163.981 49.139,173.209 55.625 C 178.168 59.109,190.667 58.444,190.667 54.695 C 190.667 54.038,190.854 52.563,191.083 51.417 C 191.688 48.395,190.027 48.712,188.164 51.974 C 181.587 63.493,168.492 48.806,174.031 36.124 C 177.207 28.852,186.806 28.422,189.037 35.451 C 189.250 36.119,189.885 36.667,190.450 36.667 C 191.112 36.667,191.332 36.292,191.071 35.612 C 190.849 35.032,190.667 33.565,190.667 32.351 C 190.667 28.321,181.128 26.458,174.923 29.275 M192.667 28.922 C 192.667 29.429,193.267 30.001,194.000 30.193 C 196.076 30.736,196.076 55.264,194.000 55.807 C 190.331 56.766,192.769 58.000,198.333 58.000 C 203.898 58.000,206.335 56.766,202.667 55.807 C 201.470 55.494,201.333 54.897,201.333 50.007 C 201.333 43.155,201.603 43.218,207.856 51.539 L 212.712 58.000 216.689 58.000 C 220.759 58.000,222.344 56.622,219.362 55.676 C 218.645 55.448,216.493 53.253,214.580 50.798 C 212.667 48.342,210.071 45.237,208.812 43.898 L 206.522 41.462 210.947 36.113 C 214.082 32.324,215.950 30.637,217.353 30.329 C 221.140 29.497,219.299 28.667,213.667 28.667 C 208.163 28.667,206.279 29.423,209.667 30.274 C 211.949 30.847,211.889 30.999,207.138 36.663 C 201.298 43.625,200.558 43.612,200.805 36.554 C 200.982 31.528,201.143 30.937,202.500 30.342 C 205.779 28.903,204.171 28.000,198.333 28.000 C 193.953 28.000,192.667 28.209,192.667 28.922 M222.000 28.954 C 222.000 29.478,222.675 30.003,223.500 30.120 C 224.987 30.331,225.002 30.441,225.181 42.817 L 225.363 55.301 223.681 55.723 C 219.506 56.771,222.878 57.333,233.333 57.333 L 244.667 57.333 244.667 53.667 C 244.667 50.852,244.434 50.000,243.667 50.000 C 243.117 50.000,242.667 50.410,242.667 50.910 C 242.667 53.751,240.026 55.333,235.285 55.333 L 230.667 55.333 230.667 49.667 L 230.667 44.000 233.286 44.000 C 235.967 44.000,238.000 45.314,238.000 47.048 C 238.000 47.571,238.450 48.000,239.000 48.000 C 239.806 48.000,240.000 46.963,240.000 42.667 C 240.000 38.370,239.806 37.333,239.000 37.333 C 238.450 37.333,238.000 37.762,238.000 38.286 C 238.000 40.019,235.967 41.333,233.286 41.333 L 230.667 41.333 230.667 36.000 L 230.667 30.667 235.356 30.667 C 240.008 30.667,240.056 30.685,241.422 33.000 C 243.344 36.258,244.000 35.919,244.000 31.667 L 244.000 28.000 233.000 28.000 C 223.904 28.000,222.000 28.165,222.000 28.954 M247.333 29.000 C 247.333 29.556,247.926 30.000,248.667 30.000 C 249.953 30.000,250.000 30.444,250.000 42.622 C 250.000 54.658,249.938 55.263,248.667 55.667 C 245.728 56.600,247.636 57.333,253.000 57.333 C 258.801 57.333,259.945 56.796,257.000 55.455 C 255.437 54.743,255.333 54.383,255.333 49.681 L 255.333 44.667 257.952 44.667 C 260.634 44.667,262.667 45.981,262.667 47.714 C 262.667 48.238,263.117 48.667,263.667 48.667 C 264.472 48.667,264.667 47.630,264.667 43.333 C 264.667 39.037,264.472 38.000,263.667 38.000 C 263.117 38.000,262.667 38.540,262.667 39.200 C 262.667 41.125,261.271 42.000,258.200 42.000 L 255.333 42.000 255.333 36.333 L 255.333 30.667 259.897 30.667 C 264.598 30.667,265.861 31.300,266.878 34.167 C 267.660 36.373,269.551 35.587,269.083 33.250 C 268.854 32.104,268.667 30.454,268.667 29.583 L 268.667 28.000 258.000 28.000 C 248.963 28.000,247.333 28.153,247.333 29.000 M272.000 28.954 C 272.000 29.478,272.675 30.003,273.500 30.120 C 274.987 30.331,275.002 30.441,275.181 42.817 L 275.363 55.301 273.681 55.723 C 269.545 56.761,272.829 57.333,282.917 57.333 L 293.833 57.333 294.250 55.250 C 294.945 51.777,294.747 50.000,293.667 50.000 C 293.117 50.000,292.667 50.406,292.667 50.903 C 292.667 53.503,289.512 55.333,285.032 55.333 L 280.667 55.333 280.667 49.667 L 280.667 44.000 283.230 44.000 C 285.765 44.000,288.000 45.509,288.000 47.219 C 288.000 47.649,288.450 48.000,289.000 48.000 C 289.806 48.000,290.000 46.963,290.000 42.667 C 290.000 38.370,289.806 37.333,289.000 37.333 C 288.450 37.333,288.000 37.737,288.000 38.230 C 288.000 39.825,285.625 41.333,283.114 41.333 L 280.667 41.333 280.667 36.000 L 280.667 30.667 284.974 30.667 C 289.369 30.667,292.000 32.087,292.000 34.459 C 292.000 34.940,292.450 35.333,293.000 35.333 C 293.768 35.333,294.000 34.481,294.000 31.667 L 294.000 28.000 283.000 28.000 C 273.904 28.000,272.000 28.165,272.000 28.954 M296.667 28.954 C 296.667 29.478,297.342 30.003,298.167 30.120 C 299.662 30.333,299.667 30.372,299.667 43.000 C 299.667 55.628,299.662 55.667,298.167 55.880 C 297.342 55.997,296.667 56.522,296.667 57.046 C 296.667 57.835,298.571 58.000,307.667 58.000 L 318.667 58.000 318.667 54.000 C 318.667 51.778,318.370 50.000,318.000 50.000 C 317.633 50.000,317.333 50.277,317.333 50.616 C 317.333 53.185,313.808 55.333,309.593 55.333 L 305.304 55.333 305.485 42.833 C 305.665 30.440,305.680 30.332,307.167 30.120 C 311.607 29.490,308.446 28.000,302.667 28.000 C 297.907 28.000,296.667 28.197,296.667 28.954 M322.000 29.000 C 322.000 29.556,322.593 30.000,323.333 30.000 C 324.620 30.000,324.667 30.444,324.667 42.729 C 324.667 54.897,324.608 55.474,323.333 55.807 C 322.600 55.999,322.000 56.571,322.000 57.078 C 322.000 57.824,324.016 58.000,332.576 58.000 L 343.152 58.000 343.576 54.907 C 344.180 50.501,344.121 50.000,343.000 50.000 C 342.450 50.000,342.000 50.406,342.000 50.903 C 342.000 53.412,338.834 55.333,334.698 55.333 L 330.667 55.333 330.667 42.667 C 330.667 30.444,330.713 30.000,332.000 30.000 C 332.741 30.000,333.333 29.556,333.333 29.000 C 333.333 28.190,332.259 28.000,327.667 28.000 C 323.074 28.000,322.000 28.190,322.000 29.000 M346.000 28.954 C 346.000 29.478,346.675 30.003,347.500 30.120 C 348.987 30.331,349.002 30.441,349.181 42.817 L 349.363 55.301 347.681 55.723 C 343.545 56.761,346.829 57.333,356.922 57.333 C 367.685 57.333,367.850 57.311,368.246 55.833 C 369.018 52.955,368.724 50.000,367.667 50.000 C 367.117 50.000,366.667 50.464,366.667 51.030 C 366.667 53.604,363.597 55.333,359.030 55.333 L 354.667 55.333 354.667 49.667 L 354.667 44.000 357.230 44.000 C 359.765 44.000,362.000 45.509,362.000 47.219 C 362.000 47.649,362.450 48.000,363.000 48.000 C 363.806 48.000,364.000 46.963,364.000 42.667 C 364.000 38.370,363.806 37.333,363.000 37.333 C 362.450 37.333,362.000 37.737,362.000 38.230 C 362.000 39.825,359.625 41.333,357.114 41.333 L 354.667 41.333 354.667 36.000 L 354.667 30.667 359.000 30.667 C 363.501 30.667,366.000 31.976,366.000 34.333 C 366.000 34.883,366.450 35.333,367.000 35.333 C 367.768 35.333,368.000 34.481,368.000 31.667 L 368.000 28.000 357.000 28.000 C 347.904 28.000,346.000 28.165,346.000 28.954 M373.333 28.931 C 373.333 29.556,373.888 30.000,374.667 30.000 C 375.953 30.000,376.000 30.444,376.000 42.729 C 376.000 54.897,375.941 55.474,374.667 55.807 C 370.998 56.766,373.436 58.000,379.000 58.000 C 384.838 58.000,386.445 57.097,383.167 55.658 C 381.043 54.726,380.467 45.333,382.534 45.333 C 384.095 45.333,384.942 46.327,388.929 52.833 L 392.095 58.000 396.047 58.000 C 400.518 58.000,401.216 57.030,398.044 55.225 C 396.973 54.616,395.267 52.816,394.253 51.225 C 393.239 49.635,391.689 47.537,390.809 46.565 C 389.285 44.881,389.269 44.777,390.487 44.390 C 396.772 42.395,397.648 32.657,391.822 29.533 C 388.687 27.852,373.333 27.352,373.333 28.931 M68.888 29.615 C 69.133 30.254,69.333 31.968,69.333 33.426 L 69.333 36.077 72.167 35.872 L 75.000 35.667 75.203 32.500 C 75.380 29.746,75.239 29.333,74.120 29.333 C 73.412 29.333,71.845 29.136,70.638 28.894 C 68.736 28.514,68.502 28.610,68.888 29.615 M155.790 31.686 C 161.723 35.573,161.768 50.151,155.861 54.289 C 152.148 56.889,145.981 54.902,143.962 50.456 C 138.840 39.173,147.132 26.013,155.790 31.686 M127.285 32.423 C 130.652 36.703,128.105 42.667,122.910 42.667 L 120.667 42.667 120.667 36.667 L 120.667 30.667 123.285 30.667 C 125.319 30.667,126.211 31.058,127.285 32.423 M388.641 32.126 C 392.357 36.115,389.417 42.667,383.910 42.667 L 381.333 42.667 381.333 36.667 L 381.333 30.667 384.307 30.667 C 386.508 30.667,387.635 31.046,388.641 32.126 M83.453 33.437 C 83.599 34.949,84.053 35.729,84.880 35.886 C 85.888 36.077,86.057 35.740,85.880 33.897 C 85.735 32.384,85.280 31.604,84.453 31.448 C 83.446 31.257,83.276 31.593,83.453 33.437 M39.333 46.000 L 39.333 52.174 41.833 51.761 C 43.208 51.534,45.758 51.345,47.500 51.341 L 50.667 51.333 50.667 46.000 L 50.667 40.667 47.500 40.659 C 45.758 40.655,43.208 40.466,41.833 40.239 L 39.333 39.826 39.333 46.000 M54.667 46.006 L 54.667 50.678 58.500 50.283 C 64.106 49.706,64.000 49.793,64.000 45.775 L 64.000 42.174 61.500 41.761 C 60.125 41.534,58.025 41.345,56.833 41.341 L 54.667 41.333 54.667 46.006 M70.000 45.744 C 70.000 48.611,70.103 48.795,71.500 48.420 C 72.325 48.199,73.525 48.014,74.167 48.009 C 76.528 47.991,75.706 43.574,73.250 43.083 C 70.037 42.441,70.000 42.471,70.000 45.744 M25.333 59.667 L 25.333 66.000 31.667 66.000 L 38.000 66.000 38.000 60.083 L 38.000 54.167 35.917 53.750 C 34.771 53.521,31.921 53.333,29.583 53.333 L 25.333 53.333 25.333 59.667 M39.333 59.907 C 39.333 66.866,38.727 66.391,46.569 65.572 L 50.667 65.143 50.667 59.905 L 50.667 54.667 48.500 54.661 C 47.308 54.658,44.758 54.466,42.833 54.235 L 39.333 53.814 39.333 59.907 M54.667 59.913 C 54.667 65.274,54.455 65.127,60.907 64.243 L 64.000 63.819 64.000 59.909 L 64.000 56.000 61.833 55.993 C 60.642 55.989,58.542 55.799,57.167 55.572 L 54.667 55.159 54.667 59.913 M70.365 59.735 C 69.806 62.713,70.025 62.935,72.969 62.383 C 76.527 61.716,76.619 57.333,73.074 57.333 C 71.008 57.333,70.777 57.538,70.365 59.735 M147.000 64.804 C 139.129 67.556,135.144 77.439,138.723 85.333 C 145.476 100.231,166.590 95.553,166.652 79.145 C 166.693 68.406,156.978 61.317,147.000 64.804 M273.116 77.634 C 269.611 88.189,268.297 91.361,267.295 91.679 C 264.078 92.700,265.967 94.000,270.667 94.000 C 274.370 94.000,275.333 93.794,275.333 93.000 C 275.333 92.450,274.751 92.000,274.039 92.000 C 272.109 92.000,271.765 90.887,272.681 87.614 L 273.507 84.667 278.293 84.667 L 283.079 84.667 284.133 87.962 C 285.258 91.482,285.141 92.000,283.222 92.000 C 282.550 92.000,282.000 92.450,282.000 93.000 C 282.000 93.815,283.111 94.000,288.000 94.000 C 294.159 94.000,295.839 93.127,292.508 91.658 C 291.331 91.139,289.965 88.154,286.030 77.500 C 279.195 58.998,279.303 58.997,273.116 77.634 M346.871 65.690 C 333.161 72.522,338.040 94.016,353.317 94.089 C 362.104 94.131,367.468 88.922,367.893 79.936 C 368.471 67.692,357.616 60.335,346.871 65.690 M111.333 65.287 C 111.333 65.628,112.008 66.003,112.833 66.120 C 114.322 66.332,114.335 66.428,114.514 79.167 L 114.695 92.000 113.014 92.000 C 111.965 92.000,111.333 92.375,111.333 93.000 C 111.333 93.815,112.444 94.000,117.333 94.000 C 123.113 94.000,126.274 92.510,121.833 91.880 C 120.435 91.681,120.320 91.294,120.140 86.167 L 119.946 80.667 122.158 80.667 C 124.852 80.667,127.333 82.283,127.333 84.038 C 127.333 84.750,127.783 85.333,128.333 85.333 C 129.139 85.333,129.333 84.296,129.333 80.000 C 129.333 75.704,129.139 74.667,128.333 74.667 C 127.783 74.667,127.333 75.100,127.333 75.629 C 127.333 77.081,124.646 78.667,122.185 78.667 L 120.000 78.667 120.000 72.667 L 120.000 66.667 124.044 66.667 C 128.889 66.667,130.298 67.318,131.229 69.986 C 132.338 73.169,133.333 72.387,133.333 68.333 L 133.333 64.667 122.333 64.667 C 115.993 64.667,111.333 64.929,111.333 65.287 M169.333 65.287 C 169.333 65.628,170.008 66.003,170.833 66.120 C 172.298 66.328,172.341 66.574,172.667 76.667 C 173.135 91.198,175.026 94.000,184.364 94.000 C 193.438 94.000,196.000 90.011,196.000 75.882 L 196.000 66.692 197.667 66.274 C 200.912 65.459,199.267 64.667,194.333 64.667 C 189.019 64.667,188.074 65.232,191.333 66.463 L 193.333 67.218 193.333 75.630 C 193.333 87.506,191.710 90.741,185.704 90.832 C 179.699 90.923,178.010 87.482,178.004 75.152 C 178.000 67.427,178.026 67.293,179.667 66.545 C 182.647 65.188,181.445 64.667,175.333 64.667 C 172.033 64.667,169.333 64.946,169.333 65.287 M203.333 65.261 C 203.333 65.588,204.083 66.044,205.000 66.274 L 206.667 66.692 206.667 79.346 L 206.667 92.000 205.000 92.000 C 203.963 92.000,203.333 92.378,203.333 93.000 C 203.333 93.800,204.333 94.000,208.333 94.000 C 213.430 94.000,215.850 92.378,211.500 91.878 L 209.667 91.667 209.483 80.705 C 209.382 74.676,209.416 69.876,209.558 70.038 C 209.700 70.201,213.180 75.658,217.290 82.167 C 223.625 92.197,225.011 94.000,226.382 94.000 L 228.000 94.000 228.000 80.386 L 228.000 66.773 230.000 66.333 C 233.724 65.515,232.027 64.667,226.667 64.667 C 221.306 64.667,219.609 65.515,223.333 66.333 L 225.333 66.773 225.333 75.553 L 225.333 84.333 222.138 79.333 C 220.380 76.583,217.605 72.161,215.971 69.506 L 213.000 64.678 208.167 64.672 C 205.508 64.669,203.333 64.934,203.333 65.261 M236.667 65.256 C 236.667 65.579,237.267 66.001,238.000 66.193 C 239.275 66.526,239.333 67.103,239.333 79.271 C 239.333 91.556,239.287 92.000,238.000 92.000 C 237.223 92.000,236.667 92.444,236.667 93.065 C 236.667 94.999,253.485 94.147,257.196 92.025 C 267.019 86.408,266.873 71.861,256.937 66.178 C 254.208 64.617,236.667 63.819,236.667 65.256 M294.667 68.333 C 294.667 71.148,294.899 72.000,295.667 72.000 C 296.217 72.000,296.667 71.590,296.667 71.090 C 296.667 69.216,299.384 66.667,301.382 66.667 L 303.333 66.667 303.333 79.333 L 303.333 92.000 301.667 92.000 C 300.630 92.000,300.000 92.378,300.000 93.000 C 300.000 93.815,301.111 94.000,306.000 94.000 C 311.779 94.000,314.941 92.510,310.500 91.880 C 309.013 91.668,308.998 91.560,308.819 79.167 L 308.637 66.667 310.362 66.667 C 312.899 66.667,314.437 67.716,315.229 69.986 C 316.338 73.169,317.333 72.387,317.333 68.333 L 317.333 64.667 306.000 64.667 L 294.667 64.667 294.667 68.333 M323.333 65.226 C 323.333 65.534,324.090 66.131,325.015 66.552 L 326.697 67.318 326.515 79.493 C 326.335 91.547,326.319 91.669,324.833 91.880 C 320.542 92.489,323.511 94.000,329.000 94.000 C 333.593 94.000,334.667 93.810,334.667 93.000 C 334.667 92.444,334.074 92.000,333.333 92.000 C 332.047 92.000,332.000 91.556,332.000 79.378 C 332.000 67.342,332.062 66.737,333.333 66.333 C 336.272 65.400,334.364 64.667,329.000 64.667 C 325.883 64.667,323.333 64.919,323.333 65.226 M371.333 65.250 C 371.333 65.571,372.240 66.015,373.348 66.236 L 375.363 66.639 375.181 79.153 L 375.000 91.667 373.167 91.878 C 368.644 92.398,371.286 94.000,376.667 94.000 C 380.963 94.000,382.000 93.806,382.000 93.000 C 382.000 92.374,381.368 92.000,380.312 92.000 C 378.008 92.000,377.937 91.623,378.148 80.487 L 378.333 70.700 385.667 82.349 C 392.267 92.833,393.183 93.998,394.833 93.999 L 396.667 94.000 396.667 80.346 L 396.667 66.692 398.333 66.274 C 401.578 65.459,399.934 64.667,395.000 64.667 C 390.073 64.667,388.348 65.560,391.667 66.393 L 393.333 66.811 393.323 75.239 C 393.318 79.874,393.093 83.345,392.823 82.952 C 392.554 82.559,389.821 78.284,386.750 73.452 L 381.167 64.667 376.250 64.667 C 373.546 64.667,371.333 64.929,371.333 65.250 M156.092 67.714 C 161.964 70.751,162.802 84.427,157.432 89.572 C 151.178 95.564,143.383 89.850,143.348 79.248 C 143.315 69.369,149.124 64.111,156.092 67.714 M253.879 68.020 C 257.171 70.027,258.876 74.383,258.538 79.922 C 258.045 88.007,255.506 91.057,248.676 91.771 L 244.667 92.190 244.667 79.428 L 244.667 66.667 248.167 66.669 C 250.503 66.671,252.402 67.120,253.879 68.020 M358.568 68.353 C 364.512 73.354,363.568 87.838,357.099 90.908 C 350.320 94.125,344.770 88.787,344.718 79.000 C 344.664 69.104,352.397 63.160,358.568 68.353 M39.556 71.396 C 39.794 73.378,39.991 75.975,39.994 77.167 L 40.000 79.333 43.833 79.324 C 50.598 79.308,50.667 79.251,50.667 73.589 L 50.667 68.667 47.500 68.659 C 45.758 68.655,43.161 68.458,41.728 68.222 L 39.123 67.791 39.556 71.396 M54.517 73.754 C 54.135 79.321,53.566 78.778,59.236 78.251 L 64.000 77.809 64.000 73.904 C 64.000 70.246,63.901 70.000,62.426 70.000 C 61.561 70.000,59.498 69.814,57.842 69.587 L 54.832 69.175 54.517 73.754 M69.778 70.444 C 68.888 71.335,69.292 76.667,70.250 76.667 C 74.295 76.667,75.333 75.901,75.333 72.917 L 75.333 70.000 72.778 70.000 C 71.372 70.000,70.022 70.200,69.778 70.444 M83.333 72.000 C 83.333 74.049,83.724 74.367,85.142 73.466 C 86.186 72.802,85.470 70.000,84.256 70.000 C 83.675 70.000,83.333 70.742,83.333 72.000 M280.139 77.000 L 281.937 82.000 278.231 82.000 C 275.008 82.000,274.581 81.851,274.961 80.861 C 275.202 80.234,275.909 77.984,276.533 75.861 C 277.963 70.992,277.980 70.997,280.139 77.000 M92.568 79.113 C 91.964 79.273,91.323 79.914,91.144 80.536 C 90.965 81.158,90.602 82.192,90.338 82.833 C 90.013 83.621,90.164 84.000,90.801 84.000 C 92.305 84.000,93.805 82.485,94.266 80.500 C 94.694 78.659,94.592 78.576,92.568 79.113 M40.007 83.079 C 40.011 84.502,40.201 86.792,40.428 88.167 L 40.841 90.667 46.087 90.667 L 51.333 90.667 51.333 86.000 L 51.333 81.333 48.167 81.326 C 46.425 81.322,43.875 81.133,42.500 80.905 L 40.000 80.492 40.007 83.079 M82.905 81.128 C 81.689 81.366,79.470 86.358,80.238 87.127 C 80.893 87.782,85.335 85.758,85.342 84.802 C 85.347 84.178,85.532 82.992,85.754 82.167 C 86.168 80.621,85.933 80.535,82.905 81.128 M54.000 84.250 C 54.000 85.487,53.804 87.481,53.564 88.680 L 53.128 90.861 57.921 90.518 C 63.597 90.111,63.047 90.567,63.580 85.833 L 64.012 82.000 59.006 82.000 L 54.000 82.000 54.000 84.250 M67.719 85.411 C 67.164 89.597,67.143 89.576,71.291 89.006 C 74.577 88.554,74.667 88.483,74.667 86.325 C 74.667 85.106,74.849 83.635,75.071 83.055 C 75.410 82.172,74.880 82.000,71.824 82.000 L 68.172 82.000 67.719 85.411 M89.274 87.772 C 87.818 88.163,84.919 93.333,86.155 93.333 C 87.074 93.333,92.000 88.674,92.000 87.805 C 92.000 87.309,91.044 87.297,89.274 87.772 M81.217 90.123 C 79.004 90.712,75.792 95.348,76.859 96.415 C 77.468 97.023,83.309 94.446,83.586 93.447 C 83.755 92.834,84.088 91.658,84.325 90.833 C 84.798 89.189,84.759 89.180,81.217 90.123 M69.399 91.933 C 66.561 92.320,66.435 92.439,65.525 95.570 C 64.363 99.572,64.196 99.442,69.187 98.414 C 74.074 97.407,73.705 97.716,74.248 94.167 C 74.730 91.026,75.033 91.166,69.399 91.933 M77.440 97.574 C 75.236 98.372,73.174 100.667,74.660 100.667 C 75.384 100.667,79.432 98.666,81.333 97.369 C 82.767 96.391,80.358 96.518,77.440 97.574 " stroke="none" fill="#000000" fill-rule="evenodd"></path></g></svg>