<svg id="svg" xmlns="http://www.w3.org/2000/svg" xmlns:xlink="http://www.w3.org/1999/xlink" width="400" height="285.7142857142857" viewBox="0, 0, 400,285.7142857142857"><g id="svgg"><path id="path0" d="M136.429 77.857 L 136.429 141.429 200.000 141.429 L 263.571 141.429 263.571 77.857 L 263.571 14.286 200.000 14.286 L 136.429 14.286 136.429 77.857 M208.076 39.637 C 233.476 46.253,242.609 77.609,224.503 96.036 C 204.826 116.061,172.253 106.291,166.621 78.675 C 161.814 55.106,184.706 33.550,208.076 39.637 M192.642 41.497 C 189.047 42.343,183.024 45.256,180.357 47.439 L 178.214 49.193 179.807 50.813 L 181.401 52.432 183.379 50.970 C 186.822 48.424,190.235 46.887,194.286 46.057 C 197.976 45.301,198.228 45.115,198.438 42.983 C 198.688 40.448,197.928 40.253,192.642 41.497 M200.714 42.371 C 200.714 44.107,200.836 44.169,202.866 43.461 C 205.204 42.646,207.502 43.126,206.789 44.281 C 206.544 44.676,205.479 45.021,204.422 45.047 C 203.122 45.079,203.735 45.426,206.319 46.121 C 208.419 46.686,210.652 47.437,211.281 47.789 C 211.957 48.167,213.122 48.164,214.129 47.781 C 215.848 47.128,217.433 47.524,216.853 48.462 C 216.681 48.741,217.078 49.663,217.734 50.511 L 218.929 52.054 220.183 50.351 C 221.432 48.655,221.422 48.636,218.108 46.355 C 211.002 41.467,200.714 39.110,200.714 42.371 M232.223 45.794 C 234.666 48.237,236.740 52.641,235.886 53.571 C 235.500 53.991,225.000 42.893,225.000 42.066 C 225.000 40.827,229.663 43.235,232.223 45.794 M174.286 42.510 C 174.286 43.209,167.754 50.894,165.667 52.650 C 163.322 54.623,163.066 54.022,164.643 50.247 C 165.966 47.080,165.977 46.750,164.722 47.791 C 164.177 48.244,163.358 50.132,162.904 51.986 C 162.450 53.840,161.911 56.000,161.707 56.786 C 161.491 57.616,161.579 57.885,161.917 57.427 C 162.238 56.994,164.327 55.160,166.559 53.351 L 170.619 50.062 169.842 52.289 C 169.415 53.514,166.946 56.547,164.354 59.030 L 159.643 63.545 159.162 60.522 C 158.101 53.865,161.616 46.084,165.121 47.330 C 165.384 47.423,166.348 46.816,167.264 45.980 C 169.794 43.669,174.286 41.450,174.286 42.510 M236.988 47.543 C 239.927 49.602,240.848 52.498,240.624 58.976 C 240.511 62.257,240.617 65.141,240.860 65.384 C 241.518 66.042,242.378 56.750,241.854 54.659 C 241.195 52.034,241.907 52.452,243.538 55.649 C 245.871 60.222,245.985 63.287,244.058 69.643 L 242.326 75.357 241.173 72.616 C 240.539 71.108,239.047 68.645,237.857 67.143 C 235.326 63.947,233.332 59.511,233.836 58.198 C 234.030 57.692,233.535 56.685,232.736 55.962 C 231.154 54.530,229.286 51.278,229.286 49.956 C 229.286 49.500,229.848 49.749,230.536 50.510 C 231.223 51.270,233.282 53.070,235.111 54.510 L 238.436 57.127 237.128 52.808 C 236.409 50.432,235.435 48.025,234.965 47.458 C 233.835 46.096,234.991 46.145,236.988 47.543 M192.853 48.525 C 190.485 49.245,186.453 51.333,184.511 52.846 L 182.950 54.061 184.402 55.513 L 185.853 56.965 190.479 54.554 C 193.022 53.228,195.884 52.143,196.838 52.143 C 198.288 52.143,198.571 51.792,198.571 50.000 C 198.571 47.690,196.962 47.274,192.853 48.525 M200.714 49.909 C 200.714 51.759,201.003 52.006,203.646 52.429 C 205.259 52.687,207.509 53.379,208.646 53.967 C 210.552 54.953,210.716 54.937,210.737 53.768 C 210.758 52.618,210.865 52.633,211.893 53.929 C 212.981 55.300,213.007 55.271,212.546 53.214 C 211.467 48.408,200.714 45.404,200.714 49.909 M174.851 53.010 C 171.467 57.453,169.118 63.119,168.324 68.750 C 167.951 71.399,167.974 71.429,170.402 71.429 C 172.535 71.429,172.857 71.198,172.857 69.670 C 172.857 67.214,175.313 60.912,177.795 56.998 L 179.881 53.709 178.260 52.185 L 176.638 50.662 174.851 53.010 M221.423 52.506 L 219.742 54.295 221.618 56.255 C 224.012 58.754,226.311 63.945,226.888 68.150 C 227.308 71.214,232.143 73.606,232.143 70.749 C 232.143 62.233,224.502 49.229,221.423 52.506 M157.997 57.118 C 157.828 59.462,157.904 62.524,158.166 63.922 L 158.643 66.465 162.273 62.494 C 164.269 60.309,166.048 58.667,166.225 58.844 C 166.766 59.385,163.907 65.261,161.163 69.251 C 159.737 71.322,158.571 73.464,158.571 74.009 C 158.571 76.486,157.357 74.529,155.813 69.566 C 153.930 63.509,154.078 60.321,156.462 55.649 C 158.308 52.030,158.362 52.081,157.997 57.118 M194.114 55.302 C 192.644 55.827,190.596 56.810,189.563 57.486 L 187.685 58.717 189.145 60.177 L 190.605 61.637 193.866 60.104 C 195.660 59.261,197.452 58.571,197.849 58.571 C 198.246 58.571,198.571 57.607,198.571 56.429 C 198.571 54.033,198.044 53.899,194.114 55.302 M201.162 55.379 C 200.298 57.630,200.734 58.462,203.036 58.954 C 204.313 59.227,206.228 59.957,207.292 60.577 C 209.305 61.747,212.737 60.111,211.720 58.466 C 210.261 56.105,201.829 53.640,201.162 55.379 M214.061 56.360 C 214.256 57.108,215.295 58.634,216.369 59.753 C 218.597 62.072,219.574 64.085,219.351 65.893 C 219.266 66.580,219.552 67.143,219.986 67.143 C 220.421 67.143,220.725 67.545,220.661 68.036 C 220.312 70.726,220.766 71.429,222.857 71.429 C 227.181 71.429,225.110 64.350,219.623 60.375 C 217.531 58.859,215.664 57.030,215.476 56.309 C 215.288 55.589,214.812 55.000,214.419 55.000 C 214.027 55.000,213.865 55.612,214.061 56.360 M179.687 58.094 C 175.414 63.695,173.861 71.429,177.008 71.429 C 178.810 71.429,179.106 71.075,179.903 67.967 C 180.391 66.064,181.576 63.349,182.538 61.934 C 185.671 57.324,183.009 53.738,179.687 58.094 M234.286 58.494 C 234.286 59.350,239.437 63.658,239.904 63.192 C 240.091 63.005,239.466 62.020,238.515 61.003 C 236.441 58.786,234.286 57.507,234.286 58.494 M185.177 61.607 C 182.949 64.400,180.790 71.429,182.161 71.429 C 182.544 71.429,182.857 70.969,182.857 70.408 C 182.857 69.303,183.598 68.450,187.151 65.460 C 189.383 63.582,189.417 63.472,188.190 62.116 C 186.710 60.481,186.151 60.386,185.177 61.607 M195.000 62.209 C 191.957 63.594,191.860 63.727,193.172 64.693 C 194.974 66.020,196.171 65.987,196.704 64.598 C 196.940 63.983,197.456 63.681,197.852 63.925 C 198.263 64.180,198.571 63.587,198.571 62.542 C 198.571 61.537,198.491 60.721,198.393 60.730 C 198.295 60.739,196.768 61.404,195.000 62.209 M201.250 62.482 C 201.633 64.482,202.150 64.707,203.429 63.429 C 204.095 62.762,204.286 62.810,204.286 63.643 C 204.286 64.232,203.900 65.100,203.429 65.571 C 202.242 66.758,204.248 66.705,205.714 65.510 C 207.376 64.157,207.309 62.884,205.541 62.223 C 201.083 60.555,200.884 60.567,201.250 62.482 M211.896 62.021 C 210.293 63.793,210.408 64.286,212.424 64.286 C 213.364 64.286,214.301 64.723,214.506 65.258 C 214.711 65.793,215.525 66.399,216.315 66.606 C 217.336 66.873,217.641 66.695,217.370 65.991 C 217.161 65.446,216.703 65.000,216.352 65.000 C 216.001 65.000,215.714 64.421,215.714 63.714 C 215.714 60.987,213.657 60.075,211.896 62.021 M247.786 70.779 C 247.941 76.358,240.770 90.221,240.128 85.583 C 240.002 84.673,239.098 80.947,238.118 77.303 C 235.448 67.368,236.057 65.496,239.634 72.640 L 242.482 78.328 243.458 75.771 C 243.996 74.365,244.949 71.286,245.576 68.929 C 246.803 64.320,247.626 65.008,247.786 70.779 M156.610 76.351 L 158.356 80.916 158.750 77.978 C 158.967 76.362,160.133 73.344,161.342 71.270 C 164.247 66.286,164.378 68.747,161.745 78.876 C 160.741 82.740,160.088 86.342,160.294 86.880 C 161.542 90.130,156.880 84.607,154.192 79.649 C 152.601 76.716,151.913 72.043,152.533 68.393 L 153.050 65.357 153.957 68.571 C 154.456 70.339,155.650 73.840,156.610 76.351 M197.103 69.889 C 195.213 71.419,195.616 73.571,197.793 73.571 C 199.896 73.571,200.235 74.765,198.597 76.403 L 197.143 77.857 198.750 77.841 C 201.495 77.814,203.836 75.510,203.157 73.505 C 202.836 72.559,202.660 71.477,202.766 71.099 C 203.375 68.918,199.361 68.060,197.103 69.889 M185.000 72.265 C 185.000 72.725,184.521 73.631,183.935 74.278 C 183.003 75.308,182.997 75.805,183.890 78.263 C 184.451 79.808,185.107 81.996,185.348 83.126 L 185.787 85.181 187.422 83.645 L 189.058 82.108 187.564 79.033 C 186.743 77.342,185.871 76.259,185.625 76.627 C 185.355 77.031,185.000 77.006,184.726 76.562 C 184.476 76.159,184.758 75.344,185.351 74.751 C 186.568 73.534,186.798 71.429,185.714 71.429 C 185.321 71.429,185.000 71.805,185.000 72.265 M168.158 75.714 C 169.582 83.088,169.420 82.658,170.090 80.847 C 170.427 79.938,170.961 79.354,171.278 79.550 C 172.527 80.321,173.334 78.797,173.025 76.250 C 172.720 73.732,172.553 73.571,170.222 73.571 C 167.852 73.571,167.762 73.666,168.158 75.714 M175.071 75.179 C 175.183 77.695,176.265 80.795,176.357 78.861 C 176.397 78.038,177.071 76.782,177.857 76.071 C 179.844 74.273,179.644 73.571,177.143 73.571 C 175.376 73.571,175.012 73.853,175.071 75.179 M217.143 75.000 C 217.563 75.786,218.057 76.429,218.239 76.429 C 218.422 76.429,218.571 75.786,218.571 75.000 C 218.571 74.192,218.095 73.571,217.475 73.571 C 216.600 73.571,216.533 73.860,217.143 75.000 M220.714 75.270 C 220.714 77.303,218.926 81.771,217.061 84.396 C 215.443 86.674,215.390 87.143,216.750 87.143 C 217.320 87.143,218.067 87.645,218.411 88.260 C 219.670 90.510,225.000 80.289,225.000 75.624 C 225.000 73.820,224.741 73.571,222.857 73.571 C 221.077 73.571,220.714 73.859,220.714 75.270 M227.143 75.687 C 227.143 78.615,224.651 84.996,222.171 88.420 L 220.102 91.275 221.842 92.910 C 223.550 94.514,223.602 94.519,224.648 93.165 C 227.259 89.787,230.034 84.227,231.044 80.346 C 232.680 74.066,232.578 73.571,229.643 73.571 C 227.348 73.571,227.143 73.745,227.143 75.687 M189.286 77.325 C 189.286 78.853,191.156 80.305,191.794 79.273 C 192.064 78.835,192.173 78.407,192.036 78.322 C 191.898 78.237,191.223 77.737,190.536 77.210 C 189.476 76.399,189.286 76.416,189.286 77.325 M164.976 87.143 C 165.059 90.252,165.759 94.244,166.840 97.780 C 167.325 99.364,167.055 99.279,163.120 96.607 C 155.830 91.656,152.154 86.452,152.150 81.071 C 152.149 79.982,152.506 80.236,153.658 82.143 C 156.321 86.550,162.420 92.629,161.833 90.291 C 161.563 89.214,161.750 86.056,162.250 83.274 L 163.159 78.214 164.025 81.071 C 164.501 82.643,164.929 85.375,164.976 87.143 M193.705 80.215 L 192.143 81.878 194.718 83.106 C 196.699 84.051,197.525 84.144,198.290 83.509 C 199.736 82.309,199.545 80.000,198.000 80.000 C 197.293 80.000,196.389 79.674,195.991 79.276 C 195.502 78.787,194.760 79.092,193.705 80.215 M213.880 79.118 C 212.957 79.753,213.062 83.759,214.010 84.075 C 214.726 84.314,217.143 80.672,217.143 79.354 C 217.143 78.471,215.041 78.319,213.880 79.118 M238.115 86.537 L 238.214 91.289 241.786 87.347 C 243.750 85.179,245.911 82.237,246.588 80.810 L 247.820 78.214 247.831 80.714 C 247.857 86.236,244.417 91.160,237.182 95.954 C 232.614 98.981,232.628 98.984,233.929 95.330 C 234.484 93.773,234.951 90.989,234.969 89.142 C 235.067 78.612,237.901 76.266,238.115 86.537 M204.286 83.356 C 200.394 83.777,199.351 84.319,201.071 85.026 C 203.277 85.934,203.994 85.825,205.814 84.309 C 206.741 83.537,207.339 82.945,207.143 82.995 C 206.946 83.045,205.661 83.207,204.286 83.356 M170.710 85.391 C 171.577 87.724,175.834 94.282,176.483 94.284 C 176.709 94.285,177.613 93.520,178.492 92.585 L 180.090 90.884 176.936 88.299 C 175.201 86.877,173.518 85.714,173.197 85.714 C 172.876 85.714,172.008 85.167,171.269 84.498 C 169.972 83.325,169.953 83.356,170.710 85.391 M189.039 84.878 C 187.236 86.870,188.081 87.776,193.745 89.930 C 196.534 90.991,195.854 86.718,192.954 84.954 C 190.201 83.280,190.480 83.286,189.039 84.878 M168.412 90.893 C 169.540 92.563,171.207 95.950,172.115 98.420 C 173.023 100.891,174.429 103.754,175.239 104.784 L 176.711 106.656 173.534 106.156 C 165.756 104.932,161.466 102.527,157.527 97.183 C 154.871 93.578,155.189 92.077,158.036 94.783 C 159.313 95.996,161.804 97.708,163.571 98.588 C 165.339 99.467,167.750 100.863,168.929 101.689 L 171.071 103.191 169.773 101.189 C 169.058 100.088,167.998 96.903,167.415 94.110 C 166.833 91.318,166.193 88.769,165.993 88.445 C 165.794 88.122,165.794 87.857,165.995 87.857 C 166.196 87.857,167.283 89.223,168.412 90.893 M213.571 88.371 C 213.571 88.828,213.906 89.408,214.315 89.661 C 214.724 89.913,214.863 90.736,214.624 91.489 C 214.100 93.137,215.566 93.359,216.193 91.726 C 216.447 91.064,215.994 89.963,215.099 89.068 C 214.259 88.227,213.571 87.914,213.571 88.371 M233.935 88.561 C 233.696 88.948,233.208 91.057,232.852 93.248 C 232.495 95.439,231.732 98.176,231.156 99.330 C 230.581 100.484,230.201 101.429,230.313 101.429 C 231.361 101.429,241.441 95.272,242.679 93.876 C 244.512 91.808,244.784 92.679,243.238 95.668 C 240.610 100.751,234.638 104.332,225.873 106.083 L 223.532 106.551 225.290 103.960 C 226.257 102.535,227.590 99.695,228.253 97.649 C 229.537 93.685,232.832 87.861,233.792 87.858 C 234.110 87.858,234.174 88.174,233.935 88.561 M185.000 91.359 C 182.062 92.184,189.675 96.287,196.250 97.421 C 198.403 97.792,198.571 97.679,198.571 95.860 C 198.571 94.049,198.175 93.777,193.393 92.300 C 187.885 90.598,187.756 90.584,185.000 91.359 M179.390 94.532 L 177.817 96.206 180.516 98.068 C 184.775 101.006,190.996 103.588,194.945 104.055 L 198.571 104.485 198.571 102.305 C 198.571 100.294,198.337 100.088,195.536 99.635 C 191.746 99.022,186.863 96.929,183.837 94.621 C 181.032 92.482,181.310 92.488,179.390 94.532 M213.653 96.882 C 209.616 100.535,209.044 100.834,207.464 100.113 C 204.406 98.720,201.429 99.815,201.429 102.332 L 201.429 104.485 205.055 104.055 C 209.004 103.588,215.225 101.006,219.484 98.068 L 222.183 96.206 220.610 94.532 C 218.541 92.330,218.768 92.253,213.653 96.882 M201.429 96.071 C 201.429 97.235,201.828 97.857,202.576 97.857 C 203.330 97.857,203.575 97.469,203.291 96.727 C 203.052 96.106,202.857 95.302,202.857 94.942 C 202.857 94.581,202.536 94.286,202.143 94.286 C 201.750 94.286,201.429 95.089,201.429 96.071 M180.000 103.955 C 180.982 105.029,183.388 106.625,185.346 107.502 L 188.906 109.095 183.776 110.262 C 174.927 112.275,170.265 111.527,165.645 107.352 C 162.248 104.284,162.361 103.880,166.110 105.679 C 167.660 106.422,171.339 107.251,174.286 107.520 L 179.643 108.010 177.757 105.969 C 176.720 104.847,175.159 102.508,174.289 100.773 L 172.706 97.617 175.460 99.809 C 176.975 101.014,179.018 102.880,180.000 103.955 M225.717 100.893 C 224.972 102.563,223.375 104.813,222.170 105.893 C 220.964 106.973,220.071 107.857,220.186 107.857 C 223.629 107.857,233.094 105.999,234.821 104.984 C 237.658 103.317,237.832 104.088,235.179 106.571 C 230.426 111.018,226.275 111.899,217.784 110.266 L 211.220 109.003 214.338 107.678 C 216.053 106.950,219.447 104.442,221.881 102.106 C 227.151 97.044,227.483 96.940,225.717 100.893 M214.945 110.962 C 219.759 112.951,225.406 113.455,227.904 112.118 C 228.727 111.677,229.286 111.651,229.286 112.054 C 229.286 113.156,222.043 116.431,219.681 116.397 C 216.779 116.356,212.668 114.840,209.427 112.617 C 207.974 111.620,205.821 110.595,204.643 110.340 C 202.927 109.968,203.354 110.432,206.786 112.671 C 211.602 115.814,213.196 117.445,212.519 118.540 C 211.815 119.680,210.434 119.430,209.542 118.002 C 209.101 117.297,206.955 115.489,204.771 113.985 C 199.913 110.639,198.945 110.791,193.346 115.781 C 190.298 118.498,188.984 119.270,188.400 118.686 C 187.363 117.648,189.058 115.753,193.675 112.791 C 200.288 108.547,196.494 109.350,189.286 113.720 C 183.659 117.131,177.900 117.368,173.678 114.362 C 170.828 112.332,171.046 111.955,174.515 112.913 C 177.323 113.688,180.494 113.056,188.535 110.117 C 194.598 107.901,208.623 108.350,214.945 110.962 M136.429 175.357 L 136.429 206.429 167.500 206.429 L 198.571 206.429 198.571 175.357 L 198.571 144.286 167.500 144.286 L 136.429 144.286 136.429 175.357 M201.429 175.357 L 201.429 206.429 232.500 206.429 L 263.571 206.429 263.571 175.357 L 263.571 144.286 232.500 144.286 L 201.429 144.286 201.429 175.357 M157.996 169.821 C 158.279 189.033,159.530 191.895,167.564 191.718 C 175.431 191.545,176.725 188.547,177.016 169.821 L 177.246 155.000 180.114 155.000 L 182.982 155.000 182.720 169.821 C 182.339 191.320,179.349 196.429,167.143 196.429 C 155.004 196.429,152.143 191.190,152.143 168.969 L 152.143 155.000 154.960 155.000 L 157.777 155.000 157.996 169.821 M226.037 159.464 C 227.587 161.920,232.112 169.437,236.092 176.170 L 243.329 188.410 242.997 171.705 L 242.665 155.000 245.261 155.000 L 247.857 155.000 247.857 175.714 L 247.857 196.429 245.342 196.429 C 242.408 196.429,242.054 195.944,229.853 175.278 L 222.500 162.824 222.309 179.626 L 222.117 196.429 219.630 196.429 L 217.143 196.429 217.143 175.714 L 217.143 155.000 220.181 155.000 C 223.130 155.000,223.300 155.130,226.037 159.464 M201.429 240.357 L 201.429 271.429 232.500 271.429 L 263.571 271.429 263.571 240.357 L 263.571 209.286 232.500 209.286 L 201.429 209.286 201.429 240.357 M136.429 240.714 L 136.429 271.429 167.500 271.429 L 198.571 271.429 198.571 240.714 L 198.571 210.000 167.500 210.000 L 136.429 210.000 136.429 240.714 M173.864 221.207 C 181.760 223.743,186.162 231.319,185.561 241.338 C 184.726 255.243,176.151 261.741,159.249 261.277 L 151.786 261.071 151.786 240.714 L 151.786 220.357 156.429 219.914 C 162.648 219.319,169.588 219.834,173.864 221.207 M239.060 220.812 C 253.782 225.319,246.852 244.980,230.536 244.996 L 226.429 245.000 226.429 253.214 L 226.429 261.429 223.918 261.429 L 221.407 261.429 221.596 240.893 L 221.786 220.357 226.071 219.934 C 230.904 219.458,235.694 219.781,239.060 220.812 M157.143 240.325 L 157.143 256.364 159.634 256.831 C 171.083 258.979,179.681 251.580,179.608 239.643 C 179.541 228.668,174.621 224.299,162.321 224.290 L 157.143 224.286 157.143 240.325 M227.295 224.891 C 226.619 225.320,226.430 227.443,226.581 232.916 L 226.786 240.357 230.741 240.567 C 238.346 240.970,243.324 234.828,240.238 228.850 C 238.302 225.099,230.654 222.760,227.295 224.891 " stroke="none" fill="#000000" fill-rule="evenodd"></path></g></svg>