<?xml version="1.0" encoding="UTF-8" standalone="no"?><!DOCTYPE svg PUBLIC "-//W3C//DTD SVG 1.1//EN" "http://www.w3.org/Graphics/SVG/1.1/DTD/svg11.dtd"><svg width="100%" height="100%" viewBox="0 0 992 200" version="1.1" xmlns="http://www.w3.org/2000/svg" xmlns:xlink="http://www.w3.org/1999/xlink" xml:space="preserve" xmlns:serif="http://www.serif.com/" style="fill-rule:evenodd;clip-rule:evenodd;stroke-linejoin:round;stroke-miterlimit:2;"><g><clipPath id="_clip1"><rect x="0" y="2.671" width="197.333" height="197.329"/></clipPath><g clip-path="url(#_clip1)"><path d="M0,101.337c0,9.38 1.346,18.442 3.8,27.046c0.15,0.584 0.288,1.155 0.458,1.734c0.034,0.108 0.084,0.208 0.125,0.321c12.45,40.241 50.005,69.562 94.284,69.562c20.483,0 39.529,-6.271 55.316,-17c0.155,-0.083 0.313,-0.171 0.463,-0.267c0.937,-0.637 1.846,-1.312 2.725,-2.012c18.158,-13.413 31.562,-32.888 37.204,-55.421c0.317,-1.038 0.596,-2.092 0.825,-3.158c0.054,-0.254 0.071,-0.5 0.083,-0.75c1.342,-6.475 2.05,-13.192 2.05,-20.055c0,-13.32 -2.608,-26.241 -7.75,-38.404c-0.987,-2.337 -3.683,-3.425 -6.012,-2.437c-2.338,0.979 -3.429,3.679 -2.442,6.008c4.663,11.029 7.029,22.746 7.029,34.833c0,7.405 -0.92,14.601 -2.629,21.484c-1.35,4.346 -3.737,8.367 -7.025,12.012c0.079,-1.558 0.134,-3.133 0.138,-4.737c0.037,-17.609 -4.834,-36.196 -13.867,-53.679c6.621,-5.684 10.842,-12.709 12.296,-20.563c0.462,-2.492 -1.188,-4.883 -3.679,-5.346c-2.492,-0.466 -4.888,1.188 -5.346,3.68c-0.963,5.195 -3.659,9.958 -7.879,14.016c-1.313,-2.175 -2.675,-4.325 -4.121,-6.441c-8.054,-11.809 -17.629,-22.026 -28.1,-30.175c13.821,0.904 26.604,4.258 36.896,10.008c1.612,0.921 3.758,0.891 5.266,-0.367c1.95,-1.621 2.209,-4.521 0.584,-6.471c-14.784,-20.687 -40.359,-32.087 -72.025,-32.087c-54.404,-0 -98.667,44.262 -98.667,98.666Zm100.971,-85.212c-4.15,-1.592 -8.254,-2.821 -12.296,-3.704c3.242,-0.363 6.529,-0.567 9.867,-0.571c1.558,0.021 3.479,1.896 5.487,5.529c-1.017,-0.433 -2.033,-0.866 -3.058,-1.254Zm9.946,-3.608c3.725,0.416 7.695,1.054 11.779,2.012c-2.558,1.371 -5.208,3.092 -7.904,5.15c-1.196,-2.708 -2.488,-5.1 -3.875,-7.162Zm15.458,9.829c3.15,-2.038 6.05,-3.438 8.475,-4.017c4.604,1.846 9.167,4.2 13.492,7.179c-6.938,-1.729 -14.325,-2.787 -21.967,-3.162Zm-74.454,12.091c1.016,-4.758 3.879,-9.016 8.308,-12.537c10.713,-3.196 23.175,-2.429 36.275,2.371c-5.512,0.958 -11.025,2.229 -16.462,3.866c-10.13,3.042 -19.675,7.192 -28.425,12.242c-0.2,-2.012 -0.109,-4 0.304,-5.942Zm-8.613,-3.337c-0.125,0.471 -0.258,0.937 -0.358,1.421c-0.929,4.329 -0.825,8.762 0.271,13.162c-9.875,6.813 -18.463,14.871 -25.3,23.921c-2.083,2.754 -3.95,5.563 -5.638,8.396c5.084,-18.796 16.146,-35.142 31.025,-46.9Zm19.742,29.246c-3.8,-3.554 -6.683,-7.258 -8.625,-10.979c8.604,-5.175 18.117,-9.392 28.254,-12.438c6.029,-1.812 12.133,-3.158 18.221,-4.091c-8.787,9.849 -17.563,22.358 -25.604,36.483c-4.588,-2.658 -8.713,-5.663 -12.246,-8.975Zm39.217,19.125c-6.642,-1.417 -12.959,-3.454 -18.767,-6.013c8.558,-14.975 17.929,-28 27.167,-37.687c2.887,11.358 5.308,26.629 6.329,45.562c-4.867,-0.196 -9.817,-0.808 -14.729,-1.862Zm18.195,-42.046c10.438,7.767 20,17.783 28.001,29.508c1.516,2.225 2.945,4.484 4.304,6.763c-7.334,4.237 -16.604,6.771 -26.609,7.483c-0.845,-15.837 -2.72,-31.075 -5.696,-43.754Zm-91.845,85.288c-7.796,-7.209 -13.155,-14.834 -15.884,-22.409c2.159,-8.492 6.35,-17.008 12.513,-25.171c5.85,-7.745 13.116,-14.716 21.462,-20.704c2.404,4.35 5.78,8.592 10.067,12.617c4.079,3.821 8.837,7.283 14.108,10.316c-1.454,2.755 -2.879,5.555 -4.262,8.396c-8.142,16.684 -14.792,34.588 -18.692,50.834c-7.241,-4.088 -13.754,-8.746 -19.312,-13.879Zm59.516,28.795c-11.366,-2.437 -22.104,-6.045 -31.829,-10.616c3.188,-14.367 9.138,-31.779 18.567,-51.109c1.362,-2.8 2.762,-5.55 4.192,-8.25c6.591,2.959 13.762,5.304 21.283,6.913c5.712,1.225 11.425,1.891 17.021,2.083c0.1,3.442 0.15,6.992 0.15,10.65c-0,21.608 -1.725,39.55 -4.221,53.563c-8.208,-0.354 -16.663,-1.425 -25.163,-3.234Zm38.563,-50.329c-0,-3.587 -0.054,-7.183 -0.159,-10.771c11.417,-0.758 21.992,-3.725 30.646,-8.704c8.013,15.854 12.317,32.584 12.28,48.371c-0.013,4.575 -0.4,8.925 -1.13,13.029c-4.121,2.529 -8.866,4.717 -14.204,6.517c-9.479,3.183 -20.158,4.925 -31.471,5.221c2.725,-16.317 4.038,-35.254 4.038,-53.663Zm-114.084,24.646c-0.783,-2.983 -1.27,-6.025 -1.474,-9.108c3.062,4.358 6.799,8.62 11.245,12.733c6.717,6.204 14.688,11.754 23.571,16.513c-1.812,10.145 -2.325,19.337 -1.179,26.758c-15.308,-11.588 -26.767,-27.971 -32.163,-46.896Zm47.326,56.179c-0.275,-0.225 -0.563,-0.429 -0.892,-0.591c-5.1,-2.48 -7.158,-13.846 -4.5,-31.225c9.787,4.404 20.462,7.891 31.671,10.287c8.496,1.817 16.962,2.937 25.233,3.371c-4.058,17.642 -9.258,26.9 -12.704,26.9c-0.221,-0 -0.434,0.037 -0.642,0.062c-13.658,-0.087 -26.6,-3.229 -38.166,-8.804Zm60.974,-17.971c12.963,-0.158 25.259,-2.058 36.142,-5.712c2.738,-0.925 5.35,-1.942 7.829,-3.054c-3.025,7.395 -7.479,13.562 -13.27,18.154c-11.438,8.425 -24.938,14.2 -39.592,16.408c3.671,-6.337 6.629,-15.283 8.891,-25.796Z" style="fill:url(#_Radial2);"/></g><path d="M521.1,135.742l6.225,-0l-7.413,25.82l-6.216,0l-4.508,-16.191l-4.567,16.191l-6.217,0l-7.417,-25.82l6.405,-0l4.341,18.841l5.2,-18.841l4.621,-0l5.038,18.841l4.508,-18.841Zm18.562,21.22c2.188,0 5.851,-1.074 5.851,-8.27c-0,-7.213 -3.663,-8.288 -5.851,-8.288c-3.804,0 -5.887,2.946 -5.887,8.288c0,5.341 2.083,8.27 5.887,8.27Zm0,-21.437c5.571,0 11.551,3.463 11.551,13.167c-0,9.641 -5.98,13.079 -11.551,13.079c-5.591,-0 -11.562,-3.438 -11.562,-13.079c0,-9.704 5.971,-13.167 11.562,-13.167Zm20.175,12.288l3.067,-0c3.054,-0 4.959,-1.43 4.959,-3.717c-0,-2.408 -1.671,-3.796 -4.55,-3.796l-3.476,-0l0,7.513Zm11.376,5.925c0.912,1.845 1.704,3.441 3.516,3.441l1.304,0l0,4.25l-0.187,0.046c-0.042,-0 -0.996,0.263 -2.671,0.263c-4.338,-0 -5.671,-2.984 -6.854,-5.621c-0.967,-2.154 -1.788,-4.025 -4.067,-4.025l-2.417,-0l0,9.47l-5.499,0l-0,-25.82l9.145,-0c6.688,-0 9.813,2.612 9.813,8.212c-0,3.458 -2.092,5.604 -4.158,6.517c0.92,0.879 1.508,2.091 2.075,3.267Zm12.916,-17.996l-5.491,-0l-0,25.82l16.666,0l0,-4.57l-11.175,-0l0,-21.25Zm19.229,21.25l3.217,-0c3.954,-0 6.329,-2.975 6.329,-7.984c0,-5.779 -2.504,-8.708 -7.454,-8.708l-2.092,-0l0,16.692Zm2.175,-21.25c8.038,-0 12.834,4.987 12.834,13.346c-0,7.929 -4.292,12.474 -11.746,12.474l-8.763,0l0,-25.82l7.675,-0Zm28.155,21.25l4.316,-0c2.796,-0 4.108,-1.054 4.108,-3.321c0,-2.779 -2.295,-3.354 -4.241,-3.354l-4.183,-0l-0,6.675Zm3.762,-10.692c2.288,0 3.358,-0.975 3.358,-3.037c0,-1.955 -1.366,-2.963 -4.041,-2.963l-3.079,-0l-0,6l3.762,0Zm6.121,1.646c1.983,0.571 4.571,2.404 4.571,6.275c-0,4.662 -3.296,7.341 -9.067,7.341l-10.879,0l-0,-25.82l9.825,-0c5.596,-0 8.429,2.329 8.429,6.941c-0,3.559 -1.621,4.825 -2.879,5.263Zm17.3,-5.158l-2.792,8.133l5.646,-0l-2.854,-8.133Zm2.817,-6.871l9.412,25.645l-5.721,0l-2.204,-6.333l-8.6,0l-2.133,6.333l-5.763,0l9.488,-25.82l5.445,-0l0.076,0.175Zm25.487,15.779l-9.025,-15.954l-5.583,-0l-0,25.82l5.5,0l-0,-15.395l8.996,15.395l5.612,0l0,-25.82l-5.5,-0l-0,15.954Zm31.096,-15.954l-6.529,-0l-8.55,11.62l-0,-11.62l-5.584,-0l0,25.82l5.584,0l-0,-11.883l8.762,11.883l6.608,0l-9.983,-13.02l9.692,-12.8Zm16.471,16.379l5.671,-0l-0,0.296c-0,1.666 -0.584,4.475 -4.55,4.475c-3.726,-0 -5.963,-3.071 -5.963,-8.2c0,-5.275 2.138,-8.288 5.858,-8.288c4.434,0 4.592,4.479 4.592,4.667l0,0.3l5.125,-0.8l-0,-0.225c-0,-1.863 -1.65,-8.821 -9.8,-8.821c-7.275,0 -11.458,4.8 -11.458,13.167c-0,8.2 4.316,13.079 11.541,13.079c7.259,-0 9.838,-5.058 9.838,-9.396l-0,-4.483l-10.854,-0l-0,4.229Zm20.15,-4.308l3.05,-0c3.071,-0 4.958,-1.43 4.958,-3.717c0,-2.408 -1.654,-3.796 -4.55,-3.796l-3.458,-0l-0,7.513Zm11.366,5.925c0.913,1.845 1.705,3.441 3.517,3.441l1.296,0l-0,4.25l-0.171,0.046c-0.05,-0 -1.012,0.263 -2.688,0.263c-4.337,-0 -5.67,-2.984 -6.845,-5.621c-0.967,-2.154 -1.788,-4.025 -4.059,-4.025l-2.416,-0l-0,9.47l-5.509,0l0,-25.82l9.155,-0c6.67,-0 9.795,2.612 9.795,8.212c0,3.458 -2.075,5.604 -4.158,6.517c0.921,0.879 1.508,2.091 2.083,3.267Zm17.254,3.224c2.18,0 5.859,-1.074 5.859,-8.27c-0,-7.213 -3.679,-8.288 -5.859,-8.288c-3.8,0 -5.891,2.946 -5.891,8.288c-0,5.341 2.091,8.27 5.891,8.27Zm0,-21.437c5.575,0 11.534,3.463 11.534,13.167c-0,9.641 -5.959,13.079 -11.534,13.079c-5.599,-0 -11.57,-3.438 -11.57,-13.079c-0,-9.704 5.971,-13.167 11.57,-13.167Zm29.492,15.683c0,3.8 -1.45,5.65 -4.441,5.65c-3.021,0 -4.551,-1.9 -4.551,-5.65l0,-15.466l-5.499,-0l-0,15.116c-0.017,3.692 0.9,6.496 2.733,8.342c1.7,1.708 4.167,2.571 7.317,2.571c4.541,-0 9.941,-1.888 9.941,-10.913l0,-15.116l-5.5,-0l0,15.466Zm15.625,-2.416l3.279,-0c3.192,-0 4.809,-1.409 4.809,-4.154c-0,-2.792 -1.763,-4.338 -4.988,-4.338l-3.1,-0l0,8.492Zm3.508,-13.05c6.517,-0 10.126,3.154 10.126,8.896c-0,5.416 -3.559,8.645 -9.476,8.645l-4.158,0l0,8.279l-5.5,0l0,-25.82l9.008,-0Z" style="fill:#002f54;fill-rule:nonzero;"/><rect x="236.575" y="128.008" width="6.608" height="33.517" style="fill:#00aeef;fill-rule:nonzero;"/><path d="M261.708,156.167c3.309,-0 5.8,-1.046 5.8,-4.738c0,-3.446 -2.541,-4.787 -5.941,-4.787l-5.888,-0l0,9.525l6.029,-0Zm-0.712,-14.167c3.587,-0 4.787,-1.779 4.787,-4.358c0,-2.688 -1.771,-4.271 -5.704,-4.271l-4.4,-0l0,8.629l5.317,-0Zm-11.925,19.525l-0,-33.517l12.683,0c6.854,0 10.825,2.596 10.825,8.855c0,5.945 -3.537,6.958 -5.221,6.958l0,0.091c2.246,0 7.475,1.967 7.475,8.225c0,6.996 -5.504,9.388 -11.687,9.388l-14.075,-0Z" style="fill:#00aeef;fill-rule:nonzero;"/><path d="M289.762,144.008c3.98,0 6.892,-1.825 6.892,-5.271c0,-3.337 -2.341,-5.366 -6.362,-5.366l-4.934,-0l0,10.637l4.404,0Zm17.046,17.425c0,0 -1.241,0.338 -3.446,0.338c-10.154,-0 -7.374,-12.792 -14.466,-12.792l-3.538,0l0,12.546l-6.608,-0l0,-33.517l11.779,0c8.234,0 12.646,3.025 12.646,10.542c0,4.938 -3.213,7.554 -5.8,8.521c3.446,2.821 3.642,9.337 8.046,9.337l1.387,0l0,5.025Z" style="fill:#00aeef;fill-rule:nonzero;"/><path d="M320.921,156.167c5.129,-0 8.712,-3.738 8.712,-10.917c0,-7.421 -3.15,-11.879 -10.191,-11.879l-3.113,-0l0,22.796l4.592,-0Zm-11.196,5.358l-0,-33.517l9.817,0c8.804,0 16.662,4.755 16.662,17.338c0,11.929 -7.092,16.179 -15.233,16.179l-11.246,-0Z" style="fill:#00aeef;fill-rule:nonzero;"/><path d="M355.829,153.875c-3.446,0 -6.175,-2.779 -6.175,-6.229c0,-3.45 2.729,-6.217 6.175,-6.217c3.446,0 6.225,2.767 6.225,6.217c0,3.45 -2.779,6.229 -6.225,6.229Z" style="fill:#00aeef;fill-rule:nonzero;"/><rect x="377.029" y="128.008" width="6.608" height="33.517" style="fill:#00aeef;fill-rule:nonzero;"/><path d="M400.725,156.167c5.129,-0 8.725,-3.738 8.725,-10.917c-0,-7.421 -3.162,-11.879 -10.204,-11.879l-3.113,-0l0,22.796l4.592,-0Zm-11.208,5.358l-0,-33.517l9.821,0c8.812,0 16.658,4.755 16.658,17.338c-0,11.929 -7.079,16.179 -15.221,16.179l-11.258,-0Z" style="fill:#00aeef;fill-rule:nonzero;"/><path d="M427.729,148.125l8.429,0l-4.266,-12.167l-4.163,12.167Zm10.113,5.029l-11.888,0l-2.825,8.371l-6.896,-0l12.313,-33.517l6.746,0l12.308,33.517l-6.842,-0l-2.916,-8.371Z" style="fill:#00aeef;fill-rule:nonzero;"/><path d="M219.067,46.658l49.82,0l0,10.225l-18.3,0l0,51.263l-13.212,-0l0,-51.263l-18.308,0l-0,-10.225Z" style="fill:#002f54;fill-rule:nonzero;"/><path d="M275.887,108.146l0,-61.488l13.205,0l-0,24.267l23.25,-0l-0,-24.267l13.362,0l0,61.488l-13.196,-0l0,-27l-23.416,-0l-0,27l-13.205,-0Z" style="fill:#002f54;fill-rule:nonzero;"/><path d="M336.458,46.658l41.225,0l0,10.225l-28.021,0l0,14.392l26.238,0l0,10.217l-26.238,-0l0,16.433l28.955,0l-0,10.221l-42.159,-0l0,-61.488Z" style="fill:#002f54;fill-rule:nonzero;"/><path d="M443.279,46.658l14.888,0l10.733,46.246l0.167,0l9.887,-46.246l12.608,0l-15.679,61.488l-14.646,-0l-11.066,-46.842l-0.167,0l-11.937,46.842l-14.975,-0l-14.992,-61.488l13.629,0l9.446,46.246l0.175,0l11.929,-46.246Z" style="fill:#002f54;fill-rule:nonzero;"/><path d="M510.079,77.408c0,10.546 2.475,22.475 15.504,22.475c13.029,0 15.5,-11.929 15.5,-22.475c0,-10.566 -2.471,-22.495 -15.5,-22.495c-13.029,-0 -15.504,11.929 -15.504,22.495Zm-14.037,0c-0,-18.137 9.187,-32.029 29.541,-32.029c20.342,0 29.55,13.892 29.55,32.029c0,18.142 -9.208,32.009 -29.55,32.009c-20.354,-0 -29.541,-13.867 -29.541,-32.009Z" style="fill:#002f54;fill-rule:nonzero;"/><path d="M577.05,73.15l11.058,-0c5.796,-0.1 9.196,-2.979 9.196,-8.438c0,-5.441 -3.4,-7.745 -9.196,-7.829l-11.058,0l0,16.267Zm0,34.996l-13.208,-0l-0,-61.488l26.137,0c10.563,0.088 21.379,3.488 21.379,16.013c0,8 -5.191,13.292 -12.775,14.9l0,0.175c10.13,1.1 10.13,7.312 11.246,15.837c0.6,3.921 1.108,11.159 3.571,14.563l-14.558,-0c-1.104,-5.45 -1.709,-10.983 -2.296,-16.525c-0.35,-3.404 -1.204,-8.088 -5.533,-8.254l-13.963,-0l0,24.779Z" style="fill:#002f54;fill-rule:nonzero;"/><path d="M621.442,108.146l-0,-61.488l13.2,0l-0,51.267l26.658,0l0,10.221l-39.858,-0Z" style="fill:#002f54;fill-rule:nonzero;"/><path d="M681.654,97.925l6.821,0c15.675,0.167 17.975,-10.733 17.975,-20.517c0,-9.791 -2.3,-20.695 -17.975,-20.525l-6.821,0l0,41.042Zm-13.192,-51.267l20.955,0c19.15,-0.158 31.079,9.363 31.079,30.75c-0,21.371 -11.929,30.905 -31.079,30.738l-20.955,-0l0,-61.488Z" style="fill:#002f54;fill-rule:nonzero;"/><path d="M777.417,71.363c5.533,-0 8.591,-2.305 8.591,-7.242c0,-4.946 -3.058,-7.238 -8.591,-7.238l-10.313,0l0,14.48l10.313,-0Zm-0,26.562c6.216,0 10.462,-1.108 10.462,-8.179c0,-7.063 -4.246,-8.171 -10.462,-8.171l-10.313,-0l0,16.35l10.313,0Zm-23.505,10.221l0,-61.488l23.08,0c10.979,-0.675 22.225,3.925 22.225,15.925c-0,6.725 -4.688,11.413 -10.817,13.45l0,0.175c7.758,1.625 13.533,6.992 13.533,16.009c0,12.183 -15.329,16.612 -24.771,15.929l-23.25,-0Z" style="fill:#002f54;fill-rule:nonzero;"/><path d="M844.3,84.896l-8.429,-26.225l-0.179,-0l-9.017,26.225l17.625,-0Zm-38.246,23.25l22.234,-61.488l15.662,0l21.371,61.488l-13.271,-0l-4.429,-13.029l-24.359,-0l-4.604,13.029l-12.604,-0Z" style="fill:#002f54;fill-rule:nonzero;"/><path d="M908.875,108.146l-24.267,-51.1l-0.171,0.175l0,50.925l-12.345,-0l-0,-61.488l19.575,0l23.429,48.375l0.171,-0.179l-0,-48.196l12.341,0l0,61.488l-18.733,-0Z" style="fill:#002f54;fill-rule:nonzero;"/><path d="M951.65,73.233l0.171,0l20.433,-26.575l15.417,0l-22.567,27.504l24.525,33.984l-16.437,-0l-21.371,-31.338l-0.171,0l-0,31.338l-13.2,-0l-0,-61.488l13.2,0l-0,26.575Z" style="fill:#002f54;fill-rule:nonzero;"/><path d="M468.517,165.404c-1.021,0 -1.85,-0.829 -1.85,-1.85l-0,-37.333c-0,-1.021 0.829,-1.846 1.85,-1.846c1.021,0 1.85,0.825 1.85,1.846l-0,37.333c-0,1.021 -0.829,1.85 -1.85,1.85Z" style="fill:#002f54;fill-rule:nonzero;"/></g><defs><radialGradient id="_Radial2" cx="0" cy="0" r="1" gradientUnits="userSpaceOnUse" gradientTransform="matrix(163.22,0,0,-163.221,188.564,39.4856)"><stop offset="0" style="stop-color:#fff;stop-opacity:1"/><stop offset="0.5" style="stop-color:#00b3f0;stop-opacity:1"/><stop offset="0.6" style="stop-color:#009ad7;stop-opacity:1"/><stop offset="0.9" style="stop-color:#004973;stop-opacity:1"/><stop offset="1" style="stop-color:#002f54;stop-opacity:1"/></radialGradient></defs></svg>