<?xml version="1.0" encoding="UTF-8"?>
<svg width="246px" height="49px" viewBox="0 0 246 49" version="1.1" xmlns="http://www.w3.org/2000/svg" xmlns:xlink="http://www.w3.org/1999/xlink">
    <!-- Generator: Sketch 55.2 (78181) - https://sketchapp.com -->
    <title>WBG_Horizontal-black</title>
    <desc>Created with Sketch.</desc>
    <defs>
        <polygon id="path-1" points="0.0617855656 0.0345381944 48.7704362 0.0345381944 48.7704362 48.9379647 0.0617855656 48.9379647"></polygon>
        <path d="M0.0617855656,26.251664 L0.0617855656,22.7648156 C0.959484605,10.0803087 11.5268409,0.0345381944 24.385733,0.0345381944 C32.2119046,0.0345381944 38.5315382,2.86334589 42.1851247,7.99676335 C42.5867308,8.48063835 42.5228858,9.20024733 42.0409583,9.60244257 C41.6692152,9.91365278 41.1388891,9.92089022 40.7393424,9.6923937 C38.1958366,8.26661672 35.0375645,7.43431036 31.6208227,7.2089156 C34.2096379,9.23126496 36.5749953,11.7664391 38.5655203,14.696571 C38.9228468,15.2228368 39.2595781,15.75634 39.5839523,16.2950128 C40.6281284,15.2890077 41.2943828,14.1072361 41.5312274,12.8179367 C41.644501,12.1986181 42.2376424,11.7891854 42.8524088,11.9049845 C43.4682049,12.0187158 43.8759896,12.6132204 43.7616863,13.2304712 C43.4023003,15.180446 42.3601838,16.9236368 40.723896,18.3339049 C42.9553847,22.6712033 44.1591735,27.2845585 44.1499056,31.6539084 C44.1499056,32.050934 44.135489,32.4417561 44.1159236,32.8284426 C44.9284038,31.9237618 45.5184559,30.927062 45.8531277,29.8476485 C46.2742993,28.1396111 46.5018762,26.3550636 46.5018762,24.5167521 C46.5018762,21.5183814 45.9180026,18.6099618 44.764672,15.874207 C44.520619,15.2952113 44.7914458,14.6262644 45.368111,14.3822591 C45.9447763,14.1372198 46.6100009,14.4081071 46.8540539,14.9881368 C48.1258068,18.0051181 48.7704362,21.2123408 48.7704362,24.5167521 C48.7704362,26.2206538 48.5943473,27.8863005 48.2637946,29.4940475 C48.2596755,29.5550489 48.2555565,29.6170841 48.2431994,29.6791194 C48.1855328,29.9438032 48.1175687,30.2053851 48.039307,30.4628315 C46.643983,36.0542759 43.3312469,40.8868224 38.8435553,44.2160478 C38.6262761,44.3897465 38.4017885,44.5562078 38.1700927,44.7143977 C38.1340511,44.7392118 38.0949202,44.7598902 38.0557894,44.7816026 C34.6062162,47.1344884 30.5272056,48.6242595 26.1304492,48.9379647 L22.6406539,48.9379647 C12.4650198,48.2120661 3.99532027,41.1889398 1.08433668,31.7386899 C1.07300932,31.7097401 1.06168197,31.6859599 1.05241413,31.6580441 C1.010194,31.515363 0.976211936,31.3726819 0.940170356,31.2289669 C0.484901847,29.6290876 0.184018901,27.9647662 0.0617855656,26.251664 L0.0617855656,26.251664 Z M24.9551899,3.37203499 C25.207481,3.46922356 25.4597721,3.57571741 25.7110334,3.68427911 C25.2136596,2.78270005 24.7399702,2.31743563 24.3538104,2.31226603 C23.5289731,2.31329995 22.7164929,2.36396207 21.9153401,2.45287927 C22.9142068,2.67207051 23.9295495,2.97707719 24.9551899,3.37203499 Z M27.4132257,2.47769338 C27.7551058,2.98845032 28.0743312,3.58192094 28.370902,4.25500347 C29.0361265,3.74321261 29.6910535,3.31620326 30.3233258,2.97604327 C29.3141616,2.73927537 28.3338306,2.58005155 27.4132257,2.47769338 Z M31.2336332,4.91567895 C33.1222119,5.00873184 34.9469457,5.27134776 36.6625249,5.70042495 C35.5926048,4.96117147 34.4650182,4.37804006 33.3271341,3.91897917 C32.7278141,4.06269418 32.0121313,4.41009161 31.2336332,4.91567895 Z M12.8318322,7.91715144 C12.7309158,8.39792468 12.7072313,8.89213889 12.7566598,9.39048878 C14.9191546,8.1373766 17.2793632,7.10759135 19.7816786,6.35386298 C21.1265444,5.94649813 22.4878864,5.63218616 23.8502581,5.39335043 C20.6126944,4.20330743 17.532684,4.01203205 14.8862023,4.80608333 C13.7905382,5.67974653 13.0841233,6.73537981 12.8318322,7.91715144 Z M10.7043492,7.08898077 C7.02707833,10.0056717 4.29203729,14.0627775 3.03676055,18.7267949 C3.45381312,18.0237286 3.91411558,17.325832 4.43002505,16.6424103 C6.11883051,14.396734 8.24116469,12.3981648 10.6816945,10.7077041 C10.4118976,9.61484963 10.3851238,8.51579167 10.6147602,7.44154781 C10.6394744,7.32057906 10.6724267,7.20477991 10.7043492,7.08898077 Z M15.5823196,14.3450379 C16.4555556,15.1670051 17.4750175,15.913496 18.6098124,16.5731376 C20.5962183,13.0671116 22.7648916,9.96328098 24.9366543,7.5201258 C23.4332055,7.75069017 21.9246079,8.08568056 20.4345461,8.53440224 C17.9291414,9.29123237 15.5771708,10.3365264 13.4517474,11.6216902 C13.9316153,12.5439476 14.6442088,13.4641373 15.5823196,14.3450379 Z M25.2744154,19.090735 C26.4895315,19.352317 27.7128857,19.5053373 28.9146149,19.5528977 C28.6633536,14.8557949 28.0640336,11.0664746 27.3504104,8.24800614 C25.0674337,10.6508384 22.7525345,13.8828753 20.6363789,17.599821 C22.0728933,18.2336146 23.6329788,18.7392019 25.2744154,19.090735 Z M29.7713748,8.65743884 C30.506623,11.8036603 30.9700147,15.5857431 31.1800857,19.5146426 C33.6525381,19.3388761 35.942723,18.7092182 37.7561294,17.6587545 C37.419398,17.0931998 37.0661906,16.5328146 36.6913581,15.9796669 C34.71422,13.0712473 32.3509221,10.5857014 29.7713748,8.65743884 Z M7.0734175,29.8207666 C8.44608681,31.0955911 10.0566306,32.2515147 11.8453227,33.2647572 C12.8102073,29.2345334 14.4537033,24.7917751 16.4658532,20.6519557 C16.8077334,19.9457877 17.1599111,19.2520267 17.5182674,18.567571 C16.2156217,17.8159105 15.0396364,16.9567222 14.0315019,16.0086167 C12.9718795,15.0098491 12.1388041,13.9562837 11.5436032,12.8779041 C9.4820248,14.3636485 7.6850946,16.0933982 6.24034212,18.0144233 C4.71629817,20.0398745 3.68138995,22.1532089 3.14694481,24.2603397 C3.82143723,26.1410419 5.14673761,28.0331173 7.0734175,29.8207666 Z M21.7825011,36.9661942 C23.8832104,37.4159498 25.9715625,37.6816675 28.0012183,37.7695507 C28.6170145,34.2914407 29.0443646,29.8404111 29.0443646,24.4774631 C29.0443646,23.5696806 29.0320075,22.6898138 29.0072933,21.8347612 C27.6232966,21.7882348 26.2125262,21.6228074 24.7996963,21.3178007 C22.9409805,20.9197412 21.1697943,20.3366098 19.5407149,19.6025259 C19.1875074,20.2735406 18.8415082,20.9559284 18.5037471,21.6507233 C16.1734015,26.4470825 14.7039348,30.7668042 13.9151391,34.3327975 C16.3185976,35.4659749 18.9733174,36.3613504 21.7825011,36.9661942 Z M31.3118949,24.4774631 C31.3118949,29.0453259 30.9875207,33.7444965 30.314058,37.7933309 C33.1108846,37.7209565 35.750158,37.2887775 38.0918309,36.497828 C39.4119825,36.0522081 40.5838488,35.5083657 41.6033106,34.8818096 C41.7824887,33.8623635 41.8792861,32.7829501 41.8814057,31.6487388 C41.8906135,27.7312123 40.826872,23.5800198 38.8476744,19.6449167 C36.7078343,20.8814861 34.0943048,21.6176378 31.2737938,21.8047775 C31.2995378,22.6960174 31.3118949,23.5882911 31.3118949,24.4774631 Z M3.11811154,30.5931055 C4.45165,35.2891744 7.28245866,39.3555855 11.0668246,42.2298857 C10.782611,40.3895064 10.9092714,38.1086768 11.3572167,35.5900454 C9.16176962,34.4103416 7.19183983,33.0331589 5.5328974,31.4926167 C4.43414409,30.4731707 3.51044988,29.4154696 2.75357671,28.3339882 C2.80300516,29.0990897 2.92451677,29.8528181 3.11811154,30.5931055 Z M14.8130893,44.5344955 C17.6717015,45.9178817 20.8701343,46.6964241 24.2456857,46.7191704 C24.2982034,46.711933 24.3496914,46.7026277 24.4052984,46.7026277 C25.2558797,46.7026277 26.5420492,44.4062893 27.5450349,40.0276341 C25.4999327,39.9211402 23.4074615,39.6419816 21.307782,39.192226 C18.5377292,38.5977214 15.9005153,37.7312957 13.4805807,36.6394752 C12.8246239,40.9519594 13.3333251,43.7714618 14.5937506,44.3876787 C14.6740718,44.4269677 14.746155,44.4786637 14.8130893,44.5344955 Z M29.8836186,40.0741605 C29.3234294,42.683777 28.5923002,44.9025713 27.6850822,46.476199 C31.3067461,45.927187 34.6431666,44.4952065 37.470886,42.4035844 C38.9012218,41.2642035 40.0020347,39.7350345 40.74964,37.8998248 C40.1369332,38.1748478 39.4923038,38.4271245 38.8147221,38.6566549 C36.1249904,39.5644375 33.0872001,40.0348715 29.8836186,40.0741605 Z" id="path-3"></path>
    </defs>
    <g id="Welcome" stroke="none" stroke-width="1" fill="none" fill-rule="evenodd">
        <g id="Homepage" transform="translate(-568.000000, -2177.000000)">
            <g id="logos" transform="translate(0.000000, 2158.000000)">
                <g id="Group-13" transform="translate(457.000000, 13.000000)">
                    <g id="WBG_Horizontal-black" transform="translate(111.000000, 6.000000)">
                        <g id="Group-3">
                            <mask id="mask-2" fill="white">
                                <use xlink:href="#path-1"></use>
                            </mask>
                            <g id="Clip-2"></g>
                            <path d="M0,24.5167521 C0,26.8441082 0.332612295,29.0939201 0.940170356,31.2289669 C0.976211936,31.3726819 1.010194,31.515363 1.05241413,31.6580441 C1.06168197,31.6859599 1.07300932,31.7097401 1.08433668,31.7386899 C4.16022808,41.7242983 13.4424796,49 24.385733,49 C29.4470006,49 34.1540309,47.4429151 38.0557894,44.7816026 C38.0949202,44.7598902 38.1340511,44.7392118 38.1700927,44.7143977 C38.4017885,44.5562078 38.6262761,44.3897465 38.8435553,44.2160478 C43.3312469,40.8868224 46.643983,36.0542759 48.039307,30.4628315 C48.1175687,30.2053851 48.1855328,29.9438032 48.2431994,29.6791194 C48.2555565,29.6170841 48.2596755,29.5550489 48.2637946,29.4940475 C48.5943473,27.8863005 48.7704362,26.2206538 48.7704362,24.5167521 C48.7704362,21.2123408 48.1258068,18.0051181 46.8540539,14.9881368 C46.6100009,14.4081071 45.9447763,14.1372198 45.368111,14.3822591 C44.7914458,14.6262644 44.520619,15.2952113 44.764672,15.874207 C45.9180026,18.6099618 46.5018762,21.5183814 46.5018762,24.5167521 C46.5018762,26.3550636 46.2742993,28.1396111 45.8531277,29.8476485 C45.5184559,30.927062 44.9284038,31.9237618 44.1159236,32.8284426 C44.135489,32.4417561 44.1499056,32.050934 44.1499056,31.6539084 C44.1591735,27.2845585 42.9553847,22.6712033 40.723896,18.3339049 C42.3601838,16.9236368 43.4023003,15.180446 43.7616863,13.2304712 C43.8759896,12.6132204 43.4682049,12.0187158 42.8524088,11.9049845 C42.2376424,11.7891854 41.644501,12.1986181 41.5312274,12.8179367 C41.2943828,14.1072361 40.6281284,15.2890077 39.5839523,16.2950128 C39.2595781,15.75634 38.9228468,15.2228368 38.5655203,14.696571 C36.5749953,11.7664391 34.2096379,9.23126496 31.6208227,7.2089156 C35.0375645,7.43431036 38.1958366,8.26661672 40.7393424,9.6923937 C41.1388891,9.92089022 41.6692152,9.91365278 42.0409583,9.60244257 C42.5228858,9.20024733 42.5867308,8.48063835 42.1851247,7.99676335 C38.5315382,2.86334589 32.2119046,0.0345381944 24.385733,0.0345381944 C10.9401641,0.0345381944 0,11.0178803 0,24.5167521 M24.9551899,3.37203499 C23.9295495,2.97707719 22.9142068,2.67207051 21.9153401,2.45287927 C22.7164929,2.36396207 23.5289731,2.31329995 24.3538104,2.31226603 C24.7399702,2.31743563 25.2136596,2.78270005 25.7110334,3.68427911 C25.4597721,3.57571741 25.207481,3.46922356 24.9551899,3.37203499 M27.4132257,2.47769338 C28.3338306,2.58005155 29.3141616,2.73927537 30.3233258,2.97604327 C29.6910535,3.31620326 29.0361265,3.74321261 28.370902,4.25500347 C28.0743312,3.58192094 27.7551058,2.98845032 27.4132257,2.47769338 M31.2336332,4.91567895 C32.0121313,4.41009161 32.7278141,4.06269418 33.3271341,3.91897917 C34.4650182,4.37804006 35.5926048,4.96117147 36.6625249,5.70042495 C34.9469457,5.27134776 33.1222119,5.00873184 31.2336332,4.91567895 M12.8318322,7.91715144 C13.0841233,6.73537981 13.7905382,5.67974653 14.8862023,4.80608333 C17.532684,4.01203205 20.6126944,4.20330743 23.8502581,5.39335043 C22.4878864,5.63218616 21.1265444,5.94649813 19.7816786,6.35386298 C17.2793632,7.10759135 14.9191546,8.1373766 12.7566598,9.39048878 C12.7072313,8.89213889 12.7309158,8.39792468 12.8318322,7.91715144 M10.7043492,7.08898077 C10.6724267,7.20477991 10.6394744,7.32057906 10.6147602,7.44154781 C10.3851238,8.51579167 10.4118976,9.61484963 10.6816945,10.7077041 C8.24116469,12.3981648 6.11883051,14.396734 4.43002505,16.6424103 C3.91411558,17.325832 3.45381312,18.0237286 3.03676055,18.7267949 C4.29203729,14.0627775 7.02707833,10.0056717 10.7043492,7.08898077 M15.5823196,14.3450379 C14.6442088,13.4641373 13.9316153,12.5439476 13.4517474,11.6216902 C15.5771708,10.3365264 17.9291414,9.29123237 20.4345461,8.53440224 C21.9246079,8.08568056 23.4332055,7.75069017 24.9366543,7.5201258 C22.7648916,9.96328098 20.5962183,13.0671116 18.6098124,16.5731376 C17.4750175,15.913496 16.4555556,15.1670051 15.5823196,14.3450379 M25.2744154,19.090735 C23.6329788,18.7392019 22.0728933,18.2336146 20.6363789,17.599821 C22.7525345,13.8828753 25.0674337,10.6508384 27.3504104,8.24800614 C28.0640336,11.0664746 28.6633536,14.8557949 28.9146149,19.5528977 C27.7128857,19.5053373 26.4895315,19.352317 25.2744154,19.090735 M29.7713748,8.65743884 C32.3509221,10.5857014 34.71422,13.0712473 36.6913581,15.9796669 C37.0661906,16.5328146 37.419398,17.0931998 37.7561294,17.6587545 C35.942723,18.7092182 33.6525381,19.3388761 31.1800857,19.5146426 C30.9700147,15.5857431 30.506623,11.8036603 29.7713748,8.65743884 M7.0734175,29.8207666 C5.14673761,28.0331173 3.82143723,26.1410419 3.14694481,24.2603397 C3.68138995,22.1532089 4.71629817,20.0398745 6.24034212,18.0144233 C7.6850946,16.0933982 9.4820248,14.3636485 11.5436032,12.8779041 C12.1388041,13.9562837 12.9718795,15.0098491 14.0315019,16.0086167 C15.0396364,16.9567222 16.2156217,17.8159105 17.5182674,18.567571 C17.1599111,19.2520267 16.8077334,19.9457877 16.4658532,20.6519557 C14.4537033,24.7917751 12.8102073,29.2345334 11.8453227,33.2647572 C10.0566306,32.2515147 8.44608681,31.0955911 7.0734175,29.8207666 M21.7825011,36.9661942 C18.9733174,36.3613504 16.3185976,35.4659749 13.9151391,34.3327975 C14.7039348,30.7668042 16.1734015,26.4470825 18.5037471,21.6507233 C18.8415082,20.9559284 19.1875074,20.2735406 19.5407149,19.6025259 C21.1697943,20.3366098 22.9409805,20.9197412 24.7996963,21.3178007 C26.2125262,21.6228074 27.6232966,21.7882348 29.0072933,21.8347612 C29.0320075,22.6898138 29.0443646,23.5696806 29.0443646,24.4774631 C29.0443646,29.8404111 28.6170145,34.2914407 28.0012183,37.7695507 C25.9715625,37.6816675 23.8832104,37.4159498 21.7825011,36.9661942 M31.3118949,24.4774631 C31.3118949,23.5882911 31.2995378,22.6960174 31.2737938,21.8047775 C34.0943048,21.6176378 36.7078343,20.8814861 38.8476744,19.6449167 C40.826872,23.5800198 41.8906135,27.7312123 41.8814057,31.6487388 C41.8792861,32.7829501 41.7824887,33.8623635 41.6033106,34.8818096 C40.5838488,35.5083657 39.4119825,36.0522081 38.0918309,36.497828 C35.750158,37.2887775 33.1108846,37.7209565 30.314058,37.7933309 C30.9875207,33.7444965 31.3118949,29.0453259 31.3118949,24.4774631 M3.11811154,30.5931055 C2.92451677,29.8528181 2.80300516,29.0990897 2.75357671,28.3339882 C3.51044988,29.4154696 4.43414409,30.4731707 5.5328974,31.4926167 C7.19183983,33.0331589 9.16176962,34.4103416 11.3572167,35.5900454 C10.9092714,38.1086768 10.782611,40.3895064 11.0668246,42.2298857 C7.28245866,39.3555855 4.45165,35.2891744 3.11811154,30.5931055 M14.8130893,44.5344955 C14.746155,44.4786637 14.6740718,44.4269677 14.5937506,44.3876787 C13.3333251,43.7714618 12.8246239,40.9519594 13.4805807,36.6394752 C15.9005153,37.7312957 18.5377292,38.5977214 21.307782,39.192226 C23.4074615,39.6419816 25.4999327,39.9211402 27.5450349,40.0276341 C26.5420492,44.4062893 25.2558797,46.7026277 24.4052984,46.7026277 C24.3496914,46.7026277 24.2982034,46.711933 24.2456857,46.7191704 C20.8701343,46.6964241 17.6717015,45.9178817 14.8130893,44.5344955 M29.8836186,40.0741605 C33.0872001,40.0348715 36.1249904,39.5644375 38.8147221,38.6566549 C39.4923038,38.4271245 40.1369332,38.1748478 40.74964,37.8998248 C40.0020347,39.7350345 38.9012218,41.2642035 37.470886,42.4035844 C34.6431666,44.4952065 31.3067461,45.927187 27.6850822,46.476199 C28.5923002,44.9025713 29.3234294,42.683777 29.8836186,40.0741605" id="Fill-1" fill="#1A1919" mask="url(#mask-2)"></path>
                        </g>
                        <g id="Group-6">
                            <mask id="mask-4" fill="white">
                                <use xlink:href="#path-3"></use>
                            </mask>
                            <g id="Clip-5"></g>
                            <polygon id="Fill-4" fill="#1A1919" mask="url(#mask-4)" points="0.0617855656 48.9379647 48.7704362 48.9379647 48.7704362 0.0345381944 0.0617855656 0.0345381944"></polygon>
                        </g>
                        <path d="M69.4491588,17.1153573 L72.8467771,17.1153573 L68.7971421,30.8846427 L65.4046177,30.8846427 L62.9422359,22.2507458 L60.4421594,30.8846427 L57.0506538,30.8846427 L53,17.1153573 L56.4974583,17.1153573 L58.8671315,27.1643699 L61.7105356,17.1153573 L64.2360816,17.1153573 L66.9847395,27.1643699 L69.4491588,17.1153573 Z M79.5910749,28.4323057 C80.7860992,28.4323057 82.7890131,27.8594971 82.7890131,24.0188947 C82.7890131,20.1782924 80.7860992,19.6054837 79.5910749,19.6054837 C77.5168468,19.6054837 76.3747988,21.1737463 76.3747988,24.0188947 C76.3747988,26.8650376 77.5168468,28.4323057 79.5910749,28.4323057 L79.5910749,28.4323057 Z M79.5910749,17 C82.6382342,17 85.8942426,18.8437278 85.8942426,24.0188947 C85.8942426,29.1662168 82.6382342,31 79.5910749,31 C76.5357654,31 73.270588,29.1662168 73.270588,24.0188947 C73.270588,18.8437278 76.5357654,17 79.5910749,17 L79.5910749,17 Z M90.6132135,23.5554766 L92.2911377,23.5554766 C93.9588742,23.5554766 94.9949695,22.7947152 94.9949695,21.57153 C94.9949695,20.285694 94.0882587,19.5487995 92.508137,19.5487995 L90.6132135,19.5487995 L90.6132135,23.5554766 Z M96.830804,26.7108964 C97.3269479,27.6964057 97.7568715,28.547663 98.7491594,28.547663 L99.4623026,28.547663 L99.4623026,30.8140361 L99.3583875,30.8408865 C99.3369932,30.8468532 98.8163986,30.9811053 97.9005189,30.9811053 C95.5277894,30.9811053 94.7983457,29.3859923 94.1575355,27.9808211 C93.6308283,26.8282426 93.1754354,25.8327887 91.9355848,25.8327887 L90.6132135,25.8327887 L90.6132135,30.8846427 L87.607824,30.8846427 L87.607824,17.1153573 L92.6069583,17.1153573 C96.2592706,17.1153573 97.9616455,18.5066061 97.9616455,21.4929678 C97.9616455,23.3406734 96.8257101,24.4813184 95.6918123,24.969598 C96.1920314,25.4429606 96.517021,26.0853814 96.830804,26.7108964 L96.830804,26.7108964 Z M103.88481,17.1153573 L100.87942,17.1153573 L100.87942,30.8846427 L109.988297,30.8846427 L109.988297,28.4521949 L103.88481,28.4521949 L103.88481,17.1153573 Z M114.391448,28.4521949 L116.147818,28.4521949 C118.310679,28.4521949 119.603506,26.8590709 119.603506,24.1929251 C119.603506,21.1110953 118.234271,19.5487995 115.535533,19.5487995 L114.391448,19.5487995 L114.391448,28.4521949 Z M115.575265,17.1153573 C119.96619,17.1153573 122.587501,19.7755363 122.587501,24.231709 C122.587501,28.4601506 120.248391,30.8846427 116.168193,30.8846427 L111.386058,30.8846427 L111.386058,17.1153573 L115.575265,17.1153573 Z M130.960822,28.4521949 L133.31012,28.4521949 C134.845415,28.4521949 135.559577,27.8883364 135.559577,26.6810627 C135.559577,25.1993181 134.304445,24.8890467 133.250012,24.8890467 L130.960822,24.8890467 L130.960822,28.4521949 Z M133.013656,22.7459866 C134.265732,22.7459866 134.84949,22.2318511 134.84949,21.1280011 C134.84949,20.0798409 134.104765,19.5487995 132.638746,19.5487995 L130.960822,19.5487995 L130.960822,22.7459866 L133.013656,22.7459866 Z M136.360335,23.6270777 C137.444313,23.9313823 138.861431,24.9009803 138.861431,26.9694559 C138.861431,29.4575934 137.054122,30.8846427 133.903047,30.8846427 L127.955433,30.8846427 L127.955433,17.1153573 L133.329476,17.1153573 C136.383767,17.1153573 137.934344,18.361415 137.934344,20.8187243 C137.934344,22.7201307 137.04699,23.3923853 136.360335,23.6270777 L136.360335,23.6270777 Z M145.811521,20.8704361 L144.288451,25.2132405 L147.371267,25.2132405 L145.811521,20.8704361 Z M147.344779,17.2048586 L152.489598,30.8846427 L149.366031,30.8846427 L148.160819,27.5114363 L143.462223,27.5114363 L142.296744,30.8846427 L139.150763,30.8846427 L144.330221,17.1153573 L147.31116,17.1153573 L147.344779,17.2048586 Z M161.273486,25.6209689 L156.339553,17.1153573 L153.293413,17.1153573 L153.293413,30.8846427 L156.299821,30.8846427 L156.299821,22.6723966 L161.213378,30.8846427 L164.277857,30.8846427 L164.277857,17.1153573 L161.273486,17.1153573 L161.273486,25.6209689 Z M178.264634,17.1153573 L174.692805,17.1153573 L170.024773,23.313823 L170.024773,17.1153573 L166.98067,17.1153573 L166.98067,30.8846427 L170.024773,30.8846427 L170.024773,24.5499361 L174.810983,30.8846427 L178.424582,30.8846427 L172.96496,23.9423214 L178.264634,17.1153573 Z M187.262464,25.8526779 L190.363619,25.8526779 L190.363619,26.0048302 C190.363619,26.8978548 190.039648,28.3935218 187.875767,28.3935218 C185.836178,28.3935218 184.619759,26.7586305 184.619759,24.0188947 C184.619759,21.2155136 185.785239,19.6054837 187.816678,19.6054837 C190.234234,19.6054837 190.32083,21.9931808 190.322868,22.0946157 L190.327961,22.2507458 L193.131633,21.8231283 L193.131633,21.7057821 C193.131633,20.7123171 192.223904,17 187.777965,17 C183.796588,17 181.514529,19.5587441 181.514529,24.0188947 C181.514529,28.389544 183.870959,31 187.816678,31 C191.782774,31 193.190722,28.2990482 193.190722,25.9859355 L193.190722,23.5942605 L187.262464,23.5942605 L187.262464,25.8526779 Z M198.265246,23.5554766 L199.942151,23.5554766 C201.610907,23.5554766 202.647002,22.7947152 202.647002,21.57153 C202.647002,20.285694 201.74131,19.5487995 200.16017,19.5487995 L198.265246,19.5487995 L198.265246,23.5554766 Z M204.482837,26.7108964 C204.97898,27.6964057 205.407885,28.547663 206.400173,28.547663 L207.113316,28.547663 L207.113316,30.8140361 L207.011439,30.8408865 C206.989026,30.8468532 206.467412,30.9811053 205.552551,30.9811053 C203.178803,30.9811053 202.451397,29.3859923 201.808549,27.9808211 C201.282861,26.8282426 200.826449,25.8327887 199.58558,25.8327887 L198.265246,25.8327887 L198.265246,30.8846427 L195.259857,30.8846427 L195.259857,17.1153573 L200.258991,17.1153573 C203.912322,17.1153573 205.612659,18.5066061 205.612659,21.4929678 C205.612659,23.3406734 204.476724,24.4813184 203.342826,24.969598 C203.844064,25.4429606 204.168035,26.0853814 204.482837,26.7108964 L204.482837,26.7108964 Z M213.904478,28.4323057 C215.099502,28.4323057 217.103435,27.8594971 217.103435,24.0188947 C217.103435,20.1782924 215.099502,19.6054837 213.904478,19.6054837 C211.83025,19.6054837 210.688202,21.1737463 210.688202,24.0188947 C210.688202,26.8650376 211.83025,28.4323057 213.904478,28.4323057 L213.904478,28.4323057 Z M213.904478,17 C216.951637,17 220.207646,18.8437278 220.207646,24.0188947 C220.207646,29.1662168 216.951637,31 213.904478,31 C210.849168,31 207.582972,29.1662168 207.582972,24.0188947 C207.582972,18.8437278 210.849168,17 213.904478,17 L213.904478,17 Z M230.020497,25.3693706 C230.020497,27.3911067 229.224833,28.3756215 227.591735,28.3756215 C225.941317,28.3756215 225.104902,27.3632618 225.104902,25.3693706 L225.104902,17.1153573 L222.099513,17.1153573 L222.099513,25.1754511 C222.090344,27.1454752 222.593619,28.6421367 223.596095,29.6246626 C224.527256,30.5365819 225.871022,31 227.591735,31 C230.070417,31 233.024868,29.9896292 233.024868,25.1764455 L233.024868,17.1153573 L230.020497,17.1153573 L230.020497,25.3693706 Z M238.553766,24.0745845 L240.349868,24.0745845 C242.091975,24.0745845 242.974235,23.3297343 242.974235,21.8599233 C242.974235,20.3692286 242.007416,19.5487995 240.251046,19.5487995 L238.553766,19.5487995 L238.553766,24.0745845 Z M240.468046,17.1153573 C244.034781,17.1153573 246,18.800966 246,21.8599233 C246,24.7458446 244.065344,26.4702372 240.823599,26.4702372 L238.553766,26.4702372 L238.553766,30.8846427 L235.548376,30.8846427 L235.548376,17.1153573 L240.468046,17.1153573 L240.468046,17.1153573 Z" id="Fill-7" fill="#1A1919"></path>
                    </g>
                </g>
            </g>
        </g>
    </g>
</svg>