<?xml version="1.0" encoding="UTF-8"?>
<svg width="22px" height="23px" viewBox="0 0 22 23" version="1.1" xmlns="http://www.w3.org/2000/svg" xmlns:xlink="http://www.w3.org/1999/xlink">
    <!-- Generator: Sketch 55.2 (78181) - https://sketchapp.com -->
    <title>Group 7</title>
    <desc>Created with Sketch.</desc>
    <g id="Welcome" stroke="none" stroke-width="1" fill="none" fill-rule="evenodd" stroke-linecap="round" stroke-linejoin="round">
        <g id="Homepage" transform="translate(-1178.000000, -31.000000)" stroke="#FFFFFF" stroke-width="2">
            <g id="nav" transform="translate(112.000000, 30.000000)">
                <g id="Group-6" transform="translate(157.000000, 0.000000)">
                    <g id="Group-5">
                        <g id="nav">
                            <g id="Group-7" transform="translate(910.000000, 2.000000)">
                                <path d="M6.35792514,13 C5.49926757,13.1776565 4.53997963,13.3976121 3.60406212,13.6565922 C0.852123735,14.4179771 0.514489571,16.464438 0.514489571,16.464438 L0.0396571606,18.7338564 C0.0396571606,18.7338564 -0.434625357,21 1.89719495,21 L17,21" id="Stroke-1"></path>
                                <path d="M14,13 C14.7255356,13.1687045 15.5167305,13.3714796 16.2905004,13.6061272 C18.8183846,14.372716 19.1284987,16.4331639 19.1284987,16.4331639 L20,21" id="Stroke-3"></path>
                                <path d="M15.4722014,6.48651517 C15.6645457,3.18094022 14.387709,1.55639216 13.0193245,0.759956972 C11.5615796,-0.0884883055 9.99993953,0.00286833197 9.99993953,0.00286833197 C9.99993953,0.00286833197 4.13042821,-0.340500696 4.5276777,6.48651517 C4.5276777,6.48651517 2.94697366,7.40198652 5.25725541,10.6820219 C5.25725541,10.6820219 6.23021636,14 9.99993953,14 C13.7696627,14 14.7426237,10.6820219 14.7426237,10.6820219 C17.0531914,7.40198652 15.4722014,6.48651517 15.4722014,6.48651517 Z" id="Stroke-5"></path>
                            </g>
                        </g>
                    </g>
                </g>
            </g>
        </g>
    </g>
</svg>