<svg xmlns="http://www.w3.org/2000/svg" xmlns:xlink="http://www.w3.org/1999/xlink" viewBox="0 0 79 40"><defs><style>.bfe3ce9d-6c5b-4646-806c-49d47ea8df85,.f0f004e5-b12f-4b33-9e8d-d3b8f37123b0{fill:none;}.afa38830-57f6-4884-9388-96bc885dbf46{isolation:isolate;}.b81aa878-73dc-4e04-a8f3-ef9a65036d22{fill:#df6b00;}.a37717a7-9ca2-4e67-a7f8-bc97073a4694{fill:#3eacad;}.b55bd3ec-01b4-4fc2-b0cf-cbf967c7cf0d{fill:#231f20;opacity:0.3;}.a88d3d4f-933a-4e85-aeca-87a927760db2{clip-path:url(#a161d67d-906b-4087-8cc0-93d65c30d74f);}.fe0df81c-c883-45a1-9e52-092b7ce0aefa{opacity:0.52;}.bfe3ce9d-6c5b-4646-806c-49d47ea8df85{stroke:#fff;stroke-linecap:round;stroke-linejoin:round;stroke-width:24.85px;stroke-dasharray:27.85 63.13 74.26 63.12;mix-blend-mode:overlay;opacity:0.21;}</style><clipPath id="a161d67d-906b-4087-8cc0-93d65c30d74f"><rect class="f0f004e5-b12f-4b33-9e8d-d3b8f37123b0" x="-747" y="303" width="1168" height="361"/></clipPath></defs><g class="afa38830-57f6-4884-9388-96bc885dbf46"><g id="b7e60119-425a-4d5b-9aa7-b8228b1a7cc4" data-name="Layer 1"><path class="b81aa878-73dc-4e04-a8f3-ef9a65036d22" d="M53.54,9.41a2,2,0,0,0-2,2l0,1.76a2,2,0,1,0,4,0l0-1.76A2,2,0,0,0,53.54,9.41Z"/><path class="b81aa878-73dc-4e04-a8f3-ef9a65036d22" d="M53.5,16.79a2,2,0,0,0-2,2v2.1l0,2V25a2,2,0,0,0,4,0V22.85l0-2V18.8A2,2,0,0,0,53.5,16.79Z"/><path class="b81aa878-73dc-4e04-a8f3-ef9a65036d22" d="M71.43,11.32a2,2,0,0,0-2,2v2.1l0,6.1v2.11a2,2,0,0,0,4,0V21.53l0-6.1v-2.1A2,2,0,0,0,71.43,11.32Z"/><path class="a37717a7-9ca2-4e67-a7f8-bc97073a4694" d="M17.72,14.67a2,2,0,0,0-2,2v4.41a2,2,0,1,0,4,0V16.67A2,2,0,0,0,17.72,14.67Z"/><path class="a37717a7-9ca2-4e67-a7f8-bc97073a4694" d="M17.6,25.73a2,2,0,0,0-2,2v.6a2,2,0,0,0,4,0v-.6A2,2,0,0,0,17.6,25.73Z"/><path class="b55bd3ec-01b4-4fc2-b0cf-cbf967c7cf0d" d="M35.67,22.54a2,2,0,0,0-2,2V29a2,2,0,0,0,4,0V24.54A2,2,0,0,0,35.67,22.54Z"/><path class="b55bd3ec-01b4-4fc2-b0cf-cbf967c7cf0d" d="M35.67,12.56a2,2,0,0,0-2,2V17h0v2.46a2,2,0,1,0,4,0V17h0V14.57A2,2,0,0,0,35.67,12.56Z"/><path class="a37717a7-9ca2-4e67-a7f8-bc97073a4694" d="M26.63,11.17a2,2,0,0,0-2,2v2.09a2,2,0,1,0,4,0V13.18A2,2,0,0,0,26.63,11.17Z"/><path class="a37717a7-9ca2-4e67-a7f8-bc97073a4694" d="M26.63,18.9a2,2,0,0,0-2,2v4.85a2,2,0,0,0,4,0V20.9A2,2,0,0,0,26.63,18.9Z"/><path class="a37717a7-9ca2-4e67-a7f8-bc97073a4694" d="M8.7,14.08a2,2,0,0,0-2,2v6.13a2,2,0,1,0,4,0V16.08A2,2,0,0,0,8.7,14.08Z"/><path class="b55bd3ec-01b4-4fc2-b0cf-cbf967c7cf0d" d="M44.56,6.69a2,2,0,0,0-2,2V23a2,2,0,0,0,4,0V8.69A2,2,0,0,0,44.56,6.69Z"/><path class="b81aa878-73dc-4e04-a8f3-ef9a65036d22" d="M62.51,12.19a2,2,0,0,0-2,2l0,5.89a2,2,0,0,0,4,0l0-5.89A2,2,0,0,0,62.51,12.19Z"/><path class="b81aa878-73dc-4e04-a8f3-ef9a65036d22" d="M62.46,23.7a2,2,0,0,0-2,2v2.11l0,.74v.56a2,2,0,0,0,4,0v-.56l0-.74V25.7A2,2,0,0,0,62.46,23.7Z"/><g class="a88d3d4f-933a-4e85-aeca-87a927760db2"><g class="fe0df81c-c883-45a1-9e52-092b7ce0aefa"><line class="bfe3ce9d-6c5b-4646-806c-49d47ea8df85" x1="42.17" y1="-180.11" x2="42.17" y2="524.73"/></g></g></g></g></svg>