<?xml version="1.0" encoding="utf-8"?>
<!-- Generator: Adobe Illustrator 25.3.1, SVG Export Plug-In . SVG Version: 6.00 Build 0)  -->
<svg version="1.1" id="Layer_1" xmlns="http://www.w3.org/2000/svg" xmlns:xlink="http://www.w3.org/1999/xlink" x="0px" y="0px"
	 viewBox="0 0 288 288" style="enable-background:new 0 0 288 288;" xml:space="preserve">
<style type="text/css">
	.st0{fill:#FFFFFF;}
</style>
<path class="st0" d="M201.3,116.9v5.4c0,1.3,0.9,2.5,2.3,2.7c1.4,0.1,2.6-0.9,2.7-2.3c0-0.1,0-0.2,0-0.2v-5.8c0-1.4-1.1-2.5-2.5-2.5
	c-0.1,0-0.2,0-0.2,0C202.2,114.4,201.2,115.5,201.3,116.9z"/>
<path class="st0" d="M201.3,162.2v11.5c0,1.3,0.9,2.5,2.3,2.7c1.4,0.1,2.6-0.9,2.7-2.3c0-0.1,0-0.2,0-0.2v-11.9
	c0-1.4-1.1-2.5-2.5-2.5c-0.1,0-0.2,0-0.2,0C202.2,159.7,201.2,160.9,201.3,162.2z"/>
<path class="st0" d="M201.3,134v17.3c0,1.3,0.9,2.5,2.3,2.7c1.4,0.1,2.6-0.9,2.7-2.3c0-0.1,0-0.2,0-0.2v-17.7c0-1.4-1.1-2.5-2.5-2.5
	c-0.1,0-0.2,0-0.2,0C202.2,131.5,201.2,132.6,201.3,134z"/>
<path class="st0" d="M225.3,132.9v18c0,1.3,0.9,2.5,2.3,2.7c1.4,0.1,2.6-0.9,2.7-2.3c0-0.1,0-0.2,0-0.2v-18.4c0-1.4-1.1-2.5-2.5-2.5
	c-0.1,0-0.2,0-0.2,0C226.2,130.4,225.2,131.5,225.3,132.9z"/>
<path class="st0" d="M225.3,161.8v18.6c0,1.3,0.9,2.5,2.3,2.7c1.4,0.1,2.6-0.9,2.7-2.3c0-0.1,0-0.1,0-0.2v-18.9
	c0-1.4-1.1-2.5-2.5-2.5c-0.1,0-0.2,0-0.2,0C226.2,159.3,225.2,160.4,225.3,161.8z"/>
<path class="st0" d="M225.3,118.7v3.6c0,1.3,0.9,2.5,2.3,2.7c1.4,0.1,2.6-0.9,2.7-2.3c0-0.1,0-0.2,0-0.2v-4c0-1.4-1.1-2.5-2.5-2.5
	c-0.1,0-0.2,0-0.2,0C226.2,116.2,225.2,117.4,225.3,118.7z"/>
<path class="st0" d="M201.3,184.4v5.4c0,1.3,0.9,2.5,2.3,2.7c1.4,0.1,2.6-0.9,2.7-2.3c0-0.1,0-0.2,0-0.2v-5.8c0-1.4-1.1-2.5-2.5-2.5
	c-0.1,0-0.2,0-0.2,0C202.2,181.9,201.2,183.1,201.3,184.4z"/>
<path class="st0" d="M213.3,125.9v18c0,1.3,0.9,2.5,2.3,2.7c1.4,0.1,2.6-0.9,2.7-2.3c0-0.1,0-0.2,0-0.2v-18.4c0-1.4-1.1-2.5-2.5-2.5
	c-0.1,0-0.2,0-0.2,0C214.2,123.4,213.2,124.5,213.3,125.9z"/>
<path class="st0" d="M213.3,154.4v4.6c0,1.3,0.9,2.5,2.3,2.7c1.4,0.1,2.6-0.9,2.7-2.3c0-0.1,0-0.2,0-0.2v-5c0-1.4-1.1-2.5-2.5-2.5
	c-0.1,0-0.2,0-0.2,0C214.2,151.9,213.2,153.1,213.3,154.4z"/>
<path class="st0" d="M213.3,97.6V115c0,1.3,0.9,2.5,2.3,2.7c1.4,0.1,2.6-0.9,2.7-2.3c0-0.1,0-0.2,0-0.2V97.4c0-1.4-1.1-2.5-2.5-2.5
	c-0.1,0-0.2,0-0.2,0C214.2,95.1,213.2,96.3,213.3,97.6z"/>
<path class="st0" d="M213.3,170.5v12.1c0,1.3,0.9,2.5,2.3,2.7c1.4,0.1,2.6-0.9,2.7-2.3c0-0.1,0-0.2,0-0.2v-12.5
	c0-1.4-1.1-2.5-2.5-2.5c-0.1,0-0.2,0-0.2,0C214.2,168,213.2,169.2,213.3,170.5z"/>
<path class="st0" d="M60.3,132.9v18c0,1.3,0.9,2.5,2.3,2.7c1.4,0.1,2.6-0.9,2.7-2.3c0-0.1,0-0.2,0-0.2v-18.4c0-1.4-1.1-2.5-2.5-2.5
	c-0.1,0-0.2,0-0.2,0C61.2,130.4,60.2,131.5,60.3,132.9z"/>
<path class="st0" d="M60.3,161.8V181c0,1.3,0.9,2.5,2.3,2.7c1.4,0.1,2.6-0.9,2.7-2.3c0-0.1,0-0.2,0-0.2v-19.6c0-1.4-1.1-2.5-2.5-2.5
	c-0.1,0-0.2,0-0.2,0C61.2,159.3,60.2,160.4,60.3,161.8z"/>
<path class="st0" d="M83.3,162.1v11.7c0,1.3,0.9,2.5,2.3,2.7c1.4,0.1,2.6-0.9,2.7-2.3c0-0.1,0-0.2,0-0.2v-12c0-1.4-1.1-2.5-2.5-2.5
	c-0.1,0-0.2,0-0.2,0C84.2,159.6,83.2,160.8,83.3,162.1z"/>
<path class="st0" d="M83.3,116.9v6.6c0,1.3,0.9,2.5,2.3,2.7c1.4,0.1,2.6-0.9,2.7-2.3c0-0.1,0-0.2,0-0.2v-7c0-1.4-1.1-2.5-2.5-2.5
	c-0.1,0-0.2,0-0.2,0C84.2,114.3,83.2,115.5,83.3,116.9z"/>
<path class="st0" d="M60.3,116.9v6.6c0,1.3,0.9,2.5,2.3,2.7c1.4,0.1,2.6-0.9,2.7-2.3c0-0.1,0-0.2,0-0.2v-7c0-1.4-1.1-2.5-2.5-2.5
	c-0.1,0-0.2,0-0.2,0C61.2,114.3,60.2,115.5,60.3,116.9z"/>
<path class="st0" d="M83.3,133.9v17.4c0,1.3,0.9,2.5,2.3,2.7c1.4,0.1,2.6-0.9,2.7-2.3c0-0.1,0-0.2,0-0.2v-17.8
	c0-1.4-1.1-2.5-2.5-2.5c-0.1,0-0.1,0-0.2,0C84.2,131.4,83.2,132.5,83.3,133.9z"/>
<path class="st0" d="M71.3,125.9v18c0,1.3,0.9,2.5,2.3,2.7c1.4,0.1,2.6-0.9,2.7-2.3c0-0.1,0-0.2,0-0.2v-18.4c0-1.4-1.1-2.5-2.5-2.5
	c-0.1,0-0.2,0-0.2,0C72.2,123.4,71.2,124.5,71.3,125.9z"/>
<path class="st0" d="M71.3,154.4v4.6c0,1.3,0.9,2.5,2.3,2.7c1.4,0.1,2.6-0.9,2.7-2.3c0-0.1,0-0.2,0-0.2v-5c0-1.4-1.1-2.5-2.5-2.5
	c-0.1,0-0.2,0-0.2,0C72.2,151.9,71.2,153.1,71.3,154.4z"/>
<path class="st0" d="M71.3,97.6V115c0,1.3,0.9,2.5,2.3,2.7c1.4,0.1,2.6-0.9,2.7-2.3c0-0.1,0-0.2,0-0.2V97.4c0-1.4-1.1-2.5-2.5-2.5
	c-0.1,0-0.2,0-0.2,0C72.2,95.1,71.2,96.3,71.3,97.6z"/>
<path class="st0" d="M71.3,170.5v12.1c0,1.3,0.9,2.5,2.3,2.7c1.4,0.1,2.6-0.9,2.7-2.3c0-0.1,0-0.2,0-0.2v-12.5
	c0-1.4-1.1-2.5-2.5-2.5c-0.1,0-0.2,0-0.2,0C72.2,168,71.2,169.2,71.3,170.5z"/>
<path class="st0" d="M185.9,179.6l-2.8-2.8c-0.2-0.2-0.6-0.3-0.9-0.1c-0.9,0.6-1.3,0.9-1.6,1c-1.8,1.1-4,0.9-5.7-0.3l-17.7-17.3
	c-0.9-0.9-2.2-1-3.2-0.4c-1.2,0.8-1.6,2.4-0.8,3.6c0.1,0.2,0.3,0.4,0.4,0.5l16.1,15.7c0.5,0.5,0.6,2.5,0.1,3.5
	c-1.5,3.4-5.7,4.1-7.7,2.3l-15.1-14.8c-0.9-0.9-2.2-1-3.3-0.4c-1.2,0.8-1.6,2.4-0.8,3.6c0.1,0.2,0.2,0.3,0.4,0.5l12.9,12.6
	c0.9,1.1,1.2,2.7,0.6,4.1c-1.5,3.2-5.8,4.1-7.7,2.2l-12.3-12c-0.9-0.9-2.2-1-3.3-0.4c-1.2,0.8-1.6,2.4-0.8,3.6
	c0.1,0.2,0.3,0.4,0.4,0.5l9.9,9.7c1.6,1.6,1,4.6-0.4,6c-2.2,2.3-6,1.1-7.6-0.2l-0.4-0.3l-36.7-30.7c-0.9-0.8-2.3-0.9-3.3-0.2
	c-1.2,0.8-1.4,2.5-0.6,3.6c0.1,0.2,0.3,0.3,0.4,0.5l36.5,30.7c1.6,1.5,5.1,3.5,8,3.5c1.8,0,3.5-0.5,5-1.5c2.5-1.5,4.2-4,4.8-6.8
	c5.5,1.6,11.3-1.5,12.9-7c0.1-0.3,0.2-0.6,0.2-0.9c5.5,1.6,11.3-1.5,12.9-7c0.1-0.3,0.1-0.5,0.2-0.8c2.8,0.8,5.8,0.4,8.3-1.1
	c0.9-0.5,1.7-1.1,2.6-1.8C186.1,180.3,186.1,179.9,185.9,179.6C185.9,179.6,185.9,179.6,185.9,179.6z"/>
<path class="st0" d="M121.1,112.3c0,0,0-0.1,0-0.1c0,0,0,0-0.1,0c-4.1,0.7-13.1,2.2-14.6,2.5c-2.3,0.4-3.7,0.6-10.5,1.7
	c-1.3,0.2-2.3,1.2-2.4,2.5c-0.1,1.4,1,2.7,2.5,2.7c0,0,0.1,0,0.1,0c0.1,0,0.3,0,0.4,0c7.1-1.1,8.5-1.3,10.8-1.7l7.8-1.3l0,0
	L121.1,112.3z"/>
<path class="st0" d="M189.8,175.6c-0.7,0-1.3-0.2-1.8-0.7c-1.3-1.2-7.7-7-8-7.2l-28.1-26.4c-3.1-2.9-5.4-5.2-9.4-5.2h-0.1
	c-6.5,0-12.9,4-18.3,7.8c-1.6,1.1-6,4.1-11,1.4c-2.4-1.3-4.2-3.5-4.8-6.2c-0.7-2.7-0.2-5.5,1.3-7.8c2.9-4.2,7.2-8.4,11.1-12
	c1.3-1.2,2.6-2.5,3.7-3.6c7.1-7.1,19.8-5.1,28.2-3.8l0.8,0.1c6.2,1,18.7,3.4,29.6,5.6l11.8,2.2c1.4,0.2,2.3,1.5,2.1,2.8
	s-1.5,2.3-2.8,2.1c-0.1,0-0.2,0-0.3-0.1c-3-0.6-8.4-1.6-11.8-2.3c-10.9-2.2-23.3-4.6-29.4-5.6l-0.8-0.1c-7.3-1.2-18.2-3.3-23.6,2.3
	c-1.2,1.2-2.5,2.4-3.8,3.7c-3.8,3.7-7.8,7.5-10.4,11.3c-0.8,1.1-1,2.6-0.6,3.9c0.3,1.3,1.1,2.4,2.3,3c1.3,0.7,2.7,0.8,5.4-1.1
	c6.1-4.2,13.3-8.7,21.3-8.7h0.1c6.1,0,9.6,3.4,13,6.6l0.8,0.7l27.4,25.8c0.2,0.2,4.2,3.8,6.4,5.8l0.7-0.4l2.3-1.4
	c0.9-0.6,2-0.6,2.9,0c1.2,0.7,1.5,2.2,0.8,3.4c-0.2,0.3-0.5,0.6-0.8,0.8c-1.1,0.7-1.8,1.1-2.4,1.5l-2.4,1.4
	C190.7,175.5,190.3,175.6,189.8,175.6z"/>
</svg>
