<?xml version="1.0" encoding="UTF-8" standalone="yes"?>
<!-- Created with sK1/UniConvertor (http://sk1project.org/) -->
<svg xmlns="http://www.w3.org/2000/svg" xmlns:xlink="http://www.w3.org/1999/xlink"
  width="1066.4pt" height="388.8pt" viewBox="0 0 1066.4 388.8"
  fill-rule="evenodd">
<g>
<path style="stroke:none; fill:#ffffff" d="M 0 0L 0 388.8L 1066.4 388.8L 1066.4 0L 0 0z"/>
<path style="stroke:none; fill:#ebf5f3" d="M 86.4 40.8L 86.4 41.6L 96 41.6C 93.0424 40.3588 89.5864 40.8 86.4 40.8z"/>
<path style="stroke:none; fill:#c3dddb" d="M 81.6 41.6L 81.6 42.4L 84.8 42.4C 83.5952 41.8536 82.948 41.7393 81.6 41.6z"/>
<path style="stroke:none; fill:#add2cd" d="M 84.8 41.9395C 53.2946 46.1268 34.151 77.8921 44.5568 108C 49.1852 121.392 59.8538 130.254 69.6 140L 91.2 161.6C 93.1824 163.583 98.2952 167.122 97.4344 170.4C 96.0488 175.677 86.9944 181.806 83.2 185.6C 71.275 197.525 55.9782 209.254 47.5432 224C 23.8664 265.392 68.8618 311.202 111.2 294.038C 126.348 287.896 137.506 272.894 148.8 261.6C 154.925 255.475 161.648 247.848 171.2 248.948C 183.27 250.338 191.186 261.586 199.2 269.6C 215.65 286.05 231.548 301.466 256.8 297.34C 286.904 292.422 305.159 260.888 295.926 232C 291.545 218.295 280.237 209.037 270.4 199.2L 248.8 177.6C 246.818 175.617 241.705 172.078 242.566 168.8C 243.887 163.766 252.387 158.013 256 154.4C 267.422 142.978 282.557 131.563 290.837 117.6C 315.466 76.0658 271.585 25.8385 227.2 45.8506C 210.568 53.3494 197.489 71.3109 184.8 84C 181.826 86.9744 174.158 97.6936 169.6 97.0952C 163.149 96.248 153.341 82.1408 148.8 77.6C 130.402 59.2013 113.579 38.1145 84.8 41.9395z"/>
<path style="stroke:none; fill:#c3dddb" d="M 239.2 41.6L 239.2 42.4L 243.2 42.4C 241.785 41.7769 240.771 41.6701 239.2 41.6z"/>
<path style="stroke:none; fill:#d3e8e6" d="M 102.4 42.4L 102.4 43.2L 104.8 43.2C 103.802 42.6522 103.562 42.601 102.4 42.4M 258.4 42.4L 258.4 43.2L 260.8 43.2C 259.802 42.6522 259.562 42.601 258.4 42.4M 233.334 43.4666C 232.978 43.8221 233.822 43.7778 233.866 43.7333C 234.222 43.3777 233.378 43.4223 233.334 43.4666M 41.6 82.4L 41.6 87.2L 42.4 87.2C 42.3622 85.3976 42.2994 84.0416 41.6 82.4M 297.6 85.6L 297.6 96.8L 298.4 96.8C 298.4 93.1672 299.015 88.9736 297.6 85.6z"/>
<path style="stroke:none; fill:#fbf3d5" d="M 396.8 90.4L 396.8 91.2L 402.4 91.2C 400.534 90.412 398.834 90.4152 396.8 90.4M 460 90.4L 460 91.2L 465.6 91.2C 463.734 90.412 462.034 90.4152 460 90.4M 523.2 90.4L 523.2 91.2L 528.8 91.2C 526.934 90.412 525.234 90.4152 523.2 90.4M 639.2 90.4L 639.2 91.2L 649.6 91.2C 646.433 89.8712 642.61 90.4 639.2 90.4M 756.8 90.4L 756.8 91.2L 806.4 91.2C 801.832 89.284 795.323 90.4 790.4 90.4L 756.8 90.4M 911.2 90.4L 911.2 91.2L 1020 91.2C 1011.41 87.5944 996.544 90.4 987.2 90.4L 911.2 90.4z"/>
<path style="stroke:none; fill:#f8df9d" d="M 393.334 91.4664C 392.978 91.8224 393.822 91.7776 393.866 91.7336C 394.222 91.3776 393.378 91.4224 393.334 91.4664z"/>
<path style="stroke:none; fill:#f5cd5f" d="M 394.4 91.552C 384.809 93.096 376.406 101.392 375.339 111.2C 372.679 135.661 375.2 161.783 375.2 186.4C 375.2 199.311 372.587 215.486 375.809 228C 378.722 239.314 390.053 246.813 401.6 245.368C 411.269 244.158 420.063 238.704 422.665 228.8C 425.21 219.113 424 208.335 424 198.4L 424 145.6C 424 133.734 426.497 118.558 422.721 107.2C 418.778 95.3368 406.206 89.6512 394.4 91.552z"/>
<path style="stroke:none; fill:#f9e7ac" d="M 404.534 91.4664C 404.178 91.8224 405.022 91.7776 405.066 91.7336C 405.422 91.3776 404.578 91.4224 404.534 91.4664z"/>
<path style="stroke:none; fill:#f8df9d" d="M 456 91.2L 456 92L 458.4 92C 457.402 91.452 457.161 91.4008 456 91.2z"/>
<path style="stroke:none; fill:#f5cd5f" d="M 458.4 91.5424C 448.769 92.9376 440.108 100.472 438.641 110.4C 435.207 133.634 438.4 159.695 438.4 183.2C 438.4 197.257 435.782 214.326 439.12 228C 441.87 239.266 453.366 246.724 464.8 245.37C 474.83 244.183 483.715 238.208 486.209 228C 488.438 218.873 487.2 208.541 487.2 199.2L 487.2 145.6C 487.2 133.725 489.686 118.569 485.921 107.2C 482.078 95.596 470.018 89.8592 458.4 91.5424z"/>
<path style="stroke:none; fill:#f9e7ac" d="M 467.2 91.2L 467.2 92L 469.6 92C 468.602 91.452 468.362 91.4008 467.2 91.2z"/>
<path style="stroke:none; fill:#f8df9d" d="M 519.2 91.2L 519.2 92L 521.6 92C 520.602 91.452 520.362 91.4008 519.2 91.2z"/>
<path style="stroke:none; fill:#f5cd5f" d="M 521.6 91.5712C 511.808 93.3048 503.574 100.328 501.952 110.4C 498.029 134.755 501.6 162.512 501.6 187.2C 501.6 200.092 498.957 216.37 502.537 228.8C 505.859 240.341 518.015 247.069 529.6 245.249C 540.254 243.575 548.094 236.331 550.028 225.6C 551.499 217.445 550.4 208.274 550.4 200L 550.4 149.6C 550.4 136.708 553.043 120.43 549.463 108C 546.048 96.1392 533.419 89.4776 521.6 91.5712z"/>
<path style="stroke:none; fill:#f9e7ac" d="M 530.4 91.2L 530.4 92L 532.8 92C 531.802 91.452 531.562 91.4008 530.4 91.2z"/>
<path style="stroke:none; fill:#f9eaba" d="M 632.534 91.4664C 632.178 91.8224 633.022 91.7776 633.066 91.7336C 633.422 91.3776 632.578 91.4224 632.534 91.4664z"/>
<path style="stroke:none; fill:#f7d57d" d="M 633.6 91.2L 633.6 92L 636.8 92C 635.595 91.4536 634.948 91.3392 633.6 91.2z"/>
<path style="stroke:none; fill:#f5cd5f" d="M 636.8 91.5392C 623.745 93.2584 611.925 96.7488 600.8 104.063C 563.901 128.323 555.881 183.676 584.26 217.6C 602.097 238.922 628.806 248.238 656 244.574C 666.483 243.162 676.662 239.526 685.6 233.844C 741.106 198.557 728.64 108.804 663.2 93.3232C 654.76 91.3272 645.43 90.4032 636.8 91.5392z"/>
<path style="stroke:none; fill:#f8db87" d="M 652.534 91.4664C 652.178 91.8216 653.022 91.7784 653.066 91.7336C 653.422 91.3776 652.578 91.4224 652.534 91.4664z"/>
<path style="stroke:none; fill:#f9e7ac" d="M 654.134 91.4664C 653.778 91.8224 654.622 91.7776 654.666 91.7336C 655.022 91.3776 654.178 91.4224 654.134 91.4664z"/>
<path style="stroke:none; fill:#f8dd92" d="M 754.134 91.4664C 753.778 91.8224 754.622 91.7776 754.666 91.7336C 755.022 91.3776 754.178 91.4224 754.134 91.4664z"/>
<path style="stroke:none; fill:#f5cd5f" d="M 755.2 91.572C 747.976 92.8856 741.788 98.248 740.374 105.6C 736.453 126 740 150.408 740 171.2L 740 216C 740 223.721 738.911 231.802 743.831 238.368C 748.965 245.218 756.975 245.6 764.8 245.6C 781.614 245.6 799.397 247.248 816 244.308C 873.088 234.198 899.312 162.742 861.36 118.4C 840.392 93.8984 813.288 91.2 783.2 91.2C 774.172 91.2 764.093 89.9536 755.2 91.572z"/>
<path style="stroke:none; fill:#f8db87" d="M 810.136 91.4664C 809.776 91.8224 810.624 91.7776 810.664 91.7336C 811.024 91.3776 810.176 91.4224 810.136 91.4664z"/>
<path style="stroke:none; fill:#f9eaba" d="M 811.736 91.4664C 811.376 91.8224 812.224 91.7776 812.264 91.7336C 812.624 91.3776 811.776 91.4224 811.736 91.4664z"/>
<path style="stroke:none; fill:#f8df9d" d="M 907.2 91.2L 907.2 92L 909.6 92C 908.6 91.452 908.36 91.4008 907.2 91.2z"/>
<path style="stroke:none; fill:#f5cd5f" d="M 909.6 91.5712C 890.488 94.9552 884.424 123.754 904 131.728C 914.088 135.835 927.712 133.6 938.4 133.6L 996.8 133.6C 1006.18 133.6 1017.43 135.29 1026.4 132.191C 1044.71 125.866 1043.12 97.1488 1024.8 92.128C 1012.23 88.6824 996.192 91.2 983.2 91.2C 959.712 91.2 932.712 87.4792 909.6 91.5712z"/>
<path style="stroke:none; fill:#f9eaba" d="M 1022.94 91.4664C 1022.58 91.8224 1023.42 91.7776 1023.46 91.7336C 1023.82 91.3776 1022.98 91.4224 1022.94 91.4664z"/>
<path style="stroke:none; fill:#fbf3d5" d="M 407.734 92.2664C 407.378 92.6224 408.222 92.5776 408.266 92.5336C 408.622 92.1776 407.778 92.2224 407.734 92.2664M 470.934 92.2664C 470.578 92.6224 471.422 92.5776 471.466 92.5336C 471.822 92.1776 470.978 92.2224 470.934 92.2664z"/>
<path style="stroke:none; fill:#f8dd92" d="M 517.334 92.2664C 516.978 92.6224 517.822 92.5776 517.866 92.5336C 518.222 92.1776 517.378 92.2224 517.334 92.2664z"/>
<path style="stroke:none; fill:#f9e7ac" d="M 628.534 92.2664C 628.178 92.6224 629.022 92.5776 629.066 92.5336C 629.422 92.1776 628.578 92.2224 628.534 92.2664z"/>
<path style="stroke:none; fill:#f9eaba" d="M 658.4 92L 658.4 92.8L 660.8 92.8C 659.802 92.252 659.562 92.2008 658.4 92z"/>
<path style="stroke:none; fill:#f8df9d" d="M 815.2 92L 815.2 92.8L 817.6 92.8C 816.6 92.252 816.36 92.2008 815.2 92z"/>
<path style="stroke:none; fill:#f8dd92" d="M 905.336 92.2664C 904.976 92.6224 905.824 92.5776 905.864 92.5336C 906.224 92.1776 905.376 92.2224 905.336 92.2664z"/>
<path style="stroke:none; fill:#f9e7ac" d="M 536 92.8L 536.8 93.6L 536 92.8z"/>
<path style="stroke:none; fill:#f8df9d" d="M 625.334 93.0664C 624.978 93.4224 625.822 93.3776 625.866 93.3336C 626.222 92.9776 625.378 93.0224 625.334 93.0664z"/>
<path style="stroke:none; fill:#fbedce" d="M 662.934 93.0664C 662.578 93.4224 663.422 93.3776 663.466 93.3336C 663.822 92.9776 662.978 93.0224 662.934 93.0664z"/>
<path style="stroke:none; fill:#f9e7ac" d="M 819.2 92.8L 819.2 93.6L 821.6 93.6C 820.6 93.052 820.36 93.0008 819.2 92.8M 513.6 93.6L 514.4 94.4L 513.6 93.6z"/>
<path style="stroke:none; fill:#f9eaba" d="M 537.6 93.6L 538.4 94.4L 537.6 93.6z"/>
<path style="stroke:none; fill:#f8df9d" d="M 622.134 93.8664C 621.778 94.2224 622.622 94.1776 622.666 94.1336C 623.022 93.7776 622.178 93.8224 622.134 93.8664z"/>
<path style="stroke:none; fill:#d3e8e6" d="M 41.6 94.4L 41.6 98.4L 42.4 98.4C 42.3299 96.8288 42.2231 95.8152 41.6 94.4z"/>
<path style="stroke:none; fill:#f9eaba" d="M 448.8 94.4L 449.6 95.2L 448.8 94.4z"/>
<path style="stroke:none; fill:#f8dd92" d="M 619.734 94.6664C 619.378 95.0216 620.222 94.9776 620.266 94.9336C 620.622 94.5776 619.778 94.6224 619.734 94.6664z"/>
<path style="stroke:none; fill:#f8df9d" d="M 747.2 94.4L 748 95.2L 747.2 94.4z"/>
<path style="stroke:none; fill:#f9eaba" d="M 476.8 95.2L 477.6 96L 476.8 95.2z"/>
<path style="stroke:none; fill:#f9e7ac" d="M 540 95.2L 540.8 96L 540 95.2z"/>
<path style="stroke:none; fill:#f8df9d" d="M 617.334 95.4664C 616.978 95.8224 617.822 95.7776 617.866 95.7336C 618.222 95.3776 617.378 95.4224 617.334 95.4664z"/>
<path style="stroke:none; fill:#f9eaba" d="M 830.136 96.2664C 829.776 96.6224 830.624 96.5776 830.664 96.5336C 831.024 96.1776 830.176 96.2224 830.136 96.2664z"/>
<path style="stroke:none; fill:#f9e7ac" d="M 832 96.8L 832.8 97.6L 832 96.8z"/>
<path style="stroke:none; fill:#fbf3d5" d="M 676.534 97.8664C 676.178 98.2224 677.022 98.1776 677.066 98.1336C 677.422 97.7776 676.578 97.8224 676.534 97.8664M 835.736 98.6664C 835.376 99.0224 836.224 98.9776 836.264 98.9336C 836.624 98.5776 835.776 98.6224 835.736 98.6664z"/>
<path style="stroke:none; fill:#f9e7ac" d="M 1035.2 99.2L 1036 100L 1035.2 99.2z"/>
<path style="stroke:none; fill:#f8df9d" d="M 418.4 100L 419.2 100.8L 418.4 100z"/>
<path style="stroke:none; fill:#d3e8e6" d="M 42.4 100.8L 42.4 103.2L 43.2 103.2C 42.999 102.038 42.9478 101.798 42.4 100.8z"/>
<path style="stroke:none; fill:#f9eaba" d="M 482.4 100.8L 483.2 101.6L 482.4 100.8z"/>
<path style="stroke:none; fill:#f9e7ac" d="M 545.6 100.8L 546.4 101.6L 545.6 100.8z"/>
<path style="stroke:none; fill:#f8df9d" d="M 682.4 100.8L 683.2 101.6L 682.4 100.8z"/>
<path style="stroke:none; fill:#f9e7ac" d="M 840 100.8L 840.8 101.6L 840 100.8z"/>
<path style="stroke:none; fill:#f9eaba" d="M 894.4 100.8L 895.2 101.6L 894.4 100.8z"/>
<path style="stroke:none; fill:#f8df9d" d="M 378.4 101.6L 379.2 102.4L 378.4 101.6z"/>
<path style="stroke:none; fill:#f9e7ac" d="M 441.6 101.6L 442.4 102.4L 441.6 101.6z"/>
<path style="stroke:none; fill:#f9eaba" d="M 504.8 101.6L 505.6 102.4L 504.8 101.6z"/>
<path style="stroke:none; fill:#f8df9d" d="M 604 101.6L 604.8 102.4L 604 101.6z"/>
<path style="stroke:none; fill:#f9eaba" d="M 547.2 103.2L 548 104L 547.2 103.2z"/>
<path style="stroke:none; fill:#f9e7ac" d="M 686.4 103.2L 687.2 104L 686.4 103.2M 844 103.2L 844.8 104L 844 103.2z"/>
<path style="stroke:none; fill:#f8df9d" d="M 740.266 104.534C 740.222 104.578 740.178 105.422 740.534 105.066C 740.578 105.022 740.622 104.178 740.266 104.534z"/>
<path style="stroke:none; fill:#f9eaba" d="M 688.8 104.8L 689.6 105.6L 688.8 104.8M 846.4 104.8L 847.2 105.6L 846.4 104.8M 596.8 106.4L 597.6 107.2L 596.8 106.4z"/>
<path style="stroke:none; fill:#f8dd92" d="M 892.264 106.934C 892.224 106.978 892.176 107.822 892.536 107.466C 892.576 107.422 892.624 106.578 892.264 106.934z"/>
<path style="stroke:none; fill:#f9e7ac" d="M 739.2 107.2L 739.2 228.8L 740 228.8L 740 144C 740 133.607 743.206 116.746 739.2 107.2z"/>
<path style="stroke:none; fill:#f9eaba" d="M 849.6 107.2L 850.4 108L 849.6 107.2z"/>
<path style="stroke:none; fill:#f8dd92" d="M 375.466 108.534C 375.422 108.578 375.378 109.422 375.734 109.066C 375.778 109.022 375.822 108.178 375.466 108.534z"/>
<path style="stroke:none; fill:#f8df9d" d="M 438.666 108.534C 438.622 108.578 438.578 109.422 438.934 109.066C 438.978 109.022 439.022 108.178 438.666 108.534z"/>
<path style="stroke:none; fill:#f9e7ac" d="M 1039.2 108L 1039.2 110.4L 1040 110.4C 1039.8 109.238 1039.74 108.998 1039.2 108z"/>
<path style="stroke:none; fill:#f8db87" d="M 501.866 109.334C 501.822 109.378 501.778 110.222 502.134 109.866C 502.178 109.822 502.222 108.978 501.866 109.334z"/>
<path style="stroke:none; fill:#f9e7ac" d="M 549.866 109.334C 549.822 109.378 549.778 110.222 550.134 109.866C 550.178 109.822 550.222 108.978 549.866 109.334M 423.466 110.134C 423.422 110.178 423.378 111.022 423.734 110.666C 423.778 110.622 423.822 109.778 423.466 110.134z"/>
<path style="stroke:none; fill:#f8df9d" d="M 486.666 110.134C 486.622 110.178 486.578 111.022 486.934 110.666C 486.978 110.622 487.022 109.778 486.666 110.134z"/>
<path style="stroke:none; fill:#fbf3d5" d="M 891.2 109.6L 891.2 115.2L 892 115.2C 891.984 113.166 891.984 111.466 891.2 109.6z"/>
<path style="stroke:none; fill:#f9eaba" d="M 592 110.4L 592.8 111.2L 592 110.4z"/>
<path style="stroke:none; fill:#f8db87" d="M 1039.2 110.4L 1039.2 114.4L 1040 114.4C 1039.93 112.829 1039.82 111.815 1039.2 110.4z"/>
<path style="stroke:none; fill:#f9e7ac" d="M 374.4 111.2L 374.4 113.6L 375.2 113.6C 374.999 112.438 374.948 112.198 374.4 111.2M 437.6 111.2L 437.6 224L 438.4 224L 438.4 144.8C 438.4 135.245 441.286 119.984 437.6 111.2M 500.8 112L 500.8 224L 501.6 224L 501.6 145.6C 501.6 136.045 504.486 120.784 500.8 112z"/>
<path style="stroke:none; fill:#fbf3d5" d="M 550.4 112.8L 550.4 224L 551.2 224L 551.2 146.4C 551.2 136.845 554.086 121.584 550.4 112.8z"/>
<path style="stroke:none; fill:#f8db87" d="M 374.4 113.6L 374.4 223.2L 375.2 223.2L 375.2 146.4C 375.2 137.054 378.006 122.194 374.4 113.6z"/>
<path style="stroke:none; fill:#fbf3d5" d="M 487.2 113.6L 487.2 223.2L 488 223.2L 488 146.4C 488 137.054 490.806 122.194 487.2 113.6z"/>
<path style="stroke:none; fill:#f9e7ac" d="M 1039.46 114.934C 1039.42 114.978 1039.38 115.822 1039.74 115.466C 1039.78 115.422 1039.82 114.578 1039.46 114.934M 586.4 116L 587.2 116.8L 586.4 116z"/>
<path style="stroke:none; fill:#f9eaba" d="M 892.264 117.334C 892.224 117.378 892.176 118.222 892.536 117.866C 892.576 117.822 892.624 116.978 892.264 117.334z"/>
<path style="stroke:none; fill:#f8df9d" d="M 704 119.2L 704.8 120L 704 119.2z"/>
<path style="stroke:none; fill:#f9e7ac" d="M 862.4 120L 863.2 120.8L 862.4 120M 582.4 120.8L 583.2 121.6L 582.4 120.8M 893.6 121.6L 894.4 122.4L 893.6 121.6M 864.8 123.2L 865.6 124L 864.8 123.2z"/>
<path style="stroke:none; fill:#f9eaba" d="M 894.4 123.2L 895.2 124L 894.4 123.2M 580 124L 580.8 124.8L 580 124z"/>
<path style="stroke:none; fill:#f9e7ac" d="M 1035.2 124.8L 1036 125.6L 1035.2 124.8z"/>
<path style="stroke:none; fill:#f8df9d" d="M 866.4 125.6L 867.2 126.4L 866.4 125.6z"/>
<path style="stroke:none; fill:#f9eaba" d="M 578.4 126.4L 579.2 127.2L 578.4 126.4M 868 128L 868.8 128.8L 868 128M 711.2 129.6L 712 130.4L 711.2 129.6z"/>
<path style="stroke:none; fill:#f8dd92" d="M 905.336 132.266C 904.976 132.622 905.824 132.578 905.864 132.534C 906.224 132.178 905.376 132.222 905.336 132.266z"/>
<path style="stroke:none; fill:#f8df9d" d="M 907.2 132.8L 907.2 133.6L 909.6 133.6C 908.6 133.052 908.36 133.001 907.2 132.8z"/>
<path style="stroke:none; fill:#f9eaba" d="M 1022.94 133.066C 1022.58 133.422 1023.42 133.378 1023.46 133.334C 1023.82 132.978 1022.98 133.022 1022.94 133.066z"/>
<path style="stroke:none; fill:#fbf3d5" d="M 911.2 133.6L 911.2 134.4L 1020 134.4C 1011.41 130.794 996.544 133.6 987.2 133.6L 911.2 133.6z"/>
<path style="stroke:none; fill:#f8db87" d="M 573.066 137.334C 573.022 137.378 572.978 138.222 573.334 137.866C 573.378 137.822 573.422 136.978 573.066 137.334z"/>
<path style="stroke:none; fill:#d3e8e6" d="M 164.8 138.4L 164.8 139.2L 173.6 139.2C 170.854 138.048 167.76 138.4 164.8 138.4z"/>
<path style="stroke:none; fill:#f8db87" d="M 640 138.4L 640 139.2L 642.4 139.2C 641.402 138.652 641.161 138.601 640 138.4z"/>
<path style="stroke:none; fill:#f9e7ac" d="M 642.4 138.4L 642.4 139.2L 646.4 139.2C 644.985 138.577 643.971 138.47 642.4 138.4z"/>
<path style="stroke:none; fill:#f8db87" d="M 646.934 138.666C 646.578 139.022 647.422 138.978 647.466 138.934C 647.822 138.578 646.978 138.622 646.934 138.666M 788 138.4L 788 139.2L 808.8 139.2C 803.064 136.794 794.209 138.4 788 138.4z"/>
<path style="stroke:none; fill:#ffffff" d="M 161.6 139.623C 141.891 144.148 133.264 168.665 142.679 185.6C 149.465 197.806 163.377 203.14 176.8 200.388C 195.271 196.602 206.482 175.146 198.912 157.6C 192.765 143.351 176.528 136.197 161.6 139.623z"/>
<path style="stroke:none; fill:#f9eaba" d="M 637.334 139.466C 636.978 139.822 637.822 139.778 637.866 139.734C 638.222 139.378 637.378 139.422 637.334 139.466z"/>
<path style="stroke:none; fill:#ffffff" d="M 638.4 139.554C 601.732 145.718 612.122 203.025 648.8 197.249C 687.257 191.193 676.566 133.139 638.4 139.554z"/>
<path style="stroke:none; fill:#f9e7ac" d="M 649.6 139.2L 649.6 140L 652 140C 651.002 139.452 650.761 139.401 649.6 139.2z"/>
<path style="stroke:none; fill:#ffffff" d="M 786.475 139.886C 779.062 143.174 782.4 162.074 782.4 168.8C 782.4 175.453 780.058 187.631 783.222 193.565C 787.636 201.84 811.432 197.943 818.4 194.786C 835.704 186.946 839.616 162.894 827.624 148.832C 819.744 139.588 797.894 134.822 786.475 139.886z"/>
<path style="stroke:none; fill:#f9e7ac" d="M 810.4 139.2L 810.4 140L 812.8 140C 811.8 139.452 811.56 139.401 810.4 139.2z"/>
<path style="stroke:none; fill:#f8df9d" d="M 653.334 140.266C 652.978 140.622 653.822 140.578 653.866 140.534C 654.222 140.178 653.378 140.222 653.334 140.266M 814.136 140.266C 813.776 140.622 814.624 140.578 814.664 140.534C 815.024 140.178 814.176 140.222 814.136 140.266z"/>
<path style="stroke:none; fill:#f8dd92" d="M 571.466 141.334C 571.422 141.378 571.378 142.222 571.734 141.866C 571.778 141.822 571.822 140.978 571.466 141.334z"/>
<path style="stroke:none; fill:#fbf3d5" d="M 632.534 141.066C 632.178 141.422 633.022 141.378 633.066 141.334C 633.422 140.978 632.578 141.022 632.534 141.066z"/>
<path style="stroke:none; fill:#f8dd92" d="M 717.066 142.134C 717.022 142.178 716.978 143.022 717.334 142.666C 717.378 142.622 717.422 141.778 717.066 142.134z"/>
<path style="stroke:none; fill:#f9e7ac" d="M 783.2 141.6L 784 142.4L 783.2 141.6z"/>
<path style="stroke:none; fill:#f8db87" d="M 570.666 143.734C 570.622 143.778 570.578 144.622 570.934 144.266C 570.978 144.222 571.022 143.378 570.666 143.734z"/>
<path style="stroke:none; fill:#f9e7ac" d="M 820.8 143.2L 821.6 144L 820.8 143.2z"/>
<path style="stroke:none; fill:#f8df9d" d="M 875.464 143.734C 875.424 143.778 875.376 144.622 875.736 144.266C 875.776 144.222 875.824 143.378 875.464 143.734z"/>
<path style="stroke:none; fill:#f8dd92" d="M 717.866 144.534C 717.822 144.578 717.778 145.422 718.134 145.066C 718.178 145.022 718.222 144.178 717.866 144.534z"/>
<path style="stroke:none; fill:#f9e7ac" d="M 625.6 144.8L 626.4 145.6L 625.6 144.8z"/>
<path style="stroke:none; fill:#fbf3d5" d="M 781.6 144.8L 781.6 192L 782.4 192L 782.4 160C 782.4 155.29 783.434 149.17 781.6 144.8z"/>
<path style="stroke:none; fill:#f8dd92" d="M 569.866 146.134C 569.822 146.178 569.778 147.022 570.134 146.666C 570.178 146.622 570.222 145.778 569.866 146.134z"/>
<path style="stroke:none; fill:#f8df9d" d="M 718.666 146.934C 718.622 146.978 718.578 147.822 718.934 147.466C 718.978 147.422 719.022 146.578 718.666 146.934z"/>
<path style="stroke:none; fill:#fbf3d5" d="M 910.4 146.4L 910.4 147.2L 1020.8 147.2C 1012.02 143.514 996.752 146.4 987.2 146.4L 910.4 146.4z"/>
<path style="stroke:none; fill:#f8dd92" d="M 907.736 147.466C 907.376 147.822 908.224 147.778 908.264 147.734C 908.624 147.378 907.776 147.422 907.736 147.466z"/>
<path style="stroke:none; fill:#f5cd5f" d="M 908.8 147.552C 888.568 150.81 886.144 180.504 904.8 188.055C 914.44 191.959 928.144 189.6 938.4 189.6L 996 189.6C 1005.35 189.6 1016.62 191.294 1025.6 188.321C 1044.23 182.15 1043.93 153.371 1024.8 148.128C 1012 144.619 995.632 147.2 982.4 147.2C 958.736 147.2 932.144 143.791 908.8 147.552z"/>
<path style="stroke:none; fill:#f8df9d" d="M 1022.4 147.2L 1022.4 148L 1024.8 148C 1023.8 147.452 1023.56 147.401 1022.4 147.2z"/>
<path style="stroke:none; fill:#f9e7ac" d="M 319.2 148L 319.2 148.8L 323.2 148.8C 321.785 148.177 320.771 148.07 319.2 148z"/>
<path style="stroke:none; fill:#fbf3d5" d="M 323.734 148.266C 323.378 148.622 324.222 148.578 324.266 148.534C 324.622 148.178 323.778 148.222 323.734 148.266M 1026.14 148.266C 1025.78 148.622 1026.62 148.578 1026.66 148.534C 1027.02 148.178 1026.18 148.222 1026.14 148.266z"/>
<path style="stroke:none; fill:#f8db87" d="M 316.534 149.066C 316.178 149.422 317.022 149.378 317.066 149.334C 317.422 148.978 316.578 149.022 316.534 149.066z"/>
<path style="stroke:none; fill:#f5cd5f" d="M 317.6 149.174C 292.508 153.916 301.305 192.329 326.4 187.504C 351.41 182.696 342.808 144.41 317.6 149.174z"/>
<path style="stroke:none; fill:#f8db87" d="M 569.066 149.334C 569.022 149.378 568.978 150.222 569.334 149.866C 569.378 149.822 569.422 148.978 569.066 149.334z"/>
<path style="stroke:none; fill:#f8df9d" d="M 877.064 149.334C 877.024 149.378 876.976 150.222 877.336 149.866C 877.376 149.822 877.424 148.978 877.064 149.334z"/>
<path style="stroke:none; fill:#f9e7ac" d="M 620.8 149.6L 621.6 150.4L 620.8 149.6z"/>
<path style="stroke:none; fill:#f8df9d" d="M 719.2 149.6L 719.2 152L 720 152C 719.799 150.838 719.748 150.598 719.2 149.6z"/>
<path style="stroke:none; fill:#f9e7ac" d="M 828 149.6L 828.8 150.4L 828 149.6z"/>
<path style="stroke:none; fill:#f9eaba" d="M 1030.4 150.4L 1031.2 151.2L 1030.4 150.4M 668 151.2L 668.8 152L 668 151.2M 309.6 152L 310.4 152.8L 309.6 152M 333.6 152L 334.4 152.8L 333.6 152z"/>
<path style="stroke:none; fill:#f8df9d" d="M 568 152L 568 154.4L 568.8 154.4C 568.599 153.238 568.548 152.998 568 152z"/>
<path style="stroke:none; fill:#f9e7ac" d="M 877.6 152L 877.6 154.4L 878.4 154.4C 878.2 153.238 878.144 152.999 877.6 152z"/>
<path style="stroke:none; fill:#f8df9d" d="M 898.4 152L 899.2 152.8L 898.4 152z"/>
<path style="stroke:none; fill:#f9eaba" d="M 720 152.8L 720 155.2L 720.8 155.2C 720.599 154.038 720.548 153.799 720 152.8z"/>
<path style="stroke:none; fill:#f9e7ac" d="M 669.6 153.6L 670.4 154.4L 669.6 153.6z"/>
<path style="stroke:none; fill:#f8df9d" d="M 896.8 153.6L 897.6 154.4L 896.8 153.6z"/>
<path style="stroke:none; fill:#f9e7ac" d="M 831.2 154.4L 832 155.2L 831.2 154.4M 670.4 155.2L 671.2 156L 670.4 155.2z"/>
<path style="stroke:none; fill:#f8df9d" d="M 1035.2 155.2L 1036 156L 1035.2 155.2z"/>
<path style="stroke:none; fill:#f9eaba" d="M 305.6 156L 306.4 156.8L 305.6 156M 337.6 156L 338.4 156.8L 337.6 156z"/>
<path style="stroke:none; fill:#f9e7ac" d="M 567.2 156L 567.2 158.4L 568 158.4C 567.799 157.238 567.748 156.998 567.2 156z"/>
<path style="stroke:none; fill:#fbedce" d="M 878.664 156.534C 878.624 156.578 878.576 157.422 878.936 157.066C 878.976 157.022 879.024 156.178 878.664 156.534z"/>
<path style="stroke:none; fill:#fbf3d5" d="M 721.066 158.134C 721.022 158.178 720.978 159.022 721.334 158.666C 721.378 158.622 721.422 157.778 721.066 158.134z"/>
<path style="stroke:none; fill:#f8db87" d="M 878.4 157.6L 878.4 160.8L 879.2 160.8C 879.064 159.452 878.944 158.805 878.4 157.6M 567.466 158.934C 567.422 158.978 567.378 159.822 567.734 159.466C 567.778 159.422 567.822 158.578 567.466 158.934z"/>
<path style="stroke:none; fill:#f9e7ac" d="M 720.8 159.2L 720.8 161.6L 721.6 161.6C 721.399 160.438 721.348 160.198 720.8 159.2z"/>
<path style="stroke:none; fill:#fbedce" d="M 615.466 161.334C 615.422 161.378 615.378 162.222 615.734 161.866C 615.778 161.822 615.822 160.978 615.466 161.334z"/>
<path style="stroke:none; fill:#fbf3d5" d="M 833.864 161.334C 833.824 161.378 833.776 162.222 834.136 161.866C 834.176 161.822 834.224 160.978 833.864 161.334z"/>
<path style="stroke:none; fill:#d3e8e6" d="M 200.266 162.134C 200.222 162.178 200.178 163.022 200.534 162.666C 200.578 162.622 200.622 161.778 200.266 162.134z"/>
<path style="stroke:none; fill:#f9e7ac" d="M 673.066 162.134C 673.022 162.178 672.978 163.022 673.334 162.666C 673.378 162.622 673.422 161.778 673.066 162.134z"/>
<path style="stroke:none; fill:#f8db87" d="M 720.8 161.6L 720.8 164L 721.6 164C 721.399 162.838 721.348 162.598 720.8 161.6z"/>
<path style="stroke:none; fill:#f8df9d" d="M 302.666 162.934C 302.622 162.978 302.578 163.822 302.934 163.466C 302.978 163.422 303.022 162.578 302.666 162.934M 341.066 162.934C 341.022 162.978 340.978 163.822 341.334 163.466C 341.378 163.422 341.422 162.578 341.066 162.934z"/>
<path style="stroke:none; fill:#fbf3d5" d="M 566.4 162.4L 566.4 165.6L 567.2 165.6C 567.061 164.252 566.946 163.605 566.4 162.4z"/>
<path style="stroke:none; fill:#f8dd92" d="M 892.264 162.934C 892.224 162.978 892.176 163.822 892.536 163.466C 892.576 163.422 892.624 162.578 892.264 162.934z"/>
<path style="stroke:none; fill:#f8db87" d="M 834.664 163.734C 834.624 163.778 834.576 164.622 834.936 164.266C 834.976 164.222 835.024 163.378 834.664 163.734z"/>
<path style="stroke:none; fill:#fbf3d5" d="M 879.2 163.2L 879.2 173.6L 880 173.6C 880 170.189 880.528 166.367 879.2 163.2z"/>
<path style="stroke:none; fill:#f9e7ac" d="M 614.4 164L 614.4 171.2L 615.2 171.2C 615.198 168.699 615.37 166.312 614.4 164M 1039.2 164L 1039.2 166.4L 1040 166.4C 1039.8 165.238 1039.74 164.998 1039.2 164z"/>
<path style="stroke:none; fill:#ebf5f3" d="M 138.4 164.8L 138.4 174.4L 139.2 174.4C 139.2 171.214 139.642 167.758 138.4 164.8z"/>
<path style="stroke:none; fill:#f9e7ac" d="M 834.4 164.8L 834.4 167.2L 835.2 167.2C 835 166.038 834.944 165.798 834.4 164.8z"/>
<path style="stroke:none; fill:#d3e8e6" d="M 200.8 165.6L 200.8 174.4L 201.6 174.4C 201.6 171.44 201.952 168.346 200.8 165.6z"/>
<path style="stroke:none; fill:#fbf3d5" d="M 301.6 165.6L 301.6 171.2L 302.4 171.2C 302.385 169.166 302.388 167.466 301.6 165.6M 341.6 165.6L 341.6 171.2L 342.4 171.2C 342.385 169.166 342.388 167.466 341.6 165.6z"/>
<path style="stroke:none; fill:#f9e7ac" d="M 566.4 165.6L 566.4 171.2L 567.2 171.2C 567.185 169.166 567.188 167.466 566.4 165.6z"/>
<path style="stroke:none; fill:#fbf3d5" d="M 891.2 165.6L 891.2 171.2L 892 171.2C 891.984 169.166 891.984 167.466 891.2 165.6z"/>
<path style="stroke:none; fill:#f8db87" d="M 1039.2 166.4L 1039.2 170.4L 1040 170.4C 1039.93 168.829 1039.82 167.815 1039.2 166.4M 673.6 167.2L 673.6 169.6L 674.4 169.6C 674.199 168.438 674.148 168.198 673.6 167.2z"/>
<path style="stroke:none; fill:#fbf3d5" d="M 834.4 167.2L 834.4 170.4L 835.2 170.4C 835.064 169.052 834.944 168.405 834.4 167.2z"/>
<path style="stroke:none; fill:#f9e7ac" d="M 834.664 170.934C 834.624 170.978 834.576 171.822 834.936 171.466C 834.976 171.422 835.024 170.578 834.664 170.934z"/>
<path style="stroke:none; fill:#f9eaba" d="M 1039.2 170.4L 1039.2 172.8L 1040 172.8C 1039.8 171.638 1039.74 171.398 1039.2 170.4z"/>
<path style="stroke:none; fill:#fbf3d5" d="M 566.4 171.2L 566.4 174.4L 567.2 174.4C 567.061 173.052 566.946 172.405 566.4 171.2z"/>
<path style="stroke:none; fill:#f8db87" d="M 614.666 171.734C 614.622 171.778 614.578 172.622 614.934 172.266C 614.978 172.222 615.022 171.378 614.666 171.734z"/>
<path style="stroke:none; fill:#fbedce" d="M 672.8 172L 672.8 174.4L 673.6 174.4C 673.399 173.238 673.348 172.999 672.8 172z"/>
<path style="stroke:none; fill:#f8db87" d="M 834.664 172.534C 834.624 172.578 834.576 173.422 834.936 173.066C 834.976 173.022 835.024 172.178 834.664 172.534z"/>
<path style="stroke:none; fill:#fbedce" d="M 302.666 173.334C 302.622 173.378 302.578 174.222 302.934 173.866C 302.978 173.822 303.022 172.978 302.666 173.334M 341.066 173.334C 341.022 173.378 340.978 174.222 341.334 173.866C 341.378 173.822 341.422 172.978 341.066 173.334z"/>
<path style="stroke:none; fill:#f8db87" d="M 720.8 172.8L 720.8 175.2L 721.6 175.2C 721.399 174.038 721.348 173.798 720.8 172.8z"/>
<path style="stroke:none; fill:#f9eaba" d="M 892.264 173.334C 892.224 173.378 892.176 174.222 892.536 173.866C 892.576 173.822 892.624 172.978 892.264 173.334z"/>
<path style="stroke:none; fill:#f8df9d" d="M 615.466 174.934C 615.422 174.978 615.378 175.822 615.734 175.466C 615.778 175.422 615.822 174.578 615.466 174.934z"/>
<path style="stroke:none; fill:#fbf3d5" d="M 303.466 175.734C 303.422 175.778 303.378 176.622 303.734 176.266C 303.778 176.222 303.822 175.378 303.466 175.734M 340.266 175.734C 340.222 175.778 340.178 176.622 340.534 176.266C 340.578 176.222 340.622 175.378 340.266 175.734z"/>
<path style="stroke:none; fill:#f9e7ac" d="M 720.8 175.2L 720.8 177.6L 721.6 177.6C 721.399 176.438 721.348 176.198 720.8 175.2z"/>
<path style="stroke:none; fill:#f8dd92" d="M 833.864 175.734C 833.824 175.778 833.776 176.622 834.136 176.266C 834.176 176.222 834.224 175.378 833.864 175.734z"/>
<path style="stroke:none; fill:#d3e8e6" d="M 200 176L 200 178.4L 200.8 178.4C 200.599 177.238 200.548 176.998 200 176z"/>
<path style="stroke:none; fill:#f8db87" d="M 878.664 176.534C 878.624 176.578 878.576 177.422 878.936 177.066C 878.976 177.022 879.024 176.178 878.664 176.534z"/>
<path style="stroke:none; fill:#d3e8e6" d="M 139.466 177.334C 139.422 177.378 139.378 178.222 139.734 177.866C 139.778 177.822 139.822 176.978 139.466 177.334z"/>
<path style="stroke:none; fill:#f8db87" d="M 567.466 177.334C 567.422 177.378 567.378 178.222 567.734 177.866C 567.778 177.822 567.822 176.978 567.466 177.334z"/>
<path style="stroke:none; fill:#f8dd92" d="M 833.064 178.134C 833.024 178.178 832.976 179.022 833.336 178.666C 833.376 178.622 833.424 177.778 833.064 178.134z"/>
<path style="stroke:none; fill:#f9e7ac" d="M 878.664 178.134C 878.624 178.178 878.576 179.022 878.936 178.666C 878.976 178.622 879.024 177.778 878.664 178.134M 893.6 177.6L 894.4 178.4L 893.6 177.6z"/>
<path style="stroke:none; fill:#f9eaba" d="M 567.466 178.934C 567.422 178.978 567.378 179.822 567.734 179.466C 567.778 179.422 567.822 178.578 567.466 178.934z"/>
<path style="stroke:none; fill:#fbf3d5" d="M 878.664 179.734C 878.624 179.778 878.576 180.622 878.936 180.266C 878.976 180.222 879.024 179.378 878.664 179.734z"/>
<path style="stroke:none; fill:#f9eaba" d="M 306.4 180.8L 307.2 181.6L 306.4 180.8M 336.8 180.8L 337.6 181.6L 336.8 180.8z"/>
<path style="stroke:none; fill:#f9e7ac" d="M 720 180.8L 720 183.2L 720.8 183.2C 720.599 182.038 720.548 181.799 720 180.8z"/>
<path style="stroke:none; fill:#f8df9d" d="M 568 182.4L 568 184.8L 568.8 184.8C 568.599 183.638 568.548 183.398 568 182.4z"/>
<path style="stroke:none; fill:#f9e7ac" d="M 877.864 182.934C 877.824 182.978 877.776 183.822 878.136 183.466C 878.176 183.422 878.224 182.578 877.864 182.934z"/>
<path style="stroke:none; fill:#f9eaba" d="M 308.8 183.2L 309.6 184L 308.8 183.2M 334.4 183.2L 335.2 184L 334.4 183.2M 619.2 184L 620 184.8L 619.2 184z"/>
<path style="stroke:none; fill:#f8df9d" d="M 311.2 184.8L 312 185.6L 311.2 184.8M 332 184.8L 332.8 185.6L 332 184.8z"/>
<path style="stroke:none; fill:#f9e7ac" d="M 668 184.8L 668.8 185.6L 668 184.8M 719.466 185.334C 719.422 185.378 719.378 186.222 719.734 185.866C 719.778 185.822 719.822 184.978 719.466 185.334z"/>
<path style="stroke:none; fill:#f9eaba" d="M 1031.2 184.8L 1032 185.6L 1031.2 184.8M 569.066 186.934C 569.022 186.978 568.978 187.822 569.334 187.466C 569.378 187.422 569.422 186.578 569.066 186.934M 828 186.4L 828.8 187.2L 828 186.4M 877.064 186.934C 877.024 186.978 876.976 187.822 877.336 187.466C 877.376 187.422 877.424 186.578 877.064 186.934z"/>
<path style="stroke:none; fill:#f9e7ac" d="M 1028.8 186.4L 1029.6 187.2L 1028.8 186.4M 316.534 187.466C 316.178 187.822 317.022 187.778 317.066 187.734C 317.422 187.378 316.578 187.422 316.534 187.466M 325.6 187.2L 325.6 188L 328 188C 327.002 187.452 326.762 187.401 325.6 187.2z"/>
<path style="stroke:none; fill:#f9eaba" d="M 621.6 187.2L 622.4 188L 621.6 187.2z"/>
<path style="stroke:none; fill:#fbf3d5" d="M 320 188L 320 188.8L 324 188.8C 322.585 188.177 321.571 188.07 320 188z"/>
<path style="stroke:none; fill:#f9e7ac" d="M 718.666 188.534C 718.622 188.578 718.578 189.422 718.934 189.066C 718.978 189.022 719.022 188.178 718.666 188.534M 907.736 189.066C 907.376 189.422 908.224 189.378 908.264 189.334C 908.624 188.978 907.776 189.022 907.736 189.066z"/>
<path style="stroke:none; fill:#f8df9d" d="M 1021.6 188.8L 1021.6 189.6L 1024 189.6C 1023 189.052 1022.76 189.001 1021.6 188.8z"/>
<path style="stroke:none; fill:#fbedce" d="M 569.866 190.134C 569.822 190.178 569.778 191.022 570.134 190.666C 570.178 190.622 570.222 189.778 569.866 190.134z"/>
<path style="stroke:none; fill:#fbf3d5" d="M 876.264 190.134C 876.224 190.178 876.176 191.022 876.536 190.666C 876.576 190.622 876.624 189.778 876.264 190.134M 912.8 189.6L 912.8 190.4L 1018.4 190.4C 1010 186.874 995.536 189.6 986.4 189.6L 912.8 189.6z"/>
<path style="stroke:none; fill:#f8df9d" d="M 624.8 190.4L 625.6 191.2L 624.8 190.4z"/>
<path style="stroke:none; fill:#fbedce" d="M 717.866 191.734C 717.822 191.778 717.778 192.622 718.134 192.266C 718.178 192.222 718.222 191.378 717.866 191.734z"/>
<path style="stroke:none; fill:#f8df9d" d="M 823.2 191.2L 824 192L 823.2 191.2z"/>
<path style="stroke:none; fill:#f9eaba" d="M 570.666 192.534C 570.622 192.578 570.578 193.422 570.934 193.066C 570.978 193.022 571.022 192.178 570.666 192.534z"/>
<path style="stroke:none; fill:#f9e7ac" d="M 660.8 192L 661.6 192.8L 660.8 192z"/>
<path style="stroke:none; fill:#fbedce" d="M 875.464 192.534C 875.424 192.578 875.376 193.422 875.736 193.066C 875.776 193.022 875.824 192.178 875.464 192.534z"/>
<path style="stroke:none; fill:#f8df9d" d="M 628 192.8L 628.8 193.6L 628 192.8z"/>
<path style="stroke:none; fill:#f9eaba" d="M 820.8 192.8L 821.6 193.6L 820.8 192.8z"/>
<path style="stroke:none; fill:#f8df9d" d="M 658.4 193.6L 659.2 194.4L 658.4 193.6z"/>
<path style="stroke:none; fill:#fbedce" d="M 717.066 194.134C 717.022 194.178 716.978 195.022 717.334 194.666C 717.378 194.622 717.422 193.778 717.066 194.134M 571.466 194.934C 571.422 194.978 571.378 195.822 571.734 195.466C 571.778 195.422 571.822 194.578 571.466 194.934z"/>
<path style="stroke:none; fill:#f8db87" d="M 816.536 195.466C 816.176 195.822 817.024 195.778 817.064 195.734C 817.424 195.378 816.576 195.422 816.536 195.466z"/>
<path style="stroke:none; fill:#f9eaba" d="M 634.934 196.266C 634.578 196.622 635.422 196.578 635.466 196.534C 635.822 196.178 634.978 196.222 634.934 196.266z"/>
<path style="stroke:none; fill:#f8df9d" d="M 814.136 196.266C 813.776 196.622 814.624 196.578 814.664 196.534C 815.024 196.178 814.176 196.222 814.136 196.266z"/>
<path style="stroke:none; fill:#f9eaba" d="M 637.6 196.8L 637.6 197.6L 640 197.6C 639.002 197.052 638.762 197.001 637.6 196.8z"/>
<path style="stroke:none; fill:#f9e7ac" d="M 648.8 196.8L 648.8 197.6L 651.2 197.6C 650.201 197.052 649.962 197.001 648.8 196.8z"/>
<path style="stroke:none; fill:#fbedce" d="M 809.6 196.8L 809.6 197.6L 812 197.6C 811 197.052 810.76 197.001 809.6 196.8z"/>
<path style="stroke:none; fill:#f8db87" d="M 641.6 197.6L 641.6 198.4L 646.4 198.4C 644.758 197.701 643.402 197.638 641.6 197.6M 788.8 197.6L 788.8 198.4L 808 198.4C 802.648 196.155 794.586 197.6 788.8 197.6z"/>
<path style="stroke:none; fill:#d3e8e6" d="M 164.8 200.8L 164.8 201.6L 173.6 201.6C 170.854 200.448 167.76 200.8 164.8 200.8z"/>
<path style="stroke:none; fill:#f9e7ac" d="M 713.6 201.6L 714.4 202.4L 713.6 201.6M 909.6 202.4L 909.6 203.2L 1020.8 203.2C 1012.02 199.514 996.752 202.4 987.2 202.4L 909.6 202.4M 712.8 203.2L 713.6 204L 712.8 203.2z"/>
<path style="stroke:none; fill:#f8df9d" d="M 906.936 203.466C 906.576 203.822 907.424 203.778 907.464 203.734C 907.824 203.378 906.976 203.422 906.936 203.466z"/>
<path style="stroke:none; fill:#f5cd5f" d="M 908 203.574C 888.448 207.27 886.36 236.962 904.8 244.004C 914.824 247.832 928.648 245.6 939.2 245.6L 996 245.6C 1005.7 245.6 1017.1 247.18 1026.4 243.914C 1044.58 237.531 1043.22 208.934 1024.8 203.942C 1012.33 200.564 996.096 203.2 983.2 203.2L 933.6 203.2C 925.36 203.2 916.112 202.041 908 203.574z"/>
<path style="stroke:none; fill:#f9e7ac" d="M 1023.74 203.466C 1023.38 203.822 1024.22 203.778 1024.26 203.734C 1024.62 203.378 1023.78 203.422 1023.74 203.466z"/>
<path style="stroke:none; fill:#f9eaba" d="M 712 204.8L 712.8 205.6L 712 204.8z"/>
<path style="stroke:none; fill:#f9e7ac" d="M 1028 204.8L 1028.8 205.6L 1028 204.8M 577.6 208L 578.4 208.8L 577.6 208M 868 208L 868.8 208.8L 868 208M 709.6 208.8L 710.4 209.6L 709.6 208.8z"/>
<path style="stroke:none; fill:#f8df9d" d="M 866.4 210.4L 867.2 211.2L 866.4 210.4M 896 210.4L 896.8 211.2L 896 210.4M 708 211.2L 708.8 212L 708 211.2z"/>
<path style="stroke:none; fill:#f9eaba" d="M 1036 212L 1036.8 212.8L 1036 212z"/>
<path style="stroke:none; fill:#f8df9d" d="M 580.8 212.8L 581.6 213.6L 580.8 212.8M 864.8 212.8L 865.6 213.6L 864.8 212.8z"/>
<path style="stroke:none; fill:#f9e7ac" d="M 706.4 213.6L 707.2 214.4L 706.4 213.6z"/>
<path style="stroke:none; fill:#f8df9d" d="M 1036.8 213.6L 1037.6 214.4L 1036.8 213.6M 862.4 216L 863.2 216.8L 862.4 216M 1038.66 217.334C 1038.62 217.378 1038.58 218.222 1038.94 217.866C 1038.98 217.822 1039.02 216.978 1038.66 217.334M 703.2 217.6L 704 218.4L 703.2 217.6z"/>
<path style="stroke:none; fill:#f8db87" d="M 892.264 218.934C 892.224 218.978 892.176 219.822 892.536 219.466C 892.576 219.422 892.624 218.578 892.264 218.934z"/>
<path style="stroke:none; fill:#f9e7ac" d="M 1039.2 220L 1039.2 222.4L 1040 222.4C 1039.8 221.238 1039.75 220.999 1039.2 220z"/>
<path style="stroke:none; fill:#fbf3d5" d="M 891.2 221.6L 891.2 226.4L 892 226.4C 891.96 224.598 891.896 223.242 891.2 221.6z"/>
<path style="stroke:none; fill:#f8db87" d="M 1039.2 222.4L 1039.2 226.4L 1040 226.4C 1039.93 224.829 1039.82 223.815 1039.2 222.4z"/>
<path style="stroke:none; fill:#f9e7ac" d="M 374.666 223.734C 374.622 223.778 374.578 224.622 374.934 224.266C 374.978 224.222 375.022 223.378 374.666 223.734z"/>
<path style="stroke:none; fill:#f8dd92" d="M 423.2 224L 423.2 226.4L 424 226.4C 423.799 225.238 423.748 224.998 423.2 224z"/>
<path style="stroke:none; fill:#fbf3d5" d="M 437.866 224.534C 437.822 224.578 437.778 225.422 438.134 225.066C 438.178 225.022 438.222 224.178 437.866 224.534z"/>
<path style="stroke:none; fill:#f8df9d" d="M 486.4 224.8L 486.4 227.2L 487.2 227.2C 486.999 226.038 486.948 225.798 486.4 224.8z"/>
<path style="stroke:none; fill:#f9e7ac" d="M 549.6 225.6L 549.6 228L 550.4 228C 550.199 226.838 550.148 226.598 549.6 225.6z"/>
<path style="stroke:none; fill:#f8df9d" d="M 438.666 226.934C 438.622 226.978 438.578 227.822 438.934 227.466C 438.978 227.422 439.022 226.578 438.666 226.934z"/>
<path style="stroke:none; fill:#f9eaba" d="M 501.866 226.934C 501.822 226.978 501.778 227.822 502.134 227.466C 502.178 227.422 502.222 226.578 501.866 226.934M 1039.2 226.4L 1039.2 228.8L 1040 228.8C 1039.8 227.638 1039.75 227.399 1039.2 226.4z"/>
<path style="stroke:none; fill:#fbedce" d="M 375.466 227.734C 375.422 227.778 375.378 228.622 375.734 228.266C 375.778 228.222 375.822 227.378 375.466 227.734z"/>
<path style="stroke:none; fill:#f9eaba" d="M 422.666 228.534C 422.622 228.578 422.578 229.422 422.934 229.066C 422.978 229.022 423.022 228.178 422.666 228.534z"/>
<path style="stroke:none; fill:#fbedce" d="M 549.066 229.334C 549.022 229.378 548.978 230.222 549.334 229.866C 549.378 229.822 549.422 228.978 549.066 229.334z"/>
<path style="stroke:none; fill:#f9e7ac" d="M 596 228.8L 596.8 229.6L 596 228.8M 849.6 228.8L 850.4 229.6L 849.6 228.8z"/>
<path style="stroke:none; fill:#f9eaba" d="M 892.264 229.334C 892.224 229.378 892.176 230.222 892.536 229.866C 892.576 229.822 892.624 228.978 892.264 229.334z"/>
<path style="stroke:none; fill:#fbf3d5" d="M 376.266 230.134C 376.222 230.178 376.178 231.022 376.534 230.666C 376.578 230.622 376.622 229.778 376.266 230.134z"/>
<path style="stroke:none; fill:#f9e7ac" d="M 689.6 230.4L 690.4 231.2L 689.6 230.4M 599.2 231.2L 600 232L 599.2 231.2z"/>
<path style="stroke:none; fill:#fbedce" d="M 740.266 231.734C 740.222 231.778 740.178 232.622 740.534 232.266C 740.578 232.222 740.622 231.378 740.266 231.734z"/>
<path style="stroke:none; fill:#f9e7ac" d="M 846.4 231.2L 847.2 232L 846.4 231.2z"/>
<path style="stroke:none; fill:#f8df9d" d="M 687.2 232L 688 232.8L 687.2 232z"/>
<path style="stroke:none; fill:#f9e7ac" d="M 504 232.8L 504.8 233.6L 504 232.8M 601.6 232.8L 602.4 233.6L 601.6 232.8M 844 232.8L 844.8 233.6L 844 232.8M 420 233.6L 420.8 234.4L 420 233.6z"/>
<path style="stroke:none; fill:#f8df9d" d="M 684.8 233.6L 685.6 234.4L 684.8 233.6z"/>
<path style="stroke:none; fill:#f9e7ac" d="M 740.8 233.6L 741.6 234.4L 740.8 233.6M 378.4 234.4L 379.2 235.2L 378.4 234.4z"/>
<path style="stroke:none; fill:#f9eaba" d="M 441.6 234.4L 442.4 235.2L 441.6 234.4M 604 234.4L 604.8 235.2L 604 234.4M 841.6 234.4L 842.4 235.2L 841.6 234.4z"/>
<path style="stroke:none; fill:#f8df9d" d="M 505.6 235.2L 506.4 236L 505.6 235.2z"/>
<path style="stroke:none; fill:#f9eaba" d="M 545.6 235.2L 546.4 236L 545.6 235.2z"/>
<path style="stroke:none; fill:#f8df9d" d="M 605.6 235.2L 606.4 236L 605.6 235.2z"/>
<path style="stroke:none; fill:#f9e7ac" d="M 741.6 235.2L 742.4 236L 741.6 235.2z"/>
<path style="stroke:none; fill:#ddebe9" d="M 42.6666 236.534C 42.6222 236.578 42.5778 237.422 42.9334 237.066C 42.9778 237.022 43.0222 236.178 42.6666 236.534z"/>
<path style="stroke:none; fill:#f9e7ac" d="M 481.6 236L 482.4 236.8L 481.6 236M 680.8 236L 681.6 236.8L 680.8 236z"/>
<path style="stroke:none; fill:#f8df9d" d="M 895.2 236L 896 236.8L 895.2 236z"/>
<path style="stroke:none; fill:#d3e8e6" d="M 296.8 236.8L 296.8 239.2L 297.6 239.2C 297.399 238.039 297.348 237.798 296.8 236.8z"/>
<path style="stroke:none; fill:#f9e7ac" d="M 679.2 236.8L 680 237.6L 679.2 236.8M 677.6 237.6L 678.4 238.4L 677.6 237.6z"/>
<path style="stroke:none; fill:#f8df9d" d="M 743.2 237.6L 744 238.4L 743.2 237.6z"/>
<path style="stroke:none; fill:#f9e7ac" d="M 676 238.4L 676.8 239.2L 676 238.4z"/>
<path style="stroke:none; fill:#fbf3d5" d="M 834.136 238.666C 833.776 239.022 834.624 238.978 834.664 238.934C 835.024 238.578 834.176 238.622 834.136 238.666z"/>
<path style="stroke:none; fill:#d3e8e6" d="M 41.6 240L 41.6 244.8L 42.4 244.8C 42.3622 242.998 42.2994 241.642 41.6 240z"/>
<path style="stroke:none; fill:#f9e7ac" d="M 477.6 240L 478.4 240.8L 477.6 240z"/>
<path style="stroke:none; fill:#f8dd92" d="M 615.734 240.266C 615.378 240.622 616.222 240.578 616.266 240.534C 616.622 240.178 615.778 240.222 615.734 240.266z"/>
<path style="stroke:none; fill:#f9eaba" d="M 1032 240L 1032.8 240.8L 1032 240z"/>
<path style="stroke:none; fill:#c3dddb" d="M 297.6 240.8L 297.6 247.2L 298.4 247.2C 298.394 244.931 298.478 242.89 297.6 240.8z"/>
<path style="stroke:none; fill:#f8df9d" d="M 384.8 240.8L 385.6 241.6L 384.8 240.8M 448 240.8L 448.8 241.6L 448 240.8z"/>
<path style="stroke:none; fill:#f9e7ac" d="M 511.2 240.8L 512 241.6L 511.2 240.8M 412 241.6L 412.8 242.4L 412 241.6z"/>
<path style="stroke:none; fill:#f8df9d" d="M 475.2 241.6L 476 242.4L 475.2 241.6z"/>
<path style="stroke:none; fill:#f9eaba" d="M 667.734 241.866C 667.378 242.222 668.222 242.178 668.266 242.134C 668.622 241.778 667.778 241.822 667.734 241.866z"/>
<path style="stroke:none; fill:#f9e7ac" d="M 747.2 241.6L 748 242.4L 747.2 241.6z"/>
<path style="stroke:none; fill:#f9eaba" d="M 900.8 241.6L 901.6 242.4L 900.8 241.6z"/>
<path style="stroke:none; fill:#f8dd92" d="M 622.934 242.666C 622.578 243.022 623.422 242.978 623.466 242.934C 623.822 242.578 622.978 242.622 622.934 242.666z"/>
<path style="stroke:none; fill:#fbedce" d="M 665.334 242.666C 664.978 243.022 665.822 242.978 665.866 242.934C 666.222 242.578 665.378 242.622 665.334 242.666z"/>
<path style="stroke:none; fill:#fbf3d5" d="M 472.534 243.466C 472.178 243.822 473.022 243.778 473.066 243.734C 473.422 243.378 472.578 243.422 472.534 243.466z"/>
<path style="stroke:none; fill:#f8dd92" d="M 626.134 243.466C 625.778 243.822 626.622 243.778 626.666 243.734C 627.022 243.378 626.178 243.422 626.134 243.466z"/>
<path style="stroke:none; fill:#f9eaba" d="M 662.134 243.466C 661.778 243.822 662.622 243.778 662.666 243.734C 663.022 243.378 662.178 243.422 662.134 243.466z"/>
<path style="stroke:none; fill:#f9e7ac" d="M 819.2 243.2L 819.2 244L 821.6 244C 820.6 243.452 820.36 243.401 819.2 243.2z"/>
<path style="stroke:none; fill:#f9eaba" d="M 406.934 244.266C 406.578 244.622 407.422 244.578 407.466 244.534C 407.822 244.178 406.978 244.222 406.934 244.266z"/>
<path style="stroke:none; fill:#f9e7ac" d="M 629.334 244.266C 628.978 244.622 629.822 244.578 629.866 244.534C 630.222 244.178 629.378 244.222 629.334 244.266z"/>
<path style="stroke:none; fill:#f8df9d" d="M 656.8 244L 656.8 244.8L 659.2 244.8C 658.202 244.252 657.962 244.201 656.8 244M 815.2 244L 815.2 244.8L 817.6 244.8C 816.6 244.252 816.36 244.201 815.2 244M 393.6 244.8L 393.6 245.6L 396 245.6C 395.002 245.052 394.762 245.001 393.6 244.8z"/>
<path style="stroke:none; fill:#f8dd92" d="M 402.4 244.8L 402.4 245.6L 404.8 245.6C 403.802 245.052 403.562 245.001 402.4 244.8z"/>
<path style="stroke:none; fill:#f8df9d" d="M 456.8 244.8L 456.8 245.6L 459.2 245.6C 458.202 245.052 457.962 245.001 456.8 244.8z"/>
<path style="stroke:none; fill:#f8db87" d="M 466.134 245.066C 465.778 245.422 466.622 245.378 466.666 245.334C 467.022 244.978 466.178 245.022 466.134 245.066z"/>
<path style="stroke:none; fill:#fbedce" d="M 467.734 245.066C 467.378 245.422 468.222 245.378 468.266 245.334C 468.622 244.978 467.778 245.022 467.734 245.066z"/>
<path style="stroke:none; fill:#f8df9d" d="M 520 244.8L 520 245.6L 522.4 245.6C 521.402 245.052 521.162 245.001 520 244.8z"/>
<path style="stroke:none; fill:#f9e7ac" d="M 529.6 244.8L 529.6 245.6L 532 245.6C 531.001 245.052 530.762 245.001 529.6 244.8z"/>
<path style="stroke:none; fill:#fbf3d5" d="M 633.334 245.066C 632.978 245.422 633.822 245.378 633.866 245.334C 634.222 244.978 633.378 245.022 633.334 245.066z"/>
<path style="stroke:none; fill:#f9e7ac" d="M 634.934 245.066C 634.578 245.422 635.422 245.378 635.466 245.334C 635.822 244.978 634.978 245.022 634.934 245.066z"/>
<path style="stroke:none; fill:#f8db87" d="M 636 244.8L 636 245.6L 638.4 245.6C 637.402 245.052 637.162 245.001 636 244.8M 650.934 245.066C 650.578 245.422 651.422 245.378 651.466 245.334C 651.822 244.978 650.978 245.022 650.934 245.066z"/>
<path style="stroke:none; fill:#f9e7ac" d="M 652 244.8L 652 245.6L 654.4 245.6C 653.402 245.052 653.162 245.001 652 244.8z"/>
<path style="stroke:none; fill:#f8df9d" d="M 753.6 244.8L 753.6 245.6L 756 245.6C 755.001 245.052 754.762 245.001 753.6 244.8z"/>
<path style="stroke:none; fill:#f8db87" d="M 809.336 245.066C 808.976 245.422 809.824 245.378 809.864 245.334C 810.224 244.978 809.376 245.022 809.336 245.066z"/>
<path style="stroke:none; fill:#f9e7ac" d="M 810.4 244.8L 810.4 245.6L 812.8 245.6C 811.8 245.052 811.56 245.001 810.4 244.8M 908.536 245.066C 908.176 245.422 909.024 245.378 909.064 245.334C 909.424 244.978 908.576 245.022 908.536 245.066z"/>
<path style="stroke:none; fill:#f8db87" d="M 909.6 244.8L 909.6 245.6L 912 245.6C 911 245.052 910.76 245.001 909.6 244.8M 1020.54 245.066C 1020.18 245.422 1021.02 245.378 1021.06 245.334C 1021.42 244.978 1020.58 245.022 1020.54 245.066z"/>
<path style="stroke:none; fill:#f9eaba" d="M 1022.14 245.066C 1021.78 245.422 1022.62 245.378 1022.66 245.334C 1023.02 244.978 1022.18 245.022 1022.14 245.066z"/>
<path style="stroke:none; fill:#fbf3d5" d="M 757.6 245.6L 757.6 246.4L 805.6 246.4C 801.232 244.566 795.11 245.6 790.4 245.6L 757.6 245.6z"/>
<path style="stroke:none; fill:#ebf5f3" d="M 164.8 248.8L 164.8 249.6L 168 249.6C 166.795 249.054 166.148 248.939 164.8 248.8z"/>
<path style="stroke:none; fill:#c3dddb" d="M 297.6 249.6L 297.6 255.2L 298.4 255.2C 298.385 253.166 298.388 251.466 297.6 249.6z"/>
<path style="stroke:none; fill:#ddebe9" d="M 41.6 254.4L 41.6 256.8L 42.4 256.8C 42.199 255.638 42.1478 255.398 41.6 254.4z"/>
<path style="stroke:none; fill:#d3e8e6" d="M 297.066 258.134C 297.022 258.178 296.978 259.022 297.334 258.666C 297.378 258.622 297.422 257.778 297.066 258.134M 42.4 258.4L 42.4 260.8L 43.2 260.8C 42.999 259.639 42.9478 259.398 42.4 258.4z"/>
<path style="stroke:none; fill:#f8dd92" d="M 167.2 266.4L 167.2 267.2L 172 267.2C 170.358 266.501 169.002 266.438 167.2 266.4z"/>
<path style="stroke:none; fill:#fbedce" d="M 172.534 266.666C 172.178 267.022 173.022 266.978 173.066 266.934C 173.422 266.578 172.578 266.622 172.534 266.666z"/>
<path style="stroke:none; fill:#edcd6f" d="M 165.6 267.886C 159.148 270.498 153.63 278.37 148.8 283.2C 142.653 289.347 132.118 296.623 128.807 304.8C 124.972 314.273 131.797 326.522 136.483 334.4C 143.428 346.074 159.302 372.348 176 365.616C 191.072 359.539 203.397 339.218 209.238 324.8C 211.346 319.595 213.715 312.875 212.488 307.2C 210.926 299.977 203.354 294.554 198.4 289.6C 190.961 282.161 178.138 262.81 165.6 267.886z"/>
<path style="stroke:none; fill:#f9eaba" d="M 164 268L 164.8 268.8L 164 268M 176.8 268.8L 177.6 269.6L 176.8 268.8z"/>
<path style="stroke:none; fill:#d3e8e6" d="M 235.734 296.266C 235.378 296.622 236.222 296.578 236.266 296.534C 236.622 296.178 235.778 296.222 235.734 296.266z"/>
<path style="stroke:none; fill:#ddebe9" d="M 260.534 296.266C 260.178 296.622 261.022 296.578 261.066 296.534C 261.422 296.178 260.578 296.222 260.534 296.266z"/>
<path style="stroke:none; fill:#d3e8e6" d="M 100 296.8L 100 297.6L 102.4 297.6C 101.402 297.052 101.162 297.001 100 296.8z"/>
<path style="stroke:none; fill:#ddebe9" d="M 238.4 296.8L 238.4 297.6L 240.8 297.6C 239.802 297.052 239.562 297.001 238.4 296.8z"/>
<path style="stroke:none; fill:#c3dddb" d="M 84.8 297.6L 84.8 298.4L 96.8 298.4C 93.2232 296.899 88.6536 297.6 84.8 297.6z"/>
<path style="stroke:none; fill:#d3e8e6" d="M 244 297.6L 244 298.4L 250.4 298.4C 248.31 297.522 246.268 297.606 244 297.6z"/>
<path style="stroke:none; fill:#ebf5f3" d="M 250.4 297.6L 250.4 298.4L 253.6 298.4C 252.395 297.854 251.748 297.739 250.4 297.6z"/>
<path style="stroke:none; fill:#f9e7ac" d="M 127.2 307.2L 127.2 313.6L 128 313.6C 127.994 311.331 128.078 309.29 127.2 307.2z"/>
<path style="stroke:none; fill:#fbf3d5" d="M 212.8 308.8L 212.8 312.8L 213.6 312.8C 213.53 311.229 213.423 310.215 212.8 308.8z"/>
<path style="stroke:none; fill:#f8df9d" d="M 212.266 314.134C 212.222 314.178 212.178 315.022 212.534 314.666C 212.578 314.622 212.622 313.778 212.266 314.134z"/>
<path style="stroke:none; fill:#f9eaba" d="M 128.266 315.734C 128.222 315.778 128.178 316.622 128.534 316.266C 128.578 316.222 128.622 315.378 128.266 315.734z"/>
<path style="stroke:none; fill:#fbedce" d="M 211.466 318.134C 211.422 318.178 211.378 319.022 211.734 318.666C 211.778 318.622 211.822 317.778 211.466 318.134z"/>
<path style="stroke:none; fill:#f9eaba" d="M 200.8 339.2L 201.6 340L 200.8 339.2M 199.2 341.6L 200 342.4L 199.2 341.6M 147.2 349.6L 148 350.4L 147.2 349.6M 191.2 352L 192 352.8L 191.2 352M 183.2 360L 184 360.8L 183.2 360z"/>
<path style="stroke:none; fill:#f8dd92" d="M 167.2 366.4L 167.2 367.2L 169.6 367.2C 168.602 366.652 168.362 366.601 167.2 366.4z"/>
<path style="stroke:none; fill:#f8df9d" d="M 171.2 366.4L 171.2 367.2L 173.6 367.2C 172.602 366.652 172.362 366.601 171.2 366.4z"/>
</g>
</svg>
