<?xml version="1.0" encoding="UTF-8" standalone="yes"?>
<!-- Created with sK1/UniConvertor (http://sk1project.org/) -->
<svg xmlns="http://www.w3.org/2000/svg" xmlns:xlink="http://www.w3.org/1999/xlink"
  width="425.6pt" height="105.6pt" viewBox="0 0 425.6 105.6"
  fill-rule="evenodd">
<g>
<path style="stroke:none; fill:#ffffff" d="M 0 0L 0 27.2L 0.8 27.2C 4.8084 22.3619 11.3982 19.6465 16.8 16.5753C 26.0165 11.3354 35.0597 4.99715 44.8 0.799995C 40.6268 -0.951134 34.8953 0 30.4 0L 0 0z"/>
<path style="stroke:none; fill:#9e9eaa" d="M 44.8 0L 44.8 0.799995L 47.2 0.799995C 46.2013 0.252144 45.9613 0.200974 44.8 0z"/>
<path style="stroke:none; fill:#ffffff" d="M 47.2 0L 47.2 0.799995C 59.6286 4.45589 71.9733 14.329 83.2 20.8C 86.3864 22.6365 92.98 25.7269 92.0232 30.3882C 91.304 33.8922 86.764 35.9633 84 37.5914C 75.6413 42.5149 67.1866 47.8976 58.4 52L 58.4 53.6C 67.2338 57.4066 75.7041 63.1221 84 68.0086C 86.764 69.6367 91.304 71.7078 92.0232 75.2118C 92.98 79.8731 86.3864 82.9632 83.2 84.8C 71.9733 91.2712 59.6286 101.144 47.2 104.8L 47.2 105.6L 425.6 105.6L 425.6 96L 424.8 96C 421.207 100.415 415.669 100.27 413.394 94.3968C 411.552 89.6432 412.8 82.6464 412.8 77.6C 405.762 79.627 400.45 82.548 392.8 81.472C 388.145 80.8176 383.609 78.726 380.001 75.737C 376.109 72.513 373.19 68.545 371.028 64C 357.366 35.2916 398.486 9.38768 418.665 34.4118C 421.938 38.47 424.038 42.8439 424.8 48L 425.6 48L 425.6 0L 47.2 0z"/>
<path style="stroke:none; fill:#838492" d="M 43.2 0.799995L 44 1.6L 43.2 0.799995z"/>
<path style="stroke:none; fill:#373953" d="M 57.6 53.6L 57.6 52C 66.8529 49.072 75.6062 42.3127 84 37.4802C 87.0928 35.6996 91.6088 33.7337 91.7944 29.6C 92.028 24.4044 85.2936 21.988 81.6 19.8796L 56 5.13704C 51.6004 2.62036 47.542 -0.336937 42.4 1.93085C 31.9506 6.53941 21.8007 13.4916 12 19.3598C 8.6336 21.3755 2.84456 23.3862 1.28272 27.2747C -0.0721498 30.6479 0.8 35.6192 0.8 39.2L 0.8 66.4C 0.8 70.2374 -0.387906 76.5094 2.08271 79.737C 7.01253 86.1776 19.3957 90.5224 26.4 94.52C 31.8586 97.636 40.6634 105.311 47.2 104.586C 51.3911 104.121 55.615 100.663 59.2 98.6248L 83.2 84.8C 86.7496 82.76 92.7088 80.3504 91.7104 75.2111C 90.948 71.2852 86.2784 69.4483 83.2 67.6605C 75.0842 62.9471 66.5657 56.4371 57.6 53.6z"/>
<path style="stroke:none; fill:#9e9eaa" d="M 48.8 0.799995L 49.6 1.6L 48.8 0.799995M 41.6 1.6L 42.4 2.4L 41.6 1.6z"/>
<path style="stroke:none; fill:#b6b7c2" d="M 50.4 1.6L 51.2 2.4L 50.4 1.6z"/>
<path style="stroke:none; fill:#c8c9d3" d="M 40 2.4L 40.8 3.2L 40 2.4z"/>
<path style="stroke:none; fill:#696a7a" d="M 51.2 2.4L 52 3.2L 51.2 2.4z"/>
<path style="stroke:none; fill:#c8c9d3" d="M 52 2.4L 52.8 3.2L 52 2.4z"/>
<path style="stroke:none; fill:#696a7a" d="M 39.2 3.2L 40 4L 39.2 3.2z"/>
<path style="stroke:none; fill:#838492" d="M 52.8 3.2L 53.6 4L 52.8 3.2z"/>
<path style="stroke:none; fill:#9696a8" d="M 37.6 4L 38.4 4.8L 37.6 4z"/>
<path style="stroke:none; fill:#9e9eaa" d="M 54.4 4L 55.2 4.8L 54.4 4z"/>
<path style="stroke:none; fill:#b6b7c2" d="M 36 4.8L 36.8 5.6L 36 4.8M 56 4.8L 56.8 5.6L 56 4.8z"/>
<path style="stroke:none; fill:#c8c9d3" d="M 34.4 5.6L 35.2 6.4L 34.4 5.6z"/>
<path style="stroke:none; fill:#696a7a" d="M 56.8 5.6L 57.6 6.4L 56.8 5.6z"/>
<path style="stroke:none; fill:#9696a8" d="M 292 5.6L 292 6.4L 296 6.4C 294.585 5.77683 293.571 5.67007 292 5.6z"/>
<path style="stroke:none; fill:#9e9eaa" d="M 354.4 5.6L 354.4 6.4L 358.4 6.4C 356.985 5.77684 355.971 5.67007 354.4 5.6z"/>
<path style="stroke:none; fill:#696a7a" d="M 33.6 6.4L 34.4 7.2L 33.6 6.4z"/>
<path style="stroke:none; fill:#838492" d="M 58.4 6.4L 59.2 7.2L 58.4 6.4M 290.4 6.4L 291.2 7.2L 290.4 6.4z"/>
<path style="stroke:none; fill:#373953" d="M 299.2 28.8C 299.2 23.265 300.802 14.8083 298.718 9.64688C 297.365 6.2979 292.638 5.5061 289.947 7.79383C 285.326 11.7213 288 27.1673 288 32.8C 288 42.553 286.43 53.8496 289.681 63.2C 294.908 78.2341 312.736 85.4448 327.2 79.2963C 346.729 70.9946 350.182 41.9353 332.799 29.4309C 321.951 21.6272 310.546 24.0827 299.2 28.8z"/>
<path style="stroke:none; fill:#b6b7c2" d="M 296.8 6.4L 297.6 7.2L 296.8 6.4z"/>
<path style="stroke:none; fill:#9e9eaa" d="M 352.8 6.4L 353.6 7.2L 352.8 6.4z"/>
<path style="stroke:none; fill:#373953" d="M 353.687 7.22284C 346.9 11.005 353.543 20.4776 359.818 16.6568C 365.89 12.9591 359.874 3.77483 353.687 7.22284z"/>
<path style="stroke:none; fill:#9696a8" d="M 359.2 6.4L 360 7.2L 359.2 6.4M 32 7.2L 32.8 8L 32 7.2z"/>
<path style="stroke:none; fill:#9e9eaa" d="M 60 7.2L 60.8 8L 60 7.2z"/>
<path style="stroke:none; fill:#9696a8" d="M 297.6 7.2L 298.4 8L 297.6 7.2z"/>
<path style="stroke:none; fill:#838492" d="M 352 7.2L 352.8 8L 352 7.2z"/>
<path style="stroke:none; fill:#b6b7c2" d="M 30.4 8L 31.2 8.8L 30.4 8z"/>
<path style="stroke:none; fill:#c8c9d3" d="M 61.6 8L 62.4 8.8L 61.6 8z"/>
<path style="stroke:none; fill:#b6b7c2" d="M 298.4 8L 299.2 8.8L 298.4 8z"/>
<path style="stroke:none; fill:#9e9eaa" d="M 351.2 8L 352 8.8L 351.2 8z"/>
<path style="stroke:none; fill:#c8c9d3" d="M 28.8 8.8L 29.6 9.6L 28.8 8.8z"/>
<path style="stroke:none; fill:#696a7a" d="M 29.6 8.8L 30.4 9.6L 29.6 8.8z"/>
<path style="stroke:none; fill:#9696a8" d="M 288 8.8L 288.8 9.6L 288 8.8z"/>
<path style="stroke:none; fill:#9e9eaa" d="M 361.6 8.8L 362.4 9.6L 361.6 8.8z"/>
<path style="stroke:none; fill:#838492" d="M 28 9.6L 28.8 10.4L 28 9.6z"/>
<path style="stroke:none; fill:#9696a8" d="M 64 9.6L 64.8 10.4L 64 9.6z"/>
<path style="stroke:none; fill:#9e9eaa" d="M 299.2 9.6L 300 10.4L 299.2 9.6z"/>
<path style="stroke:none; fill:#9696a8" d="M 350.4 9.6L 351.2 10.4L 350.4 9.6M 26.4 10.4L 27.2 11.2L 26.4 10.4z"/>
<path style="stroke:none; fill:#b6b7c2" d="M 65.6 10.4L 66.4 11.2L 65.6 10.4z"/>
<path style="stroke:none; fill:#9e9eaa" d="M 287.2 10.4L 287.2 53.6L 288 53.6L 288 24.8C 288 20.3047 288.951 14.5732 287.2 10.4z"/>
<path style="stroke:none; fill:#696a7a" d="M 299.2 10.4L 299.2 28.8L 300 28.8C 300 23.2258 301.363 15.5558 299.2 10.4z"/>
<path style="stroke:none; fill:#b6b7c2" d="M 24.8 11.2L 25.6 12L 24.8 11.2z"/>
<path style="stroke:none; fill:#c8c9d3" d="M 67.2 11.2L 68 12L 67.2 11.2M 362.666 11.7334C 362.622 11.7777 362.578 12.6222 362.934 12.2666C 362.978 12.2222 363.022 11.3778 362.666 11.7334z"/>
<path style="stroke:none; fill:#696a7a" d="M 24 12L 24.8 12.8L 24 12z"/>
<path style="stroke:none; fill:#5579b9" d="M 46.1334 12.2666C 45.7778 12.6222 46.6222 12.5778 46.6666 12.5334C 47.0222 12.1778 46.1778 12.2222 46.1334 12.2666z"/>
<path style="stroke:none; fill:#696a7a" d="M 68 12L 68.8 12.8L 68 12z"/>
<path style="stroke:none; fill:#838492" d="M 22.4 12.8L 23.2 13.6L 22.4 12.8z"/>
<path style="stroke:none; fill:#527591" d="M 44 12.8L 44.8 13.6L 44 12.8z"/>
<path style="stroke:none; fill:#5dc7e1" d="M 16.8 29.6C 23.2408 33.8483 30.1641 37.3503 36.8 41.2827C 39.5728 42.9258 43.0218 45.7967 46.4 45.7728C 55.0541 45.7116 68.5993 33.9645 76 29.6C 70.2628 24.6152 62.5461 21.436 56 17.5914C 53.1655 15.9266 49.8448 13.142 46.4 13.142C 43.2538 13.142 40.221 15.5347 37.6 17.0247C 30.7742 20.905 22.7284 24.4491 16.8 29.6z"/>
<path style="stroke:none; fill:#9696a8" d="M 69.6 12.8L 70.4 13.6L 69.6 12.8z"/>
<path style="stroke:none; fill:#9e9eaa" d="M 20.8 13.6L 21.6 14.4L 20.8 13.6z"/>
<path style="stroke:none; fill:#b6b7c2" d="M 71.2 13.6L 72 14.4L 71.2 13.6z"/>
<path style="stroke:none; fill:#9696a8" d="M 350.4 13.6L 351.2 14.4L 350.4 13.6z"/>
<path style="stroke:none; fill:#c8c9d3" d="M 19.2 14.4L 20 15.2L 19.2 14.4z"/>
<path style="stroke:none; fill:#696a7a" d="M 72 14.4L 72.8 15.2L 72 14.4z"/>
<path style="stroke:none; fill:#c8c9d3" d="M 72.8 14.4L 73.6 15.2L 72.8 14.4z"/>
<path style="stroke:none; fill:#9e9eaa" d="M 361.6 14.4L 362.4 15.2L 361.6 14.4z"/>
<path style="stroke:none; fill:#5579b9" d="M 40 15.2L 40.8 16L 40 15.2z"/>
<path style="stroke:none; fill:#527591" d="M 52 15.2L 52.8 16L 52 15.2z"/>
<path style="stroke:none; fill:#838492" d="M 73.6 15.2L 74.4 16L 73.6 15.2z"/>
<path style="stroke:none; fill:#9696a8" d="M 351.2 15.2L 352 16L 351.2 15.2M 16.8 16L 17.6 16.8L 16.8 16z"/>
<path style="stroke:none; fill:#527591" d="M 38.4 16L 39.2 16.8L 38.4 16z"/>
<path style="stroke:none; fill:#9e9eaa" d="M 75.2 16L 76 16.8L 75.2 16z"/>
<path style="stroke:none; fill:#838492" d="M 352 16L 352.8 16.8L 352 16z"/>
<path style="stroke:none; fill:#b6b7c2" d="M 15.2 16.8L 16 17.6L 15.2 16.8z"/>
<path style="stroke:none; fill:#c8c9d3" d="M 76.8 16.8L 77.6 17.6L 76.8 16.8z"/>
<path style="stroke:none; fill:#9e9eaa" d="M 352.8 16.8L 353.6 17.6L 352.8 16.8z"/>
<path style="stroke:none; fill:#838492" d="M 359.2 16.8L 360 17.6L 359.2 16.8z"/>
<path style="stroke:none; fill:#c8c9d3" d="M 13.6 17.6L 14.4 18.4L 13.6 17.6z"/>
<path style="stroke:none; fill:#5579b9" d="M 56 17.6L 56.8 18.4L 56 17.6z"/>
<path style="stroke:none; fill:#696a7a" d="M 77.6 17.6L 78.4 18.4L 77.6 17.6z"/>
<path style="stroke:none; fill:#9e9eaa" d="M 354.4 17.6L 354.4 18.4L 358.4 18.4C 356.985 17.7768 355.971 17.6701 354.4 17.6z"/>
<path style="stroke:none; fill:#696a7a" d="M 12.8 18.4L 13.6 19.2L 12.8 18.4z"/>
<path style="stroke:none; fill:#5579b9" d="M 34.4 18.4L 35.2 19.2L 34.4 18.4z"/>
<path style="stroke:none; fill:#9696a8" d="M 79.2 18.4L 80 19.2L 79.2 18.4z"/>
<path style="stroke:none; fill:#9e9eaa" d="M 11.2 19.2L 12 20L 11.2 19.2z"/>
<path style="stroke:none; fill:#527591" d="M 32.8 19.2L 33.6 20L 32.8 19.2z"/>
<path style="stroke:none; fill:#9e9eaa" d="M 80.8 19.2L 81.6 20L 80.8 19.2z"/>
<path style="stroke:none; fill:#b6b7c2" d="M 9.6 20L 10.4 20.8L 9.6 20z"/>
<path style="stroke:none; fill:#c8c9d3" d="M 82.4 20L 83.2 20.8L 82.4 20M 8 20.8L 8.8 21.6L 8 20.8z"/>
<path style="stroke:none; fill:#696a7a" d="M 8.8 20.8L 9.6 21.6L 8.8 20.8z"/>
<path style="stroke:none; fill:#5579b9" d="M 61.6 20.8L 62.4 21.6L 61.6 20.8z"/>
<path style="stroke:none; fill:#696a7a" d="M 83.2 20.8L 84 21.6L 83.2 20.8z"/>
<path style="stroke:none; fill:#838492" d="M 7.2 21.6L 8 22.4L 7.2 21.6z"/>
<path style="stroke:none; fill:#527591" d="M 28.8 21.6L 29.6 22.4L 28.8 21.6M 63.2 21.6L 64 22.4L 63.2 21.6z"/>
<path style="stroke:none; fill:#9e9eaa" d="M 84.8 21.6L 85.6 22.4L 84.8 21.6M 5.6 22.4L 6.4 23.2L 5.6 22.4z"/>
<path style="stroke:none; fill:#b6b7c2" d="M 86.4 22.4L 87.2 23.2L 86.4 22.4M 4 23.2L 4.8 24L 4 23.2z"/>
<path style="stroke:none; fill:#c8c9d3" d="M 88 23.2L 88.8 24L 88 23.2M 175.2 23.2L 176 24L 175.2 23.2M 214.134 23.4666C 213.778 23.8223 214.622 23.7778 214.666 23.7334C 215.022 23.3778 214.178 23.4222 214.134 23.4666M 315.734 23.4666C 315.378 23.8223 316.222 23.7778 316.266 23.7334C 316.622 23.3779 315.778 23.4222 315.734 23.4666M 396.8 23.2L 397.6 24L 396.8 23.2z"/>
<path style="stroke:none; fill:#696a7a" d="M 3.2 24L 4 24.8L 3.2 24z"/>
<path style="stroke:none; fill:#5579b9" d="M 24.8 24L 25.6 24.8L 24.8 24z"/>
<path style="stroke:none; fill:#759bad" d="M 67.2 24L 68 24.8L 67.2 24z"/>
<path style="stroke:none; fill:#696a7a" d="M 88.8 24L 89.6 24.8L 88.8 24z"/>
<path style="stroke:none; fill:#c8c9d3" d="M 138.4 24L 139.2 24.8L 138.4 24z"/>
<path style="stroke:none; fill:#696a7a" d="M 139.2 24L 139.2 24.8L 141.6 24.8C 140.602 24.2522 140.362 24.201 139.2 24z"/>
<path style="stroke:none; fill:#373953" d="M 141.6 24.3426C 136.83 25.0258 132.817 26.3672 128.801 29.0877C 100.99 47.925 125.992 93.252 156.797 79.2241C 161.29 77.1784 165.289 69.4796 158.365 67.55C 153.818 66.2829 149.341 69.5375 144.8 69.5358C 135.318 69.5322 126.277 59.0188 128.746 49.6C 130.838 41.6171 138.689 34.9891 147.2 36.1685C 151.305 36.7373 156.594 40.295 160.453 37.0062C 163.57 34.3499 161.922 29.8704 159.113 27.7618C 154.604 24.3775 147.003 23.5689 141.6 24.3426z"/>
<path style="stroke:none; fill:#838492" d="M 148.8 24L 148.8 24.8L 151.2 24.8C 150.202 24.2522 149.962 24.201 148.8 24z"/>
<path style="stroke:none; fill:#9696a8" d="M 172.8 24L 173.6 24.8L 172.8 24z"/>
<path style="stroke:none; fill:#373953" d="M 173.635 24.6062C 167.108 27.0485 169.6 40.1368 169.6 45.6C 169.6 64.4242 179.899 88.184 203.2 79.9166C 220.084 73.9262 220 56.3768 220 41.6C 220 36.4918 222.299 23.2281 213.612 24.3994C 207.846 25.1767 208.8 31.7452 208.8 36C 208.8 45.6659 210.458 72.1876 193.6 69.313C 178.318 66.707 181.618 45.2488 181.6 34.4C 181.592 29.8338 180.294 22.1148 173.635 24.6062z"/>
<path style="stroke:none; fill:#9696a8" d="M 177.6 24L 178.4 24.8L 177.6 24z"/>
<path style="stroke:none; fill:#b6b7c2" d="M 211.2 24L 212 24.8L 211.2 24z"/>
<path style="stroke:none; fill:#696a7a" d="M 212 24L 212.8 24.8L 212 24M 216 24L 216.8 24.8L 216 24z"/>
<path style="stroke:none; fill:#b6b7c2" d="M 216.8 24L 217.6 24.8L 216.8 24z"/>
<path style="stroke:none; fill:#838492" d="M 248 24L 248 24.8L 250.4 24.8C 249.402 24.2522 249.162 24.201 248 24z"/>
<path style="stroke:none; fill:#373953" d="M 239.2 58.4L 268.8 58.4C 272.378 58.4 277.702 59.3845 280.453 56.5457C 284.679 52.1845 280.994 42.8366 278.561 38.4C 271.606 25.7237 255.454 20.8235 242.4 26.5395C 216.162 38.029 224.07 76.3687 250.4 81.1072C 255.9 82.0976 279.482 79.3989 271.406 69.0228C 267.666 64.2165 261.382 68.9497 256.8 69.4494C 248.992 70.3009 242.225 65.2768 239.2 58.4z"/>
<path style="stroke:none; fill:#838492" d="M 257.6 24L 257.6 24.8L 260 24.8C 259.002 24.2522 258.762 24.201 257.6 24z"/>
<path style="stroke:none; fill:#c8c9d3" d="M 309.6 24L 310.4 24.8L 309.6 24z"/>
<path style="stroke:none; fill:#696a7a" d="M 310.4 24L 310.4 24.8L 312.8 24.8C 311.802 24.2522 311.562 24.201 310.4 24M 319.734 24.2666C 319.378 24.6223 320.222 24.5777 320.266 24.5334C 320.622 24.1778 319.778 24.2222 319.734 24.2666z"/>
<path style="stroke:none; fill:#c8c9d3" d="M 321.334 24.2666C 320.978 24.6223 321.822 24.5778 321.866 24.5334C 322.222 24.1778 321.378 24.2222 321.334 24.2666z"/>
<path style="stroke:none; fill:#9e9eaa" d="M 353.6 24L 354.4 24.8L 353.6 24z"/>
<path style="stroke:none; fill:#373953" d="M 354.444 24.6062C 349.654 26.4228 350.4 32.7063 350.4 36.8C 350.399 49.1916 349.397 62.0579 350.475 74.4C 350.83 78.4602 353.706 82.7376 358.365 80.9936C 363.291 79.1502 362.4 72.99 362.4 68.8C 362.4 56.2403 363.714 42.877 362.313 30.4006C 361.878 26.5327 358.61 23.0257 354.444 24.6062z"/>
<path style="stroke:none; fill:#838492" d="M 358.4 24L 359.2 24.8L 358.4 24z"/>
<path style="stroke:none; fill:#c8c9d3" d="M 390.4 24L 391.2 24.8L 390.4 24z"/>
<path style="stroke:none; fill:#838492" d="M 391.2 24L 391.2 24.8L 393.6 24.8C 392.602 24.2522 392.362 24.201 391.2 24z"/>
<path style="stroke:none; fill:#373953" d="M 413.6 76.8C 413.6 82.3128 411.995 90.8016 414.194 95.9128C 415.569 99.1104 420.258 100.176 422.946 97.9176C 427.481 94.1064 424.8 78.3386 424.8 72.8C 424.8 63.7182 426.45 52.7621 423.832 44C 419.047 27.9858 400.865 19.8902 385.6 26.3642C 364.55 35.292 363.804 65.8021 382.4 77.5247C 392.735 84.04 403.265 81.0976 413.6 76.8z"/>
<path style="stroke:none; fill:#9696a8" d="M 401.334 24.2666C 400.978 24.6223 401.822 24.5777 401.866 24.5334C 402.222 24.1779 401.378 24.2222 401.334 24.2666z"/>
<path style="stroke:none; fill:#c8c9d3" d="M 402.934 24.2666C 402.578 24.6223 403.422 24.5777 403.466 24.5334C 403.822 24.1779 402.978 24.2222 402.934 24.2666z"/>
<path style="stroke:none; fill:#b6b7c2" d="M 1.6 24.8L 2.4 25.6L 1.6 24.8z"/>
<path style="stroke:none; fill:#527591" d="M 23.2 24.8L 24 25.6L 23.2 24.8z"/>
<path style="stroke:none; fill:#b6b7c2" d="M 136 24.8L 136.8 25.6L 136 24.8z"/>
<path style="stroke:none; fill:#696a7a" d="M 152.8 24.8L 153.6 25.6L 152.8 24.8z"/>
<path style="stroke:none; fill:#9e9eaa" d="M 153.6 24.8L 154.4 25.6L 153.6 24.8z"/>
<path style="stroke:none; fill:#b6b7c2" d="M 171.2 24.8L 172 25.6L 171.2 24.8M 179.2 24.8L 180 25.6L 179.2 24.8z"/>
<path style="stroke:none; fill:#696a7a" d="M 210.4 24.8L 211.2 25.6L 210.4 24.8z"/>
<path style="stroke:none; fill:#838492" d="M 217.6 24.8L 218.4 25.6L 217.6 24.8z"/>
<path style="stroke:none; fill:#b6b7c2" d="M 244.8 24.8L 245.6 25.6L 244.8 24.8z"/>
<path style="stroke:none; fill:#696a7a" d="M 245.6 24.8L 246.4 25.6L 245.6 24.8M 261.6 24.8L 262.4 25.6L 261.6 24.8z"/>
<path style="stroke:none; fill:#b6b7c2" d="M 262.4 24.8L 263.2 25.6L 262.4 24.8z"/>
<path style="stroke:none; fill:#9696a8" d="M 307.2 24.8L 308 25.6L 307.2 24.8M 324 24.8L 324.8 25.6L 324 24.8z"/>
<path style="stroke:none; fill:#9e9eaa" d="M 360 24.8L 360.8 25.6L 360 24.8z"/>
<path style="stroke:none; fill:#b6b7c2" d="M 388 24.8L 388.8 25.6L 388 24.8z"/>
<path style="stroke:none; fill:#696a7a" d="M 388.8 24.8L 389.6 25.6L 388.8 24.8z"/>
<path style="stroke:none; fill:#838492" d="M 404.8 24.8L 405.6 25.6L 404.8 24.8z"/>
<path style="stroke:none; fill:#c8c9d3" d="M 405.6 24.8L 406.4 25.6L 405.6 24.8z"/>
<path style="stroke:none; fill:#b6b7c2" d="M 0.8 25.6L 1.6 26.4L 0.8 25.6M 133.6 25.6L 134.4 26.4L 133.6 25.6z"/>
<path style="stroke:none; fill:#696a7a" d="M 155.2 25.6L 156 26.4L 155.2 25.6z"/>
<path style="stroke:none; fill:#b6b7c2" d="M 156 25.6L 156.8 26.4L 156 25.6z"/>
<path style="stroke:none; fill:#c8c9d3" d="M 170.4 25.6L 171.2 26.4L 170.4 25.6z"/>
<path style="stroke:none; fill:#b6b7c2" d="M 180 25.6L 180.8 26.4L 180 25.6z"/>
<path style="stroke:none; fill:#838492" d="M 243.2 25.6L 244 26.4L 243.2 25.6z"/>
<path style="stroke:none; fill:#696a7a" d="M 264 25.6L 264.8 26.4L 264 25.6z"/>
<path style="stroke:none; fill:#c8c9d3" d="M 264.8 25.6L 265.6 26.4L 264.8 25.6z"/>
<path style="stroke:none; fill:#b6b7c2" d="M 304.8 25.6L 305.6 26.4L 304.8 25.6z"/>
<path style="stroke:none; fill:#9e9eaa" d="M 326.4 25.6L 327.2 26.4L 326.4 25.6M 360.8 25.6L 361.6 26.4L 360.8 25.6z"/>
<path style="stroke:none; fill:#b6b7c2" d="M 385.6 25.6L 386.4 26.4L 385.6 25.6z"/>
<path style="stroke:none; fill:#9696a8" d="M 407.2 25.6L 408 26.4L 407.2 25.6z"/>
<path style="stroke:none; fill:#696a7a" d="M 91.2 26.4L 92 27.2L 91.2 26.4z"/>
<path style="stroke:none; fill:#b6b7c2" d="M 132 26.4L 132.8 27.2L 132 26.4M 157.6 26.4L 158.4 27.2L 157.6 26.4z"/>
<path style="stroke:none; fill:#9696a8" d="M 208.8 26.4L 209.6 27.2L 208.8 26.4M 219.2 26.4L 220 27.2L 219.2 26.4z"/>
<path style="stroke:none; fill:#c8c9d3" d="M 240.8 26.4L 241.6 27.2L 240.8 26.4z"/>
<path style="stroke:none; fill:#b6b7c2" d="M 266.4 26.4L 267.2 27.2L 266.4 26.4z"/>
<path style="stroke:none; fill:#9e9eaa" d="M 303.2 26.4L 304 27.2L 303.2 26.4M 328 26.4L 328.8 27.2L 328 26.4z"/>
<path style="stroke:none; fill:#b6b7c2" d="M 384 26.4L 384.8 27.2L 384 26.4z"/>
<path style="stroke:none; fill:#838492" d="M 408.8 26.4L 409.6 27.2L 408.8 26.4M 0.266666 27.7334C 0.222214 27.7778 0.177786 28.6222 0.533334 28.2666C 0.577777 28.2222 0.622219 27.3778 0.266666 27.7334z"/>
<path style="stroke:none; fill:#5579b9" d="M 19.2 27.2L 20 28L 19.2 27.2z"/>
<path style="stroke:none; fill:#527591" d="M 72.8 27.2L 73.6 28L 72.8 27.2z"/>
<path style="stroke:none; fill:#b6b7c2" d="M 130.4 27.2L 131.2 28L 130.4 27.2M 159.2 27.2L 160 28L 159.2 27.2z"/>
<path style="stroke:none; fill:#9696a8" d="M 169.6 27.2L 170.4 28L 169.6 27.2M 180.8 27.2L 181.6 28L 180.8 27.2z"/>
<path style="stroke:none; fill:#838492" d="M 240 27.2L 240.8 28L 240 27.2z"/>
<path style="stroke:none; fill:#696a7a" d="M 267.2 27.2L 268 28L 267.2 27.2z"/>
<path style="stroke:none; fill:#c8c9d3" d="M 268 27.2L 268.8 28L 268 27.2z"/>
<path style="stroke:none; fill:#9e9eaa" d="M 301.6 27.2L 302.4 28L 301.6 27.2M 329.6 27.2L 330.4 28L 329.6 27.2z"/>
<path style="stroke:none; fill:#b6b7c2" d="M 350.4 27.2L 351.2 28L 350.4 27.2z"/>
<path style="stroke:none; fill:#838492" d="M 361.6 27.2L 362.4 28L 361.6 27.2z"/>
<path style="stroke:none; fill:#c8c9d3" d="M 382.4 27.2L 383.2 28L 382.4 27.2z"/>
<path style="stroke:none; fill:#838492" d="M 410.4 27.2L 411.2 28L 410.4 27.2z"/>
<path style="stroke:none; fill:#527591" d="M 17.6 28L 18.4 28.8L 17.6 28z"/>
<path style="stroke:none; fill:#9e9eaa" d="M 92 28L 92 31.2L 92.8 31.2C 92.6608 29.8518 92.5464 29.2048 92 28z"/>
<path style="stroke:none; fill:#696a7a" d="M 129.6 28L 130.4 28.8L 129.6 28z"/>
<path style="stroke:none; fill:#838492" d="M 160 28L 160.8 28.8L 160 28z"/>
<path style="stroke:none; fill:#9e9eaa" d="M 208.266 28.5334C 208.222 28.5778 208.178 29.4222 208.534 29.0666C 208.578 29.0222 208.622 28.1778 208.266 28.5334M 220 28L 220 56L 220.8 56C 220.8 47.9 223.129 35.457 220 28M 238.4 28L 239.2 28.8L 238.4 28z"/>
<path style="stroke:none; fill:#838492" d="M 268.8 28L 269.6 28.8L 268.8 28z"/>
<path style="stroke:none; fill:#c8c9d3" d="M 331.2 28L 332 28.8L 331.2 28z"/>
<path style="stroke:none; fill:#696a7a" d="M 350.4 28L 351.2 28.8L 350.4 28z"/>
<path style="stroke:none; fill:#838492" d="M 381.6 28L 382.4 28.8L 381.6 28z"/>
<path style="stroke:none; fill:#b6b7c2" d="M 412 28L 412.8 28.8L 412 28z"/>
<path style="stroke:none; fill:#696a7a" d="M 0 28.8L 0 76.8L 0.8 76.8L 0.8 44C 0.8 39.2904 1.83372 33.17 0 28.8z"/>
<path style="stroke:none; fill:#9e9eaa" d="M 128 28.8L 128.8 29.6L 128 28.8z"/>
<path style="stroke:none; fill:#838492" d="M 160.8 28.8L 161.6 29.6L 160.8 28.8z"/>
<path style="stroke:none; fill:#c8c9d3" d="M 270.4 28.8L 271.2 29.6L 270.4 28.8z"/>
<path style="stroke:none; fill:#9696a8" d="M 332 28.8L 332.8 29.6L 332 28.8z"/>
<path style="stroke:none; fill:#c8c9d3" d="M 362.4 28.8L 362.4 76.8L 363.2 76.8L 363.2 44C 363.2 39.2904 364.234 33.17 362.4 28.8M 380 28.8L 380.8 29.6L 380 28.8z"/>
<path style="stroke:none; fill:#838492" d="M 412.8 28.8L 413.6 29.6L 412.8 28.8z"/>
<path style="stroke:none; fill:#696a7a" d="M 127.2 29.6L 128 30.4L 127.2 29.6z"/>
<path style="stroke:none; fill:#c8c9d3" d="M 161.6 29.6L 162.4 30.4L 161.6 29.6z"/>
<path style="stroke:none; fill:#696a7a" d="M 208 29.6L 208 55.2L 208.8 55.2C 208.8 47.7291 210.889 36.4846 208 29.6z"/>
<path style="stroke:none; fill:#c8c9d3" d="M 236 29.6L 236.8 30.4L 236 29.6z"/>
<path style="stroke:none; fill:#9e9eaa" d="M 271.2 29.6L 272 30.4L 271.2 29.6z"/>
<path style="stroke:none; fill:#838492" d="M 379.2 29.6L 380 30.4L 379.2 29.6z"/>
<path style="stroke:none; fill:#527591" d="M 18.4 30.4L 19.2 31.2L 18.4 30.4M 73.6 30.4L 74.4 31.2L 73.6 30.4z"/>
<path style="stroke:none; fill:#696a7a" d="M 161.6 30.4L 162.4 31.2L 161.6 30.4z"/>
<path style="stroke:none; fill:#b6b7c2" d="M 235.2 30.4L 236 31.2L 235.2 30.4z"/>
<path style="stroke:none; fill:#838492" d="M 272 30.4L 272.8 31.2L 272 30.4z"/>
<path style="stroke:none; fill:#696a7a" d="M 378.4 30.4L 379.2 31.2L 378.4 30.4z"/>
<path style="stroke:none; fill:#b6b7c2" d="M 415.2 30.4L 416 31.2L 415.2 30.4z"/>
<path style="stroke:none; fill:#5579b9" d="M 72 31.2L 72.8 32L 72 31.2z"/>
<path style="stroke:none; fill:#9696a8" d="M 234.4 31.2L 235.2 32L 234.4 31.2z"/>
<path style="stroke:none; fill:#838492" d="M 272.8 31.2L 273.6 32L 272.8 31.2z"/>
<path style="stroke:none; fill:#b6b7c2" d="M 416 31.2L 416.8 32L 416 31.2z"/>
<path style="stroke:none; fill:#759bad" d="M 70.4 32L 71.2 32.8L 70.4 32z"/>
<path style="stroke:none; fill:#9696a8" d="M 91.2 32L 92 32.8L 91.2 32z"/>
<path style="stroke:none; fill:#c8c9d3" d="M 162.666 32.5334C 162.622 32.5778 162.578 33.4222 162.934 33.0666C 162.978 33.0222 163.022 32.1778 162.666 32.5334z"/>
<path style="stroke:none; fill:#838492" d="M 233.6 32L 234.4 32.8L 233.6 32M 273.6 32L 274.4 32.8L 273.6 32z"/>
<path style="stroke:none; fill:#b6b7c2" d="M 416.8 32L 417.6 32.8L 416.8 32z"/>
<path style="stroke:none; fill:#838492" d="M 90.4 32.8L 91.2 33.6L 90.4 32.8z"/>
<path style="stroke:none; fill:#b6b7c2" d="M 232.8 32.8L 233.6 33.6L 232.8 32.8z"/>
<path style="stroke:none; fill:#838492" d="M 274.4 32.8L 275.2 33.6L 274.4 32.8z"/>
<path style="stroke:none; fill:#b6b7c2" d="M 417.6 32.8L 418.4 33.6L 417.6 32.8z"/>
<path style="stroke:none; fill:#5579b9" d="M 24 33.6L 24.8 34.4L 24 33.6z"/>
<path style="stroke:none; fill:#527591" d="M 68 33.6L 68.8 34.4L 68 33.6z"/>
<path style="stroke:none; fill:#9696a8" d="M 89.6 33.6L 90.4 34.4L 89.6 33.6z"/>
<path style="stroke:none; fill:#b6b7c2" d="M 232 33.6L 232.8 34.4L 232 33.6z"/>
<path style="stroke:none; fill:#9696a8" d="M 275.2 33.6L 276 34.4L 275.2 33.6z"/>
<path style="stroke:none; fill:#838492" d="M 375.2 33.6L 376 34.4L 375.2 33.6z"/>
<path style="stroke:none; fill:#759bad" d="M 66.4 34.4L 67.2 35.2L 66.4 34.4z"/>
<path style="stroke:none; fill:#696a7a" d="M 88 34.4L 88.8 35.2L 88 34.4M 122.4 34.4L 123.2 35.2L 122.4 34.4z"/>
<path style="stroke:none; fill:#b6b7c2" d="M 276 34.4L 276.8 35.2L 276 34.4z"/>
<path style="stroke:none; fill:#9e9eaa" d="M 374.4 34.4L 375.2 35.2L 374.4 34.4z"/>
<path style="stroke:none; fill:#c8c9d3" d="M 87.2 35.2L 88 36L 87.2 35.2z"/>
<path style="stroke:none; fill:#9696a8" d="M 121.6 35.2L 122.4 36L 121.6 35.2M 161.6 35.2L 162.4 36L 161.6 35.2M 338.4 35.2L 339.2 36L 338.4 35.2z"/>
<path style="stroke:none; fill:#c8c9d3" d="M 373.6 35.2L 374.4 36L 373.6 35.2z"/>
<path style="stroke:none; fill:#696a7a" d="M 419.2 35.2L 420 36L 419.2 35.2z"/>
<path style="stroke:none; fill:#527591" d="M 28 36L 28.8 36.8L 28 36z"/>
<path style="stroke:none; fill:#9e9eaa" d="M 85.6 36L 86.4 36.8L 85.6 36z"/>
<path style="stroke:none; fill:#c8c9d3" d="M 120.8 36L 121.6 36.8L 120.8 36z"/>
<path style="stroke:none; fill:#696a7a" d="M 140.8 36L 141.6 36.8L 140.8 36z"/>
<path style="stroke:none; fill:#c8c9d3" d="M 141.6 36L 141.6 36.8L 144 36.8C 143.002 36.2522 142.762 36.201 141.6 36z"/>
<path style="stroke:none; fill:#b6b7c2" d="M 146.4 36L 146.4 36.8L 148.8 36.8C 147.802 36.2522 147.562 36.201 146.4 36z"/>
<path style="stroke:none; fill:#696a7a" d="M 148.8 36L 149.6 36.8L 148.8 36z"/>
<path style="stroke:none; fill:#9696a8" d="M 230.4 36L 231.2 36.8L 230.4 36z"/>
<path style="stroke:none; fill:#b6b7c2" d="M 250.4 36L 250.4 36.8L 252.8 36.8C 251.802 36.2522 251.562 36.201 250.4 36z"/>
<path style="stroke:none; fill:#ffffff" d="M 239.2 46.4L 268.8 46.4C 262.398 32.9538 245.909 33.8973 239.2 46.4z"/>
<path style="stroke:none; fill:#b6b7c2" d="M 255.2 36L 255.2 36.8L 257.6 36.8C 256.602 36.2522 256.362 36.201 255.2 36z"/>
<path style="stroke:none; fill:#838492" d="M 312 36L 312.8 36.8L 312 36z"/>
<path style="stroke:none; fill:#c8c9d3" d="M 312.8 36L 312.8 36.8L 315.2 36.8C 314.202 36.2522 313.962 36.201 312.8 36z"/>
<path style="stroke:none; fill:#ffffff" d="M 315.2 36.487C 294.484 37.7432 296.11 70.0482 316.8 69.121C 337.579 68.1898 336.014 35.225 315.2 36.487z"/>
<path style="stroke:none; fill:#c8c9d3" d="M 316.8 36L 316.8 36.8L 319.2 36.8C 318.202 36.2522 317.962 36.201 316.8 36z"/>
<path style="stroke:none; fill:#838492" d="M 319.2 36L 320 36.8L 319.2 36z"/>
<path style="stroke:none; fill:#c8c9d3" d="M 339.2 36L 340 36.8L 339.2 36z"/>
<path style="stroke:none; fill:#9e9eaa" d="M 393.334 36.2666C 392.978 36.6223 393.822 36.5778 393.866 36.5334C 394.222 36.1779 393.378 36.2222 393.334 36.2666z"/>
<path style="stroke:none; fill:#c8c9d3" d="M 394.934 36.2666C 394.578 36.6223 395.422 36.5777 395.466 36.5334C 395.822 36.1779 394.978 36.2222 394.934 36.2666z"/>
<path style="stroke:none; fill:#ffffff" d="M 396 36.4877C 375.759 37.7865 377.238 70.027 397.6 69.121C 418.385 68.1962 416.88 35.1478 396 36.4877z"/>
<path style="stroke:none; fill:#c8c9d3" d="M 397.6 36L 397.6 36.8L 400 36.8C 399.002 36.2522 398.762 36.201 397.6 36z"/>
<path style="stroke:none; fill:#838492" d="M 400 36L 400.8 36.8L 400 36z"/>
<path style="stroke:none; fill:#9e9eaa" d="M 420 36L 420.8 36.8L 420 36z"/>
<path style="stroke:none; fill:#5579b9" d="M 29.6 36.8L 30.4 37.6L 29.6 36.8M 62.4 36.8L 63.2 37.6L 62.4 36.8z"/>
<path style="stroke:none; fill:#838492" d="M 84 36.8L 84.8 37.6L 84 36.8z"/>
<path style="stroke:none; fill:#b6b7c2" d="M 139.2 36.8L 140 37.6L 139.2 36.8M 150.4 36.8L 151.2 37.6L 150.4 36.8z"/>
<path style="stroke:none; fill:#c8c9d3" d="M 229.6 36.8L 230.4 37.6L 229.6 36.8z"/>
<path style="stroke:none; fill:#9e9eaa" d="M 248 36.8L 248.8 37.6L 248 36.8z"/>
<path style="stroke:none; fill:#b6b7c2" d="M 259.2 36.8L 260 37.6L 259.2 36.8z"/>
<path style="stroke:none; fill:#9e9eaa" d="M 277.6 36.8L 278.4 37.6L 277.6 36.8z"/>
<path style="stroke:none; fill:#838492" d="M 309.6 36.8L 310.4 37.6L 309.6 36.8z"/>
<path style="stroke:none; fill:#c8c9d3" d="M 310.4 36.8L 311.2 37.6L 310.4 36.8z"/>
<path style="stroke:none; fill:#838492" d="M 321.6 36.8L 322.4 37.6L 321.6 36.8M 372.8 36.8L 373.6 37.6L 372.8 36.8z"/>
<path style="stroke:none; fill:#696a7a" d="M 390.4 36.8L 391.2 37.6L 390.4 36.8z"/>
<path style="stroke:none; fill:#b6b7c2" d="M 391.2 36.8L 392 37.6L 391.2 36.8z"/>
<path style="stroke:none; fill:#9e9eaa" d="M 402.4 36.8L 403.2 37.6L 402.4 36.8z"/>
<path style="stroke:none; fill:#696a7a" d="M 82.4 37.6L 83.2 38.4L 82.4 37.6z"/>
<path style="stroke:none; fill:#c8c9d3" d="M 83.2 37.6L 84 38.4L 83.2 37.6z"/>
<path style="stroke:none; fill:#9e9eaa" d="M 120 37.6L 120.8 38.4L 120 37.6z"/>
<path style="stroke:none; fill:#696a7a" d="M 136.8 37.6L 137.6 38.4L 136.8 37.6z"/>
<path style="stroke:none; fill:#c8c9d3" d="M 152 37.6L 152.8 38.4L 152 37.6z"/>
<path style="stroke:none; fill:#696a7a" d="M 152.8 37.6L 153.6 38.4L 152.8 37.6M 159.2 37.6L 160 38.4L 159.2 37.6z"/>
<path style="stroke:none; fill:#b6b7c2" d="M 246.4 37.6L 247.2 38.4L 246.4 37.6z"/>
<path style="stroke:none; fill:#c8c9d3" d="M 260.8 37.6L 261.6 38.4L 260.8 37.6z"/>
<path style="stroke:none; fill:#838492" d="M 308 37.6L 308.8 38.4L 308 37.6M 323.2 37.6L 324 38.4L 323.2 37.6z"/>
<path style="stroke:none; fill:#9e9eaa" d="M 340 37.6L 340.8 38.4L 340 37.6z"/>
<path style="stroke:none; fill:#696a7a" d="M 388.8 37.6L 389.6 38.4L 388.8 37.6z"/>
<path style="stroke:none; fill:#c8c9d3" d="M 389.6 37.6L 390.4 38.4L 389.6 37.6z"/>
<path style="stroke:none; fill:#9696a8" d="M 404 37.6L 404.8 38.4L 404 37.6z"/>
<path style="stroke:none; fill:#696a7a" d="M 420.8 37.6L 421.6 38.4L 420.8 37.6z"/>
<path style="stroke:none; fill:#b6b7c2" d="M 81.6 38.4L 82.4 39.2L 81.6 38.4z"/>
<path style="stroke:none; fill:#c8c9d3" d="M 136 38.4L 136.8 39.2L 136 38.4M 153.6 38.4L 154.4 39.2L 153.6 38.4z"/>
<path style="stroke:none; fill:#696a7a" d="M 154.4 38.4L 154.4 39.2L 158.4 39.2C 156.985 38.5769 155.971 38.4701 154.4 38.4z"/>
<path style="stroke:none; fill:#c8c9d3" d="M 158.4 38.4L 159.2 39.2L 158.4 38.4z"/>
<path style="stroke:none; fill:#b6b7c2" d="M 228.8 38.4L 229.6 39.2L 228.8 38.4z"/>
<path style="stroke:none; fill:#9696a8" d="M 244.8 38.4L 245.6 39.2L 244.8 38.4z"/>
<path style="stroke:none; fill:#9e9eaa" d="M 262.4 38.4L 263.2 39.2L 262.4 38.4z"/>
<path style="stroke:none; fill:#838492" d="M 278.4 38.4L 279.2 39.2L 278.4 38.4z"/>
<path style="stroke:none; fill:#b6b7c2" d="M 388 38.4L 388.8 39.2L 388 38.4z"/>
<path style="stroke:none; fill:#838492" d="M 405.6 38.4L 406.4 39.2L 405.6 38.4z"/>
<path style="stroke:none; fill:#c8c9d3" d="M 421.6 38.4L 422.4 39.2L 421.6 38.4z"/>
<path style="stroke:none; fill:#855254" d="M 11.7334 39.4666C 11.3778 39.8222 12.2222 39.7778 12.2666 39.7334C 12.6222 39.3778 11.7778 39.4222 11.7334 39.4666z"/>
<path style="stroke:none; fill:#527591" d="M 33.6 39.2L 34.4 40L 33.6 39.2z"/>
<path style="stroke:none; fill:#9696a8" d="M 80 39.2L 80.8 40L 80 39.2z"/>
<path style="stroke:none; fill:#838492" d="M 119.2 39.2L 120 40L 119.2 39.2z"/>
<path style="stroke:none; fill:#696a7a" d="M 134.4 39.2L 135.2 40L 134.4 39.2z"/>
<path style="stroke:none; fill:#b6b7c2" d="M 244 39.2L 244.8 40L 244 39.2z"/>
<path style="stroke:none; fill:#696a7a" d="M 305.6 39.2L 306.4 40L 305.6 39.2z"/>
<path style="stroke:none; fill:#838492" d="M 325.6 39.2L 326.4 40L 325.6 39.2M 340.8 39.2L 341.6 40L 340.8 39.2z"/>
<path style="stroke:none; fill:#c8c9d3" d="M 371.2 39.2L 372 40L 371.2 39.2z"/>
<path style="stroke:none; fill:#9e9eaa" d="M 406.4 39.2L 407.2 40L 406.4 39.2z"/>
<path style="stroke:none; fill:#b85646" d="M 11.2 40L 11.2 65.6L 12 65.6C 12 58.1291 14.0889 46.8845 11.2 40z"/>
<path style="stroke:none; fill:#ef5f41" d="M 12 40L 12 65.6C 19.4388 63.2452 27.0883 57.8951 33.6 53.6L 33.6 52C 27.0882 47.7049 19.4388 42.3548 12 40z"/>
<path style="stroke:none; fill:#759bad" d="M 35.2 40L 36 40.8L 35.2 40z"/>
<path style="stroke:none; fill:#5579b9" d="M 56.8 40L 57.6 40.8L 56.8 40z"/>
<path style="stroke:none; fill:#838492" d="M 78.4 40L 79.2 40.8L 78.4 40M 133.6 40L 134.4 40.8L 133.6 40z"/>
<path style="stroke:none; fill:#b6b7c2" d="M 228 40L 228.8 40.8L 228 40z"/>
<path style="stroke:none; fill:#838492" d="M 279.2 40L 280 40.8L 279.2 40M 304.8 40L 305.6 40.8L 304.8 40z"/>
<path style="stroke:none; fill:#9e9eaa" d="M 326.4 40L 327.2 40.8L 326.4 40z"/>
<path style="stroke:none; fill:#696a7a" d="M 371.2 40L 372 40.8L 371.2 40z"/>
<path style="stroke:none; fill:#b6b7c2" d="M 407.2 40L 408 40.8L 407.2 40z"/>
<path style="stroke:none; fill:#c8c9d3" d="M 422.4 40L 423.2 40.8L 422.4 40M 77.6 40.8L 78.4 41.6L 77.6 40.8z"/>
<path style="stroke:none; fill:#838492" d="M 118.4 40.8L 119.2 41.6L 118.4 40.8M 132.8 40.8L 133.6 41.6L 132.8 40.8M 304 40.8L 304.8 41.6L 304 40.8z"/>
<path style="stroke:none; fill:#9e9eaa" d="M 327.2 40.8L 328 41.6L 327.2 40.8z"/>
<path style="stroke:none; fill:#9696a8" d="M 341.6 40.8L 342.4 41.6L 341.6 40.8z"/>
<path style="stroke:none; fill:#b6b7c2" d="M 408 40.8L 408.8 41.6L 408 40.8z"/>
<path style="stroke:none; fill:#696a7a" d="M 422.4 40.8L 423.2 41.6L 422.4 40.8z"/>
<path style="stroke:none; fill:#855254" d="M 16 41.6L 16.8 42.4L 16 41.6z"/>
<path style="stroke:none; fill:#b6b7c2" d="M 76 41.6L 76.8 42.4L 76 41.6z"/>
<path style="stroke:none; fill:#838492" d="M 132 41.6L 132.8 42.4L 132 41.6z"/>
<path style="stroke:none; fill:#b6b7c2" d="M 227.2 41.6L 228 42.4L 227.2 41.6z"/>
<path style="stroke:none; fill:#9696a8" d="M 280 41.6L 280.8 42.4L 280 41.6z"/>
<path style="stroke:none; fill:#838492" d="M 303.2 41.6L 304 42.4L 303.2 41.6M 328 41.6L 328.8 42.4L 328 41.6M 370.4 41.6L 371.2 42.4L 370.4 41.6z"/>
<path style="stroke:none; fill:#b6b7c2" d="M 408.8 41.6L 409.6 42.4L 408.8 41.6z"/>
<path style="stroke:none; fill:#855254" d="M 17.6 42.4L 18.4 43.2L 17.6 42.4z"/>
<path style="stroke:none; fill:#527591" d="M 39.2 42.4L 40 43.2L 39.2 42.4M 52.8 42.4L 53.6 43.2L 52.8 42.4z"/>
<path style="stroke:none; fill:#9696a8" d="M 74.4 42.4L 75.2 43.2L 74.4 42.4z"/>
<path style="stroke:none; fill:#b6b7c2" d="M 117.6 42.4L 118.4 43.2L 117.6 42.4z"/>
<path style="stroke:none; fill:#838492" d="M 227.2 42.4L 228 43.2L 227.2 42.4z"/>
<path style="stroke:none; fill:#9e9eaa" d="M 240.8 42.4L 241.6 43.2L 240.8 42.4z"/>
<path style="stroke:none; fill:#c8c9d3" d="M 266.4 42.4L 267.2 43.2L 266.4 42.4M 342.4 42.4L 343.2 43.2L 342.4 42.4z"/>
<path style="stroke:none; fill:#838492" d="M 409.6 42.4L 410.4 43.2L 409.6 42.4M 423.2 42.4L 424 43.2L 423.2 42.4z"/>
<path style="stroke:none; fill:#5579b9" d="M 51.2 43.2L 52 44L 51.2 43.2z"/>
<path style="stroke:none; fill:#696a7a" d="M 72.8 43.2L 73.6 44L 72.8 43.2M 117.6 43.2L 118.4 44L 117.6 43.2z"/>
<path style="stroke:none; fill:#9696a8" d="M 267.2 43.2L 268 44L 267.2 43.2z"/>
<path style="stroke:none; fill:#c8c9d3" d="M 302.4 43.2L 303.2 44L 302.4 43.2z"/>
<path style="stroke:none; fill:#838492" d="M 342.4 43.2L 343.2 44L 342.4 43.2z"/>
<path style="stroke:none; fill:#b6b7c2" d="M 369.6 43.2L 370.4 44L 369.6 43.2z"/>
<path style="stroke:none; fill:#9696a8" d="M 383.2 43.2L 384 44L 383.2 43.2z"/>
<path style="stroke:none; fill:#b85646" d="M 20 44L 20.8 44.8L 20 44z"/>
<path style="stroke:none; fill:#c8c9d3" d="M 72 44L 72.8 44.8L 72 44z"/>
<path style="stroke:none; fill:#9e9eaa" d="M 130.4 44L 131.2 44.8L 130.4 44z"/>
<path style="stroke:none; fill:#c8c9d3" d="M 226.4 44L 227.2 44.8L 226.4 44M 240 44L 240.8 44.8L 240 44z"/>
<path style="stroke:none; fill:#9696a8" d="M 280.8 44L 281.6 44.8L 280.8 44z"/>
<path style="stroke:none; fill:#838492" d="M 301.6 44L 302.4 44.8L 301.6 44M 329.6 44L 330.4 44.8L 329.6 44M 369.6 44L 370.4 44.8L 369.6 44z"/>
<path style="stroke:none; fill:#c8c9d3" d="M 410.4 44L 411.2 44.8L 410.4 44z"/>
<path style="stroke:none; fill:#855254" d="M 21.6 44.8L 22.4 45.6L 21.6 44.8z"/>
<path style="stroke:none; fill:#527591" d="M 43.2 44.8L 44 45.6L 43.2 44.8z"/>
<path style="stroke:none; fill:#9e9eaa" d="M 70.4 44.8L 71.2 45.6L 70.4 44.8z"/>
<path style="stroke:none; fill:#b6b7c2" d="M 116.8 44.8L 117.6 45.6L 116.8 44.8z"/>
<path style="stroke:none; fill:#838492" d="M 226.4 44.8L 227.2 45.6L 226.4 44.8M 239.2 44.8L 240 45.6L 239.2 44.8z"/>
<path style="stroke:none; fill:#9e9eaa" d="M 268 44.8L 268.8 45.6L 268 44.8z"/>
<path style="stroke:none; fill:#b6b7c2" d="M 382.4 44.8L 383.2 45.6L 382.4 44.8z"/>
<path style="stroke:none; fill:#696a7a" d="M 411.2 44.8L 412 45.6L 411.2 44.8z"/>
<path style="stroke:none; fill:#9696a8" d="M 424 44.8L 424.8 45.6L 424 44.8z"/>
<path style="stroke:none; fill:#855254" d="M 23.2 45.6L 24 46.4L 23.2 45.6z"/>
<path style="stroke:none; fill:#5579b9" d="M 44.8 45.6L 45.6 46.4L 44.8 45.6z"/>
<path style="stroke:none; fill:#838492" d="M 68.8 45.6L 69.6 46.4L 68.8 45.6z"/>
<path style="stroke:none; fill:#9696a8" d="M 116.8 45.6L 117.6 46.4L 116.8 45.6z"/>
<path style="stroke:none; fill:#9e9eaa" d="M 129.6 45.6L 130.4 46.4L 129.6 45.6z"/>
<path style="stroke:none; fill:#838492" d="M 300.8 45.6L 301.6 46.4L 300.8 45.6z"/>
<path style="stroke:none; fill:#9696a8" d="M 330.4 45.6L 331.2 46.4L 330.4 45.6z"/>
<path style="stroke:none; fill:#9e9eaa" d="M 343.2 45.6L 344 46.4L 343.2 45.6z"/>
<path style="stroke:none; fill:#b6b7c2" d="M 411.2 45.6L 412 46.4L 411.2 45.6z"/>
<path style="stroke:none; fill:#696a7a" d="M 424 45.6L 424.8 46.4L 424 45.6M 67.2 46.4L 68 47.2L 67.2 46.4z"/>
<path style="stroke:none; fill:#9e9eaa" d="M 239.2 46.4L 239.2 47.2L 268.8 47.2C 260.962 43.911 247.719 46.4 239.2 46.4z"/>
<path style="stroke:none; fill:#c8c9d3" d="M 281.6 46.4L 282.4 47.2L 281.6 46.4z"/>
<path style="stroke:none; fill:#9696a8" d="M 369.066 46.9334C 369.022 46.9777 368.978 47.8222 369.334 47.4666C 369.378 47.4222 369.422 46.5778 369.066 46.9334z"/>
<path style="stroke:none; fill:#9e9eaa" d="M 381.6 46.4L 382.4 47.2L 381.6 46.4z"/>
<path style="stroke:none; fill:#b85646" d="M 25.6 47.2L 26.4 48L 25.6 47.2z"/>
<path style="stroke:none; fill:#c8c9d3" d="M 66.4 47.2L 67.2 48L 66.4 47.2z"/>
<path style="stroke:none; fill:#696a7a" d="M 128.8 47.2L 129.6 48L 128.8 47.2z"/>
<path style="stroke:none; fill:#b6b7c2" d="M 225.6 47.2L 225.6 49.6L 226.4 49.6C 226.199 48.4387 226.148 48.1987 225.6 47.2z"/>
<path style="stroke:none; fill:#838492" d="M 281.6 47.2L 281.6 49.6L 282.4 49.6C 282.199 48.4387 282.148 48.1986 281.6 47.2M 412 47.2L 412.8 48L 412 47.2z"/>
<path style="stroke:none; fill:#855254" d="M 27.2 48L 28 48.8L 27.2 48z"/>
<path style="stroke:none; fill:#9696a8" d="M 64.8 48L 65.6 48.8L 64.8 48z"/>
<path style="stroke:none; fill:#c8c9d3" d="M 116.266 48.5334C 116.222 48.5778 116.178 49.4222 116.534 49.0666C 116.578 49.0222 116.622 48.1778 116.266 48.5334z"/>
<path style="stroke:none; fill:#b6b7c2" d="M 128.8 48L 129.6 48.8L 128.8 48z"/>
<path style="stroke:none; fill:#838492" d="M 300 48L 300.8 48.8L 300 48z"/>
<path style="stroke:none; fill:#9696a8" d="M 331.2 48L 332 48.8L 331.2 48z"/>
<path style="stroke:none; fill:#c8c9d3" d="M 424.8 48L 425.6 48.8L 424.8 48z"/>
<path style="stroke:none; fill:#838492" d="M 63.2 48.8L 64 49.6L 63.2 48.8z"/>
<path style="stroke:none; fill:#c8c9d3" d="M 344 48.8L 344 51.2L 344.8 51.2C 344.599 50.0387 344.548 49.7986 344 48.8z"/>
<path style="stroke:none; fill:#b6b7c2" d="M 381.066 49.3334C 381.022 49.3777 380.978 50.2222 381.334 49.8666C 381.378 49.8222 381.422 48.9778 381.066 49.3334z"/>
<path style="stroke:none; fill:#9e9eaa" d="M 424.8 48.8L 424.8 51.2L 425.6 51.2C 425.399 50.0386 425.348 49.7987 424.8 48.8z"/>
<path style="stroke:none; fill:#696a7a" d="M 61.6 49.6L 62.4 50.4L 61.6 49.6z"/>
<path style="stroke:none; fill:#9e9eaa" d="M 116 49.6L 116 56L 116.8 56C 116.794 53.7316 116.878 51.6902 116 49.6z"/>
<path style="stroke:none; fill:#696a7a" d="M 225.6 49.6L 225.6 56L 226.4 56C 226.394 53.7316 226.478 51.6902 225.6 49.6M 413.066 50.1334C 413.022 50.1778 412.978 51.0222 413.334 50.6666C 413.378 50.6222 413.422 49.7778 413.066 50.1334z"/>
<path style="stroke:none; fill:#855254" d="M 31.2 50.4L 32 51.2L 31.2 50.4z"/>
<path style="stroke:none; fill:#b6b7c2" d="M 60.8 50.4L 61.6 51.2L 60.8 50.4z"/>
<path style="stroke:none; fill:#696a7a" d="M 128 50.4L 128 55.2L 128.8 55.2C 128.762 53.3978 128.699 52.0417 128 50.4z"/>
<path style="stroke:none; fill:#c8c9d3" d="M 381.066 50.9334C 381.022 50.9777 380.978 51.8222 381.334 51.4666C 381.378 51.4222 381.422 50.5778 381.066 50.9334z"/>
<path style="stroke:none; fill:#9696a8" d="M 59.2 51.2L 60 52L 59.2 51.2z"/>
<path style="stroke:none; fill:#696a7a" d="M 332 51.2L 332 54.4L 332.8 54.4C 332.661 53.0518 332.546 52.4049 332 51.2z"/>
<path style="stroke:none; fill:#9696a8" d="M 344 51.2L 344 54.4L 344.8 54.4C 344.661 53.0518 344.546 52.4048 344 51.2z"/>
<path style="stroke:none; fill:#9e9eaa" d="M 412.8 51.2L 412.8 54.4L 413.6 54.4C 413.461 53.0518 413.346 52.4049 412.8 51.2z"/>
<path style="stroke:none; fill:#696a7a" d="M 424.8 51.2L 424.8 94.4L 425.6 94.4L 425.6 65.6C 425.6 61.1047 426.551 55.3731 424.8 51.2z"/>
<path style="stroke:none; fill:#b85646" d="M 33.8666 52.5334C 33.8222 52.5778 33.7778 53.4222 34.1334 53.0666C 34.1778 53.0222 34.2222 52.1778 33.8666 52.5334z"/>
<path style="stroke:none; fill:#855254" d="M 34.6666 52.5334C 34.6222 52.5778 34.5778 53.4222 34.9334 53.0666C 34.9778 53.0222 35.0222 52.1778 34.6666 52.5334z"/>
<path style="stroke:none; fill:#696a7a" d="M 57.8666 52.5334C 57.8222 52.5778 57.7778 53.4222 58.1334 53.0666C 58.1778 53.0222 58.2222 52.1778 57.8666 52.5334M 299.466 52.5334C 299.422 52.5777 299.378 53.4222 299.734 53.0666C 299.778 53.0222 299.822 52.1778 299.466 52.5334z"/>
<path style="stroke:none; fill:#c8c9d3" d="M 368.266 52.5334C 368.222 52.5778 368.178 53.4222 368.534 53.0666C 368.578 53.0222 368.622 52.1778 368.266 52.5334M 181.6 52.8L 181.6 55.2L 182.4 55.2C 182.199 54.0387 182.148 53.7987 181.6 52.8z"/>
<path style="stroke:none; fill:#9e9eaa" d="M 59.2 53.6L 60 54.4L 59.2 53.6z"/>
<path style="stroke:none; fill:#c8c9d3" d="M 287.2 53.6L 287.2 56.8L 288 56.8C 287.861 55.4518 287.746 54.8049 287.2 53.6M 380.8 53.6L 380.8 56L 381.6 56C 381.399 54.8387 381.348 54.5987 380.8 53.6z"/>
<path style="stroke:none; fill:#855254" d="M 31.2 54.4L 32 55.2L 31.2 54.4z"/>
<path style="stroke:none; fill:#b6b7c2" d="M 60.8 54.4L 61.6 55.2L 60.8 54.4z"/>
<path style="stroke:none; fill:#838492" d="M 281.6 54.4L 282.4 55.2L 281.6 54.4z"/>
<path style="stroke:none; fill:#c8c9d3" d="M 344 54.4L 344 56.8L 344.8 56.8C 344.599 55.6387 344.548 55.3986 344 54.4z"/>
<path style="stroke:none; fill:#5b5d73" d="M 413.066 54.9334C 413.022 54.9778 412.978 55.8222 413.334 55.4666C 413.378 55.4222 413.422 54.5778 413.066 54.9334z"/>
<path style="stroke:none; fill:#696a7a" d="M 61.6 55.2L 62.4 56L 61.6 55.2z"/>
<path style="stroke:none; fill:#c8c9d3" d="M 62.4 55.2L 63.2 56L 62.4 55.2z"/>
<path style="stroke:none; fill:#838492" d="M 181.6 55.2L 181.6 57.6L 182.4 57.6C 182.199 56.4387 182.148 56.1987 181.6 55.2z"/>
<path style="stroke:none; fill:#c8c9d3" d="M 281.6 55.2L 282.4 56L 281.6 55.2z"/>
<path style="stroke:none; fill:#838492" d="M 63.2 56L 64 56.8L 63.2 56z"/>
<path style="stroke:none; fill:#c8c9d3" d="M 116.266 56.5334C 116.222 56.5778 116.178 57.4222 116.534 57.0666C 116.578 57.0222 116.622 56.1778 116.266 56.5334z"/>
<path style="stroke:none; fill:#696a7a" d="M 169.866 56.5334C 169.822 56.5778 169.778 57.4222 170.134 57.0666C 170.178 57.0222 170.222 56.1778 169.866 56.5334z"/>
<path style="stroke:none; fill:#c8c9d3" d="M 220.266 56.5334C 220.222 56.5778 220.178 57.4222 220.534 57.0666C 220.578 57.0222 220.622 56.1778 220.266 56.5334z"/>
<path style="stroke:none; fill:#9e9eaa" d="M 225.6 56L 225.6 58.4L 226.4 58.4C 226.199 57.2387 226.148 56.9986 225.6 56z"/>
<path style="stroke:none; fill:#838492" d="M 280.8 56L 281.6 56.8L 280.8 56z"/>
<path style="stroke:none; fill:#9696a8" d="M 300.266 56.5334C 300.222 56.5778 300.178 57.4222 300.534 57.0666C 300.578 57.0222 300.622 56.1778 300.266 56.5334z"/>
<path style="stroke:none; fill:#696a7a" d="M 369.066 56.5334C 369.022 56.5778 368.978 57.4222 369.334 57.0666C 369.378 57.0222 369.422 56.1778 369.066 56.5334z"/>
<path style="stroke:none; fill:#838492" d="M 380.8 56L 381.6 56.8L 380.8 56z"/>
<path style="stroke:none; fill:#855254" d="M 27.2 56.8L 28 57.6L 27.2 56.8z"/>
<path style="stroke:none; fill:#9e9eaa" d="M 64.8 56.8L 65.6 57.6L 64.8 56.8M 128.8 56.8L 129.6 57.6L 128.8 56.8z"/>
<path style="stroke:none; fill:#c8c9d3" d="M 207.2 56.8L 208 57.6L 207.2 56.8z"/>
<path style="stroke:none; fill:#838492" d="M 280 56.8L 280.8 57.6L 280 56.8z"/>
<path style="stroke:none; fill:#9e9eaa" d="M 331.2 56.8L 332 57.6L 331.2 56.8z"/>
<path style="stroke:none; fill:#c8c9d3" d="M 412 56.8L 412.8 57.6L 412 56.8M 66.4 57.6L 67.2 58.4L 66.4 57.6z"/>
<path style="stroke:none; fill:#838492" d="M 128.8 57.6L 129.6 58.4L 128.8 57.6z"/>
<path style="stroke:none; fill:#b6b7c2" d="M 169.866 58.1334C 169.822 58.1778 169.778 59.0222 170.134 58.6666C 170.178 58.6222 170.222 57.7778 169.866 58.1334z"/>
<path style="stroke:none; fill:#9696a8" d="M 207.2 57.6L 208 58.4L 207.2 57.6z"/>
<path style="stroke:none; fill:#9e9eaa" d="M 279.2 57.6L 280 58.4L 279.2 57.6z"/>
<path style="stroke:none; fill:#838492" d="M 288 57.6L 288 60L 288.8 60C 288.599 58.8387 288.548 58.5987 288 57.6z"/>
<path style="stroke:none; fill:#b6b7c2" d="M 368.8 57.6L 368.8 60L 369.6 60C 369.399 58.8387 369.348 58.5987 368.8 57.6z"/>
<path style="stroke:none; fill:#9696a8" d="M 412 57.6L 412.8 58.4L 412 57.6z"/>
<path style="stroke:none; fill:#696a7a" d="M 67.2 58.4L 68 59.2L 67.2 58.4z"/>
<path style="stroke:none; fill:#c8c9d3" d="M 182.4 58.4L 183.2 59.2L 182.4 58.4z"/>
<path style="stroke:none; fill:#9e9eaa" d="M 239.2 60C 251.33 57.1122 265.948 59.2 278.4 59.2C 270.569 55.9138 257.307 58.4 248.8 58.4C 245.688 58.4 241.375 57.5105 239.2 60M 343.466 58.9334C 343.422 58.9778 343.378 59.8222 343.734 59.4666C 343.778 59.4222 343.822 58.5778 343.466 58.9334M 381.6 58.4L 382.4 59.2L 381.6 58.4z"/>
<path style="stroke:none; fill:#5b5d73" d="M 46.1334 59.4666C 45.7778 59.8222 46.6222 59.7778 46.6666 59.7334C 47.0222 59.3778 46.1778 59.4222 46.1334 59.4666z"/>
<path style="stroke:none; fill:#838492" d="M 68.8 59.2L 69.6 60L 68.8 59.2z"/>
<path style="stroke:none; fill:#9696a8" d="M 116.8 59.2L 117.6 60L 116.8 59.2z"/>
<path style="stroke:none; fill:#9e9eaa" d="M 129.6 59.2L 130.4 60L 129.6 59.2z"/>
<path style="stroke:none; fill:#696a7a" d="M 182.4 59.2L 183.2 60L 182.4 59.2M 219.2 59.2L 220 60L 219.2 59.2z"/>
<path style="stroke:none; fill:#838492" d="M 300.8 59.2L 301.6 60L 300.8 59.2z"/>
<path style="stroke:none; fill:#9696a8" d="M 330.4 59.2L 331.2 60L 330.4 59.2z"/>
<path style="stroke:none; fill:#b6b7c2" d="M 411.2 59.2L 412 60L 411.2 59.2z"/>
<path style="stroke:none; fill:#855254" d="M 21.6 60L 22.4 60.8L 21.6 60z"/>
<path style="stroke:none; fill:#5579b9" d="M 17.6 75.2L 17.6 76.8C 24.8725 80.8336 37.8855 92.7712 46.4 92.3056C 55.5641 91.8048 67.0046 80.8216 75.2 76.8L 75.2 75.2C 66.8522 71.6029 55.4438 60.3997 46.4 60.1932C 37.4395 59.9886 25.6201 71.4511 17.6 75.2z"/>
<path style="stroke:none; fill:#b6b7c2" d="M 70.4 60L 71.2 60.8L 70.4 60z"/>
<path style="stroke:none; fill:#838492" d="M 206.4 60L 207.2 60.8L 206.4 60z"/>
<path style="stroke:none; fill:#9e9eaa" d="M 219.2 60L 220 60.8L 219.2 60z"/>
<path style="stroke:none; fill:#9696a8" d="M 226.4 60L 227.2 60.8L 226.4 60z"/>
<path style="stroke:none; fill:#b6b7c2" d="M 382.4 60L 383.2 60.8L 382.4 60z"/>
<path style="stroke:none; fill:#696a7a" d="M 411.2 60L 412 60.8L 411.2 60z"/>
<path style="stroke:none; fill:#b85646" d="M 20 60.8L 20.8 61.6L 20 60.8z"/>
<path style="stroke:none; fill:#c8c9d3" d="M 72 60.8L 72.8 61.6L 72 60.8z"/>
<path style="stroke:none; fill:#9e9eaa" d="M 130.4 60.8L 131.2 61.6L 130.4 60.8z"/>
<path style="stroke:none; fill:#838492" d="M 170.4 60.8L 171.2 61.6L 170.4 60.8z"/>
<path style="stroke:none; fill:#9e9eaa" d="M 183.2 60.8L 184 61.6L 183.2 60.8z"/>
<path style="stroke:none; fill:#c8c9d3" d="M 226.4 60.8L 227.2 61.6L 226.4 60.8z"/>
<path style="stroke:none; fill:#9e9eaa" d="M 240 60.8L 240.8 61.6L 240 60.8z"/>
<path style="stroke:none; fill:#838492" d="M 301.6 60.8L 302.4 61.6L 301.6 60.8z"/>
<path style="stroke:none; fill:#9696a8" d="M 329.6 60.8L 330.4 61.6L 329.6 60.8z"/>
<path style="stroke:none; fill:#838492" d="M 369.6 60.8L 370.4 61.6L 369.6 60.8z"/>
<path style="stroke:none; fill:#b6b7c2" d="M 410.4 60.8L 411.2 61.6L 410.4 60.8z"/>
<path style="stroke:none; fill:#696a7a" d="M 72.8 61.6L 73.6 62.4L 72.8 61.6M 117.6 61.6L 118.4 62.4L 117.6 61.6z"/>
<path style="stroke:none; fill:#b6b7c2" d="M 170.4 61.6L 171.2 62.4L 170.4 61.6z"/>
<path style="stroke:none; fill:#9696a8" d="M 205.6 61.6L 206.4 62.4L 205.6 61.6M 288.8 61.6L 289.6 62.4L 288.8 61.6z"/>
<path style="stroke:none; fill:#c8c9d3" d="M 302.4 61.6L 303.2 62.4L 302.4 61.6z"/>
<path style="stroke:none; fill:#838492" d="M 342.4 61.6L 343.2 62.4L 342.4 61.6z"/>
<path style="stroke:none; fill:#b6b7c2" d="M 369.6 61.6L 370.4 62.4L 369.6 61.6z"/>
<path style="stroke:none; fill:#9e9eaa" d="M 383.2 61.6L 384 62.4L 383.2 61.6z"/>
<path style="stroke:none; fill:#855254" d="M 17.6 62.4L 18.4 63.2L 17.6 62.4z"/>
<path style="stroke:none; fill:#9696a8" d="M 74.4 62.4L 75.2 63.2L 74.4 62.4z"/>
<path style="stroke:none; fill:#b6b7c2" d="M 117.6 62.4L 118.4 63.2L 117.6 62.4z"/>
<path style="stroke:none; fill:#9696a8" d="M 184 62.4L 184.8 63.2L 184 62.4M 218.4 62.4L 219.2 63.2L 218.4 62.4z"/>
<path style="stroke:none; fill:#838492" d="M 227.2 62.4L 228 63.2L 227.2 62.4z"/>
<path style="stroke:none; fill:#696a7a" d="M 240.8 62.4L 241.6 63.2L 240.8 62.4z"/>
<path style="stroke:none; fill:#c8c9d3" d="M 342.4 62.4L 343.2 63.2L 342.4 62.4z"/>
<path style="stroke:none; fill:#838492" d="M 409.6 62.4L 410.4 63.2L 409.6 62.4z"/>
<path style="stroke:none; fill:#855254" d="M 16 63.2L 16.8 64L 16 63.2z"/>
<path style="stroke:none; fill:#b6b7c2" d="M 76 63.2L 76.8 64L 76 63.2z"/>
<path style="stroke:none; fill:#838492" d="M 132 63.2L 132.8 64L 132 63.2z"/>
<path style="stroke:none; fill:#696a7a" d="M 171.2 63.2L 172 64L 171.2 63.2z"/>
<path style="stroke:none; fill:#c8c9d3" d="M 184.8 63.2L 185.6 64L 184.8 63.2z"/>
<path style="stroke:none; fill:#696a7a" d="M 204.8 63.2L 205.6 64L 204.8 63.2z"/>
<path style="stroke:none; fill:#838492" d="M 241.6 63.2L 242.4 64L 241.6 63.2M 303.2 63.2L 304 64L 303.2 63.2M 328 63.2L 328.8 64L 328 63.2M 370.4 63.2L 371.2 64L 370.4 63.2z"/>
<path style="stroke:none; fill:#b6b7c2" d="M 408.8 63.2L 409.6 64L 408.8 63.2z"/>
<path style="stroke:none; fill:#c8c9d3" d="M 77.6 64L 78.4 64.8L 77.6 64z"/>
<path style="stroke:none; fill:#838492" d="M 118.4 64L 119.2 64.8L 118.4 64M 132.8 64L 133.6 64.8L 132.8 64z"/>
<path style="stroke:none; fill:#b6b7c2" d="M 171.2 64L 172 64.8L 171.2 64z"/>
<path style="stroke:none; fill:#9e9eaa" d="M 204 64L 204.8 64.8L 204 64z"/>
<path style="stroke:none; fill:#696a7a" d="M 228 64L 228.8 64.8L 228 64z"/>
<path style="stroke:none; fill:#838492" d="M 242.4 64L 243.2 64.8L 242.4 64z"/>
<path style="stroke:none; fill:#9e9eaa" d="M 289.6 64L 290.4 64.8L 289.6 64z"/>
<path style="stroke:none; fill:#838492" d="M 304 64L 304.8 64.8L 304 64z"/>
<path style="stroke:none; fill:#9e9eaa" d="M 327.2 64L 328 64.8L 327.2 64M 341.6 64L 342.4 64.8L 341.6 64z"/>
<path style="stroke:none; fill:#c8c9d3" d="M 408 64L 408.8 64.8L 408 64z"/>
<path style="stroke:none; fill:#838492" d="M 78.4 64.8L 79.2 65.6L 78.4 64.8M 133.6 64.8L 134.4 65.6L 133.6 64.8z"/>
<path style="stroke:none; fill:#b6b7c2" d="M 203.2 64.8L 204 65.6L 203.2 64.8z"/>
<path style="stroke:none; fill:#9e9eaa" d="M 217.6 64.8L 218.4 65.6L 217.6 64.8z"/>
<path style="stroke:none; fill:#c8c9d3" d="M 228 64.8L 228.8 65.6L 228 64.8z"/>
<path style="stroke:none; fill:#838492" d="M 243.2 64.8L 244 65.6L 243.2 64.8M 304.8 64.8L 305.6 65.6L 304.8 64.8z"/>
<path style="stroke:none; fill:#9e9eaa" d="M 326.4 64.8L 327.2 65.6L 326.4 64.8z"/>
<path style="stroke:none; fill:#696a7a" d="M 371.2 64.8L 372 65.6L 371.2 64.8z"/>
<path style="stroke:none; fill:#b6b7c2" d="M 407.2 64.8L 408 65.6L 407.2 64.8z"/>
<path style="stroke:none; fill:#855254" d="M 11.7334 65.8666C 11.3778 66.2222 12.2222 66.1778 12.2666 66.1334C 12.6222 65.7778 11.7778 65.8222 11.7334 65.8666z"/>
<path style="stroke:none; fill:#9e9eaa" d="M 80 65.6L 80.8 66.4L 80 65.6z"/>
<path style="stroke:none; fill:#838492" d="M 119.2 65.6L 120 66.4L 119.2 65.6z"/>
<path style="stroke:none; fill:#696a7a" d="M 134.4 65.6L 135.2 66.4L 134.4 65.6z"/>
<path style="stroke:none; fill:#9696a8" d="M 172 65.6L 172.8 66.4L 172 65.6z"/>
<path style="stroke:none; fill:#838492" d="M 186.4 65.6L 187.2 66.4L 186.4 65.6z"/>
<path style="stroke:none; fill:#b6b7c2" d="M 202.4 65.6L 203.2 66.4L 202.4 65.6z"/>
<path style="stroke:none; fill:#696a7a" d="M 228.8 65.6L 229.6 66.4L 228.8 65.6M 244 65.6L 244.8 66.4L 244 65.6z"/>
<path style="stroke:none; fill:#9696a8" d="M 290.4 65.6L 291.2 66.4L 290.4 65.6z"/>
<path style="stroke:none; fill:#838492" d="M 305.6 65.6L 306.4 66.4L 305.6 65.6M 325.6 65.6L 326.4 66.4L 325.6 65.6M 340.8 65.6L 341.6 66.4L 340.8 65.6z"/>
<path style="stroke:none; fill:#9e9eaa" d="M 406.4 65.6L 407.2 66.4L 406.4 65.6z"/>
<path style="stroke:none; fill:#b6b7c2" d="M 81.6 66.4L 82.4 67.2L 81.6 66.4z"/>
<path style="stroke:none; fill:#c8c9d3" d="M 136 66.4L 136.8 67.2L 136 66.4M 153.6 66.4L 154.4 67.2L 153.6 66.4z"/>
<path style="stroke:none; fill:#696a7a" d="M 154.4 66.4L 154.4 67.2L 158.4 67.2C 156.985 66.5769 155.971 66.4701 154.4 66.4z"/>
<path style="stroke:none; fill:#c8c9d3" d="M 158.4 66.4L 159.2 67.2L 158.4 66.4z"/>
<path style="stroke:none; fill:#b6b7c2" d="M 201.6 66.4L 202.4 67.2L 201.6 66.4z"/>
<path style="stroke:none; fill:#9696a8" d="M 216.8 66.4L 217.6 67.2L 216.8 66.4z"/>
<path style="stroke:none; fill:#c8c9d3" d="M 228.8 66.4L 229.6 67.2L 228.8 66.4z"/>
<path style="stroke:none; fill:#b6b7c2" d="M 245.6 66.4L 246.4 67.2L 245.6 66.4z"/>
<path style="stroke:none; fill:#c8c9d3" d="M 264 66.4L 264.8 67.2L 264 66.4z"/>
<path style="stroke:none; fill:#838492" d="M 264.8 66.4L 265.6 67.2L 264.8 66.4z"/>
<path style="stroke:none; fill:#696a7a" d="M 268 66.4L 268.8 67.2L 268 66.4z"/>
<path style="stroke:none; fill:#b6b7c2" d="M 268.8 66.4L 269.6 67.2L 268.8 66.4z"/>
<path style="stroke:none; fill:#c8c9d3" d="M 307.2 66.4L 308 67.2L 307.2 66.4z"/>
<path style="stroke:none; fill:#696a7a" d="M 372 66.4L 372.8 67.2L 372 66.4z"/>
<path style="stroke:none; fill:#9e9eaa" d="M 388 66.4L 388.8 67.2L 388 66.4z"/>
<path style="stroke:none; fill:#838492" d="M 405.6 66.4L 406.4 67.2L 405.6 66.4z"/>
<path style="stroke:none; fill:#696a7a" d="M 82.4 67.2L 83.2 68L 82.4 67.2z"/>
<path style="stroke:none; fill:#c8c9d3" d="M 83.2 67.2L 84 68L 83.2 67.2z"/>
<path style="stroke:none; fill:#9e9eaa" d="M 120 67.2L 120.8 68L 120 67.2z"/>
<path style="stroke:none; fill:#696a7a" d="M 136.8 67.2L 137.6 68L 136.8 67.2z"/>
<path style="stroke:none; fill:#c8c9d3" d="M 152 67.2L 152.8 68L 152 67.2z"/>
<path style="stroke:none; fill:#696a7a" d="M 152.8 67.2L 153.6 68L 152.8 67.2M 159.2 67.2L 160 68L 159.2 67.2z"/>
<path style="stroke:none; fill:#9696a8" d="M 172.8 67.2L 173.6 68L 172.8 67.2z"/>
<path style="stroke:none; fill:#b6b7c2" d="M 188.8 67.2L 189.6 68L 188.8 67.2z"/>
<path style="stroke:none; fill:#696a7a" d="M 200.8 67.2L 201.6 68L 200.8 67.2z"/>
<path style="stroke:none; fill:#838492" d="M 229.6 67.2L 230.4 68L 229.6 67.2z"/>
<path style="stroke:none; fill:#696a7a" d="M 246.4 67.2L 247.2 68L 246.4 67.2z"/>
<path style="stroke:none; fill:#c8c9d3" d="M 247.2 67.2L 248 68L 247.2 67.2M 262.4 67.2L 263.2 68L 262.4 67.2z"/>
<path style="stroke:none; fill:#696a7a" d="M 263.2 67.2L 264 68L 263.2 67.2z"/>
<path style="stroke:none; fill:#c8c9d3" d="M 270.4 67.2L 271.2 68L 270.4 67.2z"/>
<path style="stroke:none; fill:#b6b7c2" d="M 291.2 67.2L 292 68L 291.2 67.2z"/>
<path style="stroke:none; fill:#838492" d="M 308 67.2L 308.8 68L 308 67.2M 323.2 67.2L 324 68L 323.2 67.2z"/>
<path style="stroke:none; fill:#9e9eaa" d="M 340 67.2L 340.8 68L 340 67.2z"/>
<path style="stroke:none; fill:#696a7a" d="M 388.8 67.2L 389.6 68L 388.8 67.2z"/>
<path style="stroke:none; fill:#c8c9d3" d="M 389.6 67.2L 390.4 68L 389.6 67.2z"/>
<path style="stroke:none; fill:#9e9eaa" d="M 404 67.2L 404.8 68L 404 67.2z"/>
<path style="stroke:none; fill:#838492" d="M 84 68L 84.8 68.8L 84 68z"/>
<path style="stroke:none; fill:#696a7a" d="M 138.4 68L 139.2 68.8L 138.4 68z"/>
<path style="stroke:none; fill:#b6b7c2" d="M 139.2 68L 140 68.8L 139.2 68M 150.4 68L 151.2 68.8L 150.4 68z"/>
<path style="stroke:none; fill:#696a7a" d="M 189.6 68L 190.4 68.8L 189.6 68z"/>
<path style="stroke:none; fill:#b6b7c2" d="M 190.4 68L 191.2 68.8L 190.4 68z"/>
<path style="stroke:none; fill:#9e9eaa" d="M 199.2 68L 200 68.8L 199.2 68z"/>
<path style="stroke:none; fill:#9696a8" d="M 216 68L 216.8 68.8L 216 68z"/>
<path style="stroke:none; fill:#9e9eaa" d="M 248.8 68L 249.6 68.8L 248.8 68z"/>
<path style="stroke:none; fill:#b6b7c2" d="M 260.8 68L 261.6 68.8L 260.8 68M 271.2 68L 272 68.8L 271.2 68z"/>
<path style="stroke:none; fill:#838492" d="M 309.6 68L 310.4 68.8L 309.6 68z"/>
<path style="stroke:none; fill:#c8c9d3" d="M 310.4 68L 311.2 68.8L 310.4 68z"/>
<path style="stroke:none; fill:#838492" d="M 321.6 68L 322.4 68.8L 321.6 68z"/>
<path style="stroke:none; fill:#9696a8" d="M 372.8 68L 373.6 68.8L 372.8 68z"/>
<path style="stroke:none; fill:#696a7a" d="M 390.4 68L 391.2 68.8L 390.4 68z"/>
<path style="stroke:none; fill:#b6b7c2" d="M 391.2 68L 392 68.8L 391.2 68z"/>
<path style="stroke:none; fill:#9e9eaa" d="M 402.4 68L 403.2 68.8L 402.4 68M 85.6 68.8L 86.4 69.6L 85.6 68.8z"/>
<path style="stroke:none; fill:#c8c9d3" d="M 120.8 68.8L 121.6 69.6L 120.8 68.8z"/>
<path style="stroke:none; fill:#696a7a" d="M 140.8 68.8L 141.6 69.6L 140.8 68.8z"/>
<path style="stroke:none; fill:#b6b7c2" d="M 141.6 68.8L 141.6 69.6L 144 69.6C 143.002 69.0522 142.762 69.001 141.6 68.8z"/>
<path style="stroke:none; fill:#c8c9d3" d="M 146.4 68.8L 146.4 69.6L 148.8 69.6C 147.802 69.0522 147.562 69.001 146.4 68.8z"/>
<path style="stroke:none; fill:#9e9eaa" d="M 173.6 68.8L 174.4 69.6L 173.6 68.8z"/>
<path style="stroke:none; fill:#838492" d="M 192 68.8L 192.8 69.6L 192 68.8z"/>
<path style="stroke:none; fill:#c8c9d3" d="M 192.8 68.8L 192.8 69.6L 196.8 69.6C 195.385 68.9769 194.371 68.8701 192.8 68.8z"/>
<path style="stroke:none; fill:#9e9eaa" d="M 196.8 68.8L 197.6 69.6L 196.8 68.8z"/>
<path style="stroke:none; fill:#696a7a" d="M 197.6 68.8L 198.4 69.6L 197.6 68.8z"/>
<path style="stroke:none; fill:#b6b7c2" d="M 230.4 68.8L 231.2 69.6L 230.4 68.8M 251.734 69.0666C 251.378 69.4222 252.222 69.3778 252.266 69.3334C 252.622 68.9778 251.778 69.0222 251.734 69.0666z"/>
<path style="stroke:none; fill:#c8c9d3" d="M 253.334 69.0666C 252.978 69.4222 253.822 69.3778 253.866 69.3334C 254.222 68.9778 253.378 69.0222 253.334 69.0666M 256 68.8L 256 69.6L 258.4 69.6C 257.402 69.0522 257.161 69.001 256 68.8z"/>
<path style="stroke:none; fill:#838492" d="M 258.4 68.8L 259.2 69.6L 258.4 68.8z"/>
<path style="stroke:none; fill:#9e9eaa" d="M 312.534 69.0666C 312.178 69.4222 313.022 69.3778 313.066 69.3334C 313.422 68.9778 312.578 69.0222 312.534 69.0666z"/>
<path style="stroke:none; fill:#c8c9d3" d="M 314.134 69.0666C 313.778 69.4222 314.622 69.3778 314.666 69.3334C 315.022 68.9778 314.178 69.0222 314.134 69.0666M 316.8 68.8L 316.8 69.6L 319.2 69.6C 318.202 69.0522 317.961 69.001 316.8 68.8z"/>
<path style="stroke:none; fill:#838492" d="M 319.2 68.8L 320 69.6L 319.2 68.8z"/>
<path style="stroke:none; fill:#c8c9d3" d="M 339.2 68.8L 340 69.6L 339.2 68.8z"/>
<path style="stroke:none; fill:#9696a8" d="M 393.334 69.0666C 392.978 69.4222 393.822 69.3778 393.866 69.3334C 394.222 68.9778 393.378 69.0222 393.334 69.0666z"/>
<path style="stroke:none; fill:#c8c9d3" d="M 394.934 69.0666C 394.578 69.4222 395.422 69.3778 395.466 69.3334C 395.822 68.9778 394.978 69.0222 394.934 69.0666M 397.6 68.8L 397.6 69.6L 400 69.6C 399.002 69.0522 398.762 69.001 397.6 68.8z"/>
<path style="stroke:none; fill:#838492" d="M 400 68.8L 400.8 69.6L 400 68.8z"/>
<path style="stroke:none; fill:#c8c9d3" d="M 87.2 69.6L 88 70.4L 87.2 69.6z"/>
<path style="stroke:none; fill:#9696a8" d="M 121.6 69.6L 122.4 70.4L 121.6 69.6z"/>
<path style="stroke:none; fill:#9e9eaa" d="M 161.6 69.6L 162.4 70.4L 161.6 69.6z"/>
<path style="stroke:none; fill:#696a7a" d="M 174.4 69.6L 175.2 70.4L 174.4 69.6z"/>
<path style="stroke:none; fill:#c8c9d3" d="M 215.2 69.6L 216 70.4L 215.2 69.6z"/>
<path style="stroke:none; fill:#838492" d="M 231.2 69.6L 232 70.4L 231.2 69.6M 272 69.6L 272.8 70.4L 272 69.6z"/>
<path style="stroke:none; fill:#9696a8" d="M 292.8 69.6L 293.6 70.4L 292.8 69.6z"/>
<path style="stroke:none; fill:#838492" d="M 338.4 69.6L 339.2 70.4L 338.4 69.6z"/>
<path style="stroke:none; fill:#696a7a" d="M 88 70.4L 88.8 71.2L 88 70.4M 122.4 70.4L 123.2 71.2L 122.4 70.4z"/>
<path style="stroke:none; fill:#838492" d="M 214.4 70.4L 215.2 71.2L 214.4 70.4z"/>
<path style="stroke:none; fill:#696a7a" d="M 293.6 70.4L 294.4 71.2L 293.6 70.4z"/>
<path style="stroke:none; fill:#9696a8" d="M 374.4 70.4L 375.2 71.2L 374.4 70.4M 89.6 71.2L 90.4 72L 89.6 71.2z"/>
<path style="stroke:none; fill:#b6b7c2" d="M 175.2 71.2L 176 72L 175.2 71.2z"/>
<path style="stroke:none; fill:#c8c9d3" d="M 272.8 71.2L 272.8 73.6L 273.6 73.6C 273.399 72.4387 273.348 72.1986 272.8 71.2z"/>
<path style="stroke:none; fill:#838492" d="M 375.2 71.2L 376 72L 375.2 71.2M 90.4 72L 91.2 72.8L 90.4 72z"/>
<path style="stroke:none; fill:#c8c9d3" d="M 162.666 72.5334C 162.622 72.5778 162.578 73.4222 162.934 73.0666C 162.978 73.0222 163.022 72.1778 162.666 72.5334z"/>
<path style="stroke:none; fill:#838492" d="M 176 72L 176.8 72.8L 176 72z"/>
<path style="stroke:none; fill:#9e9eaa" d="M 91.2 72.8L 92 73.6L 91.2 72.8z"/>
<path style="stroke:none; fill:#696a7a" d="M 176.8 72.8L 177.6 73.6L 176.8 72.8z"/>
<path style="stroke:none; fill:#b6b7c2" d="M 212 73.6L 212.8 74.4L 212 73.6z"/>
<path style="stroke:none; fill:#9696a8" d="M 92 74.4L 92 77.6L 92.8 77.6C 92.6608 76.2518 92.5464 75.6049 92 74.4z"/>
<path style="stroke:none; fill:#696a7a" d="M 161.6 74.4L 162.4 75.2L 161.6 74.4z"/>
<path style="stroke:none; fill:#b6b7c2" d="M 211.2 74.4L 212 75.2L 211.2 74.4z"/>
<path style="stroke:none; fill:#838492" d="M 378.4 74.4L 379.2 75.2L 378.4 74.4M 127.2 75.2L 128 76L 127.2 75.2z"/>
<path style="stroke:none; fill:#c8c9d3" d="M 161.6 75.2L 162.4 76L 161.6 75.2z"/>
<path style="stroke:none; fill:#696a7a" d="M 179.2 75.2L 180 76L 179.2 75.2z"/>
<path style="stroke:none; fill:#c8c9d3" d="M 210.4 75.2L 211.2 76L 210.4 75.2z"/>
<path style="stroke:none; fill:#838492" d="M 236.8 75.2L 237.6 76L 236.8 75.2z"/>
<path style="stroke:none; fill:#b6b7c2" d="M 272 75.2L 272.8 76L 272 75.2z"/>
<path style="stroke:none; fill:#696a7a" d="M 298.4 75.2L 299.2 76L 298.4 75.2z"/>
<path style="stroke:none; fill:#9696a8" d="M 379.2 75.2L 380 76L 379.2 75.2z"/>
<path style="stroke:none; fill:#9e9eaa" d="M 128 76L 128.8 76.8L 128 76z"/>
<path style="stroke:none; fill:#838492" d="M 160.8 76L 161.6 76.8L 160.8 76M 180 76L 180.8 76.8L 180 76z"/>
<path style="stroke:none; fill:#b6b7c2" d="M 237.6 76L 238.4 76.8L 237.6 76z"/>
<path style="stroke:none; fill:#838492" d="M 271.2 76L 272 76.8L 271.2 76z"/>
<path style="stroke:none; fill:#9e9eaa" d="M 299.2 76L 300 76.8L 299.2 76z"/>
<path style="stroke:none; fill:#9696a8" d="M 332 76L 332.8 76.8L 332 76z"/>
<path style="stroke:none; fill:#b6b7c2" d="M 380 76L 380.8 76.8L 380 76M 0.266666 77.3334C 0.222218 77.3778 0.177782 78.2222 0.533334 77.8666C 0.577773 77.8222 0.622229 76.9778 0.266666 77.3334z"/>
<path style="stroke:none; fill:#696a7a" d="M 129.6 76.8L 130.4 77.6L 129.6 76.8z"/>
<path style="stroke:none; fill:#838492" d="M 160 76.8L 160.8 77.6L 160 76.8z"/>
<path style="stroke:none; fill:#c8c9d3" d="M 180.8 76.8L 181.6 77.6L 180.8 76.8z"/>
<path style="stroke:none; fill:#838492" d="M 208 76.8L 208.8 77.6L 208 76.8M 239.2 76.8L 240 77.6L 239.2 76.8M 270.4 76.8L 271.2 77.6L 270.4 76.8z"/>
<path style="stroke:none; fill:#c8c9d3" d="M 331.2 76.8L 332 77.6L 331.2 76.8z"/>
<path style="stroke:none; fill:#838492" d="M 350.4 76.8L 351.2 77.6L 350.4 76.8M 381.6 76.8L 382.4 77.6L 381.6 76.8z"/>
<path style="stroke:none; fill:#9e9eaa" d="M 412 76.8C 413.414 82.7384 412.8 89.1256 412.8 95.2L 413.6 95.2C 413.6 90.628 415.568 79.918 412 76.8z"/>
<path style="stroke:none; fill:#b6b7c2" d="M 130.4 77.6L 131.2 78.4L 130.4 77.6M 159.2 77.6L 160 78.4L 159.2 77.6z"/>
<path style="stroke:none; fill:#838492" d="M 182.4 77.6L 183.2 78.4L 182.4 77.6z"/>
<path style="stroke:none; fill:#b6b7c2" d="M 207.2 77.6L 208 78.4L 207.2 77.6z"/>
<path style="stroke:none; fill:#c8c9d3" d="M 240 77.6L 240.8 78.4L 240 77.6z"/>
<path style="stroke:none; fill:#b6b7c2" d="M 269.6 77.6L 270.4 78.4L 269.6 77.6z"/>
<path style="stroke:none; fill:#9e9eaa" d="M 301.6 77.6L 302.4 78.4L 301.6 77.6M 329.6 77.6L 330.4 78.4L 329.6 77.6z"/>
<path style="stroke:none; fill:#b6b7c2" d="M 350.4 77.6L 351.2 78.4L 350.4 77.6z"/>
<path style="stroke:none; fill:#838492" d="M 361.6 77.6L 362.4 78.4L 361.6 77.6z"/>
<path style="stroke:none; fill:#c8c9d3" d="M 382.4 77.6L 383.2 78.4L 382.4 77.6z"/>
<path style="stroke:none; fill:#838492" d="M 410.4 77.6L 411.2 78.4L 410.4 77.6z"/>
<path style="stroke:none; fill:#ffffff" d="M 0 78.4L 0 105.6L 44.8 105.6L 44.8 104.8C 29.9144 98.3856 12.593 88.5904 0 78.4z"/>
<path style="stroke:none; fill:#696a7a" d="M 91.2 78.4L 92 79.2L 91.2 78.4z"/>
<path style="stroke:none; fill:#b6b7c2" d="M 132 78.4L 132.8 79.2L 132 78.4M 157.6 78.4L 158.4 79.2L 157.6 78.4z"/>
<path style="stroke:none; fill:#c8c9d3" d="M 183.2 78.4L 184 79.2L 183.2 78.4z"/>
<path style="stroke:none; fill:#9e9eaa" d="M 205.6 78.4L 206.4 79.2L 205.6 78.4z"/>
<path style="stroke:none; fill:#b6b7c2" d="M 241.6 78.4L 242.4 79.2L 241.6 78.4M 268 78.4L 268.8 79.2L 268 78.4z"/>
<path style="stroke:none; fill:#9696a8" d="M 303.2 78.4L 304 79.2L 303.2 78.4M 328 78.4L 328.8 79.2L 328 78.4z"/>
<path style="stroke:none; fill:#b6b7c2" d="M 384 78.4L 384.8 79.2L 384 78.4z"/>
<path style="stroke:none; fill:#838492" d="M 408.8 78.4L 409.6 79.2L 408.8 78.4z"/>
<path style="stroke:none; fill:#c8c9d3" d="M 0.8 79.2L 1.6 80L 0.8 79.2z"/>
<path style="stroke:none; fill:#b6b7c2" d="M 133.6 79.2L 134.4 80L 133.6 79.2M 156 79.2L 156.8 80L 156 79.2z"/>
<path style="stroke:none; fill:#c8c9d3" d="M 184.8 79.2L 185.6 80L 184.8 79.2z"/>
<path style="stroke:none; fill:#9696a8" d="M 204 79.2L 204.8 80L 204 79.2z"/>
<path style="stroke:none; fill:#c8c9d3" d="M 243.2 79.2L 244 80L 243.2 79.2z"/>
<path style="stroke:none; fill:#838492" d="M 244 79.2L 244.8 80L 244 79.2z"/>
<path style="stroke:none; fill:#696a7a" d="M 265.6 79.2L 266.4 80L 265.6 79.2z"/>
<path style="stroke:none; fill:#c8c9d3" d="M 266.4 79.2L 267.2 80L 266.4 79.2z"/>
<path style="stroke:none; fill:#9e9eaa" d="M 304.8 79.2L 305.6 80L 304.8 79.2M 326.4 79.2L 327.2 80L 326.4 79.2M 360.8 79.2L 361.6 80L 360.8 79.2z"/>
<path style="stroke:none; fill:#b6b7c2" d="M 385.6 79.2L 386.4 80L 385.6 79.2z"/>
<path style="stroke:none; fill:#9696a8" d="M 407.2 79.2L 408 80L 407.2 79.2z"/>
<path style="stroke:none; fill:#b6b7c2" d="M 1.6 80L 2.4 80.8L 1.6 80z"/>
<path style="stroke:none; fill:#9e9eaa" d="M 136 80L 136.8 80.8L 136 80z"/>
<path style="stroke:none; fill:#696a7a" d="M 136.8 80L 137.6 80.8L 136.8 80M 152.8 80L 153.6 80.8L 152.8 80z"/>
<path style="stroke:none; fill:#9e9eaa" d="M 153.6 80L 154.4 80.8L 153.6 80z"/>
<path style="stroke:none; fill:#9696a8" d="M 187.2 80L 188 80.8L 187.2 80z"/>
<path style="stroke:none; fill:#838492" d="M 201.6 80L 202.4 80.8L 201.6 80z"/>
<path style="stroke:none; fill:#b6b7c2" d="M 202.4 80L 203.2 80.8L 202.4 80M 245.6 80L 246.4 80.8L 245.6 80z"/>
<path style="stroke:none; fill:#838492" d="M 246.4 80L 247.2 80.8L 246.4 80M 263.2 80L 264 80.8L 263.2 80z"/>
<path style="stroke:none; fill:#b6b7c2" d="M 264 80L 264.8 80.8L 264 80z"/>
<path style="stroke:none; fill:#9696a8" d="M 307.2 80L 308 80.8L 307.2 80z"/>
<path style="stroke:none; fill:#838492" d="M 324 80L 324.8 80.8L 324 80z"/>
<path style="stroke:none; fill:#9e9eaa" d="M 360 80L 360.8 80.8L 360 80M 388 80L 388.8 80.8L 388 80z"/>
<path style="stroke:none; fill:#696a7a" d="M 388.8 80L 389.6 80.8L 388.8 80z"/>
<path style="stroke:none; fill:#838492" d="M 404.8 80L 405.6 80.8L 404.8 80z"/>
<path style="stroke:none; fill:#c8c9d3" d="M 405.6 80L 406.4 80.8L 405.6 80z"/>
<path style="stroke:none; fill:#696a7a" d="M 3.2 80.8L 4 81.6L 3.2 80.8z"/>
<path style="stroke:none; fill:#838492" d="M 88.8 80.8L 89.6 81.6L 88.8 80.8z"/>
<path style="stroke:none; fill:#696a7a" d="M 139.2 80.8L 139.2 81.6L 141.6 81.6C 140.602 81.052 140.362 81.0008 139.2 80.8z"/>
<path style="stroke:none; fill:#838492" d="M 148.8 80.8L 148.8 81.6L 151.2 81.6C 150.202 81.052 149.962 81.0008 148.8 80.8M 190.134 81.0664C 189.778 81.4224 190.622 81.3776 190.666 81.3336C 191.022 80.9776 190.178 81.0224 190.134 81.0664z"/>
<path style="stroke:none; fill:#5b5d73" d="M 191.734 81.0664C 191.378 81.4224 192.222 81.3776 192.266 81.3336C 192.622 80.9776 191.778 81.0224 191.734 81.0664z"/>
<path style="stroke:none; fill:#696a7a" d="M 197.6 80.8L 197.6 81.6L 200 81.6C 199.002 81.052 198.762 81.0008 197.6 80.8z"/>
<path style="stroke:none; fill:#c8c9d3" d="M 200 80.8L 200.8 81.6L 200 80.8z"/>
<path style="stroke:none; fill:#838492" d="M 248.8 80.8L 248.8 81.6L 251.2 81.6C 250.202 81.052 249.962 81.0008 248.8 80.8M 259.2 80.8L 259.2 81.6L 261.6 81.6C 260.602 81.052 260.362 81.0008 259.2 80.8z"/>
<path style="stroke:none; fill:#9696a8" d="M 310.134 81.0664C 309.778 81.4224 310.622 81.3776 310.666 81.3336C 311.022 80.9776 310.178 81.0224 310.134 81.0664z"/>
<path style="stroke:none; fill:#5b5d73" d="M 311.734 81.0664C 311.378 81.4224 312.222 81.3776 312.266 81.3336C 312.622 80.9776 311.778 81.0224 311.734 81.0664z"/>
<path style="stroke:none; fill:#696a7a" d="M 319.734 81.0664C 319.378 81.4224 320.222 81.3776 320.266 81.3336C 320.622 80.9776 319.778 81.0224 319.734 81.0664z"/>
<path style="stroke:none; fill:#c8c9d3" d="M 321.334 81.0664C 320.978 81.4224 321.822 81.3776 321.866 81.3336C 322.222 80.9776 321.378 81.0224 321.334 81.0664z"/>
<path style="stroke:none; fill:#9e9eaa" d="M 353.6 80.8L 354.4 81.6L 353.6 80.8z"/>
<path style="stroke:none; fill:#838492" d="M 358.4 80.8L 359.2 81.6L 358.4 80.8z"/>
<path style="stroke:none; fill:#c8c9d3" d="M 390.4 80.8L 391.2 81.6L 390.4 80.8z"/>
<path style="stroke:none; fill:#838492" d="M 391.2 80.8L 391.2 81.6L 393.6 81.6C 392.602 81.052 392.362 81.0008 391.2 80.8z"/>
<path style="stroke:none; fill:#9696a8" d="M 401.334 81.0664C 400.978 81.4224 401.822 81.3776 401.866 81.3336C 402.222 80.9776 401.378 81.0224 401.334 81.0664z"/>
<path style="stroke:none; fill:#c8c9d3" d="M 402.934 81.0664C 402.578 81.4224 403.422 81.3776 403.466 81.3336C 403.822 80.9776 402.978 81.0224 402.934 81.0664M 4 81.6L 4.8 82.4L 4 81.6z"/>
<path style="stroke:none; fill:#5b5d73" d="M 65.3334 81.8664C 64.9778 82.2224 65.8222 82.1776 65.8666 82.1336C 66.2222 81.7776 65.3778 81.8224 65.3334 81.8664z"/>
<path style="stroke:none; fill:#c8c9d3" d="M 88 81.6L 88.8 82.4L 88 81.6M 254.934 81.8664C 254.578 82.2224 255.422 82.1776 255.466 82.1336C 255.822 81.7776 254.978 81.8224 254.934 81.8664M 315.734 81.8664C 315.378 82.2224 316.222 82.1776 316.266 82.1336C 316.622 81.7776 315.778 81.8224 315.734 81.8664M 396.534 81.8664C 396.178 82.2224 397.022 82.1776 397.066 82.1336C 397.422 81.7776 396.578 81.8224 396.534 81.8664z"/>
<path style="stroke:none; fill:#9696a8" d="M 5.6 82.4L 6.4 83.2L 5.6 82.4z"/>
<path style="stroke:none; fill:#b6b7c2" d="M 86.4 82.4L 87.2 83.2L 86.4 82.4z"/>
<path style="stroke:none; fill:#838492" d="M 7.2 83.2L 8 84L 7.2 83.2z"/>
<path style="stroke:none; fill:#9e9eaa" d="M 84.8 83.2L 85.6 84L 84.8 83.2z"/>
<path style="stroke:none; fill:#c8c9d3" d="M 8 84L 8.8 84.8L 8 84z"/>
<path style="stroke:none; fill:#696a7a" d="M 8.8 84L 9.6 84.8L 8.8 84M 83.2 84L 84 84.8L 83.2 84z"/>
<path style="stroke:none; fill:#b6b7c2" d="M 9.6 84.8L 10.4 85.6L 9.6 84.8z"/>
<path style="stroke:none; fill:#c8c9d3" d="M 82.4 84.8L 83.2 85.6L 82.4 84.8z"/>
<path style="stroke:none; fill:#9e9eaa" d="M 11.2 85.6L 12 86.4L 11.2 85.6M 80.8 85.6L 81.6 86.4L 80.8 85.6z"/>
<path style="stroke:none; fill:#838492" d="M 12.8 86.4L 13.6 87.2L 12.8 86.4z"/>
<path style="stroke:none; fill:#9696a8" d="M 79.2 86.4L 80 87.2L 79.2 86.4z"/>
<path style="stroke:none; fill:#c8c9d3" d="M 13.6 87.2L 14.4 88L 13.6 87.2z"/>
<path style="stroke:none; fill:#696a7a" d="M 77.6 87.2L 78.4 88L 77.6 87.2z"/>
<path style="stroke:none; fill:#b6b7c2" d="M 15.2 88L 16 88.8L 15.2 88z"/>
<path style="stroke:none; fill:#c8c9d3" d="M 76.8 88L 77.6 88.8L 76.8 88z"/>
<path style="stroke:none; fill:#838492" d="M 16.8 88.8L 17.6 89.6L 16.8 88.8z"/>
<path style="stroke:none; fill:#9696a8" d="M 75.2 88.8L 76 89.6L 75.2 88.8z"/>
<path style="stroke:none; fill:#696a7a" d="M 18.4 89.6L 19.2 90.4L 18.4 89.6z"/>
<path style="stroke:none; fill:#838492" d="M 73.6 89.6L 74.4 90.4L 73.6 89.6z"/>
<path style="stroke:none; fill:#c8c9d3" d="M 19.2 90.4L 20 91.2L 19.2 90.4z"/>
<path style="stroke:none; fill:#696a7a" d="M 72 90.4L 72.8 91.2L 72 90.4z"/>
<path style="stroke:none; fill:#c8c9d3" d="M 72.8 90.4L 73.6 91.2L 72.8 90.4z"/>
<path style="stroke:none; fill:#9e9eaa" d="M 20.8 91.2L 21.6 92L 20.8 91.2z"/>
<path style="stroke:none; fill:#b6b7c2" d="M 71.2 91.2L 72 92L 71.2 91.2z"/>
<path style="stroke:none; fill:#838492" d="M 22.4 92L 23.2 92.8L 22.4 92z"/>
<path style="stroke:none; fill:#9e9eaa" d="M 69.6 92L 70.4 92.8L 69.6 92z"/>
<path style="stroke:none; fill:#696a7a" d="M 24 92.8L 24.8 93.6L 24 92.8z"/>
<path style="stroke:none; fill:#838492" d="M 68 92.8L 68.8 93.6L 68 92.8z"/>
<path style="stroke:none; fill:#c8c9d3" d="M 24.8 93.6L 25.6 94.4L 24.8 93.6M 67.2 93.6L 68 94.4L 67.2 93.6z"/>
<path style="stroke:none; fill:#9696a8" d="M 26.4 94.4L 27.2 95.2L 26.4 94.4z"/>
<path style="stroke:none; fill:#b6b7c2" d="M 65.6 94.4L 66.4 95.2L 65.6 94.4M 425.066 94.9336C 425.022 94.9776 424.978 95.8224 425.334 95.4664C 425.378 95.4224 425.422 94.5776 425.066 94.9336z"/>
<path style="stroke:none; fill:#838492" d="M 28 95.2L 28.8 96L 28 95.2z"/>
<path style="stroke:none; fill:#9696a8" d="M 64 95.2L 64.8 96L 64 95.2z"/>
<path style="stroke:none; fill:#c8c9d3" d="M 28.8 96L 29.6 96.8L 28.8 96z"/>
<path style="stroke:none; fill:#696a7a" d="M 29.6 96L 30.4 96.8L 29.6 96M 62.4 96L 63.2 96.8L 62.4 96M 413.6 96L 414.4 96.8L 413.6 96z"/>
<path style="stroke:none; fill:#b6b7c2" d="M 30.4 96.8L 31.2 97.6L 30.4 96.8z"/>
<path style="stroke:none; fill:#c8c9d3" d="M 61.6 96.8L 62.4 97.6L 61.6 96.8M 424 96.8L 424.8 97.6L 424 96.8z"/>
<path style="stroke:none; fill:#9e9eaa" d="M 32 97.6L 32.8 98.4L 32 97.6M 60 97.6L 60.8 98.4L 60 97.6z"/>
<path style="stroke:none; fill:#b6b7c2" d="M 423.2 97.6L 424 98.4L 423.2 97.6z"/>
<path style="stroke:none; fill:#838492" d="M 33.6 98.4L 34.4 99.2L 33.6 98.4M 58.4 98.4L 59.2 99.2L 58.4 98.4z"/>
<path style="stroke:none; fill:#696a7a" d="M 416 98.4L 416.8 99.2L 416 98.4z"/>
<path style="stroke:none; fill:#c8c9d3" d="M 422.4 98.4L 423.2 99.2L 422.4 98.4M 34.4 99.2L 35.2 100L 34.4 99.2z"/>
<path style="stroke:none; fill:#696a7a" d="M 35.2 99.2L 36 100L 35.2 99.2M 56.8 99.2L 57.6 100L 56.8 99.2z"/>
<path style="stroke:none; fill:#9696a8" d="M 417.6 99.2L 417.6 100L 420.8 100C 419.595 99.4536 418.948 99.3392 417.6 99.2z"/>
<path style="stroke:none; fill:#9e9eaa" d="M 36 100L 36.8 100.8L 36 100z"/>
<path style="stroke:none; fill:#b6b7c2" d="M 56 100L 56.8 100.8L 56 100z"/>
<path style="stroke:none; fill:#9696a8" d="M 37.6 100.8L 38.4 101.6L 37.6 100.8z"/>
<path style="stroke:none; fill:#9e9eaa" d="M 54.4 100.8L 55.2 101.6L 54.4 100.8z"/>
<path style="stroke:none; fill:#696a7a" d="M 39.2 101.6L 40 102.4L 39.2 101.6z"/>
<path style="stroke:none; fill:#838492" d="M 52.8 101.6L 53.6 102.4L 52.8 101.6z"/>
<path style="stroke:none; fill:#c8c9d3" d="M 40 102.4L 40.8 103.2L 40 102.4z"/>
<path style="stroke:none; fill:#696a7a" d="M 51.2 102.4L 52 103.2L 51.2 102.4z"/>
<path style="stroke:none; fill:#c8c9d3" d="M 52 102.4L 52.8 103.2L 52 102.4z"/>
<path style="stroke:none; fill:#9e9eaa" d="M 41.6 103.2L 42.4 104L 41.6 103.2z"/>
<path style="stroke:none; fill:#b6b7c2" d="M 50.4 103.2L 51.2 104L 50.4 103.2z"/>
<path style="stroke:none; fill:#838492" d="M 43.2 104L 44 104.8L 43.2 104z"/>
<path style="stroke:none; fill:#9696a8" d="M 48.8 104L 49.6 104.8L 48.8 104z"/>
<path style="stroke:none; fill:#9e9eaa" d="M 44.8 104.8L 44.8 105.6L 47.2 105.6C 46.2013 105.052 45.9613 105.001 44.8 104.8z"/>
</g>
</svg>