<svg xmlns="http://www.w3.org/2000/svg" xmlns:xlink="http://www.w3.org/1999/xlink" version="1.1" id="layer" x="0px" y="0px" style="enable-background:new 0 0 652 652;" xml:space="preserve" viewBox="25.4 253.2 599.9 147.7">
<style type="text/css">
	.st0{fill:#5678BB;}
	.st1{fill:#F16141;}
	.st2{fill:#373853;}
	.st3{fill:#5EC9E3;}
</style>
<polygon class="st0" points="90.2,335.3 48.4,359.4 65.4,369.3 90.2,383.6 114.9,369.3 131.9,359.4 "/>
<polygon class="st1" points="40.7,306.7 40.7,346.1 74.7,326.4 "/>
<path class="st2" d="M155.1,358.7c0-0.1,0-0.3,0-0.4c0-0.1,0-0.2-0.1-0.3c0-0.1-0.1-0.3-0.1-0.4c0-0.1-0.1-0.2-0.1-0.3  c0-0.1-0.1-0.3-0.1-0.4c0-0.1-0.1-0.2-0.1-0.3c0-0.1-0.1-0.2-0.1-0.3c-0.1-0.1-0.1-0.3-0.2-0.4c0-0.1-0.1-0.1-0.1-0.2c0,0,0,0,0-0.1  c-0.1-0.1-0.2-0.3-0.3-0.4c0-0.1-0.1-0.1-0.1-0.2c-0.1-0.1-0.2-0.2-0.3-0.4c-0.1-0.1-0.1-0.2-0.2-0.2c-0.1-0.1-0.2-0.2-0.3-0.3  c-0.1-0.1-0.2-0.2-0.3-0.3c-0.1-0.1-0.2-0.1-0.2-0.2c-0.1-0.1-0.2-0.2-0.4-0.3c-0.1-0.1-0.2-0.1-0.2-0.2c-0.1-0.1-0.3-0.2-0.4-0.3  c0,0,0,0-0.1,0l-45.6-26.3l45.6-26.3c0,0,0,0,0,0l0,0c0.2-0.1,0.5-0.3,0.7-0.5c0.1-0.1,0.1-0.1,0.2-0.2c0.2-0.1,0.3-0.3,0.5-0.4  c0.1-0.1,0.1-0.1,0.2-0.2c0.2-0.2,0.4-0.4,0.5-0.6c0,0,0.1-0.1,0.1-0.1c0.2-0.3,0.4-0.5,0.5-0.8c0,0,0,0,0,0c0-0.1,0.1-0.1,0.1-0.2  c0.1-0.1,0.1-0.3,0.2-0.4c0-0.1,0.1-0.2,0.1-0.3c0-0.1,0.1-0.2,0.1-0.3c0-0.1,0.1-0.3,0.1-0.4c0-0.1,0.1-0.2,0.1-0.3  c0-0.1,0.1-0.3,0.1-0.4c0-0.1,0-0.2,0.1-0.3c0-0.1,0-0.3,0-0.4c0-0.1,0-0.2,0-0.3c0-0.1,0-0.3,0-0.4c0-0.1,0-0.3,0-0.4  c0-0.1,0-0.2,0-0.3c0-0.1,0-0.3,0-0.4c0-0.1,0-0.2-0.1-0.3c0-0.1-0.1-0.3-0.1-0.4c0-0.1-0.1-0.2-0.1-0.3c0-0.1-0.1-0.3-0.1-0.4  c0-0.1-0.1-0.2-0.1-0.3c0-0.1-0.1-0.2-0.1-0.3c-0.1-0.1-0.1-0.3-0.2-0.4c0-0.1-0.1-0.1-0.1-0.2c0,0,0,0,0-0.1  c-0.1-0.1-0.2-0.3-0.3-0.4c0-0.1-0.1-0.2-0.1-0.2c-0.1-0.1-0.2-0.2-0.3-0.4c-0.1-0.1-0.1-0.2-0.2-0.2c-0.1-0.1-0.2-0.2-0.3-0.3  c-0.1-0.1-0.2-0.2-0.3-0.3c-0.1-0.1-0.2-0.1-0.2-0.2c-0.1-0.1-0.2-0.2-0.4-0.3c-0.1-0.1-0.1-0.1-0.2-0.2c-0.1-0.1-0.3-0.2-0.4-0.3  c0,0,0,0-0.1,0l-57.2-33c-0.1,0-0.1-0.1-0.2-0.1c-0.1-0.1-0.3-0.1-0.4-0.2c-0.1-0.1-0.2-0.1-0.3-0.1c-0.1,0-0.2-0.1-0.3-0.1  c-0.1,0-0.3-0.1-0.4-0.1c-0.1,0-0.2-0.1-0.3-0.1c-0.2,0-0.3-0.1-0.5-0.1c-0.1,0-0.2,0-0.3,0c-0.1,0-0.3,0-0.4-0.1  c-0.1,0-0.2,0-0.3,0c-0.1,0-0.3,0-0.4,0c-0.1,0-0.2,0-0.4,0c-0.1,0-0.2,0-0.4,0c-0.1,0-0.3,0-0.4,0c-0.1,0-0.2,0-0.3,0.1  c-0.1,0-0.3,0.1-0.4,0.1c-0.1,0-0.2,0.1-0.3,0.1c-0.1,0-0.3,0.1-0.4,0.1c-0.1,0-0.2,0.1-0.4,0.1c-0.1,0-0.2,0.1-0.3,0.1  c-0.1,0.1-0.3,0.1-0.4,0.2c-0.1,0-0.1,0.1-0.2,0.1l-57.2,33c0,0,0,0-0.1,0c-0.1,0-0.2,0.1-0.3,0.2c-0.1,0-0.2,0.1-0.2,0.2  c0,0-0.1,0.1-0.1,0.1c-0.1,0.1-0.2,0.1-0.2,0.2c-0.1,0.1-0.1,0.1-0.2,0.2c-0.1,0-0.1,0.1-0.2,0.1c-0.1,0.1-0.1,0.1-0.2,0.2  c-0.1,0.1-0.1,0.1-0.2,0.2c-0.1,0.1-0.1,0.1-0.2,0.2c0,0.1-0.1,0.1-0.1,0.2c-0.1,0.1-0.1,0.1-0.2,0.2c-0.1,0.1-0.1,0.1-0.2,0.2  c0,0-0.1,0.1-0.1,0.1c-0.1,0.1-0.1,0.2-0.2,0.2c-0.1,0.1-0.1,0.2-0.2,0.3c0,0,0,0,0,0.1c0,0,0,0,0,0.1c0,0.1-0.1,0.2-0.1,0.3  c0,0.1-0.1,0.2-0.1,0.3c0,0.1-0.1,0.1-0.1,0.2c0,0.1-0.1,0.2-0.1,0.3c0,0.1-0.1,0.2-0.1,0.2c0,0.1,0,0.1-0.1,0.2  c0,0.1,0,0.2-0.1,0.2c0,0.1,0,0.2-0.1,0.2c0,0.1,0,0.2-0.1,0.3c0,0.1,0,0.1,0,0.2c0,0.1,0,0.2,0,0.3c0,0.1,0,0.2,0,0.3  c0,0.1,0,0.1,0,0.2c0,0.1,0,0.2,0,0.3c0,0.1,0,0.2,0,0.3c0,0,0,0.1,0,0.1v66.1c0,0,0,0.1,0,0.1c0,0.1,0,0.2,0,0.3c0,0.1,0,0.2,0,0.3  c0,0.1,0,0.1,0,0.2c0,0.1,0,0.2,0,0.3c0,0.1,0,0.2,0,0.3c0,0.1,0,0.1,0,0.2c0,0.1,0,0.2,0.1,0.3c0,0.1,0,0.2,0.1,0.2  c0,0.1,0,0.2,0.1,0.2c0,0.1,0,0.1,0.1,0.2c0,0.1,0.1,0.2,0.1,0.2c0,0.1,0.1,0.2,0.1,0.3c0,0.1,0,0.1,0.1,0.2c0,0.1,0.1,0.2,0.1,0.3  c0,0.1,0.1,0.2,0.1,0.3c0,0,0,0,0,0.1c0,0,0,0,0,0.1c0.1,0.1,0.1,0.2,0.2,0.3c0.1,0.1,0.1,0.2,0.2,0.3c0.1,0.1,0.1,0.2,0.2,0.2  c0,0,0.1,0.1,0.1,0.1c0.1,0.1,0.1,0.2,0.2,0.2c0.1,0.1,0.2,0.2,0.3,0.3c0,0,0.1,0.1,0.1,0.1c0,0,0.1,0.1,0.1,0.1  c0.1,0.1,0.2,0.2,0.3,0.3c0.1,0.1,0.2,0.1,0.3,0.2c0.1,0,0.1,0.1,0.2,0.1c0,0,0.1,0.1,0.2,0.1c0.1,0.1,0.3,0.2,0.4,0.2  c0.1,0,0.1,0.1,0.2,0.1l0,0c0,0,0,0,0,0l28.5,16.5l28.6,16.5c0,0,0,0,0,0c0,0,0.1,0,0.1,0.1c0.3,0.1,0.5,0.3,0.8,0.4l0,0  c0.9,0.4,1.9,0.6,2.9,0.6h0h0c1,0,2-0.2,2.9-0.6c0,0,0,0,0,0c0.3-0.1,0.6-0.2,0.8-0.4c0,0,0.1,0,0.1,0c0,0,0,0,0,0l28.6-16.5  l28.5-16.5c0,0,0,0,0,0l0,0c0.2-0.1,0.5-0.3,0.7-0.5c0.1-0.1,0.1-0.1,0.2-0.2c0.2-0.1,0.3-0.3,0.5-0.4c0.1-0.1,0.1-0.1,0.2-0.2  c0.2-0.2,0.4-0.4,0.5-0.6c0,0,0.1-0.1,0.1-0.1c0.2-0.3,0.4-0.5,0.5-0.8c0,0,0,0,0-0.1c0-0.1,0.1-0.1,0.1-0.2  c0.1-0.1,0.1-0.3,0.2-0.4c0-0.1,0.1-0.2,0.1-0.3c0-0.1,0.1-0.2,0.1-0.4c0-0.1,0.1-0.3,0.1-0.4c0-0.1,0.1-0.2,0.1-0.3  c0-0.1,0.1-0.3,0.1-0.4c0-0.1,0-0.2,0.1-0.3c0-0.1,0-0.3,0-0.4c0-0.1,0-0.2,0-0.3c0-0.1,0-0.3,0-0.4s0-0.3,0-0.4  C155.1,358.9,155.1,358.8,155.1,358.7 M65.4,283.5l24.7-14.3l24.8,14.3l17,9.8l-41.8,24.1l-41.8-24.1L65.4,283.5z M40.7,306.7  l34,19.7l-34,19.7V306.7z M114.9,369.3l-24.8,14.3l-24.7-14.3l-17-9.8l41.8-24.1l41.8,24.1L114.9,369.3z"/>
<polygon class="st3" points="114.9,283.5 90.1,269.2 65.4,283.5 48.4,293.4 90.1,317.5 131.9,293.4 "/>
<path class="st2" d="M229.7,302.6c4.2,0,8.2,1.1,11.7,3.1c3.3,1.9,7.5,1.3,10.2-1.4c3.9-3.9,3.2-10.5-1.6-13.3  c-6.1-3.5-13-5.4-20.3-5.4c-22.4,0-40.5,18.2-40.5,40.7c0,22.4,18.2,40.7,40.5,40.7c7.2,0,14.2-1.9,20.3-5.4  c4.8-2.8,5.5-9.4,1.6-13.2c-2.7-2.7-6.9-3.3-10.2-1.4c-3.5,2-7.6,3.1-11.7,3.1c-13,0-23.6-10.7-23.6-23.8  C206.1,313.3,216.7,302.6,229.7,302.6 M327.4,285.7c-4.7,0-8.5,3.8-8.5,8.5V326c0,13.3-8.5,24.1-18.9,24.1  c-10.4,0-18.9-10.8-18.9-24.1v-31.8c0-4.7-3.8-8.5-8.5-8.5s-8.5,3.8-8.5,8.5V326c0,22.6,16.1,41,35.8,41c19.8,0,35.8-18.4,35.8-41  v-31.8C335.9,289.5,332.1,285.7,327.4,285.7 M471,285.7c-8.5,0-16.5,2.8-22.9,7.4v-24.4c0-4.7-3.8-8.5-8.5-8.5s-8.5,3.8-8.5,8.5  v57.6c0,22.4,17.9,40.7,39.9,40.7c22,0,39.9-18.2,39.9-40.7C510.8,304,492.9,285.7,471,285.7 M471,350.2  c-12.7,0-22.9-10.7-22.9-23.8c0-13.1,10.3-23.8,22.9-23.8c12.7,0,23,10.7,23,23.8C493.9,339.5,483.6,350.2,471,350.2 M528.1,285.7  c-4.7,0-8.5,3.8-8.5,8.5v64.4c0,4.7,3.8,8.5,8.5,8.5c4.7,0,8.5-3.8,8.5-8.5v-64.4C536.6,289.5,532.8,285.7,528.1,285.7 M383.5,285.7  c-22,0-39.9,18.2-39.9,40.7c0,22.4,18.6,40.7,41.5,40.7c7.4,0,14.6-1.9,20.8-5.5c4.8-2.7,5.6-9.3,1.8-13.2  c-2.7-2.7-6.8-3.4-10.1-1.5c-3.7,2.1-8,3.3-12.4,3.3c-10.5,0-19.4-6.4-23-15.3h52.8c4.7,0,8.5-3.8,8.5-8.5  C423.4,304,405.5,285.7,383.5,285.7 M362,317.9c3.3-8.9,11.7-15.3,21.5-15.3c9.8,0,18.2,6.4,21.5,15.3H362z M528.1,260.4  c-4.7,0-8.5,3.8-8.5,8.5c0,4.7,3.8,8.5,8.5,8.5c4.7,0,8.5-3.8,8.5-8.5C536.6,264.1,532.8,260.4,528.1,260.4 M585.3,285.7  c-22,0-39.9,18.2-39.9,40.7c0,22.4,17.9,40.7,39.9,40.7c8.5,0,16.5-2.8,23-7.5V384c0,4.7,3.8,8.5,8.5,8.5c4.7,0,8.5-3.8,8.5-8.5  v-57.6C625.2,304,607.3,285.7,585.3,285.7 M585.3,350.2c-12.7,0-23-10.7-23-23.8c0-13.1,10.3-23.8,23-23.8c12.7,0,23,10.7,23,23.8  C608.3,339.5,598,350.2,585.3,350.2"/>
</svg>