<?xml version="1.0" encoding="UTF-8" standalone="no"?>
<!-- Created with Inkscape (http://www.inkscape.org/) -->

<svg
   xmlns:dc="http://purl.org/dc/elements/1.1/"
   xmlns:cc="http://creativecommons.org/ns#"
   xmlns:rdf="http://www.w3.org/1999/02/22-rdf-syntax-ns#"
   xmlns:svg="http://www.w3.org/2000/svg"
   xmlns="http://www.w3.org/2000/svg"
   xmlns:sodipodi="http://sodipodi.sourceforge.net/DTD/sodipodi-0.dtd"
   xmlns:inkscape="http://www.inkscape.org/namespaces/inkscape"
   width="146.56346mm"
   height="41.817268mm"
   viewBox="0 0 146.56346 41.817268"
   version="1.1"
   id="svg11521"
   inkscape:version="0.92.0 r15299"
   sodipodi:docname="maxar.svg">
  <defs
     id="defs11515">
    <linearGradient
       gradientUnits="userSpaceOnUse"
       gradientTransform="matrix(-0.26458333,0,0,0.26458333,-468.22499,154.88302)"
       y2="46.669998"
       y1="-17"
       x2="-2225.3301"
       x1="-2286.6599"
       id="a">
      <stop
         id="stop11330"
         stop-color="gray"
         offset=".27" />
      <stop
         id="stop11332"
         stop-opacity=".97"
         stop-color="#848484"
         offset=".37" />
      <stop
         id="stop11334"
         stop-opacity=".88"
         stop-color="#8f8f8f"
         offset=".47" />
      <stop
         id="stop11336"
         stop-opacity=".73"
         stop-color="#a2a2a2"
         offset=".56" />
      <stop
         id="stop11338"
         stop-opacity=".52"
         stop-color="#bdbdbd"
         offset=".65" />
      <stop
         id="stop11340"
         stop-opacity=".25"
         stop-color="#dfdfdf"
         offset=".74" />
      <stop
         id="stop11342"
         stop-opacity="0"
         stop-color="#fff"
         offset=".81" />
    </linearGradient>
  </defs>
  <sodipodi:namedview
     id="base"
     pagecolor="#ffffff"
     bordercolor="#666666"
     borderopacity="1.0"
     inkscape:pageopacity="0.0"
     inkscape:pageshadow="2"
     inkscape:zoom="1.6304314"
     inkscape:cx="275.08057"
     inkscape:cy="77.134998"
     inkscape:document-units="mm"
     inkscape:current-layer="layer1"
     showgrid="false"
     fit-margin-top="0"
     fit-margin-left="0"
     fit-margin-right="0"
     fit-margin-bottom="0"
     inkscape:window-width="1280"
     inkscape:window-height="744"
     inkscape:window-x="-4"
     inkscape:window-y="-4"
     inkscape:window-maximized="1" />
  <metadata
     id="metadata11518">
    <rdf:RDF>
      <cc:Work
         rdf:about="">
        <dc:format>image/svg+xml</dc:format>
        <dc:type
           rdf:resource="http://purl.org/dc/dcmitype/StillImage" />
        <dc:title></dc:title>
      </cc:Work>
    </rdf:RDF>
  </metadata>
  <g
     inkscape:label="Layer 1"
     inkscape:groupmode="layer"
     id="layer1"
     transform="translate(-43.634932,-153.88303)">
    <g
       id="g11600"
       transform="translate(0.49999665,-0.50000407)">
      <path
         style="fill:#000000;stroke-width:0.26458332"
         inkscape:connector-curvature="0"
         d="m 126.77001,181.30168 h 5.7785 v -5.80496 l -20.49198,-20.4814 h -5.79173 v 5.78908 l 7.34748,7.34748 -7.34748,7.34484 v 5.80496 h 5.77585 l 7.366,-7.36071 z"
         id="path11347" />
      <path
         style="fill:url(#a);stroke-width:0.26458332"
         inkscape:connector-curvature="0"
         d="m 132.6808,161.85745 -5.38956,5.38956 -6.97442,-6.97442 5.38956,-5.38956"
         id="path11349" />
      <path
         style="fill:#000000;stroke-width:0.26458332"
         inkscape:connector-curvature="0"
         d="m 125.70638,154.88303 h 6.97707 v 6.97706 h -6.97707 z"
         id="path11351" />
      <path
         style="fill:#000000;stroke-width:0.26458332"
         inkscape:connector-curvature="0"
         d="m 154.82113,176.02853 2.54529,5.27315 h 5.49805 v -5.82084 l -9.12019,-19.84375 -0.26458,-0.62441 h -7.40834 l -0.26458,0.61912 -9.22073,19.84375 v 5.82083 h 5.3975 l 2.52677,-5.27314 z m -5.08793,-13.73717 3.32052,7.88723 h -6.65427 z"
         id="path11353" />
      <path
         style="fill:#000000;stroke-width:0.26458332"
         inkscape:connector-curvature="0"
         d="m 94.189221,176.02853 2.545292,5.27315 h 5.500687 v -5.82084 l -9.122838,-19.8411 -0.264581,-0.62442 h -7.408328 l -0.264591,0.61913 -9.220729,19.84375 v 5.82083 h 5.400148 l 2.645831,-5.27315 z m -5.098518,-13.73717 3.323159,7.88723 h -6.646331 z"
         id="path11355" />
      <path
         style="fill:#000000;stroke-width:0.26458332"
         inkscape:connector-curvature="0"
         d="m 176.27619,171.6629 0.0714,0.0847 7.874,9.48002 h 4.86304 v -4.85246 l -4.86833,-5.6171 0.62177,-0.30163 a 7.8713542,7.8713542 0 0 0 2.667,-2.11666 c 1.12183,-1.37054 1.69333,-3.09827 1.69333,-5.13027 0,-2.62996 -0.87312,-4.68313 -2.59556,-6.10129 -1.6801,-1.39171 -3.91054,-2.09286 -6.64369,-2.09286 h -12.76349 v 26.28636 h 6.5352 v -9.81869 h 2.39448 z m -2.54529,-6.10129 v -4.72546 h 6.59607 a 2.3627291,2.3627291 0 0 1 0,4.72282 h -6.59607 z"
         id="path11357" />
      <path
         style="fill:#000000;stroke-width:0.26458332"
         inkscape:connector-curvature="0"
         d="m 65.082402,181.30168 h 6.524629 l -0.003,-26.28636 h -7.008809 l -0.45773,0.69321 -6.51669,10.58862 -6.52462,-10.59656 -0.44979,-0.68527 h -7.01146 l 0.003,26.28636 h 6.52462 v -13.6578 l 4.84717,8.38465 h 5.22816 l 4.84452,-8.38465 z"
         id="path11359" />
      <path
         id="path11361"
         d="m 81.420432,190.56209 h -1.717151 l -0.0926,0.09 v 4.8551 l -0.09,0.09 h -1.465789 l -0.0926,-0.09 v -4.8551 l -0.09,-0.09 h -1.83091 l -0.0926,-0.0926 v -1.19063 l 0.0926,-0.09 h 5.378982 l 0.0926,0.09 v 1.19063 z"
         inkscape:connector-curvature="0"
         style="fill:#000000;stroke-width:0.26458332" />
      <path
         id="path11363"
         d="m 88.349862,195.59711 h -4.661958 l -0.0926,-0.09 v -6.22829 l 0.0926,-0.09 h 4.661958 l 0.0926,0.09 v 1.19063 l -0.0926,0.0926 h -3.013599 l -0.0926,0.09 v 0.91546 l 0.0926,0.0926 h 2.838979 l 0.09,0.0926 v 1.19062 l -0.09,0.09 h -2.838979 l -0.0926,0.0926 v 1.00807 l 0.0926,0.09 h 3.013599 l 0.0926,0.0926 v 1.19062 z"
         inkscape:connector-curvature="0"
         style="fill:#000000;stroke-width:0.26458332" />
      <path
         id="path11365"
         d="m 90.294552,192.39301 c 0,-2.19869 1.463151,-3.29671 3.204102,-3.29671 1.648359,0 2.645838,0.82285 2.931588,2.01348 l -0.0926,0.0926 h -1.52929 l -0.11906,-0.0926 c -0.18256,-0.36513 -0.457729,-0.64029 -1.19063,-0.64029 -0.8255,0 -1.55575,0.45773 -1.55575,1.92352 0,1.46579 0.73025,1.92352 1.55575,1.92352 0.732901,0 1.00807,-0.26458 1.19063,-0.7329 l 0.11906,-0.0926 h 1.529291 l 0.0926,0.0926 c -0.264588,1.28059 -1.283229,2.11667 -2.931588,2.11667 -1.740951,-0.0106 -3.204102,-1.1086 -3.204103,-3.30729 z"
         inkscape:connector-curvature="0"
         style="fill:#000000;stroke-width:0.26458332" />
      <path
         id="path11367"
         d="m 104.11109,195.59711 h -1.47373 l -0.09,-0.09 v -2.38125 l -0.0926,-0.0926 h -2.11667 l -0.0926,0.0926 v 2.38125 l -0.09,0.09 h -1.465788 l -0.0926,-0.09 v -6.22829 l 0.0926,-0.09 h 1.465788 l 0.09,0.09 v 2.28865 l 0.0926,0.0926 h 2.11667 l 0.0926,-0.0926 v -2.28865 l 0.09,-0.09 h 1.46579 l 0.0926,0.09 v 6.22829 z"
         inkscape:connector-curvature="0"
         style="fill:#000000;stroke-width:0.26458332" />
      <path
         id="path11369"
         d="m 107.04268,189.1889 h 1.55575 l 0.18256,0.09 2.19868,3.47927 h 0.0926 v -3.47927 l 0.09,-0.09 h 1.46579 l 0.0926,0.09 v 6.22829 l -0.0926,0.09 h -1.55575 l -0.18521,-0.09 -2.19604,-3.47927 h -0.0926 v 3.47927 l -0.09,0.09 h -1.46579 l -0.0926,-0.09 v -6.22829 z"
         inkscape:connector-curvature="0"
         style="fill:#000000;stroke-width:0.26458332" />
      <path
         id="path11371"
         d="m 117.99907,189.0963 c 1.92088,0 3.2041,1.19063 3.2041,3.29671 0,2.10608 -1.28322,3.29671 -3.2041,3.29671 -1.92087,0 -3.20675,-1.19063 -3.20675,-3.29671 0,-2.10608 1.28323,-3.29671 3.20675,-3.29671 z m 0,5.22023 c 1.00542,0 1.55575,-0.64029 1.55575,-1.92352 0,-1.28323 -0.55033,-1.92352 -1.55575,-1.92352 -1.00542,0 -1.5584,0.64029 -1.5584,1.92352 0,1.28323 0.55034,1.91294 1.5584,1.91294 z"
         inkscape:connector-curvature="0"
         style="fill:#000000;stroke-width:0.26458332" />
      <path
         id="path11373"
         d="m 127.68282,195.59711 h -4.30477 l -0.09,-0.09 v -6.22829 l 0.09,-0.09 h 1.46579 l 0.0926,0.09 v 4.85511 l 0.09,0.09 h 2.64584 l 0.0926,0.0926 v 1.19062 z"
         inkscape:connector-curvature="0"
         style="fill:#000000;stroke-width:0.26458332" />
      <path
         id="path11375"
         d="m 132.35536,189.0963 c 1.92088,0 3.20411,1.19063 3.20411,3.29671 0,2.10608 -1.28323,3.29671 -3.20411,3.29671 -1.92087,0 -3.20675,-1.19063 -3.20675,-3.29671 0,-2.10608 1.28323,-3.29671 3.20675,-3.29671 z m 0,5.22023 c 1.00542,0 1.55575,-0.64029 1.55575,-1.92352 0,-1.28323 -0.55033,-1.92352 -1.55575,-1.92352 -1.00541,0 -1.55839,0.64029 -1.55839,1.92352 0,1.28323 0.55033,1.91294 1.55839,1.91294 z"
         inkscape:connector-curvature="0"
         style="fill:#000000;stroke-width:0.26458332" />
      <path
         id="path11377"
         d="m 138.92497,192.39301 c 0,1.55575 0.73289,1.92352 1.64835,1.92352 0.91546,0 1.28323,-0.55033 1.28323,-1.00806 l -0.0926,-0.09 h -1.46315 l -0.0926,-0.0926 v -1.09802 l 0.0926,-0.0926 h 3.1115 l 0.0926,0.0926 v 3.47927 l -0.0926,0.09 h -1.19063 l -0.0899,-0.09 -0.0926,-0.36777 h -0.09 a 2.0955,2.0955 0 0 1 -1.55839,0.55034 c -1.83092,0 -3.11415,-1.19063 -3.11415,-3.29671 0,-2.10608 1.28323,-3.29671 3.29671,-3.29671 1.64835,0 2.64583,0.82285 2.93158,2.01348 l -0.0926,0.0926 h -1.52929 l -0.11906,-0.0926 c -0.18257,-0.36513 -0.45773,-0.64029 -1.19063,-0.64029 -1.00542,0 -1.64835,0.45773 -1.64835,1.92352 z"
         inkscape:connector-curvature="0"
         style="fill:#000000;stroke-width:0.26458332" />
      <path
         id="path11379"
         d="m 147.57949,195.59711 h -1.46315 l -0.0926,-0.09 v -6.22829 l 0.0926,-0.09 h 1.46315 l 0.0926,0.09 v 6.22829 z"
         inkscape:connector-curvature="0"
         style="fill:#000000;stroke-width:0.26458332" />
      <path
         id="path11381"
         d="m 155.11482,195.59711 h -4.67254 l -0.09,-0.09 v -6.22829 l 0.09,-0.09 h 4.67254 l 0.09,0.09 v 1.19063 l -0.09,0.0926 h -3.02419 l -0.09,0.09 v 0.91546 l 0.09,0.0926 h 2.83898 l 0.0926,0.0926 v 1.19062 l -0.0926,0.09 h -2.83898 l -0.09,0.0926 v 1.00807 l 0.09,0.09 h 3.02419 l 0.09,0.0926 v 1.19062 z"
         inkscape:connector-curvature="0"
         style="fill:#000000;stroke-width:0.26458332" />
      <path
         id="path11383"
         d="m 160.30065,193.1259 -0.64293,-0.0926 c -1.92088,-0.26458 -2.28865,-1.19062 -2.28865,-2.11667 0,-1.00806 0.8255,-1.83091 2.64583,-1.83091 1.64836,0 2.64584,0.64029 2.64584,1.92352 l -0.0926,0.09 h -1.46579 l -0.09,-0.09 c 0,-0.36777 -0.26458,-0.64294 -1.00806,-0.64294 -0.74348,0 -1.09802,0.18521 -1.09802,0.55033 0,0.36513 0.36512,0.45773 1.00542,0.55034 l 0.64029,0.09 c 1.92352,0.26458 2.29129,1.10066 2.29129,2.11666 0,1.016 -0.7329,2.01348 -2.74902,2.01348 -1.83092,0 -2.83633,-0.73289 -2.83633,-2.11667 l 0.09,-0.0926 h 1.4658 l 0.0926,0.0926 c 0,0.55034 0.36512,0.82286 1.18798,0.82286 0.73289,0 1.19062,-0.18256 1.19062,-0.64029 0,-0.45773 -0.34395,-0.53446 -0.98425,-0.62707 z"
         inkscape:connector-curvature="0"
         style="fill:#000000;stroke-width:0.26458332" />
    </g>
  </g>
</svg>
