<svg id="Layer_1" data-name="Layer 1" xmlns="http://www.w3.org/2000/svg" viewBox="0 0 100 100"><defs><style>.cls-1{fill:#616a83;}.cls-2,.cls-3,.cls-4{fill:none;stroke:#fff;stroke-linecap:round;stroke-linejoin:round;stroke-width:2px;}.cls-2{stroke-dasharray:5.19 3.8 2.42 0;}.cls-3{stroke-dasharray:1.68 3.8 4.47 3.8;}</style></defs><title>DDPCommunications</title><circle class="cls-1" cx="50" cy="50" r="50"/><line class="cls-2" x1="44" y1="44" x2="44.02" y2="63"/><line class="cls-3" x1="50" y1="48" x2="50.02" y2="60"/><line class="cls-3" x1="65" y1="36" x2="65.02" y2="49"/><line class="cls-2" x1="71" y1="34" x2="71.02" y2="50"/><line class="cls-3" x1="32" y1="60" x2="31.98" y2="45"/><line class="cls-3" x1="38" y1="50" x2="38.01" y2="60"/><line class="cls-3" x1="26" y1="47" x2="26.02" y2="60"/><path class="cls-4" d="M54.52,37,23.39,37A4.4,4.4,0,0,0,19,41.46l0,23.13A4.4,4.4,0,0,0,23.43,69H26v9l12.81-9,15.74,0A4.43,4.43,0,0,0,59,64.56l0-23.15A4.43,4.43,0,0,0,54.52,37Z"/><path class="cls-4" d="M44.7,32.6A3.7,3.7,0,0,1,48.5,29l27,0A3.51,3.51,0,0,1,79,32.48l0,19A3.51,3.51,0,0,1,75.5,55H73v6L62,55"/></svg>