<svg id="Layer_1" data-name="Layer 1" xmlns="http://www.w3.org/2000/svg" viewBox="0 0 100 100"><defs><style>.cls-1{fill:#001e60;}.cls-2,.cls-3,.cls-4{fill:none;stroke:#fff;stroke-linecap:round;stroke-linejoin:round;stroke-width:2px;}.cls-2{stroke-dasharray:4.83 3.54 2.25 0;}.cls-3{stroke-dasharray:4.93 3.62 2.3 0;}</style></defs><title>DDPGoods</title><circle class="cls-1" cx="50" cy="50" r="50"/><line class="cls-2" x1="52" y1="45" x2="52" y2="25"/><line class="cls-3" x1="39" y1="45" x2="39" y2="24"/><line class="cls-3" x1="45" y1="16" x2="45" y2="45"/><line class="cls-2" x1="59" y1="46" x2="59" y2="32"/><polygon class="cls-4" points="52 77.83 24 69.36 24 40.31 52 48.88 52 77.83"/><polygon class="cls-4" points="77 69.24 52 78 52 49.11 77 40.34 77 69.24"/><polyline class="cls-4" points="76 62 60 67 60 60 75.85 54.85"/><polygon class="cls-4" points="77 40.32 51.9 48.99 24.23 40.23 49.02 31.24 77 40.32"/><polyline class="cls-4" points="42.12 18.12 45.09 15.03 48.16 18.02"/></svg>