<svg id="Layer_1" data-name="Layer 1" xmlns="http://www.w3.org/2000/svg" viewBox="0 0 100 100"><defs><style>.cls-1{fill:#e7a03c;}.cls-2,.cls-3,.cls-4{fill:none;stroke:#fff;stroke-linecap:round;stroke-linejoin:round;}.cls-2,.cls-3{stroke-width:2px;}.cls-2{stroke-dasharray:4.21 4.21 2.81 4.21;}.cls-4{stroke-width:1.9px;}</style></defs><title>DDPLegalFoundation</title><circle class="cls-1" cx="50" cy="50" r="50"/><line class="cls-2" x1="56" y1="74" x2="56" y2="52"/><line class="cls-2" x1="44" y1="76" x2="44" y2="53"/><line class="cls-2" x1="50" y1="37" x2="50" y2="68"/><line class="cls-3" x1="28" y1="33" x2="46" y2="33"/><line class="cls-3" x1="53" y1="33" x2="72" y2="33"/><polygon class="cls-3" points="74.77 48 62.86 48 68.82 33.09 74.77 48"/><circle class="cls-4" cx="50" cy="33" r="3"/><path class="cls-3" d="M59.8,48h0a9,9,0,1,0,18.06,0h-18Z"/><polygon class="cls-3" points="36.51 48 24.6 48 30.55 33.09 36.51 48"/><path class="cls-3" d="M21.54,48h0a9,9,0,1,0,18,0h-18Z"/></svg>