<?xml version="1.0" encoding="UTF-8"?>
<svg width="340px" height="756px" viewBox="0 0 340 756" version="1.1" xmlns="http://www.w3.org/2000/svg" xmlns:xlink="http://www.w3.org/1999/xlink">
    <!-- Generator: Sketch 55.2 (78181) - https://sketchapp.com -->
    <title>Group 85</title>
    <desc>Created with Sketch.</desc>
    <g id="Welcome" stroke="none" stroke-width="1" fill="none" fill-rule="evenodd" opacity="0.172321429">
        <g id="Homepage" transform="translate(0.000000, -407.000000)">
            <g id="header-background" transform="translate(-424.000000, 0.000000)">
                <g id="Group-85" transform="translate(0.000000, 402.000000)">
                    <polygon id="Fill-4" fill="#F7951D" points="449.5 5.97796633 429.23187 126 423.5 125.022034 443.76813 5"></polygon>
                    <polygon id="Fill-5" fill="#FEFEFE" points="476.5 12.3972919 447.183992 130 441.5 128.602708 470.816008 11"></polygon>
                    <polygon id="Fill-6" fill="#56C3C4" points="503.5 20.8144652 465.98558 136 460.5 134.184188 498.015756 19"></polygon>
                    <polygon id="Fill-7" fill="#F7951D" points="530.5 30.2159798 483.915028 142 478.5 139.78402 525.086327 28"></polygon>
                    <polygon id="Fill-8" fill="#FEFEFE" points="556.5 42.61795 501.726811 151 496.5 148.38205 551.274543 40"></polygon>
                    <polygon id="Fill-9" fill="#56C3C4" points="580.5 55.9943829 518.464303 160 513.5 157.005617 575.535697 53"></polygon>
                    <polygon id="Fill-10" fill="#F7951D" points="604.5 71.3732737 534.27776 171 529.5 167.626726 599.723594 68"></polygon>
                    <polygon id="Fill-11" fill="#FEFEFE" points="626.5 89.6819301 549.023474 183 544.5 179.31807 621.976526 86"></polygon>
                    <polygon id="Fill-12" fill="#56C3C4" points="647.5 108.026722 563.71636 196 559.5 191.973278 643.282291 104"></polygon>
                    <polygon id="Fill-13" fill="#F7951D" points="667.5 128.331986 577.413348 210 573.5 205.666661 663.588002 124"></polygon>
                    <polygon id="Fill-14" fill="#FEFEFE" points="685.5 150.585482 590.067204 225 586.5 220.413172 681.932796 146"></polygon>
                    <polygon id="Fill-15" fill="#56C3C4" points="701.5 172.83552 600.724305 240 597.5 235.16448 698.275695 168"></polygon>
                    <polygon id="Fill-16" fill="#F7951D" points="715.5 197.093951 610.348319 257 607.5 251.907404 712.650339 192"></polygon>
                    <polygon id="Fill-17" fill="#FEFEFE" points="728.5 222.279679 618.971706 274 616.5 268.720321 726.028294 217"></polygon>
                    <polygon id="Fill-18" fill="#56C3C4" points="739.5 248.467328 626.571322 292 624.5 286.532672 737.428678 243"></polygon>
                    <polygon id="Fill-19" fill="#F7951D" points="748.5 275.533977 632.170161 310 630.5 304.46736 746.831188 270"></polygon>
                    <polygon id="Fill-20" fill="#FEFEFE" points="755.5 302.745649 636.750844 329 635.5 323.254351 754.249156 297"></polygon>
                    <polygon id="Fill-21" fill="#56C3C4" points="760.5 330.794028 640.321423 348 639.5 342.205972 759.678577 325"></polygon>
                    <polygon id="Fill-22" fill="#F7951D" points="642.5 362.204207 642.893551 368 763.5 359.795793 763.107793 354"></polygon>
                    <polygon id="Fill-23" fill="#FEFEFE" points="642.5 385.980273 763.405949 388 763.5 382.019727 642.595394 380"></polygon>
                    <polygon id="Fill-24" fill="#56C3C4" points="641.5 406.692572 762.045896 416 762.5 410.306106 641.954104 401"></polygon>
                    <polygon id="Fill-25" fill="#F7951D" points="759.615596 444 639.5 425.721047 640.384404 420 760.5 438.280292"></polygon>
                    <polygon id="Fill-26" fill="#FEFEFE" points="753.19685 472 635.5 444.685464 636.801808 439 754.5 466.315886"></polygon>
                    <polygon id="Fill-27" fill="#56C3C4" points="745.767153 499 629.5 462.621167 631.2342 457 747.5 493.378833"></polygon>
                    <polygon id="Fill-28" fill="#F7951D" points="736.363255 526 623.5 481.422549 625.636745 476 738.5 520.576102"></polygon>
                    <polygon id="Fill-29" fill="#FEFEFE" points="724.961821 551 615.5 498.240883 618.039529 493 727.5 545.759117"></polygon>
                    <polygon id="Fill-30" fill="#56C3C4" points="711.582321 576 606.5 515.057264 609.417679 510 714.5 570.942736"></polygon>
                    <polygon id="Fill-31" fill="#F7951D" points="696.23397 600 596.5 531.80049 599.763348 527 699.5 595.19951"></polygon>
                    <polygon id="Fill-32" fill="#FEFEFE" points="678.857357 623 583.5 547.550273 587.142643 543 682.5 618.449727"></polygon>
                    <polygon id="Fill-33" fill="#56C3C4" points="660.550235 644 571.5 561.296514 575.449765 557 664.5 639.703486"></polygon>
                    <polygon id="Fill-34" fill="#F7951D" points="640.24772 664 557.5 574.990934 561.753627 571 644.5 660.009066"></polygon>
                    <polygon id="Fill-35" fill="#FEFEFE" points="618.940092 682 542.5 587.644233 547.059908 584 623.5 678.355767"></polygon>
                    <polygon id="Fill-36" fill="#56C3C4" points="596.683656 699 527.5 599.300877 532.31499 596 601.5 695.700469"></polygon>
                    <polygon id="Fill-37" fill="#F7951D" points="572.499837 714 511.5 608.952734 516.498821 606 577.5 711.047266"></polygon>
                    <polygon id="Fill-38" fill="#FEFEFE" points="547.234082 728 493.5 618.573732 498.765918 616 552.5 725.427622"></polygon>
                    <polygon id="Fill-39" fill="#56C3C4" points="521.044945 739 475.5 626.169072 480.955055 624 526.5 736.829577"></polygon>
                    <polygon id="Fill-40" fill="#F7951D" points="494.970716 748 458.5 632.750158 464.029284 631 500.5 746.248499"></polygon>
                    <polygon id="Fill-41" fill="#FEFEFE" points="467.757753 755 439.5 637.333969 445.243612 636 473.5 753.666031"></polygon>
                    <polygon id="Fill-42" fill="#56C3C4" points="439.697716 761 420.5 640.91463 426.300925 640 445.5 760.084019"></polygon>
                </g>
            </g>
        </g>
    </g>
</svg>