<svg xmlns="http://www.w3.org/2000/svg" viewBox="0 0 260 64"><path d="M25 0c2.1 0 3.9 1.6 4 3.7l14.7 2.2c.7-1.6 2.6-2.3 4.2-1.6 1.6.7 2.3 2.6 1.6 4.2-.4.9-1.1 1.5-2 1.8v30.5c1.7.5 2.7 2.3 2.2 3.9-.5 1.7-2.3 2.7-3.9 2.2-.4-.1-.7-.3-1-.5l-16 12c.9 2 0 4.4-2 5.3-2 .9-4.4 0-5.3-2-.5-1-.5-2.2 0-3.3l-16-12c-1.4 1.1-3.4.9-4.5-.5s-.9-3.4.5-4.5c.4-.3.8-.5 1.2-.6V10.3C.8 9.8-.2 8.1.3 6.4s2.2-2.7 3.9-2.2c.9.3 1.6.9 2 1.8L21 3.8c.1-2.1 1.9-3.8 4-3.8zM12.6 44.1l-6.1.1c0 .2-.1.5-.2.7l16 12c.1-.1.2-.2.3-.2l-5.1-9.6c-1.9.7-4.1-.3-4.8-2.2 0-.2 0-.5-.1-.8zm-8-3.2l9.2-14.4c-1.6-1.3-1.7-3.7-.4-5.3 0-.1.1-.1.1-.2L4.9 10c-.2.1-.4.2-.7.3v30.4c.2.1.3.1.4.2zM14.7 27L5.5 41.4c.5.5.9 1.1 1 1.8l6.1-.1c.3-2 2.1-3.5 4.2-3.2.9.1 1.6.5 2.2 1.1l11-6.4c-.2-.7-.2-1.4 0-2.1l-11-6.4c-1.1 1.3-2.8 1.6-4.3.9zm3.8 19.6l5.1 9.6c.7-.3 1.5-.3 2.2-.2L32 37c-.4-.2-.8-.4-1.1-.8l-11 6.4c.4 1.5-.2 3.1-1.4 4zm14.4-9.3l-6.2 19.1c.3.2.6.3.9.6l16-12c-.4-.9-.3-1.9.1-2.7l-7.6-6c-.8.8-2 1.2-3.2 1zm3.9-1.8l7.6 6c.4-.3.8-.6 1.3-.7V10.3h-.1l-10 20.2c1.7 1.1 2.2 3.3 1.2 5zm-2-5.4l10-20.2c-.3-.2-.5-.4-.7-.7l-6.9 3.4c.6 2-.4 4.1-2.4 4.7-1.4.5-2.9.1-3.9-1l-11 6.4c.2.7.2 1.4 0 2.1l11 6.4c1-1.2 2.5-1.6 3.9-1.1zm1.8-18.5l6.9-3.4c-.1-.2-.1-.3-.1-.5L28.7 5.5c-.2.4-.4.8-.7 1.2l3.5 3.9.2-.1c1.7-1 3.9-.5 4.9 1.1zm-5.9-.4l-3.5-3.9c-1 .7-2.3.9-3.4.5l-5.6 12.6c.3.2.5.4.7.6l11-6.4c-.3-1.1 0-2.4.8-3.4zm-13.4 8.9l5.6-12.6c-.8-.5-1.3-1.2-1.7-2L6.5 7.7c0 .6-.3 1.2-.8 1.7l8.7 11c.9-.5 1.9-.6 2.9-.3z" fill-rule="evenodd" clip-rule="evenodd" fill="#009de6"/><path d="M77.9 17.9c-1.5-3-4.6-3.8-7.6-3.8-3.6 0-7.5 1.7-7.5 5.6 0 4.4 3.6 5.4 7.6 5.8 2.6.3 4.5 1 4.5 2.9 0 2.1-2.2 2.9-4.5 2.9s-4.6-.9-5.4-3.1l-3 1.6c1.5 3.5 4.5 4.8 8.4 4.8 4.3 0 8.1-1.9 8.1-6.2 0-4.6-3.8-5.7-7.8-6.2-2.3-.3-4.3-.7-4.3-2.4 0-1.5 1.3-2.6 4-2.6 2.1 0 3.9 1.1 4.6 2.2l2.9-1.5zm18.8 16.2h4L92 14.7h-4l-8.7 19.4h4l1.7-3.6h10.1l1.6 3.6zM93.6 27h-7.2l3.6-8.3 3.6 8.3zm13.1 7.1v-7.2h9.7v-3.4h-9.7v-5.3h10.2v-3.5H103V34l3.7.1zm28.2-3.6H124v-4.4h10.5v-3.4H124v-4.5h10.9v-3.5h-14.5v19.4h14.5v-3.6zm25.5-13.3c-1.9-1.9-4.4-2.9-7.1-2.9-6.3 0-10.1 4.4-10.1 10.2 0 5.2 3.2 9.9 10.1 9.9 2.9.1 5.6-1.1 7.5-3.3v-7.7h-8.3v2.1h6v4.6c-1.5 1.3-3.3 2-5.3 2-5.3 0-7.7-3.6-7.7-7.6 0-4.3 2.7-8 7.7-8 2.1 0 4.2.8 5.7 2.3l1.5-1.6zM183 34.1h3l-6.4-7.2c4-.3 5.6-3.1 5.6-6 0-3.2-2.2-6.2-6.6-6.2h-8.8v19.4h2.4v-7h4.7l6.1 7zm-4.4-9.2h-6.3v-8.1h6.4c2.2-.1 4.1 1.6 4.1 3.8v.3c0 2.3-1.3 4-4.2 4zM201 14.7l-8.7 19.4h2.6l1.8-4.3h11.1l1.9 4.3h2.6l-8.7-19.4H201zm5.9 12.9h-9.2l4.6-10.5 4.6 10.5zm15.7.3h6.4c8.9 0 8.9-13.1 0-13.1h-8.8v19.4h2.4v-6.3zm6.5-2.3h-6.4V17h6.4c5.7 0 5.7 8.6 0 8.6zm28.4 8.5h2.4V14.7h-2.4v8.4h-11v-8.4H244v19.4h2.4v-8.8h11.1v8.8z" fill-rule="evenodd" clip-rule="evenodd"/></svg>