<svg xmlns="http://www.w3.org/2000/svg" xmlns:xlink="http://www.w3.org/1999/xlink" viewBox="0 0 305 65"><defs><style>.e15f44dc-8b14-4d02-b38e-7b0481b0c7ad,.f1ecc843-f8cb-442f-b838-ba8b52754af6{fill:none;}.eecbbd3e-9414-4f52-8768-fa0f6d4578e1{isolation:isolate;}.a4e068b4-e89c-4c0d-86ca-0c988731e544{clip-path:url(#ab334c46-b2c3-4e57-b6f9-ab721b5b701e);}.afd2e4f4-0a75-4f44-8dd5-e2067320e37f{opacity:0.52;}.f1ecc843-f8cb-442f-b838-ba8b52754af6{stroke:#fff;stroke-linecap:round;stroke-linejoin:round;stroke-width:24.85px;stroke-dasharray:27.85 63.13 74.26 63.12;mix-blend-mode:overlay;opacity:0.21;}.eacbab89-92a2-4204-8555-1f4db6ef039a{fill:#df6b00;}.f079c288-de88-4979-8e13-acd7149d1b5b{fill:#3eacad;}.b3de6a20-9b45-4456-9da8-09d25c69e7cb{fill:#dedfe0;opacity:0.3;}</style><clipPath id="ab334c46-b2c3-4e57-b6f9-ab721b5b701e"><rect class="e15f44dc-8b14-4d02-b38e-7b0481b0c7ad" x="-767" y="502" width="1168" height="361"/></clipPath></defs><g class="eecbbd3e-9414-4f52-8768-fa0f6d4578e1"><g id="f505fc0b-76e9-42fc-b864-9f7ecbb3bb53" data-name="Layer 1"><g class="a4e068b4-e89c-4c0d-86ca-0c988731e544"><g class="afd2e4f4-0a75-4f44-8dd5-e2067320e37f"><line class="f1ecc843-f8cb-442f-b838-ba8b52754af6" x1="22.17" y1="18.89" x2="22.17" y2="723.73"/></g></g><path class="eacbab89-92a2-4204-8555-1f4db6ef039a" d="M218.41-.32H201v12l.19,8.47v9.14a8.71,8.71,0,0,0,17.41,0V20.13l-.19-8.47Z"/><path class="eacbab89-92a2-4204-8555-1f4db6ef039a" d="M278.94-.32l.1,14.71v9.14a8.71,8.71,0,1,0,17.41,0V14.39l-.1-14.71Z"/><path class="f079c288-de88-4979-8e13-acd7149d1b5b" d="M45.48-.32V12.43a8.71,8.71,0,1,0,17.41,0V-.32Z"/><path class="b3de6a20-9b45-4456-9da8-09d25c69e7cb" d="M132.3,21.75a8.71,8.71,0,0,0-8.71,8.71V49.67a8.71,8.71,0,1,0,17.42,0V30.46A8.71,8.71,0,0,0,132.3,21.75Z"/><path class="b3de6a20-9b45-4456-9da8-09d25c69e7cb" d="M123.59-.32V5.53a8.71,8.71,0,1,0,17.42,0V-.32Z"/><path class="f079c288-de88-4979-8e13-acd7149d1b5b" d="M93,2.94a8.71,8.71,0,0,0-8.71,8.71v21a8.71,8.71,0,1,0,17.41,0v-21A8.7,8.7,0,0,0,93,2.94Z"/><path class="eacbab89-92a2-4204-8555-1f4db6ef039a" d="M248.84,23.94a8.71,8.71,0,0,0-8.71,8.71v15a8.71,8.71,0,1,0,17.42,0v-15A8.71,8.71,0,0,0,248.84,23.94Z"/><path class="f079c288-de88-4979-8e13-acd7149d1b5b" d="M54.18,27.94a8.7,8.7,0,0,0-8.7,8.71v6a8.71,8.71,0,1,0,17.41,0v-6A8.71,8.71,0,0,0,54.18,27.94Z"/><path class="f079c288-de88-4979-8e13-acd7149d1b5b" d="M6.46-.32V17.34a8.71,8.71,0,0,0,17.41,0V-.32Z"/><path class="b3de6a20-9b45-4456-9da8-09d25c69e7cb" d="M162.17-.32V20.61a8.71,8.71,0,1,0,17.41,0V-.32Z"/><path class="eacbab89-92a2-4204-8555-1f4db6ef039a" d="M240.16-.32l-.06,8.39a8.71,8.71,0,1,0,17.42,0l.06-8.39Z"/></g></g></svg>