<svg xmlns="http://www.w3.org/2000/svg" xmlns:xlink="http://www.w3.org/1999/xlink" version="1.1" id="layer" x="0px" y="0px" style="enable-background:new 0 0 652 652;" xml:space="preserve" viewBox="26.8 229.5 599.9 192.6">
<style type="text/css">
	.st0{fill:#EA5034;}
	.st1{fill:#00517F;}
</style>
<path class="st0" d="M57.7,291.3c-17,0-30.9-13.9-30.9-30.9s13.8-30.9,30.9-30.9c17,0,30.9,13.8,30.9,30.9S74.7,291.3,57.7,291.3   M57.7,245.3c-8.3,0-15.1,6.8-15.1,15.1c0,8.3,6.8,15.1,15.1,15.1c8.3,0,15.1-6.8,15.1-15.1C72.8,252.1,66,245.3,57.7,245.3"/>
<path class="st1" d="M117.5,373.9c0.7,0.4,1.1,0.4,3.7,0.4h5.3v16.4H82.1v-16.4h6.1c3.1,0,4.6-1.3,4.6-4.4v-48.4  c0-2.8-0.9-3.9-3.1-3.9H82v-16.4h34.6v68.1C116.6,372.8,116.7,373.7,117.5,373.9 M233.9,370.8v-35.1c0-11.4-0.7-15.5-3.7-20.8  c-5.9-10.7-16.6-16.6-30.2-16.6c-11.4,0-18.8,3.3-28.1,12.5v-9.9h-32.4v16.4h6.5c2.9,0,4.1,1.3,4.1,5.2v46.6c0,3.5-1.5,5.3-4.1,5.3  h-6.5v16.4h43.8v-16.4h-7.5c-2.2,0-2.8-1.1-2.8-5.5v-28.3c0-13.6,7.5-22.3,19.7-22.3c11.2,0,18,7.4,18,19.3v29.1  c0,6.1-0.7,7.7-3.1,7.7h-7v16.4h43.6v-16.4h-6.6C235.2,374.3,233.9,373,233.9,370.8 M479.9,301.2h32v16.9h-6.3c-3.3,0-4,1.1-4,5.3  v56.3c0,18.2-1.5,23.7-8.3,30.3c-8.7,8.1-19.5,12.1-33.5,12.1c-14.3,0-27-3.7-33.5-9.6c-4.6-4.2-7.4-9.4-9.4-17.7h23.7  c2.4,6.3,6.2,8.3,15.6,8.3c14.6,0,22.1-5.9,22.1-17.3v-12.9c-11,9.6-16.7,12-27.8,12c-22.6,0-38.6-17.7-38.6-42.7  c0-25.9,16-43.6,39.6-43.6c11.8,0,17.5,2.8,28.3,13.1V301.2z M457.1,366.7c13.4,0,21.9-8.8,21.9-22.8c0-16.2-8.8-26.5-22.8-26.5  c-13.1,0-20.4,9.4-20.4,25.8C435.7,358.3,443.5,366.7,457.1,366.7 M566.9,298.5c30.7,0,50.2,18.6,50.2,47.8c0,28.7-19,47.5-48,47.5  c-30.2,0-49.5-18.6-49.5-47.5C519.6,317.6,538.6,298.5,566.9,298.5 M568,374.8c15.1,0,25-11.4,25-28.5s-9.9-28.7-24.8-28.7  c-14.5,0-24.8,11.2-24.8,27C543.3,363.4,552.7,374.8,568,374.8 M392.9,369.3c0,3.4,1.6,5.1,4.6,5.1h5.3v16.2h-85.4l-0.4-9  c-9.4,9.2-14.9,11.8-25,11.8c-24.3,0-41-19.1-41-46.9c0-28.7,16.4-48.4,40.1-48.4c9.4,0,15.1,2.6,26.1,11.8v-23  c-0.5-1.8-0.9-2.2-3.9-2.2H307v-16.6h33.9v102.7c0,3.1,0.6,3.7,3.7,3.7l20.1,0c3.1,0,4.6-1.5,4.6-4.6v-48.4c0-2.8-0.9-3.9-3.1-3.9  h-7.7v-16.4h34.6V369.3 M295.6,374.8c13.8,0,22.8-11.2,22.8-28.3c0-16.8-9.8-29.4-22.6-29.4c-12.3,0-20.4,11.4-20.4,28.5  C275.4,362.9,283.6,374.8,295.6,374.8 M607.4,306.1h2.1v-9h3.5v-1.8h-9v1.8h3.5V306.1z M626,295.3h-3.1l-1.9,5.3  c-0.2,0.8-0.5,1.7-0.8,2.7h0c-0.3-1.1-0.5-1.9-0.7-2.7l-1.9-5.3h-3.2l-0.8,10.8h2.1l0.4-6.3c0-1,0.1-2,0.1-3h0.1  c0.2,1,0.6,2.2,0.8,3.1l1.9,6.1h2.2l1.9-6c0.3-1,0.6-2.3,0.9-3.2h0.1c0,1.2,0,2.2,0.1,3l0.4,6.3h2.1L626,295.3z"/>
</svg>