<?xml version="1.0" encoding="UTF-8" standalone="no"?>
<!-- Created with Inkscape (http://www.inkscape.org/) -->

<svg
   xmlns:dc="http://purl.org/dc/elements/1.1/"
   xmlns:cc="http://creativecommons.org/ns#"
   xmlns:rdf="http://www.w3.org/1999/02/22-rdf-syntax-ns#"
   xmlns:svg="http://www.w3.org/2000/svg"
   xmlns="http://www.w3.org/2000/svg"
   xmlns:sodipodi="http://sodipodi.sourceforge.net/DTD/sodipodi-0.dtd"
   xmlns:inkscape="http://www.inkscape.org/namespaces/inkscape"
   width="93.813103"
   height="32.787781"
   viewBox="0 0 24.821384 8.6751005"
   version="1.1"
   id="svg47105"
   inkscape:version="0.92.0 r15299"
   sodipodi:docname="ola.svg">
  <defs
     id="defs47099" />
  <sodipodi:namedview
     id="base"
     pagecolor="#ffffff"
     bordercolor="#666666"
     borderopacity="1.0"
     inkscape:pageopacity="0.0"
     inkscape:pageshadow="2"
     inkscape:zoom="8.641022"
     inkscape:cx="46.406548"
     inkscape:cy="15.893891"
     inkscape:document-units="mm"
     inkscape:current-layer="layer1"
     showgrid="false"
     fit-margin-top="0"
     fit-margin-left="0"
     fit-margin-right="0"
     fit-margin-bottom="0"
     units="px"
     inkscape:window-width="1280"
     inkscape:window-height="744"
     inkscape:window-x="-4"
     inkscape:window-y="-4"
     inkscape:window-maximized="1" />
  <metadata
     id="metadata47102">
    <rdf:RDF>
      <cc:Work
         rdf:about="">
        <dc:format>image/svg+xml</dc:format>
        <dc:type
           rdf:resource="http://purl.org/dc/dcmitype/StillImage" />
        <dc:title></dc:title>
      </cc:Work>
    </rdf:RDF>
  </metadata>
  <g
     inkscape:label="Layer 1"
     inkscape:groupmode="layer"
     id="layer1"
     transform="translate(215.62959,-260.02421)">
    <g
       id="g47208"
       transform="matrix(0.26458333,0,0,0.26458333,-215.51976,260.14821)"
       style="fill:none;fill-rule:evenodd;stroke:none;stroke-width:1">
      <path
         id="path47202"
         d="m 81.97,14.91 -5.919,10.197 -5.05,0.02 L 81.97,5.934 92.898,25.127 h -5.13 L 81.97,14.909 Z m -15.938,5.778 h 5.656 l -2.626,4.439 H 61.69 l 0.02,-5.405 V 6.052 h 4.343 l -0.02,14.636 z M 50.52,6.053 c 5.393,0.02 9.756,4.28 9.736,9.546 -0.02,5.247 -4.383,9.508 -9.777,9.508 -5.373,-0.02 -9.736,-4.28 -9.736,-9.547 0.02,-5.247 4.383,-9.507 9.777,-9.507 z M 50.5,20.669 c 2.888,0 5.21,-2.269 5.21,-5.07 0.021,-2.8 -2.322,-5.089 -5.19,-5.089 -2.869,-0.02 -5.212,2.269 -5.212,5.07 -0.02,2.8 2.323,5.089 5.191,5.089 z M 32.704,14.084 c -0.06,-0.79 -0.263,-1.835 -0.566,-2.84 A 14.404,14.404 0 0 0 28.967,5.661 C 28.199,4.833 27.331,4.063 26.037,3.156 A 49.385,49.385 0 0 1 23.129,1.598 C 22.503,1.243 21.755,0.808 20.766,0.493 A 17.068,17.068 0 0 0 17.19,0.04 C 16.02,0 14.847,0.1 13.716,0.316 12.524,0.513 11.534,0.828 10.221,1.144 7.251,2.426 4.949,4.359 2.969,6.924 c -6.908,9.645 -0.666,23.157 10.868,24.754 1.899,0.257 3.798,0.158 5.595,-0.256 l 1.273,-0.335 c 0.04,-0.02 0.101,-0.04 0.141,-0.04 l 1.455,-0.552 c 0.08,-0.04 0.141,-0.06 0.222,-0.099 l 0.606,-0.276 a 16.59,16.59 0 0 0 3.252,-2.11 18.578,18.578 0 0 1 -2.949,2.189 l 0.06,0.04 c 0.203,-0.06 0.384,-0.119 0.586,-0.158 0,0 0,0.315 -0.04,0.256 -0.323,0.237 0.182,0.02 0.828,-0.316 0.647,-0.335 1.273,-0.75 1.838,-1.223 0.829,-0.69 1.556,-1.44 2.586,-2.662 1.05,-1.835 2.364,-3.433 2.97,-5.583 0.202,-0.572 0.383,-1.242 0.505,-1.933 0.12,-0.69 0.202,-1.4 0.202,-2.13 -0.02,-0.73 -0.101,-1.48 -0.263,-2.406 z M 17.756,30.298 c 3.535,-0.553 6.504,-2.505 8.928,-5.168 0.667,-0.967 1.192,-1.855 1.838,-2.821 0.808,-1.973 0.748,-3.728 1.01,-4.97 0.324,-2.25 -0.444,-4.064 -1.09,-5.997 C 27.452,9.093 26.139,7.417 23.836,6.115 18.018,2.525 10.1,3.53 6.323,8.896 6.303,8.896 6.201,9.034 5.999,9.31 6.262,8.206 6.929,7.555 7.595,6.923 c 1.98,-1.617 4.283,-2.9 6.909,-3.53 2.97,-0.316 5.918,0 8.564,1.282 3.96,2.248 6.586,5.78 7.252,9.96 v 3.867 C 29.492,24.834 24.038,29.647 17.756,30.298 Z M 32.28,15.898 C 32.138,6.628 22.907,0.375 13.918,1.638 11.292,2.288 8.423,3.59 6.383,5.405 5.393,6.055 4.929,7.259 3.939,8.225 -0.021,14.005 0.667,21.402 5.595,25.9 a 19.107,19.107 0 0 0 2.02,1.736 C 3.495,25.169 1.636,21.44 0.99,16.905 0.99,15.287 1.313,13.689 1.656,12.072 3.96,4.99 11.211,-0.158 19.11,1.144 c 1.313,0.316 2.626,0.651 3.96,0.967 1.656,0.65 3.292,1.617 4.605,2.9 1.313,1.281 2.303,2.899 3.293,4.496 0.666,1.283 0.99,2.9 1.313,4.182 0.06,0.73 0.06,1.48 0,2.21 z"
         inkscape:connector-curvature="0"
         style="fill:#000000" />
      <path
         id="path47204"
         d="m 24.078,16.036 c 0,3.985 -3.353,7.22 -7.494,7.22 -4.14,0 -7.494,-3.235 -7.494,-7.22 0,-3.984 3.353,-7.219 7.494,-7.219 4.141,0 7.494,3.235 7.494,7.22 z"
         inkscape:connector-curvature="0"
         style="fill:#ffffff" />
      <path
         id="path47206"
         d="M 24.119,14.813 C 24.018,14.261 23.856,13.827 23.695,13.216 23.048,11.874 22.099,10.829 20.846,9.941 16.16,6.845 9.716,9.823 9.03,15.11 8.768,17.201 9.515,19.213 10.848,20.752 10.444,20.337 10,19.904 9.697,19.41 l -0.04,0.04 c 0.04,0.118 0.202,0.197 0.242,0.315 0,0 -0.162,0 -0.121,-0.02 -0.121,-0.137 -0.02,0.08 0.161,0.375 0.162,0.296 0.364,0.573 0.606,0.829 0.344,0.375 0.707,0.71 1.313,1.164 0.89,0.453 1.677,1.045 2.707,1.321 0.283,0.08 0.606,0.158 0.93,0.217 0.343,0.06 0.666,0.08 1.03,0.08 0.343,0 0.707,-0.04 1.151,-0.12 a 8.3,8.3 0 0 0 1.353,-0.275 7.012,7.012 0 0 0 2.667,-1.5 c 0.384,-0.354 0.93,-0.808 1.353,-1.4 0.344,-0.67 0.384,-1.006 0.546,-1.302 0.161,-0.296 0.363,-0.631 0.505,-1.085 a 9.289,9.289 0 0 0 0.202,-1.637 c -0.02,-0.552 -0.06,-1.085 -0.182,-1.598 z m -4.808,-3.668 c 0.687,0.394 0.788,0.453 0.424,0.197 0.526,0.118 0.849,0.414 1.172,0.71 0.788,0.888 1.434,1.933 1.757,3.136 0.182,1.361 0.04,2.722 -0.545,3.926 -1.05,1.834 -2.727,3.057 -4.727,3.392 -0.222,0 -0.464,0 -0.687,0.02 0.566,-0.099 0.93,-0.454 1.96,-0.829 1.11,-0.394 2.363,-2.228 2.97,-3.294 1.777,-2.9 -0.324,-5.582 -2.324,-7.258 z m -3.797,11.4 c -3.07,-0.315 -5.434,-2.82 -5.757,-5.72 0.282,1.618 1.252,2.86 2.565,3.965 0.465,0.296 1.151,0.71 1.616,1.006 0.788,0.296 1.252,0.612 2.02,0.75 h -0.444 z m 8.261,-5.266 c -0.14,0.612 -0.282,1.203 -0.424,1.815 -0.303,0.75 -0.747,1.519 -1.353,2.13 -0.606,0.612 -1.374,1.085 -2.141,1.539 -0.606,0.315 -1.374,0.473 -2,0.63 -0.364,0.04 -0.788,-0.118 -1.152,-0.137 4.485,-0.119 7.555,-4.28 6.889,-8.403 -0.324,-1.203 -0.97,-2.249 -1.758,-3.294 -0.323,-0.454 -0.95,-0.73 -1.414,-1.184 -2.808,-1.755 -6.524,-1.4 -8.645,0.908 a 9.594,9.594 0 0 0 -0.829,0.966 c 1.132,-1.657 2.95,-2.82 5.131,-3.156 0.768,-0.02 1.556,0.119 2.323,0.257 3.394,1.025 5.919,4.3 5.373,7.93 z"
         inkscape:connector-curvature="0"
         style="fill:#d7df23" />
    </g>
  </g>
</svg>
