<svg xmlns="http://www.w3.org/2000/svg" width="32" height="28"><path fill="#FFF" stroke="#333665" stroke-width="1.948" stroke-miterlimit="10" d="M28.31 6.24C23.98.46 15.28-.46 9.67 3.98 7.11 6 5.81 9.03 5.57 12.3c-.24 3.16-.57 5.08-3.16 5.08a.789.789 0 0 0-.63 1.27c3.56 4.73 10.12 5.37 15.61 5.19 6.43-.21 13.45-5.22 12.96-12.23-.13-2-.88-3.83-2.04-5.37z"/><path fill="#333665" d="M14.12 11.42c.88 0 1.6-.74 1.6-1.66 0-.91-.72-1.66-1.6-1.66s-1.6.74-1.6 1.66c0 .92.72 1.66 1.6 1.66zm7.05 0c.88 0 1.6-.74 1.6-1.66 0-.91-.72-1.66-1.6-1.66-.88 0-1.6.74-1.6 1.66-.01.92.71 1.66 1.6 1.66zm1.91 2.3a.883.883 0 0 0-.57-.41c-.5-.12-1 .19-1.11.69-.28 1.19-1.66 2.43-3.75 2.48-2.01.06-3.5-1.26-3.74-2.5a.92.92 0 0 0-1.67-.34c-.14.2-.19.45-.14.69.44 2.28 2.78 4 5.45 4h.16c1.35-.04 2.59-.44 3.6-1.18.98-.71 1.65-1.68 1.89-2.73.05-.24.01-.49-.12-.7z"/><circle fill="#333665" cx="9.81" cy="24.01" r="2.81"/><circle fill="#333665" cx="21.54" cy="24.01" r="2.81"/></svg>